<svg width="424" height="123" viewBox="0 0 424 123" fill="none" xmlns="http://www.w3.org/2000/svg">
<path d="M34.9495 118.612H23.0195C21.1929 118.518 19.4684 117.736 18.196 116.422C16.9236 115.109 16.1972 113.36 16.1621 111.532C16.0471 111.651 16.1621 76.1152 16.1621 76.1152C16.1621 76.1152 -1.48843 73.6438 6.37629 56.3272C7.63096 53.0525 27.2875 36.7658 27.2875 36.7658V22.2586C27.2875 22.2586 26.6149 16.862 30.657 16.747H36.959C36.959 16.747 40.109 16.7472 39.8873 20.5718C39.8999 21.2724 39.8873 24.4743 39.8873 24.4743L56.6694 7.68611C56.6694 7.68611 63.3359 0.519832 70.2617 7.68611C70.2617 8.17962 119.415 56.3272 119.415 56.3272C119.415 56.3272 129.595 67.9032 112.721 75.7763C111.941 75.1008 112.721 111.534 112.721 111.534C112.721 111.534 112.916 118.917 105.823 118.614C105.509 118.304 34.9495 118.612 34.9495 118.612Z" fill="white" stroke="#676767" stroke-width="8.36449"/>
<path d="M47.9883 48.3302C47.9465 48.3302 47.2858 49.6126 47.2858 49.6126H48.7235C48.7235 49.6126 48.342 51.634 46.6691 51.5587C46.1086 51.5952 45.5542 51.4129 45.1253 51.0503C44.6963 50.6876 44.4229 50.1714 44.3656 49.6126C44.3511 49.312 44.4046 49.0138 44.5167 48.7345C44.6289 48.4552 44.8007 48.2023 45.0191 47.9953C45.2375 47.7882 45.498 47.6309 45.7828 47.5337C46.0677 47.4366 46.3697 47.4012 46.6691 47.4316C46.7402 47.4337 47.8273 47.4812 47.9883 48.3302Z" fill="#FF9062"/>
<path d="M55.7679 44.6051C55.8014 44.6051 55.139 45.5179 55.139 45.5179H56.3806C56.3806 45.5179 56.5446 48.1845 54.5998 48.0277C54.1032 48.0557 53.6157 47.8863 53.2439 47.556C52.872 47.2257 52.6456 46.7618 52.6149 46.2654C52.6149 46.1922 52.4805 44.6481 53.8606 44.3825C54.5036 44.2354 55.1757 44.3146 55.7679 44.6051Z" fill="#FF9062"/>
<path d="M75.8497 72.4538C75.8978 72.4349 75.3106 73.291 75.3106 73.291H76.3153C76.3153 73.291 76.3632 74.8393 75.1023 74.8247C74.7456 74.8174 74.4051 74.6801 74.1425 74.4387C73.8799 74.1973 73.714 73.8684 73.6769 73.5136C73.6349 73.1955 73.7153 72.8735 73.9056 72.6151C74.0958 72.3566 74.3817 72.1815 74.6979 72.127C74.9023 72.0807 75.113 72.0864 75.3146 72.1434C75.5163 72.2003 75.6998 72.3073 75.8497 72.4538Z" fill="#FF9062"/>
<path d="M82.5166 69.3059C82.5516 69.2841 82.1404 70.1148 82.1404 70.1148L83.0391 69.9885C83.0391 69.9885 83.2773 71.3677 82.147 71.5139C81.8262 71.5545 81.5017 71.4759 81.2351 71.2931C80.9684 71.1102 80.7782 70.8358 80.7005 70.522C80.6219 70.2429 80.6546 69.9443 80.7915 69.6888C80.9285 69.4333 81.1591 69.2409 81.4349 69.1518C81.6134 69.0828 81.8065 69.0608 81.9959 69.0878C82.1853 69.1148 82.3646 69.1899 82.5166 69.3059Z" fill="#FF9062"/>
<path d="M79.1652 74.2662C79.3319 74.0155 79.5547 73.8058 79.8146 73.6536C80.0744 73.5014 80.3638 73.4109 80.6641 73.3881C80.8694 73.3526 81.0833 73.3893 81.2645 73.4923C81.4456 73.5953 81.5821 73.7571 81.6565 73.9517C81.6858 73.9727 81.8653 75.2159 81.0602 75.6487C81.0832 75.6529 78.862 75.7488 79.1652 74.2662Z" fill="#FF9062"/>
<path d="M58.4326 104.272C58.5601 104.272 57.6618 93.8157 61.2711 88.9622C62.5465 86.8837 64.4948 85.3057 66.793 84.49C66.8578 84.3604 70.1387 82.979 70.2809 81.145C70.4085 81.145 67.1855 77.1955 67.2545 73.9772C66.5729 72.3103 66.4124 70.4769 66.793 68.7167C68.6744 68.7721 70.4669 69.5326 71.8125 70.8487C72.7216 69.878 73.8291 69.1157 75.0594 68.6106C76.2898 68.1054 77.6105 67.8705 78.9395 67.9224C78.8617 66.3422 79.2236 64.7716 79.985 63.3848C81.6487 64.4594 83.0245 65.9262 83.9876 67.6569C84.9506 69.3876 85.4747 71.3292 85.511 73.3095C85.8944 75.3231 85.5465 77.4059 84.5348 79.1887C83.5232 80.9715 81.9103 82.3366 79.985 83.0401C79.1479 86.8876 78.9229 90.8435 79.3111 94.7618C79.3316 95.4105 79.4974 96.0466 79.7971 96.6222C80.0969 97.1978 80.5231 97.6977 81.0428 98.0864C81.1035 98.1157 82.6885 99.8482 81.0428 100.48C81.0763 100.509 73.6218 100.662 73.6218 100.662C73.6218 100.662 70.3578 100.33 70.3871 103.145C70.3578 103.055 69.8233 106.376 74.1854 106.526C74.2502 106.558 91.7639 106.526 91.7639 106.526C92.9172 106.441 94.021 106.024 94.9415 105.324C95.8619 104.624 96.5605 103.672 96.9509 102.583C97.0575 102.543 100.01 94.7639 100.01 94.7639C100.01 94.7639 107.184 93.2155 107.954 83.0422C107.864 83.0422 108.725 73.2338 102.824 67.9244C102.824 67.8261 98.2995 65.6901 100.006 69.795C100.092 69.8807 103.257 72.2791 102.824 83.0442C103.004 82.9543 101.122 87.8249 98.3028 83.7263C98.1271 83.5548 91.3718 66.8869 91.3718 66.9769C89.179 64.6587 86.3619 63.0252 83.2606 62.2739C79.5411 62.352 75.8535 61.5653 72.4905 59.9745C72.825 60.0581 63.8611 55.7914 60.4379 49.3779C60.6094 49.2922 57.794 44.7632 61.2548 45.6143C63.2456 46.8939 64.8068 48.7405 65.7392 50.9157C65.6535 50.9993 73.0014 58.5201 78.2982 53.1354C79.1812 52.2335 79.6787 51.022 79.6787 49.7598C79.6787 48.4976 79.1812 47.2862 78.2982 46.3842C77.3793 45.768 76.3469 45.3434 75.2596 45.1385C74.1723 44.9336 73.056 44.9521 71.9759 45.1916C67.5173 44.5387 63.3506 42.5728 60.0132 39.5452C59.0146 38.7795 57.8718 38.2258 56.6518 37.9176C55.4319 37.6095 54.1612 37.5546 52.9189 37.7542C52.9189 37.8379 49.7571 38.3507 52.9189 39.2164C54.3053 39.8996 55.5063 40.9108 56.415 42.1611C57.3236 43.4115 57.9128 44.8647 58.1344 46.3944C58.3059 46.5659 57.5334 51.3517 60.4338 53.9216C61.1322 54.3908 61.7339 54.9927 62.1982 55.6942C62.6626 56.3957 62.9827 57.1838 63.1417 58.01C63.3007 58.8361 63.292 59.6857 63.1213 60.5095C62.9505 61.3333 62.6195 62.1141 62.1451 62.8089C62.1451 62.8947 61.2926 65.8843 58.9799 65.8006C59.607 64.4692 59.9358 63.0186 59.9437 61.5469C59.9437 61.5469 62.1693 59.2733 60.1806 57.3871C60.1639 57.3306 55.6953 55.5041 54.1645 58.7349C54.198 58.7035 53.2694 61.4872 58.1793 62.1166C58.2048 63.4272 57.7278 64.6983 56.8479 65.6699C55.968 66.6415 54.7524 67.2403 53.4457 67.3444C53.475 67.403 44.2449 68.0182 42.2876 60.3563C42.2876 60.3563 40.6148 58.3337 39.7595 61.2508C39.8956 62.3319 39.8108 63.4299 39.5104 64.4773C39.2099 65.5247 38.7 66.4999 38.0114 67.3444C41.2611 70.6127 43.0857 75.0332 43.0881 79.642C43.0024 79.642 44.2977 89.6042 42.5286 96.371C42.4387 96.371 42.943 100.215 39.637 100.874C39.7394 100.874 35.6508 101.025 35.2995 103.555C35.2226 103.913 35.225 104.282 35.3118 104.638C35.3985 104.993 35.5647 105.324 35.7978 105.605C36.0308 105.887 36.3269 106.113 36.6596 106.265C36.9922 106.417 37.3518 106.49 37.7174 106.482C37.7697 106.431 46.2166 106.535 46.2166 106.535C46.6077 106.615 47.0101 106.614 47.4011 106.533C47.792 106.451 48.1649 106.292 48.4916 106.063C48.8183 105.833 49.0954 105.539 49.3043 105.199C49.5132 104.859 49.6477 104.479 49.7046 104.084C49.7527 103.952 51.7313 92.2716 50.211 86.9099C49.6832 84.6876 48.3729 82.7284 46.5189 81.3942C46.5189 81.3461 44.9507 78.3626 48.3404 79.0172C49.8387 79.4478 51.1999 80.255 52.2981 81.3615C53.3962 82.468 54.1947 83.838 54.6138 85.3395C55.8305 89.2798 56.2769 93.4177 55.9289 97.5269C55.9498 97.4223 55.0721 103.191 58.4326 104.272Z" fill="#FF9062"/>
<path d="M40.7412 41.546C41.6717 41.5837 43.0404 42.331 41.1332 49.6144C39.5512 53.2545 38.4394 57.0821 37.825 61.0033C37.863 61.6973 37.7398 62.3904 37.4656 63.0291C37.1914 63.6677 36.7738 64.2348 36.2444 64.6852C35.7151 65.1356 35.089 65.4562 34.4147 65.6246C33.7404 65.793 33.0393 65.8038 32.3603 65.6552C31.313 65.6833 30.2949 65.3046 29.5218 64.5974C28.7487 63.8902 28.28 62.9108 28.2148 61.8651C28.2397 56.7713 30.0904 51.8553 33.4304 48.0093C33.3656 47.955 38.4158 41.3892 40.7412 41.546Z" fill="#FF9062"/>
<path d="M18.8477 99.7343C19.0171 99.4611 19.2024 99.1979 19.4021 98.946C20.1361 98.1221 20.8928 97.3152 21.6351 96.4975C22.9803 95.1607 24.0334 93.5593 24.7279 91.7945C25.1962 90.7274 25.7743 89.7114 26.453 88.7641C27.0364 87.8 27.024 87.8109 26.0099 87.2233C24.8077 86.6062 23.6617 85.885 22.5847 85.0688C20.7504 83.3375 19.6445 80.9732 19.4919 78.4555C19.3727 77.5918 19.3349 76.7176 19.2617 75.8477L19.494 75.716C20.895 76.933 22.254 78.2018 23.7074 79.352C25.1607 80.5021 26.7543 81.5732 28.3603 82.7296C28.0898 80.4879 28.4382 78.2147 29.3681 76.1571C30.6275 78.3956 31.6708 80.7486 32.4839 83.185C33.0823 82.7843 33.704 82.4193 34.3452 82.0914C34.6975 81.9071 35.0972 81.8343 35.4919 81.8821C35.8866 81.9299 36.2573 82.0958 36.5553 82.359C36.8485 82.5546 37.2059 82.6297 37.5529 82.5683C38.6881 82.3144 39.8375 82.1284 40.9949 82.0118C40.0539 82.3527 39.098 82.6645 38.1717 83.0451C37.3354 83.3883 36.5842 83.9102 35.9703 84.5736C35.3563 85.2371 34.8944 86.026 34.6168 86.8863C34.4349 87.3903 34.2383 87.8883 34.0752 88.3985C33.7705 89.5327 33.1611 90.5621 32.3133 91.3749C31.4656 92.1877 30.4116 92.753 29.2655 93.0096C27.4727 93.5583 25.8874 94.6347 24.7157 96.0983L23.8161 97.0908C23.906 96.5805 23.9522 96.3151 24.0254 95.8635C22.3065 97.3272 20.7152 98.6704 19.1239 100.019L18.8477 99.7343Z" fill="#FF9062"/>
<path d="M145.312 9.22031H165.005C166.52 9.24059 168.01 9.60832 169.36 10.2952C170.825 11.0075 172.189 11.9103 173.417 12.9802C174.625 14.0256 175.636 15.2792 176.401 16.6814C177.108 17.8976 177.497 19.2717 177.535 20.6776V51.231C177.514 52.6585 177.124 54.0563 176.401 55.2877C175.625 56.6649 174.615 57.8967 173.417 58.9284C172.19 59.9987 170.825 60.9016 169.36 61.6134C168.01 62.3001 166.52 62.6679 165.005 62.6882H157.843V92.882H145.312V9.22031ZM157.843 48.2448C157.44 49.3669 156.856 50.4153 156.113 51.3481C155.407 52.2683 154.424 52.9376 153.309 53.2572C153.284 53.4197 153.298 53.5857 153.349 53.7419C153.4 53.898 153.487 54.0399 153.604 54.156C153.72 54.2721 153.862 54.3591 154.018 54.4101C154.175 54.461 154.341 54.4744 154.503 54.4492H159.156C159.847 54.4348 160.523 54.2502 161.126 53.9117C161.82 53.5404 162.462 53.0785 163.035 52.5379C163.613 52.006 164.097 51.3803 164.467 50.6872C164.806 50.0857 164.991 49.4098 165.005 48.7195V22.9443C164.99 22.2542 164.805 21.5783 164.467 20.9766C163.735 19.6077 162.614 18.4864 161.245 17.7542C160.603 17.4038 159.885 17.2191 159.154 17.2168H154.501C154.338 17.1914 154.172 17.2048 154.016 17.2559C153.859 17.3069 153.717 17.3942 153.601 17.5105C153.484 17.6269 153.397 17.7691 153.346 17.9255C153.295 18.0819 153.282 18.2482 153.307 18.4108C154.404 18.7991 155.374 19.4803 156.111 20.3806C156.861 21.2862 157.446 22.3159 157.84 23.4232L157.843 48.2448Z" fill="white"/>
<path d="M215.487 55.8808C215.467 57.3084 215.077 58.7063 214.354 59.9375C213.578 61.3152 212.568 62.5472 211.37 63.5782C210.142 64.6485 208.778 65.5514 207.313 66.2632C205.962 66.9494 204.472 67.3171 202.957 67.338H196.036V79.1508C196.049 79.8417 196.234 80.5185 196.573 81.1206C197.304 82.4902 198.426 83.6118 199.795 84.343C200.437 84.6929 201.156 84.8776 201.887 84.8804H206.297C206.459 84.9057 206.626 84.8923 206.782 84.8413C206.938 84.7902 207.081 84.703 207.197 84.5867C207.313 84.4703 207.401 84.3281 207.452 84.1717C207.503 84.0152 207.516 83.849 207.491 83.6864C206.393 83.3012 205.423 82.6211 204.687 81.7208C203.936 80.8162 203.35 79.7862 202.957 78.6782V74.496H215.487V92.8748H196.04C194.525 92.8544 193.035 92.4867 191.684 91.8C190.219 91.0883 188.855 90.1854 187.627 89.115C186.429 88.0845 185.419 86.8532 184.643 85.4764C183.921 84.245 183.53 82.8472 183.51 81.4196V38.8151C183.546 37.4084 183.936 36.0335 184.643 34.8169C185.408 33.4148 186.419 32.1617 187.627 31.1177C188.855 30.0477 190.219 29.1449 191.684 28.4327C193.032 27.7448 194.52 27.375 196.033 27.3516H215.481L215.487 55.8808ZM196.04 59.3416H197.115C197.845 59.3382 198.564 59.1535 199.206 58.8041C200.575 58.0719 201.696 56.9506 202.428 55.5817C202.767 54.9794 202.95 54.3027 202.963 53.6119V41.5587C203.365 40.436 203.949 39.3874 204.693 38.4554C205.399 37.5348 206.382 36.8655 207.497 36.5462C207.522 36.3836 207.509 36.2173 207.458 36.0609C207.407 35.9045 207.32 35.7623 207.203 35.646C207.087 35.5296 206.945 35.4423 206.788 35.3913C206.632 35.3402 206.466 35.3268 206.303 35.3522H201.882C201.191 35.3658 200.515 35.5505 199.913 35.8896C199.219 36.2606 198.578 36.7218 198.005 37.2614C197.427 37.7926 196.943 38.4175 196.573 39.1099C196.235 39.7124 196.05 40.389 196.036 41.0798L196.04 59.3416Z" fill="white"/>
<path d="M233.977 9.34305V27.3644H252.117V45.7433H239.596V41.561C239.99 40.4532 240.576 39.4233 241.327 38.5184C242.064 37.6173 243.034 36.9359 244.131 36.5486C244.157 36.386 244.143 36.2197 244.092 36.0633C244.041 35.9068 243.954 35.7647 243.837 35.6483C243.721 35.532 243.579 35.4447 243.422 35.3936C243.266 35.3426 243.1 35.3292 242.937 35.3545H233.987V79.1573C234.001 79.8482 234.186 80.5248 234.525 81.1271C234.895 81.82 235.379 82.4457 235.957 82.9778C236.53 83.5175 237.172 83.9788 237.866 84.3496C238.468 84.6884 239.144 84.873 239.834 84.887H242.937C243.1 84.9123 243.266 84.8989 243.422 84.8479C243.579 84.7968 243.721 84.7095 243.837 84.5932C243.954 84.4768 244.041 84.3347 244.092 84.1782C244.143 84.0218 244.157 83.8555 244.131 83.6929C243.015 83.3736 242.032 82.7034 241.327 81.7816C240.583 80.8504 239.998 79.8026 239.596 78.6805V74.4982H252.006V92.8792H233.985C232.47 92.8592 230.98 92.4914 229.629 91.8044C228.164 91.0933 226.8 90.1904 225.572 89.1194C224.373 88.0896 223.364 86.8583 222.588 85.4809C221.865 84.2497 221.475 82.8517 221.455 81.4241V9.34305H233.977Z" fill="white"/>
<path d="M270.61 41.8001V92.8799H258.08V9.2204H270.61V27.3609H277.772C279.287 27.3811 280.777 27.7489 282.128 28.4357C283.592 29.1485 284.956 30.0513 286.185 31.1207C287.393 32.1655 288.403 33.4184 289.169 34.8199C289.875 36.0368 290.265 37.4115 290.302 38.8181V92.882H277.772V41.3233C277.757 40.6332 277.573 39.9573 277.235 39.3555C276.864 38.6631 276.38 38.0376 275.802 37.5049C275.229 36.9655 274.587 36.5042 273.893 36.1331C273.291 35.794 272.614 35.6094 271.923 35.5957H267.271C267.108 35.5704 266.942 35.5838 266.785 35.6349C266.629 35.6859 266.487 35.7731 266.37 35.8895C266.254 36.0058 266.167 36.1481 266.116 36.3045C266.065 36.4609 266.051 36.6272 266.077 36.7897C267.191 37.1098 268.174 37.779 268.881 38.6989C269.623 39.6311 270.207 40.6787 270.61 41.8001Z" fill="white"/>
<path d="M296.281 38.8209C296.317 37.4141 296.707 36.039 297.415 34.8227C298.179 33.4203 299.19 32.1671 300.399 31.1235C301.626 30.0533 302.991 29.1504 304.455 28.4385C305.806 27.7518 307.296 27.3841 308.811 27.3636H315.973C317.488 27.384 318.979 27.7517 320.329 28.4385C321.794 29.1514 323.157 30.0541 324.386 31.1235C325.594 32.1682 326.604 33.4212 327.37 34.8227C328.076 36.0396 328.466 37.4143 328.503 38.8209V81.4275C328.482 82.855 328.092 84.2527 327.37 85.4843C326.593 86.8605 325.583 88.0916 324.386 89.1228C323.158 90.1927 321.794 91.0955 320.329 91.8079C318.979 92.4948 317.488 92.8625 315.973 92.8827H308.811C307.296 92.8623 305.806 92.4947 304.455 91.8079C302.99 91.0965 301.626 90.1935 300.399 89.1228C299.2 88.0927 298.19 86.8614 297.415 85.4843C296.691 84.2532 296.301 82.8552 296.281 81.4275V38.8209ZM308.811 79.1587C308.905 80.2391 309.287 81.2746 309.917 82.1572C310.547 83.0399 311.402 83.7375 312.393 84.1773C313.421 83.7214 314.294 82.9749 314.903 82.0297C315.544 81.2063 315.919 80.2069 315.978 79.1649V41.0877C315.918 40.0458 315.543 39.0466 314.903 38.2229C314.292 37.2791 313.42 36.533 312.393 36.0753C311.294 36.4617 310.364 37.2217 309.767 38.2229C309.189 39.071 308.859 40.0627 308.811 41.0877V79.1587Z" fill="white"/>
<path d="M373.371 78.6761V27.3516H385.903V92.8706H347.009C345.494 92.8502 344.003 92.4825 342.653 91.7958C341.188 91.0841 339.824 90.1812 338.596 89.1108C337.398 88.0803 336.388 86.8491 335.612 85.4722C334.889 84.2409 334.499 82.843 334.479 81.4155V27.3516H347.009V79.1466C347.022 79.8375 347.207 80.5143 347.546 81.1164C348.277 82.486 349.399 83.6076 350.768 84.3389C351.41 84.6888 352.129 84.8734 352.86 84.8763H357.255C357.418 84.9016 357.584 84.8882 357.74 84.8371C357.897 84.7861 358.039 84.6988 358.155 84.5825C358.272 84.4661 358.359 84.324 358.41 84.1675C358.461 84.0111 358.474 83.8448 358.449 83.6822C357.351 83.2963 356.38 82.6147 355.645 81.7124C354.893 80.8083 354.307 79.7782 353.913 78.6698V27.3516H366.456V79.1466C366.47 79.8375 366.654 80.5143 366.993 81.1164C367.725 82.4854 368.845 83.6069 370.214 84.3389C370.856 84.6883 371.574 84.873 372.305 84.8763H376.702C376.865 84.9016 377.031 84.8882 377.188 84.8371C377.344 84.7861 377.486 84.6988 377.603 84.5825C377.719 84.4661 377.806 84.324 377.857 84.1675C377.908 84.0111 377.922 83.8448 377.897 83.6822C376.799 83.2954 375.829 82.614 375.092 81.7124C374.345 80.8091 373.762 79.7813 373.371 78.6761Z" fill="white"/>
<path d="M422.54 52.6542C422.519 54.0823 422.128 55.4807 421.406 56.713C420.647 58.0676 419.68 59.2953 418.541 60.3516C417.369 61.437 416.042 62.3419 414.604 63.0366C413.253 63.7224 411.763 64.0894 410.248 64.1093C409.517 64.1123 408.799 64.2969 408.157 64.6467C406.787 65.378 405.666 66.4996 404.934 67.8692C404.596 68.4716 404.412 69.1482 404.397 69.839V84.8763H413.347C413.51 84.9016 413.676 84.8882 413.832 84.8371C413.989 84.7861 414.131 84.6988 414.247 84.5825C414.364 84.4661 414.451 84.324 414.502 84.1675C414.553 84.0111 414.566 83.8448 414.541 83.6822C413.443 83.2963 412.472 82.6147 411.737 81.7124C410.985 80.8083 410.399 79.7782 410.005 78.6698V74.4875H422.535V92.8664H391.869V67.5639C391.906 66.1579 392.296 64.7837 393.003 63.5677C393.75 62.1872 394.718 60.9377 395.867 59.8685C397.038 58.7815 398.365 57.8764 399.805 57.1835C401.156 56.4972 402.646 56.1295 404.161 56.1087C404.891 56.1059 405.61 55.9219 406.252 55.5734C407.621 54.8411 408.742 53.7198 409.474 52.3509C409.813 51.7488 409.998 51.072 410.012 50.3811V35.3438H401.049C400.887 35.3185 400.72 35.3319 400.564 35.3829C400.407 35.434 400.265 35.5213 400.149 35.6376C400.033 35.754 399.945 35.8961 399.894 36.0526C399.843 36.209 399.83 36.3753 399.855 36.5379C400.952 36.9258 401.922 37.6071 402.659 38.5077C403.41 39.4129 403.996 40.4427 404.391 41.5503V45.7325H391.869V27.3516H422.54V52.6542Z" fill="white"/>
<path d="M156.182 100.64H157.556V113.814H156.182V107.736H147.939V113.814H146.546V100.64H147.939V106.512H156.182V100.64ZM170.212 108.865C170.212 108.978 170.193 109.128 170.193 109.279H161.912C162.063 111.349 163.644 112.723 165.808 112.723C167.012 112.723 168.085 112.29 168.838 111.424L169.591 112.29C168.706 113.344 167.332 113.909 165.77 113.909C162.684 113.909 160.576 111.801 160.576 108.865C160.576 105.929 162.627 103.84 165.413 103.84C168.198 103.84 170.212 105.891 170.212 108.865ZM165.413 104.988C163.493 104.988 162.081 106.343 161.912 108.281H168.932C168.763 106.343 167.351 104.988 165.413 104.988ZM176.119 103.84C178.678 103.84 180.127 105.12 180.127 107.679V113.814H178.848V112.271C178.245 113.287 177.079 113.909 175.441 113.909C173.202 113.909 171.828 112.742 171.828 111.029C171.828 109.505 172.806 108.225 175.648 108.225H178.791V107.623C178.791 105.929 177.831 105.007 175.987 105.007C174.707 105.007 173.503 105.458 172.693 106.173L172.091 105.176C173.089 104.329 174.557 103.84 176.119 103.84ZM175.648 112.855C177.154 112.855 178.264 112.139 178.791 110.841V109.222H175.686C173.766 109.222 173.145 109.975 173.145 110.991C173.145 112.139 174.067 112.855 175.648 112.855ZM190.574 103.915H191.891L187.488 113.814H186.114L181.729 103.915H183.121L186.829 112.346L190.574 103.915ZM202.136 108.865C202.136 108.978 202.117 109.128 202.117 109.279H193.836C193.987 111.349 195.568 112.723 197.732 112.723C198.937 112.723 200.009 112.29 200.762 111.424L201.515 112.29C200.63 113.344 199.257 113.909 197.695 113.909C194.608 113.909 192.5 111.801 192.5 108.865C192.5 105.929 194.552 103.84 197.337 103.84C200.122 103.84 202.136 105.891 202.136 108.865ZM197.337 104.988C195.417 104.988 194.006 106.343 193.836 108.281H200.856C200.687 106.343 199.275 104.988 197.337 104.988ZM209.9 103.84C212.309 103.84 213.965 105.232 213.965 108.074V113.814H212.629V108.206C212.629 106.117 211.537 105.044 209.655 105.044C207.528 105.044 206.192 106.362 206.192 108.62V113.814H204.856V103.915H206.136V105.741C206.851 104.536 208.187 103.84 209.9 103.84ZM217.593 113.814V99.8499H218.929V113.814H217.593ZM229.648 103.915H230.965L226.016 115C225.187 116.939 224.134 117.56 222.722 117.56C221.8 117.56 220.915 117.259 220.313 116.656L220.934 115.659C221.423 116.148 222.026 116.412 222.741 116.412C223.625 116.412 224.228 115.998 224.792 114.755L225.225 113.796L220.802 103.915H222.195L225.921 112.328L229.648 103.915ZM239.448 112.61H247.371V113.814H238.055V100.64H247.089V101.845H239.448V106.531H246.261V107.717H239.448V112.61ZM257.916 113.814H256.391L253.248 109.674L250.087 113.814H248.581L252.496 108.733L248.769 103.915H250.275L253.248 107.792L256.222 103.915H257.69L253.964 108.733L257.916 113.814ZM265.24 103.84C268.063 103.84 270.171 105.872 270.171 108.865C270.171 111.876 268.063 113.909 265.24 113.909C263.659 113.909 262.304 113.231 261.476 111.951V117.466H260.14V103.915H261.42V105.872C262.229 104.555 263.603 103.84 265.24 103.84ZM265.146 112.723C267.235 112.723 268.835 111.18 268.835 108.865C268.835 106.569 267.235 105.007 265.146 105.007C263.038 105.007 261.457 106.569 261.457 108.865C261.457 111.18 263.038 112.723 265.146 112.723ZM281.533 108.865C281.533 108.978 281.515 109.128 281.515 109.279H273.234C273.384 111.349 274.965 112.723 277.129 112.723C278.334 112.723 279.407 112.29 280.16 111.424L280.912 112.29C280.028 113.344 278.654 113.909 277.092 113.909C274.005 113.909 271.897 111.801 271.897 108.865C271.897 105.929 273.949 103.84 276.734 103.84C279.52 103.84 281.533 105.891 281.533 108.865ZM276.734 104.988C274.815 104.988 273.403 106.343 273.234 108.281H280.254C280.084 106.343 278.673 104.988 276.734 104.988ZM285.533 105.854C286.154 104.536 287.415 103.84 289.241 103.84V105.138C289.128 105.138 289.015 105.12 288.921 105.12C286.85 105.12 285.589 106.437 285.589 108.771V113.814H284.253V103.915H285.533V105.854ZM292.337 101.751C291.792 101.751 291.359 101.318 291.359 100.791C291.359 100.283 291.792 99.8499 292.337 99.8499C292.883 99.8499 293.316 100.264 293.316 100.772C293.316 101.318 292.902 101.751 292.337 101.751ZM291.66 113.814V103.915H292.996V113.814H291.66ZM305.353 108.865C305.353 108.978 305.334 109.128 305.334 109.279H297.053C297.203 111.349 298.784 112.723 300.949 112.723C302.153 112.723 303.226 112.29 303.979 111.424L304.732 112.29C303.847 113.344 302.473 113.909 300.911 113.909C297.825 113.909 295.717 111.801 295.717 108.865C295.717 105.929 297.768 103.84 300.553 103.84C303.339 103.84 305.353 105.891 305.353 108.865ZM300.553 104.988C298.634 104.988 297.222 106.343 297.053 108.281H304.073C303.903 106.343 302.492 104.988 300.553 104.988ZM313.116 103.84C315.525 103.84 317.181 105.232 317.181 108.074V113.814H315.845V108.206C315.845 106.117 314.754 105.044 312.871 105.044C310.745 105.044 309.409 106.362 309.409 108.62V113.814H308.072V103.915H309.352V105.741C310.067 104.536 311.404 103.84 313.116 103.84ZM324.949 113.909C321.994 113.909 319.848 111.82 319.848 108.865C319.848 105.91 321.994 103.84 324.949 103.84C326.624 103.84 328.035 104.499 328.826 105.797L327.828 106.475C327.151 105.477 326.097 105.007 324.949 105.007C322.784 105.007 321.203 106.55 321.203 108.865C321.203 111.198 322.784 112.723 324.949 112.723C326.097 112.723 327.151 112.271 327.828 111.274L328.826 111.951C328.035 113.231 326.624 113.909 324.949 113.909ZM339.923 108.865C339.923 108.978 339.905 109.128 339.905 109.279H331.624C331.774 111.349 333.355 112.723 335.52 112.723C336.724 112.723 337.797 112.29 338.55 111.424L339.302 112.29C338.418 113.344 337.044 113.909 335.482 113.909C332.395 113.909 330.288 111.801 330.288 108.865C330.288 105.929 332.339 103.84 335.124 103.84C337.91 103.84 339.923 105.891 339.923 108.865ZM335.124 104.988C333.205 104.988 331.793 106.343 331.624 108.281H338.644C338.474 106.343 337.063 104.988 335.124 104.988ZM350.844 100.885C349.696 100.885 349.093 101.525 349.093 102.748V103.915H352.142V105.044H349.131V113.814H347.795V105.044H346.026V103.915H347.795V102.692C347.795 100.923 348.849 99.7558 350.787 99.7558C351.521 99.7558 352.274 99.9629 352.763 100.377L352.312 101.374C351.935 101.054 351.408 100.885 350.844 100.885ZM357.827 113.909C354.929 113.909 352.783 111.801 352.783 108.865C352.783 105.929 354.929 103.84 357.827 103.84C360.726 103.84 362.852 105.929 362.852 108.865C362.852 111.801 360.726 113.909 357.827 113.909ZM357.827 112.723C359.935 112.723 361.497 111.18 361.497 108.865C361.497 106.55 359.935 105.007 357.827 105.007C355.719 105.007 354.139 106.55 354.139 108.865C354.139 111.18 355.719 112.723 357.827 112.723ZM366.86 105.854C367.481 104.536 368.742 103.84 370.568 103.84V105.138C370.455 105.138 370.342 105.12 370.248 105.12C368.177 105.12 366.917 106.437 366.917 108.771V113.814H365.58V103.915H366.86V105.854ZM383.273 100.64C386.623 100.64 388.655 102.334 388.655 105.157C388.655 107.961 386.623 109.655 383.273 109.655H379.735V113.814H378.342V100.64H383.273ZM383.235 108.432C385.87 108.432 387.263 107.227 387.263 105.157C387.263 103.049 385.87 101.845 383.235 101.845H379.735V108.432H383.235ZM399.968 108.865C399.968 108.978 399.949 109.128 399.949 109.279H391.668C391.819 111.349 393.399 112.723 395.564 112.723C396.768 112.723 397.841 112.29 398.594 111.424L399.347 112.29C398.462 113.344 397.088 113.909 395.526 113.909C392.44 113.909 390.332 111.801 390.332 108.865C390.332 105.929 392.383 103.84 395.169 103.84C397.954 103.84 399.968 105.891 399.968 108.865ZM395.169 104.988C393.249 104.988 391.837 106.343 391.668 108.281H398.688C398.519 106.343 397.107 104.988 395.169 104.988ZM407.43 112.252L407.901 113.212C407.374 113.683 406.583 113.909 405.812 113.909C403.948 113.909 402.913 112.855 402.913 111.029V105.044H401.144V103.915H402.913V101.751H404.25V103.915H407.261V105.044H404.25V110.954C404.25 112.121 404.852 112.761 405.962 112.761C406.508 112.761 407.054 112.591 407.43 112.252ZM412.987 113.909C411.349 113.909 409.769 113.382 408.959 112.685L409.562 111.631C410.352 112.252 411.688 112.742 413.081 112.742C414.963 112.742 415.735 112.102 415.735 111.123C415.735 108.545 409.317 110.577 409.317 106.663C409.317 105.044 410.71 103.84 413.231 103.84C414.511 103.84 415.904 104.197 416.732 104.762L416.149 105.835C415.283 105.232 414.248 104.988 413.231 104.988C411.444 104.988 410.653 105.684 410.653 106.625C410.653 109.298 417.071 107.284 417.071 111.086C417.071 112.798 415.565 113.909 412.987 113.909ZM419.598 109.862L419.334 100.64H420.915L420.633 109.862H419.598ZM420.124 113.909C419.56 113.909 419.127 113.457 419.127 112.93C419.127 112.384 419.56 111.97 420.124 111.97C420.689 111.97 421.103 112.384 421.103 112.93C421.103 113.457 420.689 113.909 420.124 113.909Z" fill="white"/>
</svg>
