<svg width="418" height="123" viewBox="0 0 418 123" fill="none" xmlns="http://www.w3.org/2000/svg">
<path d="M35.1526 118.611H23.2226C21.396 118.518 19.6716 117.736 18.3992 116.422C17.1268 115.108 16.4004 113.36 16.3652 111.531C16.2502 111.651 16.3652 76.115 16.3652 76.115C16.3652 76.115 -1.2853 73.6435 6.57941 56.3269C7.83408 53.0522 27.4906 36.7655 27.4906 36.7655V22.2584C27.4906 22.2584 26.818 16.8617 30.8601 16.7467H37.1621C37.1621 16.7467 40.3121 16.7469 40.0905 20.5716C40.103 21.2721 40.0905 24.4741 40.0905 24.4741L56.8726 7.68587C56.8726 7.68587 63.5391 0.519588 70.4649 7.68587C70.4649 8.17937 119.619 56.3269 119.619 56.3269C119.619 56.3269 129.798 67.9029 112.924 75.776C112.144 75.1006 112.924 111.533 112.924 111.533C112.924 111.533 113.119 118.917 106.026 118.613C105.713 118.304 35.1526 118.611 35.1526 118.611Z" fill="white" stroke="#676767" stroke-width="8.36449"/>
<path d="M48.1875 48.33C48.1457 48.33 47.485 49.6124 47.485 49.6124H48.9227C48.9227 49.6124 48.5412 51.6338 46.8683 51.5586C46.3078 51.595 45.7535 51.4127 45.3245 51.0501C44.8955 50.6874 44.6221 50.1712 44.5648 49.6124C44.5503 49.3118 44.6038 49.0136 44.7159 48.7343C44.8281 48.4551 44.9999 48.2021 45.2183 47.9951C45.4367 47.788 45.6972 47.6307 45.9821 47.5336C46.2669 47.4364 46.5689 47.401 46.8683 47.4314C46.9394 47.4335 48.0265 47.481 48.1875 48.33Z" fill="#FF9062"/>
<path d="M55.9671 44.6049C56.0006 44.6049 55.3382 45.5178 55.3382 45.5178H56.5798C56.5798 45.5178 56.7438 48.1844 54.7991 48.0275C54.3025 48.0555 53.8149 47.8861 53.4431 47.5558C53.0712 47.2255 52.8448 46.7616 52.8141 46.2652C52.8141 46.192 52.6797 44.6479 54.0598 44.3823C54.7028 44.2352 55.375 44.3144 55.9671 44.6049Z" fill="#FF9062"/>
<path d="M76.0489 72.4536C76.097 72.4348 75.5098 73.2908 75.5098 73.2908H76.5145C76.5145 73.2908 76.5624 74.8391 75.3015 74.8245C74.9448 74.8172 74.6043 74.6799 74.3417 74.4385C74.0791 74.1971 73.9132 73.8682 73.8761 73.5134C73.8341 73.1953 73.9146 72.8734 74.1048 72.6149C74.295 72.3565 74.5809 72.1814 74.8971 72.1268C75.1015 72.0805 75.3122 72.0862 75.5139 72.1432C75.7155 72.2002 75.899 72.3071 76.0489 72.4536Z" fill="#FF9062"/>
<path d="M82.7159 69.3057C82.7508 69.2839 82.3396 70.1146 82.3396 70.1146L83.2383 69.9883C83.2383 69.9883 83.4765 71.3675 82.3462 71.5137C82.0254 71.5543 81.7009 71.4757 81.4343 71.2929C81.1676 71.11 80.9774 70.8356 80.8997 70.5218C80.8211 70.2428 80.8538 69.9441 80.9907 69.6887C81.1277 69.4332 81.3583 69.2407 81.6341 69.1516C81.8126 69.0826 82.0057 69.0606 82.1951 69.0876C82.3845 69.1146 82.5638 69.1897 82.7159 69.3057Z" fill="#FF9062"/>
<path d="M79.3644 74.2661C79.5311 74.0153 79.754 73.8056 80.0138 73.6534C80.2736 73.5012 80.5631 73.4107 80.8633 73.3879C81.0686 73.3524 81.2825 73.3891 81.4637 73.4921C81.6449 73.5951 81.7813 73.7569 81.8558 73.9516C81.885 73.9725 82.0645 75.2157 81.2595 75.6486C81.2825 75.6527 79.0612 75.7487 79.3644 74.2661Z" fill="#FF9062"/>
<path d="M58.6318 104.272C58.7593 104.272 57.861 93.8156 61.4703 88.9621C62.7457 86.8835 64.6941 85.3055 66.9922 84.4898C67.057 84.3602 70.3379 82.9788 70.4801 81.1449C70.6077 81.1449 67.3847 77.1953 67.4537 73.977C66.7721 72.3101 66.6117 70.4768 66.9922 68.7166C68.8736 68.7719 70.6661 69.5324 72.0117 70.8485C72.9209 69.8778 74.0283 69.1155 75.2587 68.6104C76.489 68.1052 77.8097 67.8703 79.1387 67.9222C79.0609 66.342 79.4228 64.7714 80.1842 63.3846C81.8479 64.4593 83.2237 65.926 84.1868 67.6567C85.1498 69.3874 85.6739 71.329 85.7102 73.3093C86.0936 75.3229 85.7457 77.4057 84.7341 79.1885C83.7224 80.9713 82.1096 82.3365 80.1842 83.0399C79.3471 86.8874 79.1221 90.8433 79.5103 94.7617C79.5308 95.4103 79.6966 96.0464 79.9964 96.622C80.2961 97.1976 80.7224 97.6975 81.2421 98.0862C81.3027 98.1155 82.8878 99.8481 81.2421 100.48C81.2755 100.509 73.821 100.661 73.821 100.661C73.821 100.661 70.557 100.33 70.5863 103.145C70.557 103.055 70.0226 106.376 74.3846 106.526C74.4495 106.558 91.9631 106.526 91.9631 106.526C93.1164 106.441 94.2202 106.023 95.1407 105.323C96.0611 104.623 96.7597 103.671 97.1501 102.583C97.2568 102.543 100.209 94.7637 100.209 94.7637C100.209 94.7637 107.383 93.2153 108.153 83.042C108.063 83.042 108.924 73.2336 103.023 67.9242C103.023 67.8259 98.4988 65.6899 100.205 69.7948C100.291 69.8805 103.456 72.2789 103.023 83.044C103.203 82.9541 101.321 87.8247 98.502 83.7261C98.3263 83.5546 91.5711 66.8868 91.5711 66.9767C89.3782 64.6585 86.5611 63.025 83.4598 62.2737C79.7403 62.3518 76.0527 61.5651 72.6897 59.9743C73.0243 60.0579 64.0603 55.7912 60.6371 49.3778C60.8086 49.292 57.9932 44.7631 61.454 45.6141C63.4448 46.8937 65.0061 48.7403 65.9385 50.9155C65.8527 50.9991 73.2006 58.5199 78.4975 53.1352C79.3804 52.2333 79.8779 51.0218 79.8779 49.7596C79.8779 48.4974 79.3804 47.286 78.4975 46.384C77.5785 45.7678 76.5461 45.3432 75.4588 45.1383C74.3715 44.9335 73.2553 44.9519 72.1751 45.1914C67.7165 44.5385 63.5498 42.5726 60.2124 39.545C59.2138 38.7794 58.071 38.2256 56.8511 37.9174C55.6311 37.6093 54.3604 37.5544 53.1181 37.7541C53.1181 37.8377 49.9563 38.3505 53.1181 39.2162C54.5045 39.8994 55.7056 40.9106 56.6142 42.1609C57.5228 43.4113 58.112 44.8646 58.3336 46.3942C58.5051 46.5657 57.7327 51.3515 60.6331 53.9215C61.3314 54.3906 61.9331 54.9925 62.3974 55.694C62.8618 56.3955 63.1819 57.1836 63.3409 58.0098C63.4999 58.8359 63.4913 59.6855 63.3205 60.5093C63.1497 61.3331 62.8187 62.1139 62.3443 62.8087C62.3443 62.8945 61.4919 65.8841 59.1791 65.8004C59.8062 64.469 60.135 63.0184 60.1429 61.5467C60.1429 61.5467 62.3685 59.2731 60.3798 57.3869C60.3631 57.3305 55.8945 55.5039 54.3638 58.7347C54.3972 58.7034 53.4686 61.487 58.3786 62.1165C58.404 63.427 57.927 64.6981 57.0471 65.6697C56.1672 66.6413 54.9516 67.2401 53.6449 67.3443C53.6742 67.4028 44.4441 68.018 42.4868 60.3562C42.4868 60.3562 40.814 58.3335 39.9587 61.2506C40.0949 62.3317 40.0101 63.4297 39.7096 64.4771C39.4091 65.5246 38.8993 66.4997 38.2107 67.3443C41.4603 70.6125 43.2849 75.033 43.2874 79.6419C43.2016 79.6419 44.4969 89.604 42.7278 96.3708C42.6379 96.3708 43.1422 100.215 39.8362 100.874C39.9386 100.874 35.85 101.025 35.4987 103.555C35.4218 103.912 35.4242 104.282 35.511 104.637C35.5978 104.993 35.764 105.324 35.997 105.605C36.2301 105.887 36.5261 106.113 36.8588 106.265C37.1914 106.417 37.551 106.49 37.9166 106.481C37.9689 106.431 46.4159 106.534 46.4159 106.534C46.807 106.615 47.2093 106.614 47.6003 106.532C47.9912 106.451 48.3641 106.292 48.6908 106.063C49.0175 105.833 49.2947 105.539 49.5035 105.199C49.7124 104.859 49.847 104.479 49.9038 104.084C49.9519 103.952 51.9305 92.2714 50.4102 86.9097C49.8824 84.6874 48.5721 82.7282 46.7181 81.394C46.7181 81.3459 45.15 78.3625 48.5397 79.017C50.038 79.4476 51.3992 80.2548 52.4973 81.3613C53.5954 82.4679 54.3939 83.8378 54.813 85.3394C56.0298 89.2796 56.4761 93.4176 56.1282 97.5267C56.1491 97.4221 55.2713 103.191 58.6318 104.272Z" fill="#FF9062"/>
<path d="M40.9404 41.5459C41.8709 41.5835 43.2396 42.3309 41.3325 49.6142C39.7504 53.2544 38.6387 57.0819 38.0242 61.0031C38.0622 61.6971 37.9391 62.3902 37.6648 63.0289C37.3906 63.6675 36.973 64.2346 36.4436 64.685C35.9143 65.1354 35.2883 65.456 34.6139 65.6244C33.9396 65.7928 33.2385 65.8037 32.5596 65.655C31.5122 65.6831 30.4941 65.3044 29.721 64.5972C28.9479 63.89 28.4792 62.9106 28.4141 61.8649C28.4389 56.7711 30.2896 51.8551 33.6296 48.0091C33.5648 47.9548 38.6151 41.389 40.9404 41.5459Z" fill="#FF9062"/>
<path d="M19.0508 99.7341C19.2202 99.4608 19.4055 99.1977 19.6052 98.9458C20.3392 98.1219 21.0959 97.3149 21.8383 96.4973C23.1834 95.1605 24.2366 93.559 24.931 91.7943C25.3994 90.7272 25.9774 89.7112 26.6561 88.7638C27.2395 87.7998 27.2272 87.8107 26.213 87.2231C25.0108 86.606 23.8648 85.8848 22.7878 85.0686C20.9535 83.3373 19.8476 80.973 19.6951 78.4553C19.5759 77.5916 19.538 76.7174 19.4648 75.8475L19.6971 75.7158C21.0982 76.9328 22.4572 78.2016 23.9105 79.3517C25.3638 80.5019 26.9575 81.573 28.5635 82.7294C28.2929 80.4877 28.6414 78.2145 29.5712 76.1569C30.8306 78.3954 31.8739 80.7484 32.687 83.1848C33.2854 82.7841 33.9071 82.4191 34.5484 82.0912C34.9006 81.9068 35.3003 81.8341 35.695 81.8819C36.0897 81.9297 36.4604 82.0956 36.7584 82.3588C37.0516 82.5544 37.409 82.6295 37.756 82.5681C38.8912 82.3141 40.0406 82.1282 41.198 82.0116C40.257 82.3524 39.3011 82.6643 38.3748 83.0449C37.5385 83.3881 36.7874 83.91 36.1734 84.5734C35.5594 85.2369 35.0975 86.0258 34.82 86.8861C34.638 87.3901 34.4414 87.8881 34.2783 88.3983C33.9736 89.5325 33.3643 90.5619 32.5165 91.3747C31.6687 92.1874 30.6147 92.7528 29.4686 93.0094C27.6758 93.558 26.0905 94.6345 24.9188 96.0981L24.0192 97.0905C24.1092 96.5803 24.1554 96.3149 24.2286 95.8632C22.5097 97.327 20.9183 98.6702 19.327 100.019L19.0508 99.7341Z" fill="#FF9062"/>
<path d="M139.621 9.22015H159.313C160.828 9.24044 162.318 9.60817 163.669 10.295C165.134 11.0073 166.498 11.9101 167.726 12.98C168.934 14.0255 169.944 15.279 170.71 16.6813C171.416 17.8974 171.806 19.2715 171.843 20.6774V51.2308C171.823 52.6584 171.432 54.0562 170.71 55.2876C169.933 56.6647 168.924 57.8966 167.726 58.9282C166.498 59.9986 165.134 60.9014 163.669 61.6132C162.318 62.3 160.828 62.6677 159.313 62.6881H152.151V92.8818H139.621V9.22015ZM152.151 48.2447C151.748 49.3668 151.164 50.4152 150.422 51.3479C149.716 52.2682 148.733 52.9374 147.618 53.2571C147.593 53.4195 147.606 53.5856 147.657 53.7417C147.709 53.8979 147.796 54.0398 147.912 54.1559C148.029 54.272 148.171 54.359 148.327 54.4099C148.483 54.4609 148.649 54.4743 148.812 54.4491H153.464C154.155 54.4346 154.832 54.25 155.434 53.9116C156.129 53.5403 156.771 53.0783 157.343 52.5378C157.922 52.0059 158.406 51.3802 158.776 50.6871C159.115 50.0856 159.299 49.4096 159.313 48.7194V22.9442C159.299 22.2541 159.114 21.5782 158.776 20.9764C158.044 19.6076 156.922 18.4863 155.553 17.754C154.912 17.4036 154.193 17.2189 153.462 17.2166H148.809C148.647 17.1913 148.481 17.2047 148.324 17.2557C148.168 17.3068 148.026 17.394 147.909 17.5104C147.793 17.6267 147.706 17.7689 147.655 17.9254C147.604 18.0818 147.59 18.248 147.615 18.4106C148.712 18.7989 149.682 19.4802 150.42 20.3805C151.169 21.2861 151.754 22.3157 152.149 23.423L152.151 48.2447Z" fill="black"/>
<path d="M209.796 55.8806C209.776 57.3082 209.385 58.7061 208.662 59.9374C207.887 61.3151 206.877 62.547 205.678 63.578C204.451 64.6484 203.087 65.5512 201.622 66.263C200.271 66.9492 198.781 67.3169 197.266 67.3378H190.344V79.1506C190.358 79.8415 190.542 80.5183 190.882 81.1204C191.613 82.4901 192.734 83.6116 194.104 84.3428C194.746 84.6927 195.464 84.8774 196.195 84.8802H200.605C200.768 84.9056 200.934 84.8922 201.091 84.8411C201.247 84.7901 201.389 84.7028 201.506 84.5865C201.622 84.4701 201.709 84.3279 201.76 84.1715C201.811 84.0151 201.825 83.8488 201.799 83.6862C200.702 83.301 199.732 82.6209 198.995 81.7206C198.244 80.816 197.659 79.7861 197.266 78.678V74.4958H209.796V92.8747H190.348C188.833 92.8542 187.343 92.4865 185.993 91.7998C184.528 91.0881 183.163 90.1852 181.936 89.1148C180.738 88.0843 179.728 86.853 178.952 85.4762C178.229 84.2448 177.839 82.847 177.818 81.4194V38.8149C177.855 37.4082 178.245 36.0333 178.952 34.8167C179.716 33.4146 180.727 32.1615 181.936 31.1175C183.164 30.0476 184.528 29.1447 185.993 28.4325C187.341 27.7446 188.829 27.3748 190.342 27.3514H209.79L209.796 55.8806ZM190.348 59.3414H191.423C192.154 59.338 192.872 59.1533 193.514 58.8039C194.883 58.0718 196.005 56.9505 196.737 55.5815C197.075 54.9792 197.259 54.3025 197.272 53.6117V41.5585C197.674 40.4358 198.258 39.3872 199.001 38.4552C199.707 37.5346 200.69 36.8653 201.806 36.5461C201.831 36.3835 201.818 36.2172 201.767 36.0607C201.715 35.9043 201.628 35.7622 201.512 35.6458C201.396 35.5294 201.253 35.4422 201.097 35.3911C200.94 35.3401 200.774 35.3267 200.612 35.352H196.191C195.5 35.3656 194.823 35.5503 194.221 35.8895C193.528 36.2604 192.886 36.7217 192.314 37.2612C191.736 37.7924 191.252 38.4173 190.882 39.1097C190.543 39.7122 190.359 40.3888 190.344 41.0796L190.348 59.3414Z" fill="black"/>
<path d="M228.285 9.3429V27.3642H246.426V45.7431H233.904V41.5609C234.299 40.4531 234.885 39.4232 235.636 38.5182C236.372 37.6171 237.342 36.9358 238.44 36.5484C238.465 36.3858 238.452 36.2195 238.401 36.0631C238.35 35.9067 238.262 35.7645 238.146 35.6482C238.03 35.5318 237.887 35.4445 237.731 35.3935C237.575 35.3424 237.408 35.329 237.246 35.3544H228.296V79.1572C228.31 79.848 228.494 80.5247 228.833 81.127C229.203 81.8199 229.688 82.4455 230.266 82.9776C230.839 83.5173 231.481 83.9786 232.175 84.3494C232.776 84.6882 233.452 84.8728 234.143 84.8868H237.246C237.408 84.9121 237.575 84.8988 237.731 84.8477C237.887 84.7967 238.03 84.7094 238.146 84.593C238.262 84.4767 238.35 84.3345 238.401 84.1781C238.452 84.0217 238.465 83.8554 238.44 83.6928C237.324 83.3735 236.341 82.7033 235.636 81.7815C234.891 80.8503 234.306 79.8024 233.904 78.6803V74.4981H246.315V92.8791H228.294C226.779 92.859 225.288 92.4913 223.938 91.8042C222.472 91.0932 221.108 90.1903 219.881 89.1192C218.682 88.0895 217.672 86.8581 216.897 85.4807C216.174 84.2495 215.783 82.8515 215.764 81.4239V9.3429H228.285Z" fill="black"/>
<path d="M264.919 41.7999V92.8798H252.389V9.22021H264.919V27.3607H272.081C273.596 27.381 275.086 27.7487 276.437 28.4355C277.901 29.1483 279.265 30.0511 280.493 31.1205C281.701 32.1653 282.712 33.4182 283.477 34.8198C284.184 36.0366 284.574 37.4114 284.611 38.818V92.8819H272.081V41.3231C272.066 40.633 271.881 39.9572 271.543 39.3553C271.172 38.6629 270.688 38.0374 270.111 37.5047C269.538 36.9653 268.896 36.504 268.202 36.133C267.6 35.7938 266.923 35.6092 266.232 35.5956H261.579C261.417 35.5702 261.25 35.5836 261.094 35.6347C260.937 35.6857 260.795 35.773 260.679 35.8893C260.563 36.0057 260.475 36.1479 260.424 36.3043C260.373 36.4607 260.36 36.627 260.385 36.7896C261.5 37.1096 262.483 37.7788 263.189 38.6987C263.931 39.6309 264.516 40.6786 264.919 41.7999Z" fill="black"/>
<path d="M290.59 38.8207C290.626 37.4139 291.016 36.0389 291.723 34.8225C292.487 33.4201 293.498 32.167 294.707 31.1233C295.935 30.0531 297.299 29.1503 298.764 28.4383C300.115 27.7517 301.605 27.384 303.12 27.3635H310.282C311.797 27.3838 313.287 27.7516 314.638 28.4383C316.102 29.1512 317.466 30.054 318.695 31.1233C319.902 32.1681 320.913 33.421 321.679 34.8225C322.385 36.0394 322.775 37.4141 322.812 38.8207V81.4274C322.791 82.8548 322.4 84.2525 321.679 85.4841C320.902 86.8603 319.892 88.0914 318.695 89.1227C317.466 90.1925 316.102 91.0954 314.638 91.8077C313.287 92.4946 311.797 92.8623 310.282 92.8825H303.12C301.605 92.8622 300.115 92.4945 298.764 91.8077C297.299 91.0963 295.935 90.1934 294.707 89.1227C293.509 88.0925 292.499 86.8613 291.723 85.4841C291 84.253 290.609 82.855 290.59 81.4274V38.8207ZM303.12 79.1585C303.214 80.2389 303.595 81.2744 304.225 82.1571C304.855 83.0398 305.711 83.7374 306.702 84.1772C307.73 83.7213 308.602 82.9748 309.211 82.0296C309.852 81.2061 310.227 80.2068 310.286 79.1648V41.0875C310.227 40.0457 309.852 39.0465 309.211 38.2227C308.6 37.279 307.729 36.5329 306.702 36.0751C305.602 36.4616 304.673 37.2216 304.075 38.2227C303.498 39.0709 303.167 40.0626 303.12 41.0875V79.1585Z" fill="black"/>
<path d="M367.68 78.6759V27.3514H380.212V92.8704H341.317C339.802 92.85 338.312 92.4823 336.961 91.7956C335.496 91.0839 334.132 90.181 332.905 89.1106C331.706 88.0801 330.697 86.8489 329.921 85.4721C329.198 84.2407 328.807 82.8428 328.787 81.4153V27.3514H341.317V79.1464C341.331 79.8374 341.515 80.5141 341.855 81.1162C342.586 82.4858 343.707 83.6074 345.077 84.3387C345.719 84.6886 346.437 84.8732 347.168 84.8761H351.564C351.726 84.9014 351.893 84.888 352.049 84.837C352.205 84.7859 352.348 84.6986 352.464 84.5823C352.58 84.4659 352.667 84.3238 352.719 84.1673C352.77 84.0109 352.783 83.8446 352.758 83.682C351.659 83.2961 350.689 82.6145 349.953 81.7122C349.201 80.8081 348.615 79.778 348.222 78.6696V27.3514H360.765V79.1464C360.778 79.8374 360.963 80.5141 361.302 81.1162C362.033 82.4852 363.154 83.6067 364.522 84.3387C365.164 84.6882 365.883 84.8728 366.613 84.8761H371.011C371.174 84.9014 371.34 84.888 371.496 84.837C371.653 84.7859 371.795 84.6986 371.911 84.5823C372.028 84.4659 372.115 84.3238 372.166 84.1673C372.217 84.0109 372.23 83.8446 372.205 83.682C371.107 83.2953 370.137 82.6138 369.401 81.7122C368.654 80.8089 368.071 79.7812 367.68 78.6759Z" fill="black"/>
<path d="M416.848 52.654C416.828 54.0821 416.437 55.4805 415.715 56.7128C414.955 58.0674 413.989 59.2951 412.85 60.3514C411.678 61.4368 410.351 62.3417 408.912 63.0364C407.562 63.7222 406.071 64.0892 404.557 64.1091C403.826 64.1121 403.107 64.2967 402.465 64.6465C401.096 65.3778 399.974 66.4994 399.243 67.869C398.905 68.4715 398.72 69.148 398.706 69.8388V84.8761H407.656C407.818 84.9014 407.985 84.888 408.141 84.837C408.297 84.7859 408.44 84.6986 408.556 84.5823C408.672 84.4659 408.76 84.3238 408.811 84.1673C408.862 84.0109 408.875 83.8446 408.85 83.682C407.751 83.2961 406.781 82.6145 406.046 81.7122C405.293 80.8081 404.707 79.778 404.314 78.6696V74.4874H416.844V92.8662H386.178V67.5637C386.215 66.1577 386.604 64.7835 387.311 63.5675C388.059 62.187 389.026 60.9375 390.176 59.8683C391.347 58.7813 392.674 57.8762 394.114 57.1833C395.464 56.497 396.954 56.1293 398.469 56.1085C399.2 56.1057 399.918 55.9218 400.56 55.5732C401.929 54.8409 403.051 53.7196 403.783 52.3507C404.122 51.7486 404.307 51.0718 404.32 50.3809V35.3436H395.358C395.195 35.3183 395.029 35.3317 394.872 35.3828C394.716 35.4338 394.574 35.5211 394.458 35.6374C394.341 35.7538 394.254 35.8959 394.203 36.0524C394.152 36.2088 394.138 36.3751 394.164 36.5377C395.261 36.9256 396.231 37.6069 396.968 38.5075C397.719 39.4127 398.305 40.4425 398.699 41.5501V45.7324H386.178V27.3514H416.848V52.654Z" fill="black"/>
<path d="M150.49 100.64H151.864V113.814H150.49V107.735H142.247V113.814H140.854V100.64H142.247V106.512H150.49V100.64ZM164.52 108.865C164.52 108.978 164.501 109.128 164.501 109.279H156.221C156.371 111.349 157.952 112.723 160.116 112.723C161.321 112.723 162.394 112.29 163.146 111.424L163.899 112.29C163.015 113.344 161.641 113.908 160.079 113.908C156.992 113.908 154.884 111.801 154.884 108.865C154.884 105.929 156.936 103.84 159.721 103.84C162.507 103.84 164.52 105.891 164.52 108.865ZM159.721 104.988C157.802 104.988 156.39 106.343 156.221 108.281H163.241C163.071 106.343 161.66 104.988 159.721 104.988ZM170.427 103.84C172.987 103.84 174.436 105.119 174.436 107.679V113.814H173.156V112.271C172.554 113.287 171.387 113.908 169.75 113.908C167.51 113.908 166.136 112.742 166.136 111.029C166.136 109.504 167.115 108.225 169.957 108.225H173.1V107.622C173.1 105.929 172.14 105.006 170.296 105.006C169.016 105.006 167.811 105.458 167.002 106.173L166.4 105.176C167.397 104.329 168.865 103.84 170.427 103.84ZM169.957 112.854C171.462 112.854 172.573 112.139 173.1 110.841V109.222H169.994C168.075 109.222 167.454 109.975 167.454 110.991C167.454 112.139 168.376 112.854 169.957 112.854ZM184.883 103.915H186.2L181.796 113.814H180.422L176.037 103.915H177.43L181.137 112.346L184.883 103.915ZM196.445 108.865C196.445 108.978 196.426 109.128 196.426 109.279H188.145C188.296 111.349 189.876 112.723 192.041 112.723C193.245 112.723 194.318 112.29 195.071 111.424L195.824 112.29C194.939 113.344 193.565 113.908 192.003 113.908C188.917 113.908 186.809 111.801 186.809 108.865C186.809 105.929 188.86 103.84 191.646 103.84C194.431 103.84 196.445 105.891 196.445 108.865ZM191.646 104.988C189.726 104.988 188.314 106.343 188.145 108.281H195.165C194.996 106.343 193.584 104.988 191.646 104.988ZM204.208 103.84C206.617 103.84 208.273 105.232 208.273 108.074V113.814H206.937V108.206C206.937 106.117 205.846 105.044 203.964 105.044C201.837 105.044 200.501 106.362 200.501 108.62V113.814H199.164V103.915H200.444V105.74C201.159 104.536 202.496 103.84 204.208 103.84ZM211.901 113.814V99.8498H213.237V113.814H211.901ZM223.956 103.915H225.274L220.324 115C219.496 116.938 218.442 117.559 217.031 117.559C216.108 117.559 215.224 117.258 214.622 116.656L215.243 115.659C215.732 116.148 216.334 116.411 217.049 116.411C217.934 116.411 218.536 115.997 219.101 114.755L219.534 113.795L215.111 103.915H216.504L220.23 112.327L223.956 103.915ZM233.756 112.61H241.68V113.814H232.364V100.64H241.397V101.845H233.756V106.531H240.569V107.717H233.756V112.61ZM252.224 113.814H250.7L247.557 109.674L244.395 113.814H242.89L246.804 108.733L243.078 103.915H244.583L247.557 107.792L250.531 103.915H251.999L248.272 108.733L252.224 113.814ZM259.549 103.84C262.372 103.84 264.48 105.872 264.48 108.865C264.48 111.876 262.372 113.908 259.549 113.908C257.968 113.908 256.613 113.231 255.785 111.951V117.465H254.449V103.915H255.728V105.872C256.538 104.555 257.911 103.84 259.549 103.84ZM259.455 112.723C261.544 112.723 263.143 111.179 263.143 108.865C263.143 106.569 261.544 105.006 259.455 105.006C257.347 105.006 255.766 106.569 255.766 108.865C255.766 111.179 257.347 112.723 259.455 112.723ZM275.842 108.865C275.842 108.978 275.823 109.128 275.823 109.279H267.542C267.693 111.349 269.274 112.723 271.438 112.723C272.643 112.723 273.715 112.29 274.468 111.424L275.221 112.29C274.336 113.344 272.962 113.908 271.4 113.908C268.314 113.908 266.206 111.801 266.206 108.865C266.206 105.929 268.257 103.84 271.043 103.84C273.828 103.84 275.842 105.891 275.842 108.865ZM271.043 104.988C269.123 104.988 267.712 106.343 267.542 108.281H274.562C274.393 106.343 272.981 104.988 271.043 104.988ZM279.842 105.853C280.463 104.536 281.724 103.84 283.549 103.84V105.138C283.436 105.138 283.323 105.119 283.229 105.119C281.159 105.119 279.898 106.437 279.898 108.77V113.814H278.562V103.915H279.842V105.853ZM286.646 101.751C286.1 101.751 285.667 101.318 285.667 100.791C285.667 100.283 286.1 99.8498 286.646 99.8498C287.192 99.8498 287.625 100.264 287.625 100.772C287.625 101.318 287.211 101.751 286.646 101.751ZM285.969 113.814V103.915H287.305V113.814H285.969ZM299.661 108.865C299.661 108.978 299.642 109.128 299.642 109.279H291.361C291.512 111.349 293.093 112.723 295.257 112.723C296.462 112.723 297.534 112.29 298.287 111.424L299.04 112.29C298.156 113.344 296.782 113.908 295.22 113.908C292.133 113.908 290.025 111.801 290.025 108.865C290.025 105.929 292.077 103.84 294.862 103.84C297.647 103.84 299.661 105.891 299.661 108.865ZM294.862 104.988C292.942 104.988 291.531 106.343 291.361 108.281H298.381C298.212 106.343 296.801 104.988 294.862 104.988ZM307.425 103.84C309.834 103.84 311.49 105.232 311.49 108.074V113.814H310.154V108.206C310.154 106.117 309.062 105.044 307.18 105.044C305.053 105.044 303.717 106.362 303.717 108.62V113.814H302.381V103.915H303.661V105.74C304.376 104.536 305.712 103.84 307.425 103.84ZM319.257 113.908C316.302 113.908 314.157 111.819 314.157 108.865C314.157 105.91 316.302 103.84 319.257 103.84C320.932 103.84 322.344 104.498 323.134 105.797L322.137 106.474C321.459 105.477 320.405 105.006 319.257 105.006C317.093 105.006 315.512 106.55 315.512 108.865C315.512 111.198 317.093 112.723 319.257 112.723C320.405 112.723 321.459 112.271 322.137 111.274L323.134 111.951C322.344 113.231 320.932 113.908 319.257 113.908ZM334.232 108.865C334.232 108.978 334.213 109.128 334.213 109.279H325.932C326.083 111.349 327.664 112.723 329.828 112.723C331.033 112.723 332.105 112.29 332.858 111.424L333.611 112.29C332.726 113.344 331.353 113.908 329.791 113.908C326.704 113.908 324.596 111.801 324.596 108.865C324.596 105.929 326.648 103.84 329.433 103.84C332.218 103.84 334.232 105.891 334.232 108.865ZM329.433 104.988C327.513 104.988 326.102 106.343 325.932 108.281H332.952C332.783 106.343 331.371 104.988 329.433 104.988ZM345.152 100.885C344.004 100.885 343.402 101.525 343.402 102.748V103.915H346.451V105.044H343.44V113.814H342.103V105.044H340.334V103.915H342.103V102.692C342.103 100.922 343.157 99.7557 345.096 99.7557C345.83 99.7557 346.582 99.9627 347.072 100.377L346.62 101.374C346.244 101.054 345.717 100.885 345.152 100.885ZM352.136 113.908C349.238 113.908 347.092 111.801 347.092 108.865C347.092 105.929 349.238 103.84 352.136 103.84C355.034 103.84 357.161 105.929 357.161 108.865C357.161 111.801 355.034 113.908 352.136 113.908ZM352.136 112.723C354.244 112.723 355.806 111.179 355.806 108.865C355.806 106.55 354.244 105.006 352.136 105.006C350.028 105.006 348.447 106.55 348.447 108.865C348.447 111.179 350.028 112.723 352.136 112.723ZM361.169 105.853C361.79 104.536 363.051 103.84 364.876 103.84V105.138C364.763 105.138 364.65 105.119 364.556 105.119C362.486 105.119 361.225 106.437 361.225 108.77V113.814H359.889V103.915H361.169V105.853ZM377.581 100.64C380.931 100.64 382.964 102.334 382.964 105.157C382.964 107.961 380.931 109.655 377.581 109.655H374.043V113.814H372.651V100.64H377.581ZM377.544 108.432C380.179 108.432 381.571 107.227 381.571 105.157C381.571 103.049 380.179 101.845 377.544 101.845H374.043V108.432H377.544ZM394.276 108.865C394.276 108.978 394.257 109.128 394.257 109.279H385.977C386.127 111.349 387.708 112.723 389.872 112.723C391.077 112.723 392.15 112.29 392.902 111.424L393.655 112.29C392.771 113.344 391.397 113.908 389.835 113.908C386.748 113.908 384.64 111.801 384.64 108.865C384.64 105.929 386.692 103.84 389.477 103.84C392.263 103.84 394.276 105.891 394.276 108.865ZM389.477 104.988C387.558 104.988 386.146 106.343 385.977 108.281H392.997C392.827 106.343 391.416 104.988 389.477 104.988ZM401.739 112.252L402.209 113.212C401.682 113.683 400.892 113.908 400.12 113.908C398.257 113.908 397.222 112.854 397.222 111.029V105.044H395.453V103.915H397.222V101.751H398.558V103.915H401.569V105.044H398.558V110.954C398.558 112.12 399.16 112.76 400.271 112.76C400.817 112.76 401.362 112.591 401.739 112.252ZM407.295 113.908C405.658 113.908 404.077 113.381 403.268 112.685L403.87 111.631C404.661 112.252 405.997 112.742 407.389 112.742C409.272 112.742 410.043 112.102 410.043 111.123C410.043 108.545 403.625 110.577 403.625 106.663C403.625 105.044 405.018 103.84 407.54 103.84C408.82 103.84 410.213 104.197 411.041 104.762L410.457 105.835C409.591 105.232 408.556 104.988 407.54 104.988C405.752 104.988 404.962 105.684 404.962 106.625C404.962 109.297 411.379 107.284 411.379 111.085C411.379 112.798 409.874 113.908 407.295 113.908ZM413.906 109.862L413.643 100.64H415.224L414.941 109.862H413.906ZM414.433 113.908C413.868 113.908 413.436 113.457 413.436 112.93C413.436 112.384 413.868 111.97 414.433 111.97C414.998 111.97 415.412 112.384 415.412 112.93C415.412 113.457 414.998 113.908 414.433 113.908Z" fill="black"/>
</svg>
