<svg width="1665" height="780" viewBox="0 0 1665 780" fill="none" xmlns="http://www.w3.org/2000/svg">
<mask id="mask0_2_2" style="mask-type:alpha" maskUnits="userSpaceOnUse" x="0" y="0" width="1665" height="780">
<rect width="1665" height="780" fill="black"/>
</mask>
<g mask="url(#mask0_2_2)">
<path d="M591.662 830.532L985.813 479.953V459.043C985.813 459.043 540.011 802.151 536.973 803.188C533.935 804.189 509.629 854.874 509.629 854.874L591.698 830.568L591.662 830.532Z" fill="#21402B"/>
<path d="M985.781 479.953L1228.98 447.212L1222.84 433.057L986.031 459.043L985.781 479.953Z" fill="#21402B"/>
<path d="M1342.58 103.71L1162.46 151.822L1168.86 166.87L1345.15 118.258L1342.58 103.71Z" fill="#21402B"/>
<path d="M1228.98 447.212C1228.98 447.212 1290.46 329.006 1292.46 131.09L1276.24 133.807L1217.58 434.38L1228.95 447.212H1228.98Z" fill="#21402B"/>
<path d="M1239.1 23L1162.46 151.822C1162.46 151.822 1198.71 142.135 1217.37 137.167C1216.79 174.984 1207.68 331.043 1151.28 396.384C1082.57 402.138 1008.19 408.394 927.409 415.185C845.519 466.621 508.631 611.778 426.49 663.393C357.111 675.546 389.352 688.414 311.144 702.139C288.983 730.198 264.677 760.938 237.976 794.752C208.451 832.105 175.638 873.604 139 920C218.138 900.698 292.807 882.504 363.438 865.311C430.315 849.012 493.725 833.571 553.954 818.88C651.428 737.741 899.779 530.96 986.065 459.115C1072.17 449.678 1150.81 441.028 1222.87 433.129C1270.52 348.308 1288.78 201.399 1286.21 118.83C1304.65 113.897 1342.61 103.782 1342.61 103.782L1239.1 23Z" fill="url(#paint0_linear_2_2)"/>
<path style="mix-blend-mode:color-dodge" d="M1239.1 23L1162.46 151.822C1162.46 151.822 1198.71 142.135 1217.37 137.167C1216.79 174.984 1207.68 331.043 1151.28 396.384C1082.57 402.138 1008.19 408.394 927.409 415.185C845.519 466.621 508.631 611.778 426.49 663.393C357.111 675.546 389.352 688.414 311.144 702.139C288.983 730.198 264.677 760.938 237.976 794.752C208.451 832.105 175.638 873.604 139 920C218.138 900.698 292.807 882.504 363.438 865.311C430.315 849.012 493.725 833.571 553.954 818.88C651.428 737.741 899.779 530.96 986.065 459.115C1072.17 449.678 1150.81 441.028 1222.87 433.129C1270.52 348.308 1288.78 201.399 1286.21 118.83C1304.65 113.897 1342.61 103.782 1342.61 103.782L1239.1 23Z" fill="url(#paint1_linear_2_2)"/>
</g>
<defs>
<linearGradient id="paint0_linear_2_2" x1="674" y1="658" x2="1078.5" y2="227" gradientUnits="userSpaceOnUse">
<stop stop-color="#1F2623"/>
<stop offset="0.96" stop-color="#0C7D55"/>
</linearGradient>
<linearGradient id="paint1_linear_2_2" x1="796.478" y1="-3.02176" x2="703.258" y2="858.877" gradientUnits="userSpaceOnUse">
<stop stop-color="#111111"/>
<stop offset="0.07" stop-color="#151515"/>
<stop offset="0.15" stop-color="#232323"/>
<stop offset="0.24" stop-color="#3A3A3A"/>
<stop offset="0.33" stop-color="#5A5A5A"/>
<stop offset="0.41" stop-color="#7D7D7D"/>
<stop offset="0.51" stop-color="#5D5D5D"/>
<stop offset="0.66" stop-color="#353535"/>
<stop offset="0.8" stop-color="#181818"/>
<stop offset="0.91" stop-color="#060606"/>
<stop offset="1"/>
</linearGradient>
</defs>
</svg>
