<svg width="174" height="174" viewBox="0 0 174 174" fill="none" xmlns="http://www.w3.org/2000/svg">
<path d="M88.1269 174C133.606 174 170.474 137.132 170.474 91.6523C170.474 46.173 133.606 9.30475 88.1269 9.30475C42.6476 9.30475 5.7793 46.173 5.7793 91.6523C5.7793 137.132 42.6476 174 88.1269 174Z" fill="#DFDFDF"/>
<mask id="mask0_2_135" style="mask-type:alpha" maskUnits="userSpaceOnUse" x="0" y="0" width="174" height="174">
<path d="M87 174C135.049 174 174 135.049 174 87C174 38.9512 135.049 0 87 0C38.9512 0 0 38.9512 0 87C0 135.049 38.9512 174 87 174Z" fill="#017CF5"/>
</mask>
<g mask="url(#mask0_2_135)">
<line opacity="0.4" x1="-3.56055" y1="19.5877" x2="175.018" y2="19.5877" stroke="white" stroke-width="0.508772"/>
<line opacity="0.4" x1="-3.56055" y1="36.3771" x2="175.018" y2="36.3771" stroke="white" stroke-width="0.508772"/>
<line opacity="0.4" x1="-3.56055" y1="53.6754" x2="175.018" y2="53.6754" stroke="white" stroke-width="0.508772"/>
<line opacity="0.4" x1="-3.56055" y1="71.4824" x2="175.018" y2="71.4824" stroke="white" stroke-width="0.508772"/>
<line opacity="0.4" x1="-3.56055" y1="93.8684" x2="175.018" y2="93.8684" stroke="white" stroke-width="0.508772"/>
<line opacity="0.4" x1="-3.56055" y1="118.798" x2="175.018" y2="118.798" stroke="white" stroke-width="0.508772"/>
<line opacity="0.4" x1="-3.56055" y1="140.675" x2="175.018" y2="140.675" stroke="white" stroke-width="0.508772"/>
<line opacity="0.4" x1="-3.56055" y1="160.517" x2="175.018" y2="160.517" stroke="white" stroke-width="0.508772"/>
</g>
<path d="M58.9707 137.094H43.4551V117.941C43.4551 116.773 44.4013 115.827 45.5686 115.827H56.8572C58.0245 115.827 58.9707 116.773 58.9707 117.941V137.094Z" fill="#FFE27A"/>
<path d="M82.8281 137.094H67.3125V106.405C67.3125 105.237 68.2587 104.291 69.426 104.291H80.7146C81.8819 104.291 82.8281 105.237 82.8281 106.405V137.094Z" fill="#FFBA57"/>
<path d="M106.686 137.094H91.1699V94.8688C91.1699 93.7015 92.1161 92.7552 93.2834 92.7552H104.572C105.739 92.7552 106.686 93.7015 106.686 94.8688V137.094Z" fill="#98DB7C"/>
<path d="M130.545 137.094H115.029V83.3328C115.029 82.1655 115.976 81.2193 117.143 81.2193H128.431C129.599 81.2193 130.545 82.1655 130.545 83.3328V137.094Z" fill="#8BCAFF"/>
<path d="M43.4551 133.29H58.9707V137.094H43.4551V133.29Z" fill="#F9CF58"/>
<path d="M67.3125 133.29H82.8281V137.094H67.3125V133.29Z" fill="#FFAC3E"/>
<path d="M91.1699 133.29H106.686V137.094H91.1699V133.29Z" fill="#82D361"/>
<path d="M115.029 133.29H130.545V137.094H115.029V133.29Z" fill="#6CC4FF"/>
<path d="M115.633 60.0799L122.234 64.67L120.02 42.6118L98.5511 48.2032L105.153 52.7933C105.153 52.7933 93.0585 76.3788 49.3612 89.8635C47.1109 90.558 47.7289 93.891 50.0783 93.7279C67.5861 92.5116 96.4972 86.2617 115.633 60.0799Z" fill="#FF4755"/>
<path d="M113.741 58.7429C113.27 58.4106 112.623 58.5182 112.28 58.98C92.6233 85.3935 67.4061 88.7197 50.0791 89.9234C49.8238 89.9411 49.5903 89.9156 49.3775 89.8585L49.362 89.8633C47.1272 90.5684 47.7532 93.8894 50.091 93.7268C67.6001 92.5088 96.5024 86.2558 115.633 60.0797L113.741 58.7429Z" fill="#FC2B3A"/>
<path d="M139.415 135.509H132.13V105.845C132.13 104.97 131.42 104.26 130.544 104.26C129.669 104.26 128.959 104.97 128.959 105.845V135.509H116.614V83.3328C116.614 83.0416 116.851 82.8045 117.142 82.8045H128.431C128.722 82.8045 128.959 83.0416 128.959 83.3328V99.5047C128.959 100.38 129.669 101.09 130.544 101.09C131.42 101.09 132.13 100.38 132.13 99.5047V83.3328C132.13 81.2935 130.471 79.6342 128.431 79.6342H117.142C115.103 79.6342 113.444 81.2935 113.444 83.3328V135.509H108.272V94.8688C108.272 92.8295 106.612 91.1701 104.573 91.1701H93.2845C91.245 91.1701 89.5859 92.8295 89.5859 94.8688V135.509H84.4139V106.405C84.4139 104.365 82.7548 102.706 80.7153 102.706H69.4266C67.3873 102.706 65.728 104.365 65.728 106.405V120.265C65.728 121.141 66.4377 121.851 67.3131 121.851C68.1886 121.851 68.8983 121.141 68.8983 120.265V106.405C68.8983 106.113 69.1354 105.876 69.4266 105.876H80.7153C81.0067 105.876 81.2437 106.113 81.2437 106.405V135.509H68.8983V126.606C68.8983 125.731 68.1886 125.021 67.3131 125.021C66.4377 125.021 65.728 125.731 65.728 126.606V135.509H60.5561V117.941C60.5561 115.901 58.897 114.242 56.8574 114.242H45.569C43.5297 114.242 41.8704 115.901 41.8704 117.941V135.509H34.5851C33.7097 135.509 33 136.219 33 137.094C33 137.969 33.7097 138.679 34.5851 138.679H139.415C140.29 138.679 141 137.969 141 137.094C141 136.219 140.29 135.509 139.415 135.509ZM92.7561 94.8688C92.7561 94.5775 92.9933 94.3404 93.2845 94.3404H104.573C104.864 94.3404 105.102 94.5775 105.102 94.8688V135.509H92.7561V94.8688ZM45.0406 117.941C45.0406 117.649 45.2778 117.412 45.569 117.412H56.8576C57.1491 117.412 57.386 117.649 57.386 117.941V135.509H45.0406V117.941Z" fill="black"/>
<path d="M49.9271 95.3183C50.014 95.3183 50.1017 95.3151 50.1896 95.3092C61.8798 94.4972 72.8728 91.946 82.8635 87.7264C96.3164 82.0444 107.453 73.4797 115.988 62.2568L121.331 65.9715C122.383 66.7562 123.987 65.8129 123.813 64.5117L121.599 42.4535C121.526 41.5115 120.53 40.8184 119.622 41.0778L98.1532 46.6693C96.8716 46.9584 96.5453 48.7908 97.6477 49.5047L103.039 53.2532C101.966 54.9385 99.6031 58.2802 95.4824 62.3677C94.8608 62.9844 94.8568 63.9879 95.4733 64.6093C96.0898 65.2309 97.0935 65.2349 97.7149 64.6184C104.067 58.317 106.466 53.7095 106.565 53.5166C106.927 52.8103 106.711 51.945 106.059 51.4918L102.287 48.8688L118.629 44.6124L120.315 61.4035L116.539 58.7784C115.832 58.2868 114.863 58.4495 114.354 59.1444C106.049 70.5087 95.0385 79.1426 81.6301 84.8057C69.588 89.8917 57.7665 91.6047 49.9702 92.1463C49.5148 92.263 49.3767 91.4267 49.8303 91.3781C67.198 86.0185 81.7023 78.4838 92.9405 68.9836C93.6092 68.4185 93.6929 67.4184 93.1277 66.7499C92.5628 66.0814 91.5623 65.9972 90.894 66.5626C79.9836 75.7857 65.8534 83.1156 48.8957 88.3488C47.1347 88.8922 46.1014 90.6001 46.4388 92.4097C46.7594 94.1305 48.2044 95.3183 49.9271 95.3183Z" fill="black"/>
</svg>
