<svg width="174" height="174" viewBox="0 0 174 174" fill="none" xmlns="http://www.w3.org/2000/svg">
<path d="M88.1269 174C133.606 174 170.474 137.132 170.474 91.6523C170.474 46.173 133.606 9.30475 88.1269 9.30475C42.6476 9.30475 5.7793 46.173 5.7793 91.6523C5.7793 137.132 42.6476 174 88.1269 174Z" fill="#DFDFDF"/>
<mask id="mask0_2_102" style="mask-type:alpha" maskUnits="userSpaceOnUse" x="0" y="0" width="174" height="174">
<path d="M87 174C135.049 174 174 135.049 174 87C174 38.9512 135.049 0 87 0C38.9512 0 0 38.9512 0 87C0 135.049 38.9512 174 87 174Z" fill="#017CF5"/>
</mask>
<g mask="url(#mask0_2_102)">
<line opacity="0.4" x1="-3.56055" y1="19.5877" x2="175.018" y2="19.5877" stroke="white" stroke-width="0.508772"/>
<line opacity="0.4" x1="-3.56055" y1="36.3771" x2="175.018" y2="36.3771" stroke="white" stroke-width="0.508772"/>
<line opacity="0.4" x1="-3.56055" y1="53.6754" x2="175.018" y2="53.6754" stroke="white" stroke-width="0.508772"/>
<line opacity="0.4" x1="-3.56055" y1="71.4824" x2="175.018" y2="71.4824" stroke="white" stroke-width="0.508772"/>
<line opacity="0.4" x1="-3.56055" y1="93.8684" x2="175.018" y2="93.8684" stroke="white" stroke-width="0.508772"/>
<line opacity="0.4" x1="-3.56055" y1="118.798" x2="175.018" y2="118.798" stroke="white" stroke-width="0.508772"/>
<line opacity="0.4" x1="-3.56055" y1="140.675" x2="175.018" y2="140.675" stroke="white" stroke-width="0.508772"/>
<line opacity="0.4" x1="-3.56055" y1="160.517" x2="175.018" y2="160.517" stroke="white" stroke-width="0.508772"/>
</g>
<g clip-path="url(#clip0_2_102)">
<path d="M99.5371 136.99H74.4651V147.046C74.4651 149.801 76.6986 152.034 79.4539 152.034H94.5483C97.3036 152.034 99.5371 149.801 99.5371 147.046V136.99Z" fill="#D8ECFE"/>
<path d="M86.7184 152.035H79.4534C76.7 152.035 74.4648 149.802 74.4648 147.046V136.989H81.7298V147.046C81.7298 149.802 83.965 152.035 86.7184 152.035Z" fill="#B3DAFE"/>
<path d="M102.045 136.966H71.9564C69.8791 136.966 68.1953 135.282 68.1953 133.205C68.1953 131.127 69.8793 129.444 71.9564 129.444H102.045C104.122 129.444 105.806 131.128 105.806 133.205C105.806 135.282 104.122 136.966 102.045 136.966Z" fill="#EAF6FF"/>
<path d="M79.2235 136.965H71.9586C69.8808 136.965 68.1953 135.282 68.1953 133.204C68.1953 132.165 68.6167 131.226 69.2972 130.545C69.9776 129.865 70.9197 129.443 71.9586 129.443H79.2235C78.1846 129.443 77.2426 129.865 76.5621 130.545C75.8816 131.226 75.4603 132.165 75.4603 133.204C75.4603 135.282 77.1457 136.965 79.2235 136.965Z" fill="#D8ECFE"/>
<path d="M93.2685 103.168C93.2685 106.631 90.4642 109.438 87.0012 109.438V127.678H74.4644V124.007C74.4644 121.604 73.0937 119.401 70.9215 118.371C58.1957 112.342 49.3906 99.3833 49.3906 84.3667V84.3231H61.9275V84.3643C61.9275 87.8248 64.7342 90.6339 68.1947 90.6339C71.6577 90.6339 74.4644 87.8248 74.4644 84.3643V84.3231H87.0012V96.9012C90.4642 96.9012 93.2685 99.7078 93.2685 103.168Z" fill="#AEE69C"/>
<path d="M79.3077 124.007V127.678H74.4644V124.007C74.4644 121.604 73.0937 119.401 70.9215 118.371C58.1957 112.342 49.3906 99.3833 49.3906 84.3667V84.3231H54.2339V84.3667C54.2339 99.3833 63.039 112.342 75.7648 118.371C77.937 119.401 79.3077 121.604 79.3077 124.007Z" fill="#89DAA4"/>
<path d="M124.613 84.3231V84.3643C124.613 99.3761 115.817 112.332 103.096 118.364C100.919 119.396 99.5388 121.597 99.5388 124.007V129.455H87.002V109.438C90.4649 109.438 93.2692 106.631 93.2692 103.168C93.2692 99.7079 90.4649 96.9012 87.002 96.9012V84.3231H99.5388C99.5606 80.8796 102.36 78.0947 105.808 78.0947C109.254 78.0947 112.054 80.8796 112.076 84.3231H124.613Z" fill="#8AC9FE"/>
<path d="M124.612 84.3231H112.075C112.054 80.8795 109.254 78.0946 105.808 78.0946C102.36 78.0946 99.5603 80.8795 99.5385 84.3231H87.0016V71.8274C83.5386 71.8274 80.7344 69.0207 80.7344 65.5578C80.7344 62.0948 83.5386 59.2905 87.0016 59.2905V46.7537C107.76 46.7537 124.59 63.5696 124.612 84.3231Z" fill="#FFE177"/>
<path d="M80.734 65.5578C80.734 69.0207 83.5383 71.8274 87.0012 71.8274V84.3231H74.4644V84.3643C74.4644 87.8248 71.6577 90.6339 68.1947 90.6339C64.7342 90.6339 61.9275 87.8248 61.9275 84.3643V84.3231H49.3906C49.4124 63.5115 66.1896 46.7537 87.0012 46.7537V59.2905C83.5383 59.2905 80.734 62.0948 80.734 65.5578Z" fill="#FE646F"/>
<path d="M87.0012 46.7537V47.0612C68.4902 49.4223 54.2533 65.1533 54.2339 84.3231H49.3906C49.4124 63.5115 66.1896 46.7537 87.0012 46.7537Z" fill="#FD4755"/>
<path d="M120.59 63.7064C120.063 62.8525 118.944 62.5871 118.091 63.1134C117.237 63.6396 116.972 64.7586 117.498 65.6125C120.641 70.7115 122.436 76.5184 122.745 82.5064H113.678C112.834 78.9432 109.618 76.2786 105.81 76.2786C102 76.2786 98.7834 78.9432 97.9394 82.5064H88.8197V71.8269C88.8197 70.8239 88.0068 70.0107 87.0035 70.0107C84.5487 70.0107 82.5518 68.0136 82.5518 65.559C82.5518 63.1044 84.5487 61.1073 87.0035 61.1073C88.0068 61.1073 88.8197 60.2941 88.8197 59.291V48.6147C97.9791 49.0661 106.456 52.9272 112.853 59.6027C113.702 60.3302 114.558 60.3483 115.421 59.6574C116.145 58.9634 116.17 57.8136 115.476 57.0895C107.972 49.2591 97.8699 44.9445 87.0284 44.9379C87.02 44.9379 87.012 44.9367 87.0035 44.9367C86.9953 44.9367 86.9875 44.9379 86.9793 44.9379C77.398 44.9437 68.174 48.4045 61.0042 54.6843C60.2496 55.3452 60.1736 56.4928 60.8347 57.2472C61.4956 58.002 62.6432 58.0778 63.3975 57.4169C69.4567 52.1096 77.1346 49.0223 85.1873 48.6174V57.6806C81.6013 58.5071 78.9193 61.726 78.9193 65.5592C78.9193 69.3924 81.6013 72.6113 85.1873 73.4378V82.5069H74.4674C73.4641 82.5069 72.6511 83.3201 72.6511 84.3231V84.3655C72.6511 86.8203 70.6533 88.8172 68.1972 88.8172C65.7424 88.8172 63.7455 86.8201 63.7455 84.3655V84.3231C63.7455 83.3201 62.9326 82.5069 61.9293 82.5069H51.2573C51.6155 75.3899 54.0243 68.6643 58.2806 62.9559C58.8802 62.1517 58.7143 61.0138 57.9103 60.4142C57.1066 59.8148 55.9681 59.9805 55.3685 60.7845C50.2807 67.6077 47.5863 75.7468 47.5764 84.3236C47.2134 99.3034 56.7726 113.677 70.1457 120.013C71.667 120.734 72.6501 122.302 72.6501 124.007V127.628C68.9215 127.628 66.3803 129.625 66.3803 133.205C66.3803 136.782 68.8407 138.785 72.6501 138.782V147.047C72.6501 150.642 75.876 153.852 79.455 153.852H94.5515C98.1307 153.852 101.356 150.643 101.356 147.047V138.782C105.61 138.785 107.628 136.525 107.626 133.205C107.625 129.743 105.448 127.628 101.356 127.628V124.007C101.356 122.302 102.345 120.731 103.876 120.006C117.633 113.482 126.186 99.4473 126.43 84.3219C126.423 77.0209 124.403 69.8923 120.59 63.7064ZM71.7011 116.73C59.789 111.086 51.9158 99.2097 51.2588 86.1386H60.3089C61.1197 89.7459 64.3487 92.449 68.197 92.449C72.0464 92.449 75.2762 89.7459 76.0872 86.1386H85.1868V96.9007C85.1868 97.9037 85.9997 98.7169 87.003 98.7169C89.4578 98.7169 91.4547 100.714 91.4547 103.169C91.4547 105.623 89.4578 107.62 87.003 107.62C85.9997 107.62 85.1868 108.434 85.1868 109.437V127.627H76.2824V124.006C76.2826 120.905 74.4843 118.049 71.7011 116.73ZM94.5515 150.219H79.455C77.1467 150.219 76.169 148.164 76.2826 146.344H97.7236C97.7278 148.281 97.1136 150.219 94.5515 150.219ZM102.047 135.149H90.8198C89.8165 135.149 89.0035 135.962 89.0035 136.965C89.0035 136.969 89.004 136.973 89.004 136.977C89.004 136.981 89.0035 136.985 89.0035 136.989C89.0035 137.992 89.8165 138.805 90.8198 138.805H97.7239V142.711H76.2829V138.805H82.9061C83.9094 138.805 84.7223 137.992 84.7223 136.989C84.7223 136.985 84.7218 136.981 84.7218 136.977C84.7218 136.973 84.7223 136.969 84.7223 136.965C84.7223 135.962 83.9094 135.149 82.9061 135.149H71.9602C69.0833 135.192 69.0027 131.259 71.9602 131.259H102.047C104.56 131.259 104.923 135.152 102.047 135.149ZM102.32 116.723C99.5278 118.046 97.7236 120.905 97.7236 124.007V127.627H88.8192V111.047C92.4052 110.221 95.0872 107.002 95.0872 103.169C95.0872 99.3356 92.4052 96.1168 88.8192 95.2903V86.1386H99.5392C100.538 86.1386 101.349 85.3325 101.355 84.334C101.371 81.8952 103.369 79.9109 105.809 79.9109C108.248 79.9109 110.246 81.8952 110.261 84.334C110.268 85.3325 111.079 86.1386 112.077 86.1386H122.748C122.09 99.2056 114.222 111.079 102.32 116.723Z" fill="black"/>
<path d="M87.0037 41.0059C86.0004 41.0059 85.1875 40.1927 85.1875 39.1897V31.6673C85.1875 30.6643 86.0004 29.8511 87.0037 29.8511C88.007 29.8511 88.82 30.6643 88.82 31.6673V39.1897C88.82 40.1927 88.007 41.0059 87.0037 41.0059Z" fill="black"/>
<path d="M112.417 47.8154C111.546 47.3182 111.25 46.203 111.752 45.3344L115.513 38.8199C116.014 37.9513 117.125 37.6532 117.994 38.1552C118.863 38.6567 119.16 39.7675 118.659 40.6361L114.898 47.1506C114.562 47.733 113.399 48.3762 112.417 47.8154Z" fill="black"/>
<path d="M131.019 66.4189C130.517 65.5503 130.815 64.4395 131.684 63.938L138.198 60.1769C139.066 59.6754 140.178 59.9728 140.679 60.8417C141.18 61.7103 140.883 62.8211 140.014 63.3226L133.5 67.0837C132.468 67.6889 131.355 67.0018 131.019 66.4189Z" fill="black"/>
<path d="M33.325 122.823C32.8601 121.934 33.1211 120.844 33.9898 120.342L40.504 116.581C41.3722 116.079 42.4832 116.377 42.985 117.246C43.4865 118.114 43.1889 119.225 42.3202 119.727L35.806 123.488C34.7553 124.053 33.7866 123.705 33.325 122.823Z" fill="black"/>
<path d="M59.1082 47.1506L55.3471 40.6361C54.8456 39.7675 55.1432 38.6567 56.0119 38.1552C56.88 37.6534 57.9913 37.951 58.4929 38.8199L62.2539 45.3344C62.7554 46.203 62.4368 47.2792 61.5892 47.8154C60.6067 48.4368 59.4446 47.7333 59.1082 47.1506Z" fill="black"/>
<path d="M40.5066 67.0839L33.9924 63.3229C33.1237 62.8213 32.8261 61.7105 33.3276 60.8419C33.8289 59.973 34.9392 59.6754 35.8086 60.1771L42.3228 63.9382C43.1915 64.4397 43.6189 65.6397 42.9876 66.4192C42.2044 67.3861 41.4174 67.5072 40.5066 67.0839Z" fill="black"/>
<path d="M138.2 123.488L131.686 119.727C130.817 119.225 130.519 118.115 131.021 117.246C131.522 116.377 132.634 116.08 133.502 116.581L140.016 120.342C140.885 120.844 141.222 121.979 140.681 122.823C140.098 123.732 139.251 124.113 138.2 123.488Z" fill="black"/>
<path d="M34.3618 93.6486H26.8397C25.8364 93.6486 25.0234 92.8355 25.0234 91.8324C25.0234 90.8294 25.8364 90.0162 26.8397 90.0162H34.362C35.3653 90.0162 36.1783 90.8294 36.1783 91.8324C36.1783 92.8355 35.3651 93.6486 34.3618 93.6486Z" fill="black"/>
<path d="M147.169 93.6486H139.646C138.643 93.6486 137.83 92.8355 137.83 91.8324C137.83 90.8294 138.643 90.0162 139.646 90.0162H147.169C148.172 90.0162 148.985 90.8294 148.985 91.8324C148.985 92.8355 148.172 93.6486 147.169 93.6486Z" fill="black"/>
</g>
<defs>
<clipPath id="clip0_2_102">
<rect width="124" height="124" fill="white" transform="translate(25 29.8511)"/>
</clipPath>
</defs>
</svg>
