<svg width="174" height="174" viewBox="0 0 174 174" fill="none" xmlns="http://www.w3.org/2000/svg">
<path d="M88.1269 174C133.606 174 170.474 137.132 170.474 91.6523C170.474 46.173 133.606 9.30473 88.1269 9.30473C42.6476 9.30473 5.7793 46.173 5.7793 91.6523C5.7793 137.132 42.6476 174 88.1269 174Z" fill="#DFDFDF"/>
<mask id="mask0_6_256" style="mask-type:alpha" maskUnits="userSpaceOnUse" x="0" y="0" width="174" height="174">
<path d="M87 174C135.049 174 174 135.049 174 87C174 38.9512 135.049 0 87 0C38.9512 0 0 38.9512 0 87C0 135.049 38.9512 174 87 174Z" fill="#017CF5"/>
</mask>
<g mask="url(#mask0_6_256)">
<line opacity="0.4" x1="-3.56055" y1="19.5876" x2="175.018" y2="19.5876" stroke="white" stroke-width="0.508772"/>
<line opacity="0.4" x1="-3.56055" y1="36.3771" x2="175.018" y2="36.3771" stroke="white" stroke-width="0.508772"/>
<line opacity="0.4" x1="-3.56055" y1="53.6753" x2="175.018" y2="53.6753" stroke="white" stroke-width="0.508772"/>
<line opacity="0.4" x1="-3.56055" y1="71.4824" x2="175.018" y2="71.4824" stroke="white" stroke-width="0.508772"/>
<line opacity="0.4" x1="-3.56055" y1="93.8683" x2="175.018" y2="93.8683" stroke="white" stroke-width="0.508772"/>
<line opacity="0.4" x1="-3.56055" y1="118.798" x2="175.018" y2="118.798" stroke="white" stroke-width="0.508772"/>
<line opacity="0.4" x1="-3.56055" y1="140.675" x2="175.018" y2="140.675" stroke="white" stroke-width="0.508772"/>
<line opacity="0.4" x1="-3.56055" y1="160.517" x2="175.018" y2="160.517" stroke="white" stroke-width="0.508772"/>
</g>
<path d="M70.5625 138.875C83.5067 138.875 94 128.382 94 115.438C94 102.493 83.5067 92 70.5625 92C57.6183 92 47.125 102.493 47.125 115.438C47.125 128.382 57.6183 138.875 70.5625 138.875Z" fill="#AAB2BD"/>
<path d="M84.7187 111.375C84.25 113.781 85.6406 115.953 87.7031 116.719C87.0469 125.609 79.625 132.625 70.5625 132.625C61.0625 132.625 53.375 124.937 53.375 115.438C53.375 105.938 61.0625 98.25 70.5625 98.25C77.6562 98.25 83.7656 102.562 86.375 108.703C85.5469 109.359 84.9375 110.281 84.7187 111.375Z" fill="#69D6F4"/>
<path d="M84.625 48.25V70.125C84.625 71.8438 83.2188 73.25 81.5 73.25H75.25V76.375C75.25 77.25 74.8906 78.0625 74.3125 78.625C73.75 79.2031 72.9375 79.5625 72.0625 79.5625C71.1094 79.5625 70.2187 79.1406 69.6094 78.4219L62.75 73.25H50.25C48.5312 73.25 47.125 71.8438 47.125 70.125V48.25C47.125 46.5313 48.5312 45.125 50.25 45.125H81.5C83.2188 45.125 84.625 46.5313 84.625 48.25Z" fill="#E6E9ED"/>
<path d="M73.6875 52.9375C74.6563 53.8906 75.25 55.2187 75.25 56.7031C75.25 58.2812 74.5469 59.7656 73.3281 60.7813L65.875 67L58.4219 60.7813C57.2031 59.7656 56.5 58.2812 56.5 56.7031C56.5 53.75 58.875 51.375 61.8281 51.375H62.1094C63.5156 51.375 64.875 51.9375 65.875 52.9375C66.875 51.9375 68.2344 51.375 69.6406 51.375H69.9219C71.4063 51.375 72.7344 51.9687 73.6875 52.9375Z" fill="#FF826E"/>
<path d="M129.641 120.047C130.547 122.469 129.313 125.172 126.906 126.078C126.219 126.328 125.547 126.422 124.844 126.359C122.984 126.203 121.422 124.844 120.766 123.094L112.578 101.234C112.422 101.266 112.266 101.297 112.094 101.312C111.063 101.437 109.984 101.375 108.859 101.016C105.641 100 103.531 96.9062 103.391 93.5625H119L119.188 93.3906C119.656 93.8594 120.031 94.4219 120.266 95.0469L129.641 120.047Z" fill="#CF9E76"/>
<path d="M103.391 93.5625C103.532 96.9063 105.641 100 108.86 101.016C109.985 101.375 111.063 101.438 112.095 101.313L111.235 111.281C110.954 114.516 108.251 117 105.016 117H93.954H89.3133C88.7508 117 88.204 116.891 87.704 116.719C85.6415 115.953 84.2508 113.781 84.7196 111.375C84.9383 110.281 85.5477 109.359 86.3758 108.703C87.2352 108.016 88.3446 107.625 89.5008 107.625H92.6727H100.813C101.626 107.625 102.313 107 102.376 106.188L103.376 93.25C103.376 93.3594 103.376 93.4531 103.391 93.5625Z" fill="#CF9E76"/>
<path d="M136.188 76.375H127.156C126.609 76.375 126.109 76.0938 125.828 75.6406L124.828 74.4688C120.797 69.7344 114.891 67 108.656 67C105.844 67 103.094 67.5625 100.547 68.6094C98 69.6719 95.6563 71.2187 93.6563 73.2187L90.9531 75.9219C88.9062 77.9687 87.75 80.75 87.75 83.6563V85.75V90.25C87.75 92.5156 89.2812 94.6094 91.5 95.0312C94.5 95.6094 97.125 93.3281 97.125 90.4375V85.75V83.2656C97.125 82.8594 97.2969 82.4531 97.5781 82.1719L101.813 77.9375H103.375V93.1719V93.25C103.375 93.3594 103.375 93.4531 103.391 93.5625H119L119.188 93.3906C119.125 93.3281 119.063 93.2656 119 93.2031V82.0781C121.063 84.3906 123.984 85.75 127.156 85.75H136C138.266 85.75 140.359 84.2188 140.781 82C141.359 79 139.078 76.375 136.188 76.375Z" fill="#B4DD7F"/>
<path d="M111.188 67C117.228 67 122.125 62.1031 122.125 56.0625C122.125 50.0219 117.228 45.125 111.188 45.125C105.147 45.125 100.25 50.0219 100.25 56.0625C100.25 62.1031 105.147 67 111.188 67Z" fill="#F0D0B4"/>
<path d="M141.011 77.0906C139.816 75.6422 138.058 74.8125 136.188 74.8125H127.152L126.02 73.4578C123.578 70.5891 120.494 68.4391 117.081 67.0813C121.009 64.9703 123.688 60.825 123.688 56.0625C123.688 49.1703 118.08 43.5625 111.188 43.5625C104.295 43.5625 98.6875 49.1703 98.6875 56.0625C98.6875 60.1219 100.641 63.7234 103.647 66.0094C99.4766 66.9422 95.6438 69.0187 92.55 72.1125L89.85 74.8125C87.4875 77.175 86.1875 80.3141 86.1875 83.6547V84.1875H50.25C47.6656 84.1875 45.5625 86.2906 45.5625 88.875C45.5625 91.4594 47.6656 93.5625 50.25 93.5625H58.4859C50.7891 97.8297 45.5625 106.031 45.5625 115.438C45.5625 129.222 56.7781 140.438 70.5625 140.438C83.1938 140.438 93.7891 130.938 95.3391 118.562H105.008C109.092 118.562 112.439 115.494 112.789 111.422L113.152 107.231L119.308 123.648C120.203 126.036 122.323 127.711 124.708 127.914C124.891 127.93 125.069 127.938 125.247 127.938C125.992 127.938 126.73 127.805 127.45 127.537C130.67 126.327 132.308 122.717 131.103 119.492L121.725 94.4891C121.463 93.7906 121.066 93.1359 120.563 92.5672V85.4234C122.522 86.6453 124.802 87.3125 127.152 87.3125H136.003C139.097 87.3125 141.753 85.2016 142.317 82.2953C142.678 80.4344 142.203 78.5359 141.011 77.0906ZM101.813 56.0625C101.813 50.8922 106.017 46.6875 111.188 46.6875C116.358 46.6875 120.563 50.8922 120.563 56.0625C120.563 61.2328 116.358 65.4375 111.188 65.4375C106.017 65.4375 101.813 61.2328 101.813 56.0625ZM50.25 90.4375C49.3875 90.4375 48.6875 89.7359 48.6875 88.875C48.6875 88.0141 49.3875 87.3125 50.25 87.3125H86.1875V90.2516C86.1875 93.3453 88.2984 96.0031 91.2063 96.5672C93.0641 96.9266 94.9641 96.4516 96.4094 95.2609C97.8578 94.0672 98.6875 92.3094 98.6875 90.4375V83.2719L101.813 80.1469V93.1734C101.813 93.1984 101.819 93.2234 101.819 93.2484L100.813 106.062H93.7234C89.9234 96.6781 80.7641 90.4375 70.5625 90.4375H50.25ZM89.3125 87.3125H95.5625V90.4375C95.5625 91.3734 95.1453 92.2516 94.4219 92.85C93.6859 93.4547 92.7563 93.6828 91.8016 93.5016C90.3828 93.225 89.3125 91.8281 89.3125 90.2516V87.3125ZM70.5625 137.312C58.5 137.312 48.6875 127.5 48.6875 115.438C48.6875 103.375 58.5 93.5625 70.5625 93.5625C79.0578 93.5625 86.7281 98.5063 90.3188 106.062H89.4969C88.6359 106.062 87.8172 106.239 87.0609 106.538C83.8094 100.505 77.5109 96.6875 70.5625 96.6875C60.2234 96.6875 51.8125 105.098 51.8125 115.438C51.8125 125.777 60.2234 134.188 70.5625 134.188C79.7547 134.188 87.5641 127.437 89.0531 118.534C89.1406 118.537 89.225 118.562 89.3125 118.562H92.1969C90.6703 129.2 81.4828 137.312 70.5625 137.312ZM84.4891 116.284C84.9266 116.816 85.4578 117.23 86.025 117.584C84.9703 125.216 78.3703 131.062 70.5625 131.062C61.9469 131.062 54.9375 124.053 54.9375 115.438C54.9375 106.822 61.9469 99.8125 70.5625 99.8125C76.4906 99.8125 81.8219 103.167 84.4719 108.403C83.8406 109.166 83.3797 110.07 83.1828 111.08C82.8219 112.941 83.2969 114.839 84.4891 116.284ZM109.678 111.153C109.466 113.595 107.459 115.438 105.009 115.438H89.3125C88.3766 115.438 87.4984 115.022 86.9016 114.297C86.2953 113.563 86.0656 112.633 86.25 111.677C86.5266 110.258 87.9203 109.188 89.4969 109.188H100.813C102.433 109.188 103.8 107.922 103.928 106.306L104.428 99.9234C105.5 101.1 106.842 102.014 108.38 102.505C109.036 102.714 109.711 102.817 110.392 102.873L109.678 111.153ZM128.177 120.588C128.78 122.202 127.959 124.006 126.358 124.609C125.9 124.778 125.447 124.844 124.975 124.8C123.784 124.698 122.711 123.816 122.236 122.552L113.581 99.4719L112.3 99.7016C111.259 99.8875 110.289 99.8313 109.331 99.5266C107.342 98.8922 105.825 97.1969 105.225 95.1234H118.558C118.647 95.2734 118.739 95.4234 118.8 95.5859L128.177 120.588ZM139.25 81.7C138.973 83.1172 137.58 84.1875 136.003 84.1875H127.152C124.678 84.1875 122.308 83.2 120.563 81.4609V76.375H117.438V92H104.938V76.375H101.166L96.4781 81.0625C95.8875 81.6531 95.5625 82.4375 95.5625 83.2719V84.1875H89.3125V83.6547C89.3125 81.15 90.2875 78.7953 92.0594 77.0234L94.7609 74.3219C98.4734 70.6078 103.411 68.5625 108.664 68.5625C114.439 68.5625 119.897 71.0844 123.641 75.4828L124.577 76.5812C125.158 77.4328 126.113 77.9375 127.152 77.9375H136.188C137.123 77.9375 138.002 78.3531 138.598 79.0781C139.205 79.8125 139.434 80.7438 139.25 81.7Z" fill="black"/>
<path d="M65.875 69.0344L74.3359 61.9828C75.9094 60.6719 76.8125 58.7437 76.8125 56.6953C76.8125 52.9 73.7234 49.8125 69.9297 49.8125H69.6406C68.2609 49.8125 66.9422 50.2156 65.8672 50.9266C64.7578 50.2016 63.4641 49.8125 62.1094 49.8125H61.8203C58.0266 49.8125 54.9375 52.9 54.9375 56.6953C54.9375 58.7437 55.8406 60.6703 57.4141 61.9828L65.875 69.0344ZM61.8203 52.9375H62.1094C63.0984 52.9375 64.0656 53.3391 64.8703 54.1344L65.9766 55.0484L66.9859 54.0391C67.6844 53.3391 68.6516 52.9375 69.6406 52.9375H69.9297C72.0016 52.9375 73.6875 54.6234 73.6875 56.6953C73.6875 57.8141 73.1953 58.8656 72.3344 59.5828L65.875 64.9656L59.4156 59.5828C58.5547 58.8656 58.0625 57.8141 58.0625 56.6953C58.0625 54.6234 59.7484 52.9375 61.8203 52.9375Z" fill="black"/>
<path d="M50.25 74.8125H62.2266L68.5344 79.5687C69.4344 80.5625 70.7078 81.1297 72.0578 81.1297C74.6797 81.1297 76.8125 78.9969 76.8125 76.375V74.8125H81.5C84.0844 74.8125 86.1875 72.7094 86.1875 70.125V48.25C86.1875 45.6656 84.0844 43.5625 81.5 43.5625H50.25C47.6656 43.5625 45.5625 45.6656 45.5625 48.25V70.125C45.5625 72.7094 47.6656 74.8125 50.25 74.8125ZM48.6875 48.25C48.6875 47.3891 49.3875 46.6875 50.25 46.6875H81.5C82.3625 46.6875 83.0625 47.3891 83.0625 48.25V70.125C83.0625 70.9859 82.3625 71.6875 81.5 71.6875H73.6875V76.375C73.6875 77.2734 72.9563 78.0047 72.0578 78.0047C71.5719 78.0047 71.1156 77.7906 70.8063 77.4187L63.2734 71.6875H50.25C49.3875 71.6875 48.6875 70.9859 48.6875 70.125V48.25Z" fill="black"/>
<path d="M72.1719 117.362L67.8984 105.967L61.9688 113.875H58.0625V117H63.5312L66.9766 112.408L72.0781 126.013L76.3078 115.437H81.5V112.312H74.1922L72.1719 117.362Z" fill="black"/>
</svg>
