<svg width="174" height="174" viewBox="0 0 174 174" fill="none" xmlns="http://www.w3.org/2000/svg">
<path d="M88.1269 174C133.606 174 170.474 137.132 170.474 91.6523C170.474 46.173 133.606 9.30473 88.1269 9.30473C42.6476 9.30473 5.7793 46.173 5.7793 91.6523C5.7793 137.132 42.6476 174 88.1269 174Z" fill="#DFDFDF"/>
<mask id="mask0_6_418" style="mask-type:alpha" maskUnits="userSpaceOnUse" x="0" y="0" width="174" height="174">
<path d="M87 174C135.049 174 174 135.049 174 87C174 38.9512 135.049 0 87 0C38.9512 0 0 38.9512 0 87C0 135.049 38.9512 174 87 174Z" fill="#017CF5"/>
</mask>
<g mask="url(#mask0_6_418)">
<line opacity="0.4" x1="-3.56055" y1="19.5876" x2="175.018" y2="19.5876" stroke="white" stroke-width="0.508772"/>
<line opacity="0.4" x1="-3.56055" y1="36.3771" x2="175.018" y2="36.3771" stroke="white" stroke-width="0.508772"/>
<line opacity="0.4" x1="-3.56055" y1="53.6753" x2="175.018" y2="53.6753" stroke="white" stroke-width="0.508772"/>
<line opacity="0.4" x1="-3.56055" y1="71.4824" x2="175.018" y2="71.4824" stroke="white" stroke-width="0.508772"/>
<line opacity="0.4" x1="-3.56055" y1="93.8683" x2="175.018" y2="93.8683" stroke="white" stroke-width="0.508772"/>
<line opacity="0.4" x1="-3.56055" y1="118.798" x2="175.018" y2="118.798" stroke="white" stroke-width="0.508772"/>
<line opacity="0.4" x1="-3.56055" y1="140.675" x2="175.018" y2="140.675" stroke="white" stroke-width="0.508772"/>
<line opacity="0.4" x1="-3.56055" y1="160.517" x2="175.018" y2="160.517" stroke="white" stroke-width="0.508772"/>
</g>
<path d="M36.2129 59.5196C36.2129 47.3802 46.0539 37.5392 58.1933 37.5392C70.3327 37.5392 80.1738 47.3802 80.1738 59.5196" fill="white"/>
<path d="M58.193 37.5392C57.576 37.5392 56.9653 37.5659 56.3613 37.6156C67.6437 38.5466 76.5101 47.997 76.5101 59.5196H80.1735C80.1735 47.38 70.3324 37.5392 58.193 37.5392Z" fill="#C8D1DA"/>
<path d="M76.5103 129.124H39.8763L36.2129 66.8464H80.1738L76.5103 129.124Z" fill="#C6FFF6"/>
<path d="M80.1738 66.8464L79.9585 70.5098H36.4281L36.2129 66.8464H80.1738Z" fill="#A4D7F5"/>
<path d="M72.0831 59.5196L81.6748 38.5947C81.8832 38.1367 81.9816 37.6651 81.9816 37.2071C81.9816 35.4533 80.5689 33.8757 78.6457 33.8757C77.3452 33.8757 76.1614 34.6336 75.6188 35.8173L64.7559 59.5196H72.0831Z" fill="#F8E868"/>
<path d="M78.0116 38.5947L68.4199 59.5196H72.0833L81.675 38.5947C82.6848 36.3875 81.0729 33.8757 78.6459 33.8757C77.9819 33.8757 77.3499 34.0726 76.8187 34.423C78.1147 35.2839 78.7329 37.0171 78.0116 38.5947Z" fill="#E8AB4C"/>
<path d="M76.5111 66.8464L72.8477 129.124H76.5111L80.1745 66.8464H76.5111Z" fill="#A4D7F5"/>
<path d="M38.7988 110.807L39.0143 114.471H77.3729L77.5883 110.807H38.7988Z" fill="#A4D7F5"/>
<path d="M75.8654 77.8366L72.8477 129.124H76.5111L79.5288 77.8366H75.8654Z" fill="#A4D7F5"/>
<path d="M30.7168 59.5196H85.6679V66.8464H30.7168V59.5196Z" fill="white"/>
<path d="M82.0059 59.5196H85.6693V66.8464H82.0059V59.5196Z" fill="#C8D1DA"/>
<path d="M80.1734 110.807H36.2126L34.3809 77.8366H82.0051L80.1734 110.807Z" fill="#87BCC4"/>
<path d="M78.3415 77.8366L76.5098 110.807H80.1732L82.0049 77.8366H78.3415Z" fill="#5FA6B0"/>
<path d="M58.194 103.48C62.2405 103.48 65.5208 99.38 65.5208 94.3219C65.5208 89.2638 62.2405 85.1634 58.194 85.1634C54.1475 85.1634 50.8672 89.2638 50.8672 94.3219C50.8672 99.38 54.1475 103.48 58.194 103.48Z" fill="#F0D5B3"/>
<path d="M58.193 85.1634C57.5606 85.1634 56.9468 85.2637 56.3613 85.4519C59.5215 86.4685 61.8564 90.0543 61.8564 94.3219C61.8564 98.5895 59.5215 102.175 56.3613 103.192C56.9468 103.38 57.5606 103.48 58.193 103.48C62.2395 103.48 65.5198 99.3799 65.5198 94.3219C65.5198 89.2639 62.2395 85.1634 58.193 85.1634Z" fill="#E8BC85"/>
<path d="M133.294 66.8464V118.134H82.0059L133.294 66.8464Z" fill="#E8BC85"/>
<path d="M96.6582 125.461V96.1536H125.965" fill="#F8E868"/>
<path d="M103.986 118.134V96.1536H100.322V121.797L103.986 118.134Z" fill="#E8AB4C"/>
<path d="M103.986 118.134V88.8268H133.294" fill="#F8E868"/>
<path d="M103.986 118.134L133.294 88.8268H127.798L103.986 112.639V118.134Z" fill="#E8AB4C"/>
<path d="M126.705 95.4145L138.049 84.0706C138.39 82.4198 137.923 80.635 136.642 79.3539C134.619 77.3308 131.338 77.3308 129.315 79.3539L129.079 79.59C128.574 79.4371 128.038 79.3539 127.483 79.3539C124.448 79.3539 121.988 81.8142 121.988 84.8491C121.988 85.4041 122.071 85.9396 122.224 86.4447L121.988 86.6808C119.965 88.7039 119.965 91.9845 121.988 94.0076C123.269 95.2888 125.054 95.7559 126.705 95.4145Z" fill="#D8FC7E"/>
<path d="M126.706 95.4145L138.05 84.0705C138.363 82.5562 137.994 80.9308 136.942 79.6832L122.318 94.3068C123.566 95.3584 125.191 95.7277 126.706 95.4145Z" fill="#8EDF78"/>
<path d="M96.6575 125.461L109.479 112.639C107.808 110.415 105.149 108.976 102.153 108.976C97.0946 108.976 92.9941 113.076 92.9941 118.134C92.9941 121.13 94.4332 123.79 96.6575 125.461Z" fill="#FF6A47"/>
<path d="M96.6579 125.461L109.48 112.639C108.694 111.593 107.687 110.723 106.531 110.092L94.1113 122.512C94.7421 123.668 95.6115 124.675 96.6579 125.461Z" fill="#D03582"/>
<path d="M107.65 114.471L120.472 101.649C118.801 99.4243 116.141 97.9853 113.145 97.9853C108.087 97.9853 103.986 102.086 103.986 107.144C103.986 110.14 105.425 112.8 107.65 114.471Z" fill="#FF6A47"/>
<path d="M107.648 114.471L120.47 101.649C119.684 100.602 118.677 99.733 117.521 99.1022L105.102 111.522C105.732 112.678 106.602 113.685 107.648 114.471Z" fill="#D03582"/>
<path d="M144.282 77.8366V129.124H92.9941L144.282 77.8366Z" fill="#F0D5B3"/>
<path d="M140.619 81.5V129.124H144.283V77.8366L140.619 81.5Z" fill="#E8BC85"/>
<path d="M92.9941 129.124H144.282V125.461H96.6575L92.9941 129.124Z" fill="#E8BC85"/>
<path d="M58.1925 105.198C63.1793 105.198 67.2365 100.319 67.2365 94.3219C67.2365 88.3251 63.1793 83.4462 58.1925 83.4462C53.2057 83.4462 49.1484 88.3251 49.1484 94.3219C49.1484 100.319 53.2057 105.198 58.1925 105.198ZM63.8021 94.3219C63.8021 97.7889 62.0056 100.709 59.5827 101.532C59.637 101.402 59.6961 101.271 59.7583 101.132C60.1318 100.302 60.5966 99.2693 60.5966 97.3744C60.5966 95.4795 60.1318 94.4467 59.7583 93.6169C59.4474 92.9257 59.2228 92.4265 59.2228 91.2685C59.2228 90.1108 59.4474 89.6117 59.7583 88.9207C59.9456 88.5046 60.1558 88.0373 60.3188 87.4361C62.3607 88.5497 63.8021 91.2167 63.8021 94.3219ZM56.802 87.1121C56.7477 87.2419 56.6889 87.3729 56.6266 87.5112C56.2532 88.3409 55.7884 89.3736 55.7884 91.2685C55.7884 93.1633 56.2532 94.1962 56.6266 95.026C56.9375 95.7172 57.1621 96.2163 57.1621 97.3744C57.1621 98.5325 56.9375 99.0317 56.6266 99.7229C56.4393 100.139 56.2291 100.606 56.0661 101.208C54.0242 100.094 52.5829 97.4271 52.5829 94.3219C52.5829 90.8552 54.3791 87.9348 56.802 87.1121Z" fill="black"/>
<path d="M139.345 80.346C139.004 79.5369 138.503 78.787 137.856 78.1395C137.033 77.3166 136.052 76.7458 135.01 76.4264V62.7005L114.677 83.0331L117.105 85.4617L121.129 81.4377C120.581 82.4539 120.27 83.6158 120.27 84.8488C120.27 85.211 120.297 85.5716 120.351 85.9281C120.042 86.2993 119.777 86.6954 119.558 87.1094H102.268V94.4362H94.9413V102.769L78.8328 118.877L79.2065 112.524H81.7977L83.8201 76.1194H81.3478L81.7924 68.5636H87.3855V57.8023H81.8288C81.5845 54.4059 80.621 51.2052 79.0904 48.3524L83.2353 39.309C83.955 37.7388 83.8277 35.9334 82.8949 34.4797C81.9621 33.0263 80.374 32.1585 78.6467 32.1585C76.6792 32.1585 74.8782 33.3143 74.0583 35.1027L71.7661 40.104C67.9191 37.4063 63.2375 35.8219 58.1928 35.8219C45.7033 35.8219 35.4396 45.5338 34.5567 57.8023H29V68.5636H34.5931L35.0377 76.1194H32.5654L34.5878 112.524H37.179L38.2565 130.841H78.129L78.7756 119.851H91.4111C91.7452 121.984 92.6997 123.945 94.1683 125.523L88.8495 130.841H146V73.691L139.345 80.346ZM78.3838 57.8023H74.7591L77.1964 52.4845C77.8204 54.1641 78.2275 55.948 78.3838 57.8023ZM72.9858 45.6856C73.8131 46.5697 74.5625 47.5279 75.2223 48.5488L70.9813 57.8023H67.4323L72.9858 45.6856ZM77.1804 36.5338C77.4424 35.9623 78.018 35.593 78.6467 35.593C79.207 35.593 79.7018 35.8634 80.0042 36.3348C80.3069 36.8065 80.3465 37.3688 80.1132 37.878L76.8713 44.9511C76.1496 44.0279 75.3613 43.1593 74.5132 42.3528L77.1804 36.5338ZM32.4344 61.2368H50.8659V57.8023H38.0017C38.8761 47.4299 47.5977 39.2564 58.1928 39.2564C62.7313 39.2564 66.9261 40.7563 70.3076 43.2863L63.6544 57.8023H54.5294V61.2368H83.9511V65.1292H32.4344V61.2368ZM38.0335 68.5636H78.352L77.9076 76.1194H38.4779L38.0335 68.5636ZM80.1897 79.5538L78.5487 109.09H37.8368L36.1958 79.5538H80.1897ZM41.495 127.407L40.6194 112.524H75.7661L74.8906 127.407H41.495ZM136.435 83.2559L125.89 93.8006C124.897 93.8713 123.923 93.5139 123.202 92.7931C121.852 91.4429 121.852 89.2456 123.202 87.8949L124.166 86.9312L123.868 85.9465C123.76 85.5909 123.705 85.2216 123.705 84.8488C123.705 82.7657 125.4 81.0709 127.483 81.0709C127.856 81.0709 128.225 81.1254 128.581 81.2333L129.566 81.5316L130.529 80.5681C131.88 79.2177 134.077 79.2177 135.427 80.5681C136.148 81.2891 136.506 82.2624 136.435 83.2559ZM131.575 70.992V76.2657C130.493 76.4887 129.455 76.9725 128.562 77.7175C128.206 77.6637 127.845 77.6365 127.483 77.6365C126.25 77.6365 125.088 77.9476 124.072 78.4955L131.575 70.992ZM118.76 90.544C118.808 92.2432 119.48 93.9276 120.774 95.222C121.421 95.8695 122.171 96.3698 122.98 96.7109L120.533 99.1583C118.54 97.303 115.934 96.2681 113.144 96.2681C110.268 96.2681 107.649 97.3902 105.703 99.2197V90.544H118.76ZM107.59 112.101C106.377 110.75 105.703 109.007 105.703 107.144C105.703 103.041 109.041 99.7025 113.144 99.7025C115.007 99.7025 116.75 100.377 118.101 101.59L107.59 112.101ZM102.268 97.8708V107.259C102.23 107.259 102.192 107.258 102.154 107.258C100.826 107.258 99.5531 107.498 98.3757 107.935V97.8708H102.268ZM94.9413 107.626V110C93.1013 111.634 91.8176 113.881 91.4134 116.417H86.1505L94.9413 107.626ZM94.7123 118.134C94.7123 114.031 98.0504 110.693 102.154 110.693C102.392 110.693 102.63 110.704 102.866 110.726C103.354 112.135 104.13 113.428 105.158 114.532L96.5999 123.091C95.3871 121.74 94.7123 119.997 94.7123 118.134ZM142.566 127.407H97.1407L142.566 81.9822V127.407Z" fill="black"/>
<path d="M130.447 107.541L133.037 104.951L135.466 107.379L132.876 109.969L130.447 107.541Z" fill="white"/>
<path d="M125.268 112.721L127.858 110.131L130.286 112.559L127.696 115.149L125.268 112.721Z" fill="white"/>
<path d="M120.088 117.901L122.678 115.311L125.106 117.739L122.516 120.329L120.088 117.901Z" fill="white"/>
</svg>
