<svg width="174" height="174" viewBox="0 0 174 174" fill="none" xmlns="http://www.w3.org/2000/svg">
<path d="M88.1269 174C133.606 174 170.474 137.132 170.474 91.6523C170.474 46.173 133.606 9.30473 88.1269 9.30473C42.6476 9.30473 5.7793 46.173 5.7793 91.6523C5.7793 137.132 42.6476 174 88.1269 174Z" fill="#DFDFDF"/>
<mask id="mask0_6_229" style="mask-type:alpha" maskUnits="userSpaceOnUse" x="0" y="0" width="174" height="174">
<path d="M87 174C135.049 174 174 135.049 174 87C174 38.9512 135.049 0 87 0C38.9512 0 0 38.9512 0 87C0 135.049 38.9512 174 87 174Z" fill="#017CF5"/>
</mask>
<g mask="url(#mask0_6_229)">
<line opacity="0.4" x1="-3.56055" y1="19.5876" x2="175.018" y2="19.5876" stroke="white" stroke-width="0.508772"/>
<line opacity="0.4" x1="-3.56055" y1="36.3771" x2="175.018" y2="36.3771" stroke="white" stroke-width="0.508772"/>
<line opacity="0.4" x1="-3.56055" y1="53.6753" x2="175.018" y2="53.6753" stroke="white" stroke-width="0.508772"/>
<line opacity="0.4" x1="-3.56055" y1="71.4824" x2="175.018" y2="71.4824" stroke="white" stroke-width="0.508772"/>
<line opacity="0.4" x1="-3.56055" y1="93.8683" x2="175.018" y2="93.8683" stroke="white" stroke-width="0.508772"/>
<line opacity="0.4" x1="-3.56055" y1="118.798" x2="175.018" y2="118.798" stroke="white" stroke-width="0.508772"/>
<line opacity="0.4" x1="-3.56055" y1="140.675" x2="175.018" y2="140.675" stroke="white" stroke-width="0.508772"/>
<line opacity="0.4" x1="-3.56055" y1="160.517" x2="175.018" y2="160.517" stroke="white" stroke-width="0.508772"/>
</g>
<path d="M86.9809 56.1244C87.5719 55.8956 88.22 55.7812 88.9062 55.7812H98.4375V61.5C98.4375 62.5484 99.2953 63.4062 100.344 63.4062H111.781C112.83 63.4062 113.688 62.5484 113.688 61.5V55.7812H127.031C130.196 55.7812 132.75 58.3356 132.75 61.5V71.0312H83.4925H83.1875V67.2188V61.5C83.1875 59.0219 84.7697 56.9059 86.9809 56.1244Z" fill="#969FAA"/>
<path d="M132.75 128.219V133.938C132.75 137.102 130.196 139.656 127.031 139.656H88.9062C85.7419 139.656 83.1875 137.102 83.1875 133.938V128.181V124.406H125.125C125.125 125.455 125.544 126.408 126.25 127.094C126.936 127.799 127.889 128.219 128.938 128.219H132.75Z" fill="#969FAA"/>
<path d="M60.3125 101.531V122.5L41.25 128.219V95.8125L60.3125 101.531Z" fill="#FFE177"/>
<path d="M93.0433 103.762L86.6193 97.3375C85.6089 96.3272 84.4461 95.5266 83.1689 94.9738L83.188 94.9547V71.565C83.3024 71.3934 83.3977 71.2219 83.493 71.0312H132.751V97.7188V105.344H128.938C126.841 105.344 125.126 107.059 125.126 109.156C125.126 110.205 125.545 111.158 126.25 111.844C126.936 112.549 127.89 112.969 128.938 112.969C126.841 112.969 125.126 114.684 125.126 116.781C125.126 117.83 125.545 118.783 126.25 119.469C126.936 120.174 127.89 120.594 128.938 120.594C126.841 120.594 125.126 122.309 125.126 124.406H83.188V109.156L85.4183 111.387C86.4286 112.397 87.8011 112.969 89.2308 112.969C90.7177 112.969 92.0711 112.359 93.0433 111.387C94.0155 110.414 94.6255 109.061 94.6255 107.574C94.6255 106.144 94.0536 104.772 93.0433 103.762Z" fill="#69D6F4"/>
<path d="M83.1875 71.0312V71.565C80.9191 75.7397 77.6784 79.3806 73.6562 82.1828L65.345 87.9206C63.3053 89.3313 60.8844 90.0938 58.4062 90.0938C55.9281 90.0938 53.5072 89.3313 51.4675 87.9206L43.1562 82.1828C38.9816 79.2853 35.6456 75.4538 33.3581 71.0884C31.0706 66.7231 29.8125 61.805 29.8125 56.7153C29.8125 52.2356 31.6234 48.1944 34.5591 45.2778C37.4756 42.3422 41.5169 40.5312 45.9966 40.5312C50.2856 40.5312 54.3841 42.2278 57.4341 45.2778L58.4062 46.25L59.3784 45.2778C60.9034 43.7528 62.6953 42.5709 64.6397 41.7512C66.565 40.9506 68.6619 40.5312 70.8159 40.5312C79.5656 40.5312 86.6759 47.4509 86.9809 56.1244C84.7697 56.9059 83.1875 59.0219 83.1875 61.5V67.2188V71.0312Z" fill="#FF826E"/>
<path d="M41.25 67.2188C43.3556 67.2188 45.0625 65.5118 45.0625 63.4062C45.0625 61.3007 43.3556 59.5938 41.25 59.5938C39.1444 59.5938 37.4375 61.3007 37.4375 63.4062C37.4375 65.5118 39.1444 67.2188 41.25 67.2188Z" fill="#FCD770"/>
<path d="M113.688 55.7812V61.5C113.688 62.5484 112.83 63.4062 111.781 63.4062H100.344C99.2953 63.4062 98.4375 62.5484 98.4375 61.5V55.7812H113.688Z" fill="#E6E9ED"/>
<path d="M135.438 121.718C136.143 122.405 136.562 123.358 136.562 124.406C136.562 126.503 134.847 128.219 132.75 128.219H128.938C127.889 128.219 126.936 127.799 126.25 127.094C125.544 126.408 125.125 125.455 125.125 124.406C125.125 122.309 126.841 120.594 128.938 120.594H132.75C133.798 120.594 134.752 121.013 135.438 121.718Z" fill="#F0D0B4"/>
<path d="M136.562 116.781C136.562 118.878 134.847 120.594 132.75 120.594H128.938C127.889 120.594 126.936 120.174 126.25 119.469C125.544 118.783 125.125 117.83 125.125 116.781C125.125 114.684 126.841 112.969 128.938 112.969H132.75C133.798 112.969 134.752 113.388 135.438 114.093C136.143 114.78 136.562 115.733 136.562 116.781Z" fill="#F0D0B4"/>
<path d="M132.75 105.344C133.798 105.344 134.752 105.763 135.438 106.468C136.143 107.155 136.562 108.108 136.562 109.156C136.562 111.253 134.847 112.969 132.75 112.969H128.938C127.889 112.969 126.936 112.549 126.25 111.844C125.544 111.158 125.125 110.205 125.125 109.156C125.125 107.059 126.841 105.344 128.938 105.344H132.75Z" fill="#F0D0B4"/>
<path d="M140.375 97.7188C142.472 97.7188 144.188 99.4344 144.188 101.531C144.188 102.58 143.768 103.533 143.063 104.219C142.377 104.924 141.423 105.344 140.375 105.344H132.75V97.7188H140.375Z" fill="#F0D0B4"/>
<path d="M83.1875 109.156V124.406V128.181C76.2869 127.952 69.5006 126.427 63.1528 123.72L60.3125 122.5V101.531L73.0844 95.1453C74.7238 94.3256 76.5156 93.9062 78.3266 93.9062C80.0041 93.9062 81.6625 94.2684 83.1684 94.9738C84.4456 95.5266 85.6084 96.3272 86.6187 97.3375L93.0428 103.762C94.0531 104.772 94.625 106.144 94.625 107.574C94.625 109.061 94.015 110.414 93.0428 111.387C92.0706 112.359 90.7172 112.969 89.2303 112.969C87.8006 112.969 86.4281 112.397 85.4178 111.387L83.1875 109.156Z" fill="#F0D0B4"/>
<path d="M121.312 92V99.625C121.312 100.673 120.455 101.531 119.406 101.531H113.688V107.25C113.688 108.298 112.83 109.156 111.781 109.156H104.156C103.108 109.156 102.25 108.298 102.25 107.25V101.531H96.5312C95.4828 101.531 94.625 100.673 94.625 99.625V92C94.625 90.9516 95.4828 90.0938 96.5312 90.0938H102.25V84.375C102.25 83.3266 103.108 82.4688 104.156 82.4688H111.781C112.83 82.4688 113.688 83.3266 113.688 84.375V90.0938H119.406C120.455 90.0938 121.312 90.9516 121.312 92Z" fill="#90EE92"/>
<path d="M100.344 130.125H115.594V133.938H100.344V130.125Z" fill="black"/>
<path d="M140.375 95.8125H134.656V61.5C134.656 57.2948 131.236 53.875 127.031 53.875H88.9062C88.8243 53.875 88.748 53.896 88.6661 53.8998C87.3107 45.2607 79.8382 38.625 70.8255 38.625C66.1666 38.625 61.7784 40.3749 58.4062 43.5641C55.0341 40.3749 50.6459 38.625 45.987 38.625C36.0173 38.625 27.9062 46.7361 27.9062 56.7058C27.9062 67.4952 33.2018 77.6021 42.0735 83.744L50.3733 89.4914C52.7447 91.1327 55.5221 92 58.4062 92C61.2904 92 64.0678 91.1327 66.4392 89.4914L74.739 83.744C77.1962 82.0437 79.375 79.9792 81.2812 77.6879V92.3412C80.3148 92.1239 79.3273 92 78.3304 92C76.2259 92 74.1195 92.4975 72.2342 93.4392L60.1371 99.4878L39.3438 93.2505V130.781L60.1981 124.524L62.3941 125.466C68.4179 128.047 74.7638 129.557 81.2812 129.986V133.938C81.2812 138.143 84.7011 141.562 88.9062 141.562H127.031C131.236 141.562 134.656 138.143 134.656 133.938V129.774C136.869 128.985 138.469 126.888 138.469 124.406C138.469 122.937 137.895 121.608 136.982 120.594C137.897 119.58 138.469 118.251 138.469 116.781C138.469 115.312 137.895 113.983 136.982 112.969C137.897 111.955 138.469 110.626 138.469 109.156C138.469 108.485 138.332 107.849 138.118 107.25H140.375C143.528 107.25 146.094 104.684 146.094 101.531C146.094 98.3783 143.528 95.8125 140.375 95.8125ZM100.344 57.6875H111.781V61.5H100.344V57.6875ZM96.5312 57.6875V61.5C96.5312 63.6026 98.2412 65.3125 100.344 65.3125H111.781C113.884 65.3125 115.594 63.6026 115.594 61.5V57.6875H127.031C129.134 57.6875 130.844 59.3974 130.844 61.5V69.125H85.0938V61.5C85.0938 59.3974 86.8037 57.6875 88.9062 57.6875H96.5312ZM72.5697 80.6083L64.2699 86.3556C60.8081 88.7517 56.0082 88.7517 52.5464 86.3556L44.2428 80.6083C36.4005 75.1793 31.7188 66.2447 31.7188 56.7058C31.7188 48.8387 38.118 42.4375 45.987 42.4375C49.7976 42.4375 53.3814 43.9225 56.0768 46.616L58.4062 48.9454L60.7357 46.616C63.4311 43.9225 67.0149 42.4375 70.8255 42.4375C78.115 42.4375 84.133 47.9332 84.9813 54.9959C82.7738 56.3341 81.2812 58.7359 81.2812 61.5V65.3125H71.283L66.2981 47.8703L56.5229 73.2863L53.0306 63.9724C52.474 62.4932 51.0405 61.5 49.4602 61.5H46.618C45.8288 59.2868 43.7319 57.6875 41.25 57.6875C38.0971 57.6875 35.5312 60.2533 35.5312 63.4062C35.5312 66.5592 38.0971 69.125 41.25 69.125C43.7319 69.125 45.8288 67.5257 46.618 65.3125H49.4602L56.479 84.0242L65.7644 59.8797L67.6153 66.3571C68.0786 67.987 69.5864 69.125 71.2811 69.125H81.2812V71.0103C79.131 74.8037 76.1592 78.1244 72.5697 80.6083ZM43.1562 63.4062C43.1562 64.4566 42.3022 65.3125 41.25 65.3125C40.1978 65.3125 39.3438 64.4566 39.3438 63.4062C39.3438 62.3559 40.1978 61.5 41.25 61.5C42.3022 61.5 43.1562 62.3559 43.1562 63.4062ZM85.0938 72.9375H130.844V103.438H128.938C125.785 103.438 123.219 106.003 123.219 109.156C123.219 110.626 123.793 111.955 124.706 112.969C123.791 113.983 123.219 115.312 123.219 116.781C123.219 118.251 123.793 119.58 124.706 120.594C124.208 121.145 123.823 121.787 123.569 122.5H85.0938V113.577C86.3023 114.414 87.732 114.875 89.2341 114.875C93.2563 114.875 96.5312 111.6 96.5312 107.578C96.5312 105.918 95.9498 104.358 94.9357 103.075C95.4218 103.302 95.9594 103.438 96.5312 103.438H100.344V107.25C100.344 109.353 102.054 111.062 104.156 111.062H111.781C113.884 111.062 115.594 109.353 115.594 107.25V103.438H119.406C121.509 103.438 123.219 101.728 123.219 99.625V92C123.219 89.8974 121.509 88.1875 119.406 88.1875H115.594V84.375C115.594 82.2724 113.884 80.5625 111.781 80.5625H104.156C102.054 80.5625 100.344 82.2724 100.344 84.375V88.1875H96.5312C94.4287 88.1875 92.7188 89.8974 92.7188 92V99.625C92.7188 100.115 92.8198 100.582 92.9894 101.013L87.9703 95.9936C87.1144 95.1377 86.1384 94.4152 85.0938 93.8186V72.9375ZM134.656 116.781C134.656 117.833 133.802 118.688 132.75 118.688H128.938C127.885 118.688 127.031 117.833 127.031 116.781C127.031 115.729 127.885 114.875 128.938 114.875H132.75C133.802 114.875 134.656 115.729 134.656 116.781ZM119.406 92V99.625H111.781V107.25H104.156V99.625H96.5312V92H104.156V84.375H111.781V92H119.406ZM43.1562 98.3745L58.4062 102.949V121.082L43.1562 125.657V98.3745ZM63.8943 121.962L62.2188 121.244V102.709L73.9384 96.8495C77.6117 95.0157 82.3754 95.7896 85.2729 98.689L91.697 105.113C92.347 105.761 92.7188 106.659 92.7188 107.578C92.7188 109.499 91.1556 111.062 89.2341 111.062C88.3172 111.062 87.4175 110.691 86.7693 110.043L81.8398 105.113C80.7608 104.034 79.3235 103.438 77.7966 103.438H73.6562V107.25H77.7966C78.298 107.25 78.7898 107.452 79.1443 107.809L81.2812 109.945V126.17C75.2842 125.744 69.4434 124.34 63.8943 121.962ZM127.031 137.75H88.9062C86.8037 137.75 85.0938 136.04 85.0938 133.938V126.312H123.569C124.359 128.526 126.456 130.125 128.938 130.125H130.844V133.938C130.844 136.04 129.134 137.75 127.031 137.75ZM132.75 126.312H128.938C127.885 126.312 127.031 125.458 127.031 124.406C127.031 123.354 127.885 122.5 128.938 122.5H132.75C133.802 122.5 134.656 123.354 134.656 124.406C134.656 125.458 133.802 126.312 132.75 126.312ZM134.656 109.156C134.656 110.208 133.802 111.062 132.75 111.062H128.938C127.885 111.062 127.031 110.208 127.031 109.156C127.031 108.104 127.885 107.25 128.938 107.25H132.75C133.802 107.25 134.656 108.104 134.656 109.156ZM140.375 103.438H134.656V99.625H140.375C141.427 99.625 142.281 100.479 142.281 101.531C142.281 102.583 141.427 103.438 140.375 103.438Z" fill="black"/>
</svg>
