<svg width="174" height="174" viewBox="0 0 174 174" fill="none" xmlns="http://www.w3.org/2000/svg">
<path d="M88.1269 174C133.606 174 170.474 137.132 170.474 91.6523C170.474 46.173 133.606 9.30473 88.1269 9.30473C42.6476 9.30473 5.7793 46.173 5.7793 91.6523C5.7793 137.132 42.6476 174 88.1269 174Z" fill="#DFDFDF"/>
<mask id="mask0_6_361" style="mask-type:alpha" maskUnits="userSpaceOnUse" x="0" y="0" width="174" height="174">
<path d="M87 174C135.049 174 174 135.049 174 87C174 38.9512 135.049 0 87 0C38.9512 0 0 38.9512 0 87C0 135.049 38.9512 174 87 174Z" fill="#017CF5"/>
</mask>
<g mask="url(#mask0_6_361)">
<line opacity="0.4" x1="-3.56055" y1="19.5876" x2="175.018" y2="19.5876" stroke="white" stroke-width="0.508772"/>
<line opacity="0.4" x1="-3.56055" y1="36.3771" x2="175.018" y2="36.3771" stroke="white" stroke-width="0.508772"/>
<line opacity="0.4" x1="-3.56055" y1="53.6753" x2="175.018" y2="53.6753" stroke="white" stroke-width="0.508772"/>
<line opacity="0.4" x1="-3.56055" y1="71.4824" x2="175.018" y2="71.4824" stroke="white" stroke-width="0.508772"/>
<line opacity="0.4" x1="-3.56055" y1="93.8683" x2="175.018" y2="93.8683" stroke="white" stroke-width="0.508772"/>
<line opacity="0.4" x1="-3.56055" y1="118.798" x2="175.018" y2="118.798" stroke="white" stroke-width="0.508772"/>
<line opacity="0.4" x1="-3.56055" y1="140.675" x2="175.018" y2="140.675" stroke="white" stroke-width="0.508772"/>
<line opacity="0.4" x1="-3.56055" y1="160.517" x2="175.018" y2="160.517" stroke="white" stroke-width="0.508772"/>
</g>
<g clip-path="url(#clip0_6_361)">
<path d="M57.2527 79.0406C67.629 79.0406 76.0406 70.629 76.0406 60.2527C76.0406 49.8765 67.629 41.4648 57.2527 41.4648C46.8765 41.4648 38.4648 49.8765 38.4648 60.2527C38.4648 70.629 46.8765 79.0406 57.2527 79.0406Z" fill="#FBF4DB"/>
<path d="M59.3253 51.1238C58.1505 51.907 57.4556 53.1277 57.2911 54.4258C57.2208 54.9814 57.587 55.5016 58.1278 55.6471C59.3821 55.9846 60.7645 55.8094 61.9308 55.0318C63.1056 54.2486 63.8005 53.0279 63.9649 51.7299C64.0352 51.1742 63.669 50.6541 63.1282 50.5086C61.8739 50.1711 60.4917 50.3463 59.3253 51.1238Z" fill="#8CEEA1"/>
<path d="M116.748 79.0406C127.124 79.0406 135.536 70.629 135.536 60.2527C135.536 49.8765 127.124 41.4648 116.748 41.4648C106.372 41.4648 97.96 49.8765 97.96 60.2527C97.96 70.629 106.372 79.0406 116.748 79.0406Z" fill="#FFE077"/>
<path d="M116.748 138.535C127.124 138.535 135.536 130.124 135.536 119.747C135.536 109.371 127.124 100.959 116.748 100.959C106.372 100.959 97.96 109.371 97.96 119.747C97.96 130.124 106.372 138.535 116.748 138.535Z" fill="#7AD7EE"/>
<path d="M108.92 116.616H124.577V121.313H108.92V116.616Z" fill="#ECEAEC"/>
<path d="M57.2527 138.535C67.629 138.535 76.0406 130.124 76.0406 119.747C76.0406 109.371 67.629 100.959 57.2527 100.959C46.8765 100.959 38.4648 109.371 38.4648 119.747C38.4648 130.124 46.8765 138.535 57.2527 138.535Z" fill="#8CEEA1"/>
<path d="M126.142 126.01H123.011C122.146 126.01 121.445 125.309 121.445 124.444V115.05C121.445 114.186 122.146 113.485 123.011 113.485H126.142C127.007 113.485 127.708 114.186 127.708 115.05V124.444C127.708 125.309 127.007 126.01 126.142 126.01Z" fill="#736572"/>
<path d="M54.3884 55.5719C51.6123 55.5693 49.3701 57.784 49.4285 60.5594C49.5179 64.8121 51.4664 69.6465 55.6879 69.6465C56.0043 69.6465 56.3248 69.6176 56.647 69.5642C57.0494 69.4976 57.4576 69.4976 57.8597 69.5642C58.182 69.6176 58.5025 69.6465 58.8189 69.6465C63.1424 69.6465 65.0816 64.576 65.0816 60.2525C65.0818 55.0029 59.9144 55.5769 54.3884 55.5719Z" fill="#FF7E92"/>
<path d="M110.484 69.2076C112.213 69.2076 113.615 67.8057 113.615 66.0764C113.615 64.347 112.213 62.9451 110.484 62.9451C108.754 62.9451 107.353 64.347 107.353 66.0764C107.353 67.8057 108.754 69.2076 110.484 69.2076Z" fill="#FF744D"/>
<path d="M123.011 67.642C124.741 67.642 126.143 66.2401 126.143 64.5107C126.143 62.7814 124.741 61.3795 123.011 61.3795C121.282 61.3795 119.88 62.7814 119.88 64.5107C119.88 66.2401 121.282 67.642 123.011 67.642Z" fill="#FF744D"/>
<path d="M110.484 126.01H107.353C106.489 126.01 105.788 125.309 105.788 124.444V115.05C105.788 114.186 106.489 113.485 107.353 113.485H110.484C111.349 113.485 112.05 114.186 112.05 115.05V124.444C112.05 125.309 111.349 126.01 110.484 126.01Z" fill="#736572"/>
<path d="M105.788 121.313V124.444C105.788 125.309 106.489 126.01 107.353 126.01H110.484C111.349 126.01 112.05 125.309 112.05 124.444V121.313H105.788Z" fill="#615260"/>
<path d="M121.445 121.313V124.444C121.445 125.309 122.146 126.01 123.011 126.01H126.142C127.007 126.01 127.708 125.309 127.708 124.444V121.313H121.445Z" fill="#615260"/>
<path d="M86.9994 80.6061C89.5934 80.6061 91.6962 78.5032 91.6962 75.9092C91.6962 73.3152 89.5934 71.2123 86.9994 71.2123C84.4054 71.2123 82.3025 73.3152 82.3025 75.9092C82.3025 78.5032 84.4054 80.6061 86.9994 80.6061Z" fill="#FBBD80"/>
<path d="M93.2627 85.3031H80.7375C77.2788 85.3031 74.4749 88.107 74.4749 91.5658V97.8285C74.4749 100.423 80.7375 102.525 80.7375 102.525H94.8284C97.4225 102.525 99.5252 100.422 99.5252 97.8285V91.5658C99.5252 88.1068 96.7213 85.3031 93.2627 85.3031Z" fill="#DBD8DB"/>
<path d="M87.0002 85.3031H80.7375C77.2788 85.3031 74.4749 88.107 74.4749 91.5658V97.8285C74.4749 100.423 76.5778 102.525 79.1717 102.525H80.7374V91.5658C80.7377 88.1068 83.5415 85.3031 87.0002 85.3031Z" fill="#C9C5C9"/>
<path d="M60.384 75.9092C50.0078 75.9092 41.5961 67.4975 41.5961 57.1213C41.5961 52.7317 43.1137 48.7033 45.6363 45.5049C41.2744 48.9455 38.4648 54.266 38.4648 60.2528C38.4648 70.6289 46.8764 79.0406 57.2527 79.0406C63.2395 79.0406 68.56 76.2311 72.0002 71.8692C68.802 74.3916 64.7736 75.9092 60.384 75.9092Z" fill="#F8EBCC"/>
<path d="M119.879 75.9092C109.503 75.9092 101.091 67.4975 101.091 57.1213C101.091 52.7317 102.609 48.7033 105.131 45.5049C100.77 48.9455 97.96 54.2658 97.96 60.2526C97.96 70.6287 106.371 79.0404 116.748 79.0404C122.735 79.0404 128.055 76.2309 131.495 71.869C128.297 74.3916 124.269 75.9092 119.879 75.9092Z" fill="#FFD05B"/>
<path d="M60.384 135.404C50.0078 135.404 41.5961 126.992 41.5961 116.616C41.5961 112.226 43.1137 108.198 45.6363 105C41.2744 108.44 38.4648 113.761 38.4648 119.747C38.4648 130.123 46.8764 138.535 57.2527 138.535C63.2395 138.535 68.56 135.726 72.0002 131.364C68.802 133.886 64.7736 135.404 60.384 135.404Z" fill="#4CE1A1"/>
<path d="M119.879 135.404C109.503 135.404 101.091 126.992 101.091 116.616C101.091 112.226 102.609 108.198 105.131 105C100.77 108.44 97.96 113.761 97.96 119.747C97.96 130.123 106.371 138.535 116.748 138.535C122.735 138.535 128.055 135.726 131.495 131.364C128.297 133.886 124.269 135.404 119.879 135.404Z" fill="#4BC3EF"/>
<path d="M60.3837 126.01H66.6464V113.485H60.3837C58.6544 113.485 57.2524 114.887 57.2524 116.616V129.141C57.2524 127.412 58.6542 126.01 60.3837 126.01Z" fill="white"/>
<path d="M54.1224 126.01H47.8599V113.485H54.1226C55.8519 113.485 57.2538 114.887 57.2538 116.616V129.141C57.2538 127.412 55.8519 126.01 54.1224 126.01Z" fill="#F8EBCC"/>
<path d="M54.1254 60.5596C54.0681 57.8385 56.2261 55.6697 58.9267 55.5877C57.5168 55.5311 55.9697 55.5735 54.3884 55.5721C51.6121 55.5694 49.3701 57.784 49.4285 60.5596C49.5179 64.8123 51.4664 69.6467 55.6879 69.6467C56.0043 69.6467 56.3248 69.6178 56.647 69.5645C57.0494 69.4979 57.4576 69.4979 57.8599 69.5645C58.1822 69.6178 58.5027 69.6467 58.8191 69.6467C59.0906 69.6467 59.3523 69.6266 59.605 69.5881C55.9226 69.0309 54.2091 64.5408 54.1254 60.5596Z" fill="#FF5F7A"/>
<path d="M57.2525 80.5053C68.4199 80.5053 77.5051 71.4199 77.5051 60.2527C77.5051 55.9805 76.1904 51.8949 73.7031 48.4377C73.2309 47.7809 72.3152 47.6316 71.6586 48.1041C71.002 48.5766 70.8525 49.4918 71.325 50.1486C73.4514 53.1045 74.5754 56.5982 74.5754 60.2527C74.5754 69.8045 66.8043 77.5756 57.2525 77.5756C47.7008 77.5756 39.9297 69.8045 39.9297 60.2525C39.9297 50.7006 47.7008 42.9297 57.2525 42.9297C60.6787 42.9297 63.9906 43.9275 66.8303 45.8156C67.5035 46.2641 68.4131 46.0809 68.8609 45.4068C69.309 44.7332 69.1258 43.824 68.4521 43.3762C65.1305 41.1676 61.2576 40 57.2525 40C46.0854 40 37 49.0854 37 60.2525C37 71.4197 46.0854 80.5053 57.2525 80.5053Z" fill="black"/>
<path d="M57.2525 99.4947C46.0854 99.4947 37 108.58 37 119.747C37 130.915 46.0854 140 57.2525 140C68.4197 140 77.5051 130.915 77.5051 119.747C77.5051 108.58 68.4199 99.4947 57.2525 99.4947ZM57.2525 137.07C47.7008 137.07 39.9297 129.299 39.9297 119.747C39.9297 110.196 47.7008 102.425 57.2525 102.425C66.8043 102.425 74.5754 110.196 74.5754 119.747C74.5754 129.299 66.8045 137.07 57.2525 137.07Z" fill="black"/>
<path d="M116.748 99.4947C105.58 99.4947 96.4951 108.58 96.4951 119.747C96.4951 130.914 105.58 140 116.748 140C127.915 140 137 130.915 137 119.747C137 108.58 127.915 99.4947 116.748 99.4947ZM116.748 137.07C107.196 137.07 99.4248 129.299 99.4248 119.747C99.4248 110.196 107.196 102.425 116.748 102.425C126.299 102.425 134.071 110.196 134.071 119.747C134.071 129.299 126.299 137.07 116.748 137.07Z" fill="black"/>
<path d="M86.9996 82.0709C90.3972 82.0709 93.1615 79.3069 93.1615 75.909C93.1615 72.5113 90.3974 69.7473 86.9996 69.7473C83.6017 69.7473 80.8376 72.5113 80.8376 75.909C80.8376 79.3069 83.6019 82.0709 86.9996 82.0709ZM86.9996 72.6772C88.7818 72.6772 90.2318 74.127 90.2318 75.9092C90.2318 77.6914 88.7818 79.1414 86.9996 79.1414C85.2173 79.1414 83.7673 77.6914 83.7673 75.9092C83.7673 74.127 85.2173 72.6772 86.9996 72.6772Z" fill="black"/>
<path d="M73.01 91.5658V99.3939C73.01 100.203 73.6657 100.859 74.4749 100.859C75.284 100.859 75.9397 100.203 75.9397 99.3939V91.5658C75.9397 88.9201 78.092 86.768 80.7374 86.768H93.2625C95.9081 86.768 98.0602 88.9203 98.0602 91.5658V99.3939C98.0602 100.203 98.7159 100.859 99.525 100.859C100.334 100.859 100.99 100.203 100.99 99.3939V91.5658C100.99 87.3049 97.5233 83.8383 93.2625 83.8383H80.7374C76.4766 83.8381 73.01 87.3047 73.01 91.5658Z" fill="black"/>
<path d="M80.7375 91.6664C79.9284 91.6664 79.2727 92.3221 79.2727 93.1313V102.525C79.2727 103.334 79.9284 103.99 80.7375 103.99C81.5467 103.99 82.2024 103.334 82.2024 102.525V93.1313C82.2024 92.3223 81.5465 91.6664 80.7375 91.6664Z" fill="black"/>
<path d="M93.2625 91.6664C92.4533 91.6664 91.7976 92.3221 91.7976 93.1313V102.525C91.7976 103.334 92.4533 103.99 93.2625 103.99C94.0716 103.99 94.7273 103.334 94.7273 102.525V93.1313C94.7273 92.3223 94.0716 91.6664 93.2625 91.6664Z" fill="black"/>
<path d="M116.748 80.5053C127.915 80.5053 137 71.4199 137 60.2525C137 49.0852 127.915 40 116.748 40C105.581 40 96.4951 49.0854 96.4951 60.2525C96.4951 71.4197 105.58 80.5053 116.748 80.5053ZM116.748 42.9297C126.3 42.9297 134.071 50.7008 134.071 60.2525C134.071 69.8043 126.3 77.5754 116.748 77.5754C107.196 77.5754 99.425 69.8043 99.425 60.2525C99.425 50.7008 107.196 42.9297 116.748 42.9297Z" fill="black"/>
<path d="M110.484 70.6727C113.018 70.6727 115.08 68.6108 115.08 66.0766V55.9959C115.08 55.2299 115.599 54.5653 116.342 54.3795L124.55 52.3274C124.564 52.3236 124.598 52.3154 124.636 52.3457C124.675 52.376 124.675 52.4106 124.675 52.4252V60.2285C124.158 60.0266 123.596 59.9145 123.009 59.9145C120.474 59.9145 118.413 61.9764 118.413 64.5106C118.413 67.0447 120.474 69.1067 123.009 69.1067C125.543 69.1067 127.605 67.0447 127.605 64.5106V52.4252C127.605 51.4854 127.18 50.6147 126.439 50.0365C125.698 49.4582 124.751 49.2576 123.839 49.4852L115.631 51.5371C113.582 52.0496 112.15 53.8832 112.15 55.9959V61.7944C111.633 61.5924 111.071 61.4803 110.484 61.4803C107.949 61.4803 105.888 63.5422 105.888 66.0764C105.888 68.6106 107.949 70.6727 110.484 70.6727ZM123.009 66.1772C122.09 66.1772 121.342 65.4297 121.342 64.5108C121.342 63.5918 122.09 62.8444 123.009 62.8444C123.928 62.8444 124.675 63.5918 124.675 64.5108C124.675 65.4297 123.928 66.1772 123.009 66.1772ZM110.484 64.41C111.403 64.41 112.15 65.1574 112.15 66.0764C112.15 66.9953 111.403 67.7428 110.484 67.7428C109.565 67.7428 108.817 66.9953 108.817 66.0764C108.817 65.1574 109.565 64.41 110.484 64.41Z" fill="black"/>
<path d="M126.141 112.02H123.01C121.339 112.02 119.979 113.379 119.979 115.05V115.151H113.515V115.05C113.515 113.379 112.156 112.02 110.484 112.02H107.353C105.682 112.02 104.323 113.379 104.323 115.05V124.444C104.323 126.115 105.682 127.475 107.353 127.475H110.485C112.156 127.475 113.515 126.115 113.515 124.444V124.344H119.979V124.444C119.979 126.115 121.339 127.475 123.01 127.475H126.141C127.812 127.475 129.172 126.115 129.172 124.444V115.05C129.172 113.379 127.812 112.02 126.141 112.02ZM110.585 124.444C110.585 124.5 110.54 124.545 110.485 124.545H107.353C107.298 124.545 107.252 124.5 107.252 124.444V115.05C107.252 114.995 107.298 114.949 107.353 114.949H110.485C110.54 114.949 110.585 114.995 110.585 115.05V124.444ZM113.515 121.414V118.081H119.979V121.414H113.515ZM126.242 124.444C126.242 124.5 126.197 124.545 126.141 124.545H123.01C122.954 124.545 122.909 124.5 122.909 124.444V115.05C122.909 114.995 122.954 114.949 123.01 114.949H126.141C126.197 114.949 126.242 114.995 126.242 115.05V124.444Z" fill="black"/>
<path d="M54.3831 54.1072C52.6222 54.1072 50.9821 54.7914 49.7646 56.0336C48.5671 57.2555 47.9278 58.8736 47.964 60.5904C48.0177 63.1498 48.6509 65.583 49.7468 67.4418C51.1419 69.808 53.2517 71.1113 55.6878 71.1113C56.0749 71.1113 56.4782 71.077 56.8862 71.0096C57.13 70.9691 57.3771 70.9691 57.6204 71.0096C58.0284 71.0772 58.4317 71.1113 58.8192 71.1113C63.8925 71.1113 66.5466 65.6486 66.5466 60.2525C66.5466 58.467 66.028 57.0477 65.0052 56.0338C64.6376 55.6695 64.2218 55.3732 63.7661 55.1314C64.9302 53.9072 65.5624 52.225 65.4568 50.4895C65.4247 49.9635 65.1124 49.4949 64.639 49.2631C62.6673 48.2971 60.32 48.4451 58.5132 49.6498C58.0214 49.9775 57.5888 50.3742 57.2189 50.8195L57.0775 50.3953C56.8214 49.6275 55.9913 49.2131 55.2247 49.4688C54.4571 49.7246 54.0423 50.5543 54.2982 51.3215L55.2251 54.1023C54.9706 54.1041 54.7179 54.1068 54.4612 54.1068C54.4353 54.1072 54.412 54.1072 54.3831 54.1072ZM58.8191 68.1816C58.5917 68.1816 58.3495 68.1607 58.0987 68.1191C57.8181 68.0729 57.5357 68.0496 57.2532 68.0496C56.9708 68.0496 56.688 68.0729 56.4075 68.1191C56.1571 68.1607 55.9151 68.1816 55.6876 68.1816C52.2878 68.1816 50.9575 63.6049 50.8927 60.5285C50.8732 59.6063 51.2155 58.7383 51.8568 58.0842C52.5189 57.4086 53.4157 57.0367 54.3833 57.0367H54.387C54.9017 57.0367 55.4048 57.0326 55.9054 57.0283C58.9337 57.0029 61.7952 56.977 62.9427 58.1147C63.3962 58.5643 63.6167 59.2637 63.6167 60.2525C63.6167 66.0701 60.7476 68.1816 58.8191 68.1816ZM60.1382 52.0877C60.8333 51.6246 61.656 51.4598 62.4599 51.602C62.2827 52.3979 61.8136 53.0949 61.1187 53.5584C60.4237 54.0219 59.5991 54.1867 58.797 54.0439C58.9741 53.2479 59.4431 52.551 60.1382 52.0877Z" fill="black"/>
<path d="M66.6476 112.02H60.3851C59.1761 112.02 58.0751 112.49 57.2538 113.256C56.4323 112.49 55.3315 112.02 54.1226 112.02H47.8599C47.0507 112.02 46.395 112.676 46.395 113.485V126.01C46.395 126.819 47.0507 127.475 47.8599 127.475H54.1224C55.0413 127.475 55.7888 128.222 55.7888 129.141C55.7888 129.95 56.4444 130.606 57.2536 130.606C58.0628 130.606 58.7185 129.95 58.7185 129.141C58.7185 128.222 59.4659 127.475 60.3849 127.475H66.6474C67.4565 127.475 68.1122 126.819 68.1122 126.01V113.485C68.1124 112.676 67.4567 112.02 66.6476 112.02ZM54.1224 124.545H49.3247V114.95H54.1224C55.0413 114.95 55.7888 115.697 55.7888 116.616V124.858C55.272 124.656 54.7099 124.545 54.1224 124.545ZM65.1827 124.545H60.3851C59.7976 124.545 59.2355 124.656 58.7187 124.858V116.616C58.7187 115.697 59.4661 114.95 60.3851 114.95H65.1827V124.545Z" fill="black"/>
</g>
<defs>
<clipPath id="clip0_6_361">
<rect width="100" height="100" fill="white" transform="translate(37 40)"/>
</clipPath>
</defs>
</svg>
