<svg width="174" height="174" viewBox="0 0 174 174" fill="none" xmlns="http://www.w3.org/2000/svg">
<path d="M88.1269 174C133.606 174 170.474 137.132 170.474 91.6523C170.474 46.173 133.606 9.30473 88.1269 9.30473C42.6476 9.30473 5.7793 46.173 5.7793 91.6523C5.7793 137.132 42.6476 174 88.1269 174Z" fill="#DFDFDF"/>
<mask id="mask0_2_183" style="mask-type:alpha" maskUnits="userSpaceOnUse" x="0" y="0" width="174" height="174">
<path d="M87 174C135.049 174 174 135.049 174 87C174 38.9512 135.049 0 87 0C38.9512 0 0 38.9512 0 87C0 135.049 38.9512 174 87 174Z" fill="#017CF5"/>
</mask>
<g mask="url(#mask0_2_183)">
<line opacity="0.4" x1="-3.56055" y1="19.5876" x2="175.018" y2="19.5876" stroke="white" stroke-width="0.508772"/>
<line opacity="0.4" x1="-3.56055" y1="36.3771" x2="175.018" y2="36.3771" stroke="white" stroke-width="0.508772"/>
<line opacity="0.4" x1="-3.56055" y1="53.6753" x2="175.018" y2="53.6753" stroke="white" stroke-width="0.508772"/>
<line opacity="0.4" x1="-3.56055" y1="71.4824" x2="175.018" y2="71.4824" stroke="white" stroke-width="0.508772"/>
<line opacity="0.4" x1="-3.56055" y1="93.8684" x2="175.018" y2="93.8684" stroke="white" stroke-width="0.508772"/>
<line opacity="0.4" x1="-3.56055" y1="118.798" x2="175.018" y2="118.798" stroke="white" stroke-width="0.508772"/>
<line opacity="0.4" x1="-3.56055" y1="140.675" x2="175.018" y2="140.675" stroke="white" stroke-width="0.508772"/>
<line opacity="0.4" x1="-3.56055" y1="160.517" x2="175.018" y2="160.517" stroke="white" stroke-width="0.508772"/>
</g>
<g clip-path="url(#clip0_2_183)">
<path fill-rule="evenodd" clip-rule="evenodd" d="M99.1945 56.0013V70.8303L96.9356 69.8729L84.843 81.9656H64.5128V56.0013H58.597C58.0329 56.0013 57.5564 55.6314 57.4164 55.085C57.2765 54.5384 57.5168 53.9851 58.0114 53.7141L80.3224 41.4901C81.3047 40.9518 82.4026 40.9518 83.3851 41.4901L105.696 53.7141C106.191 53.9851 106.431 54.5384 106.291 55.085C106.151 55.6314 105.674 56.0013 105.11 56.0013H99.1945Z" fill="#AEAED6"/>
<path fill-rule="evenodd" clip-rule="evenodd" d="M84.8428 81.9656H64.5128V56.0013H58.597C58.0329 56.0013 57.5564 55.6314 57.4164 55.085C57.2765 54.5384 57.5168 53.9851 58.0114 53.7141L79.9237 41.7084L101.836 53.7141C102.331 53.9851 102.571 54.5384 102.431 55.085C102.291 55.6314 101.814 56.0013 101.251 56.0013H96.5478V70.2607L84.8428 81.9656Z" fill="#D1D1F0"/>
<path d="M69.0352 62.2163H77.6879V77.2072H69.0352V62.2163Z" fill="#F3F3FF"/>
<path d="M83.7891 56.0013H94.6717V60.8666H83.7891V56.0013Z" fill="#F3F3FF"/>
<path fill-rule="evenodd" clip-rule="evenodd" d="M80.6543 46.2674C82.432 46.2674 83.873 47.7086 83.873 49.4863C83.873 51.2641 82.432 52.705 80.6543 52.705C78.8765 52.705 77.4355 51.2638 77.4355 49.4863C77.4355 47.7088 78.8767 46.2674 80.6543 46.2674Z" fill="#AEAED6"/>
<path fill-rule="evenodd" clip-rule="evenodd" d="M81.8526 46.3367C83.5919 46.3367 85.002 47.7467 85.002 49.4861C85.002 51.2255 83.5919 52.6356 81.8526 52.6356C80.1132 52.6356 78.7031 51.2255 78.7031 49.4861C78.7031 47.7467 80.1132 46.3367 81.8526 46.3367Z" fill="#F3F3FF"/>
<path fill-rule="evenodd" clip-rule="evenodd" d="M60.1472 81.9656H84.8428L89.6012 77.2072H60.1472C59.455 77.2072 58.8887 77.7735 58.8887 78.4657V80.707C58.8887 81.3993 59.455 81.9656 60.1472 81.9656Z" fill="#909CD1"/>
<path fill-rule="evenodd" clip-rule="evenodd" d="M84.8428 81.9656H60.1472C59.455 81.9656 58.8887 81.3993 58.8887 80.707V80.3611H86.4473L84.8428 81.9656Z" fill="#7986BF"/>
<path d="M82.6523 56.0013H83.7876V60.8666H82.6523V56.0013Z" fill="#AEAED6"/>
<path d="M67.293 62.2163H69.0358V77.2072H67.293V62.2163Z" fill="#AEAED6"/>
<path d="M93.0156 79.9735H102.702V118.743H93.0156V79.9735Z" fill="#4EB1FC"/>
<path d="M76.0508 96.8644H85.7372V118.742H76.0508V96.8644Z" fill="#FDC72E"/>
<path d="M109.98 84.396H119.667V118.742H109.98V84.396Z" fill="#2DD62D"/>
<path d="M126.945 69.5908H136.632V118.743H126.945V69.5908Z" fill="#F89B00"/>
<path d="M59.0859 106.204H68.7724V118.743H59.0859V106.204Z" fill="#FB545C"/>
<path fill-rule="evenodd" clip-rule="evenodd" d="M45.2363 41.0854H49.5665V118.742H102.873V123.073H45.2363V41.0854Z" fill="#7986BF"/>
<path d="M133.352 69.5908H136.631V118.743H133.352V69.5908Z" fill="#E68207"/>
<path d="M116.387 84.396H119.666V118.742H116.387V84.396Z" fill="#29B933"/>
<path d="M99.4219 79.9735H102.702V118.743H99.4219V79.9735Z" fill="#2A92FA"/>
<path d="M82.457 96.8644H85.7367V118.742H82.457V96.8644Z" fill="#F9AC00"/>
<path d="M65.4941 106.204H68.7738V118.743H65.4941V106.204Z" fill="#E8333C"/>
<path d="M138.012 133.877C146.994 124.894 146.994 110.331 138.012 101.349C129.03 92.367 114.467 92.367 105.484 101.349C96.5022 110.331 96.5022 124.894 105.484 133.877C114.467 142.859 129.03 142.859 138.012 133.877Z" fill="#FCDB35"/>
<path fill-rule="evenodd" clip-rule="evenodd" d="M119.9 140.541C108.068 139.591 98.7617 129.689 98.7617 117.613C98.7617 105.536 108.068 95.6345 119.9 94.6844C131.731 95.6345 141.037 105.536 141.037 117.613C141.037 129.689 131.731 139.591 119.9 140.541Z" fill="#FFEB87"/>
<path fill-rule="evenodd" clip-rule="evenodd" d="M123.445 109.051C128.178 110.918 132.209 117.572 133.669 123.238C136.12 132.742 130.682 134.713 121.766 134.868C112.85 134.713 107.412 132.741 109.862 123.238C111.323 117.572 115.353 110.918 120.086 109.051H123.445H123.445Z" fill="#D19458"/>
<path fill-rule="evenodd" clip-rule="evenodd" d="M120.315 134.825C112.271 134.471 107.548 132.214 109.862 123.238C111.323 117.572 115.353 110.918 120.086 109.051H120.544C125.277 110.918 129.308 117.572 130.769 123.238C133.083 132.214 128.359 134.471 120.315 134.825Z" fill="#E6B17C"/>
<path fill-rule="evenodd" clip-rule="evenodd" d="M120.423 110.197L117.997 110.205C112.508 102.688 113.802 100.011 116.351 100.804C117.105 101.039 117.575 101.439 117.971 101.765C118.682 102.35 119.248 102.623 119.855 101.762C121.175 99.8887 122.357 99.8887 123.677 101.762C124.283 102.623 124.85 102.35 125.56 101.765C125.957 101.439 126.427 101.039 127.181 100.804C129.73 100.011 131.024 102.688 125.535 110.205L123.109 110.197C122.602 110.201 122.184 110.202 121.766 110.202C121.348 110.202 120.929 110.201 120.423 110.197Z" fill="#D19458"/>
<path fill-rule="evenodd" clip-rule="evenodd" d="M120.423 110.197H120.316H120.209L119.976 110.199L118.865 110.202C118.584 110.202 118.302 110.201 117.993 110.2C112.509 102.687 113.803 100.012 116.351 100.804C117.105 101.039 117.575 101.439 117.971 101.765C118.682 102.35 119.248 102.623 119.855 101.762C121.175 99.8887 122.357 99.8887 123.677 101.762C124.284 102.623 124.85 102.35 125.561 101.765C125.757 101.603 125.971 101.424 126.229 101.255C126.924 102.395 126.255 105.245 122.638 110.2C122.329 110.201 122.048 110.202 121.766 110.202L120.655 110.199L120.423 110.197H120.423Z" fill="#E6B17C"/>
<path d="M126.647 108.809H116.885C116.116 108.809 115.492 109.433 115.492 110.202V110.202C115.492 110.971 116.116 111.595 116.885 111.595H126.647C127.416 111.595 128.039 110.971 128.039 110.202V110.202C128.039 109.433 127.416 108.809 126.647 108.809Z" fill="#96602A"/>
<path fill-rule="evenodd" clip-rule="evenodd" d="M124.29 108.809H116.885C116.119 108.809 115.492 109.436 115.492 110.202C115.492 110.968 116.119 111.595 116.885 111.595H124.29C125.056 111.595 125.683 110.968 125.683 110.202C125.683 109.436 125.056 108.809 124.29 108.809Z" fill="#AB733A"/>
<path fill-rule="evenodd" clip-rule="evenodd" d="M124.331 126.449C124.24 126.766 123.725 127.089 122.981 127.248V124.946C123.923 125.299 124.22 125.667 124.309 125.825C124.373 125.939 124.431 126.112 124.332 126.449L124.331 126.449ZM119.794 121.361C119.586 121.201 119.333 120.937 119.308 120.6C119.292 120.355 119.397 120.101 119.609 119.88C119.82 119.661 120.151 119.49 120.544 119.374V121.741C120.247 121.631 119.983 121.509 119.794 121.361V121.361ZM123.062 122.412C123.036 122.403 123.007 122.397 122.981 122.389V119.361C122.987 119.362 122.993 119.362 122.997 119.365C123.366 119.465 124.244 119.777 124.394 120.441C124.543 121.097 125.197 121.507 125.853 121.359C126.509 121.209 126.919 120.557 126.771 119.9C126.46 118.532 125.323 117.479 123.649 117.016C123.436 116.954 123.212 116.909 122.981 116.869V116.128C122.981 115.456 122.434 114.91 121.762 114.91C121.09 114.91 120.544 115.456 120.544 116.128V116.88C119.512 117.06 118.537 117.479 117.852 118.192C117.155 118.917 116.81 119.835 116.879 120.778C116.947 121.739 117.454 122.631 118.299 123.286C118.942 123.785 119.745 124.074 120.544 124.29V127.134C119.834 126.91 119.246 126.508 119.108 125.914C118.955 125.258 118.299 124.85 117.644 125.005C116.988 125.158 116.58 125.813 116.735 126.467C117.113 128.092 118.557 129.265 120.543 129.648V130.423C120.543 131.098 121.09 131.643 121.762 131.643C122.434 131.643 122.98 131.098 122.98 130.423V129.715C124.642 129.486 126.222 128.668 126.671 127.131C126.931 126.248 126.85 125.387 126.442 124.647C125.888 123.641 124.75 122.891 123.062 122.411L123.062 122.412ZM132.032 130.764C133.191 129.241 133.336 126.878 132.475 123.536C131.445 119.546 129.231 115.464 126.67 112.817C126.659 112.817 126.649 112.819 126.64 112.819H116.885C116.875 112.819 116.864 112.817 116.855 112.817C114.321 115.442 112.069 119.584 111.05 123.536C110.188 126.878 110.334 129.241 111.492 130.764C112.926 132.649 116.093 133.535 121.762 133.634C127.432 133.535 130.598 132.649 132.032 130.764H132.032ZM115.439 101.916C115.498 101.9 115.679 101.887 115.989 101.983C116.491 102.14 116.816 102.408 117.159 102.69L117.196 102.72C117.565 103.025 118.333 103.655 119.292 103.527C119.894 103.445 120.417 103.094 120.85 102.478C121.447 101.63 121.76 101.593 121.762 101.593C121.766 101.593 122.077 101.63 122.674 102.478C123.107 103.094 123.63 103.445 124.232 103.527C125.193 103.655 125.958 103.025 126.328 102.72L126.365 102.69C126.708 102.408 127.033 102.14 127.535 101.985C127.845 101.887 128.026 101.9 128.085 101.916C128.247 102.193 128.285 103.825 125.848 107.6H117.672C115.237 103.825 115.277 102.193 115.439 101.916ZM116.885 110.382C116.794 110.382 116.712 110.301 116.712 110.21C116.712 110.118 116.794 110.037 116.885 110.037H126.639C126.73 110.037 126.812 110.118 126.812 110.21C126.812 110.301 126.73 110.382 126.639 110.382H116.885ZM128.853 111.582C129.103 111.185 129.249 110.713 129.249 110.21C129.249 109.417 128.892 108.708 128.334 108.229C130.582 104.558 131.153 101.94 130.027 100.44C129.347 99.5332 128.146 99.2405 126.81 99.6565C125.851 99.9562 125.251 100.449 124.815 100.809L124.778 100.839C124.707 100.898 124.648 100.943 124.599 100.98C123.71 99.7524 122.782 99.1554 121.762 99.1554C120.742 99.1554 119.814 99.7524 118.924 100.98C118.876 100.943 118.817 100.898 118.745 100.839L118.709 100.809C118.273 100.45 117.673 99.9562 116.714 99.6565C115.377 99.2405 114.175 99.5332 113.497 100.442C112.371 101.942 112.942 104.558 115.191 108.229C114.632 108.708 114.275 109.417 114.275 110.21C114.275 110.715 114.423 111.185 114.671 111.584C112.014 114.523 109.766 118.751 108.689 122.929C107.63 127.038 107.913 130.085 109.552 132.241C112.012 135.472 117.094 135.99 121.741 136.072H121.782C126.43 135.99 131.512 135.472 133.971 132.241C135.611 130.085 135.896 127.038 134.835 122.929C133.765 118.777 131.506 114.518 128.853 111.582H128.853ZM121.762 139.399C133.775 139.399 143.547 129.626 143.547 117.614C143.547 105.601 133.775 95.8287 121.762 95.8287C109.75 95.8287 99.9772 105.601 99.9772 117.614C99.9772 129.626 109.75 139.399 121.762 139.399ZM46.4537 121.854V42.3048H48.3467V118.743C48.3467 119.417 48.8908 119.961 49.5652 119.961H97.6534C97.716 120.6 97.8013 121.231 97.9108 121.854L46.4537 121.854ZM60.3026 107.422V117.524H67.5515V107.422H60.3026ZM77.267 98.0825V117.524H84.5169V98.0825H77.267ZM94.2324 81.1925H101.479V104.386C99.0058 108.168 97.5573 112.679 97.5417 117.524H94.2324V81.1925ZM111.196 85.6147H118.445V93.6184C115.879 93.9719 113.442 94.7275 111.196 95.8207V85.6149V85.6147ZM128.16 70.8095H135.41V97.6119C133.222 96.1142 130.779 94.9692 128.16 94.2498V70.8095ZM137.848 99.5186V69.5898C137.848 68.9182 137.301 68.3722 136.629 68.3722H126.942C126.269 68.3722 125.723 68.9184 125.723 69.5898V93.7162C124.433 93.5027 123.111 93.3901 121.762 93.3901C121.468 93.3901 121.175 93.397 120.882 93.4086V84.396C120.882 83.7236 120.336 83.1774 119.664 83.1774H109.977C109.304 83.1774 108.758 83.7236 108.758 84.396V97.1849C106.973 98.3263 105.346 99.6955 103.918 101.25V79.9737C103.918 79.3012 103.374 78.7552 102.699 78.7552H93.014C92.3397 78.7552 91.7955 79.3014 91.7955 79.9737V117.524H86.9544V96.864C86.9544 96.1914 86.4082 95.6452 85.7359 95.6452H76.0486C75.3743 95.6452 74.8301 96.1914 74.8301 96.864V117.524H69.99V106.203C69.99 105.531 69.4428 104.985 68.7705 104.985H59.0845C58.4119 104.985 57.8659 105.531 57.8659 106.203V117.524H50.784V41.0863C50.784 40.4129 50.2377 39.8667 49.5654 39.8667H45.2352C44.5626 39.8667 44.0156 40.4129 44.0156 41.0863V123.073C44.0156 123.745 44.5628 124.292 45.2352 124.292H98.4757C101.383 134.411 110.722 141.835 121.762 141.835C135.12 141.835 145.984 130.971 145.984 117.613C145.984 110.425 142.837 103.959 137.848 99.5182V99.5186ZM85.0044 57.2481V59.6862H88.0192V57.2481H85.0044ZM93.4711 59.6862V57.2481H90.4563V59.6862H93.4711ZM82.5673 56.0294V60.9048C82.5673 61.5791 83.1135 62.1233 83.7859 62.1233H94.6896C95.364 62.1233 95.9082 61.5791 95.9082 60.9048V56.0294C95.9082 55.357 95.364 54.8108 94.6896 54.8108H83.7859C83.1135 54.8108 82.5673 55.357 82.5673 56.0294ZM81.8479 47.5657C80.78 47.5657 79.9098 48.4349 79.9098 49.5009C79.9098 50.5669 80.78 51.4389 81.8479 51.4389C82.9157 51.4389 83.7838 50.5698 83.7838 49.5009C83.7838 48.4321 82.9167 47.5657 81.8479 47.5657ZM81.8479 53.877C84.2596 53.877 86.2211 51.9147 86.2211 49.5009C86.2211 47.0872 84.2598 45.1276 81.8479 45.1276C79.436 45.1276 77.4725 47.0902 77.4725 49.5009C77.4725 51.9116 79.4351 53.877 81.8479 53.877ZM80.8995 42.5583L58.5437 54.8069L64.4723 54.8108C65.1449 54.8108 65.6919 55.357 65.6919 56.0294V76.0593H67.7855V63.4759H67.7453C67.0727 63.4759 66.5257 62.9297 66.5257 62.2574C66.5257 61.585 67.073 61.0388 67.7453 61.0388H78.9328C79.6072 61.0388 80.1514 61.585 80.1514 62.2574C80.1514 62.9297 79.6072 63.4759 78.9328 63.4759H78.8926V76.0593H89.022L96.0703 69.0111C96.4217 68.6597 96.9502 68.5561 97.4062 68.7507L98.0042 69.0032V56.0294C98.0042 55.357 98.5484 54.8108 99.2228 54.8108H105.149L82.7965 42.5583C82.1749 42.2187 81.519 42.2187 80.8995 42.5583ZM76.4547 63.4761H70.2228V76.0595H76.4547V63.4761ZM60.097 80.8273H84.2547L86.5851 78.4968H60.0972C60.0767 78.4968 60.057 78.5183 60.057 78.5399V80.7842C60.057 80.8047 60.0763 80.8273 60.097 80.8273ZM58.5456 57.2481H63.2536V76.0595H60.097C58.7306 76.0595 57.6187 77.1704 57.6187 78.5399V80.7842C57.6187 82.1516 58.7306 83.2646 60.097 83.2646H81.8174L63.8144 101.268C63.3387 101.743 63.3387 102.515 63.8144 102.99C64.0523 103.23 64.3645 103.349 64.6757 103.349C64.9869 103.349 65.2993 103.23 65.5371 102.99L97.2118 71.3174L113.19 78.0867C113.645 78.2805 114.175 78.1767 114.527 77.8273L135.078 57.2727L134.967 58.0391C134.87 58.7027 135.331 59.3222 135.997 59.4201C136.055 59.428 136.115 59.4337 136.174 59.4337C136.769 59.4337 137.29 58.9972 137.379 58.3895L138.024 53.9888C138.08 53.6061 137.951 53.2224 137.679 52.9504C137.406 52.6782 137.023 52.55 136.641 52.6049L132.239 53.251C131.573 53.3489 131.112 53.9664 131.209 54.6321C131.306 55.2985 131.924 55.7596 132.591 55.6617L133.357 55.5502L113.383 75.5214L100.442 70.0373V57.2483H105.15C106.266 57.2483 107.237 56.4955 107.513 55.4141C107.789 54.3335 107.299 53.2059 106.323 52.6705L83.9671 40.4216C82.6203 39.6845 81.0737 39.6845 79.7278 40.4216L57.3731 52.6703C56.3943 53.2057 55.9049 54.3333 56.181 55.4139C56.457 56.4955 57.4298 57.2481 58.5456 57.2481Z" fill="black"/>
</g>
<defs>
<clipPath id="clip0_2_183">
<rect width="104" height="104" fill="white" transform="translate(43 38.8511)"/>
</clipPath>
</defs>
</svg>
