<svg width="72" height="71" viewBox="0 0 72 71" fill="none" xmlns="http://www.w3.org/2000/svg">
<g id="material-symbols-light:chart-data-outline">
<path id="Vector" d="M24.5754 50.2882L34.4879 40.4407L40.9879 46.9407L54.1504 33.7945V41.2272H57.4004V28.2272H44.4004V31.4772H51.8331L40.9879 42.3225L34.4879 35.8225L22.3394 48.0522L24.5754 50.2882ZM18.7741 65.6022C17.2791 65.6022 16.0311 65.1017 15.0301 64.1007C14.027 63.0975 13.5254 61.8485 13.5254 60.3535V18.851C13.5254 17.356 14.027 16.108 15.0301 15.107C16.0311 14.1038 17.2791 13.6022 18.7741 13.6022H60.2766C61.7716 13.6022 63.0196 14.1038 64.0206 15.107C65.0238 16.108 65.5254 17.356 65.5254 18.851V60.3535C65.5254 61.8485 65.0249 63.0965 64.0239 64.0975C63.0207 65.1006 61.7716 65.6022 60.2766 65.6022H18.7741ZM18.7741 62.3522H60.2766C60.775 62.3522 61.2332 62.1442 61.6514 61.7282C62.0674 61.31 62.2754 60.8518 62.2754 60.3535V18.851C62.2754 18.3526 62.0674 17.8944 61.6514 17.4762C61.2332 17.0602 60.775 16.8522 60.2766 16.8522H18.7741C18.2758 16.8522 17.8176 17.0602 17.3994 17.4762C16.9834 17.8944 16.7754 18.3526 16.7754 18.851V60.3535C16.7754 60.8518 16.9834 61.31 17.3994 61.7282C17.8176 62.1442 18.2758 62.3522 18.7741 62.3522Z" fill="#F9DA55"/>
</g>
</svg>
