<svg width="69" height="64" viewBox="0 0 69 64" fill="none" xmlns="http://www.w3.org/2000/svg">
<g id="iconoir:brain-research">
<g id="Group">
<path id="Vector" d="M20.1153 37.3031C18.8738 37.3048 17.6477 37.5561 16.5225 38.0393C15.3973 38.5225 14.4001 39.226 13.6006 40.1008C12.8011 40.9756 12.2184 42.0006 11.8934 43.1042C11.5683 44.2078 11.5086 45.3634 11.7185 46.4904C11.9284 47.6175 12.4028 48.6887 13.1086 49.6295C13.8143 50.5702 14.7345 51.3577 15.8049 51.9371C16.8752 52.5165 18.0699 52.8738 19.3056 52.984C20.5414 53.0942 21.7883 52.9547 22.9595 52.5753" stroke="#F9DA55" stroke-width="1.79628" stroke-linecap="round" stroke-linejoin="round"/>
<path id="Vector_2" d="M12.3342 41.5076C10.6322 40.7529 9.16097 39.6197 8.05337 38.2103C6.94578 36.8009 6.23665 35.1596 5.98999 33.4346C5.74332 31.7097 5.96689 29.9553 6.64052 28.3298C7.31414 26.7043 8.41661 25.2589 9.84843 24.124M9.93375 23.9118C9.00101 22.6263 8.59219 21.0782 8.77967 19.5417C8.96715 18.0052 9.73885 16.5793 10.9581 15.5165C12.1774 14.4537 13.7657 13.8225 15.4417 13.7347C17.1177 13.6469 18.7734 14.1081 20.1157 15.0367M20.7926 15.207C20.3389 14.3191 20.1076 13.3486 20.1159 12.3673C20.1242 11.3859 20.3718 10.4189 20.8405 9.53758C21.3091 8.65627 21.9868 7.88323 22.8235 7.27561C23.6601 6.66798 24.6344 6.24131 25.6741 6.02713C26.7139 5.81295 27.7926 5.81673 28.8306 6.0382C29.8686 6.25967 30.8393 6.69316 31.6709 7.30663C32.5025 7.9201 33.1738 8.69787 33.6351 9.58245C34.0965 10.467 34.3361 11.4358 34.3363 12.4171M34.3363 12.4171V53.0206M34.3363 12.4171C34.3364 11.4358 34.5761 10.467 35.0374 9.58245C35.4988 8.69787 36.1701 7.9201 37.0017 7.30663C37.8333 6.69316 38.8039 6.25967 39.8419 6.0382C40.8799 5.81673 41.9586 5.81295 42.9984 6.02713C44.0382 6.24131 45.0124 6.66798 45.8491 7.27561C46.6857 7.88323 47.3634 8.65627 47.8321 9.53758C48.3007 10.4189 48.5483 11.3859 48.5566 12.3673C48.5649 13.3486 48.3337 14.3191 47.8799 15.207M34.3363 53.0206C34.3363 54.4101 33.737 55.7427 32.6702 56.7253C31.6035 57.7078 30.1566 58.2598 28.648 58.2598C27.1394 58.2598 25.6926 57.7078 24.6259 56.7253C23.5591 55.7427 22.9598 54.4101 22.9598 53.0206M34.3363 53.0206C34.3363 54.4101 34.9356 55.7427 36.0023 56.7253C37.0691 57.7078 38.5159 58.2598 40.0245 58.2598M34.3363 18.9661C34.3363 21.0503 35.2352 23.0493 36.8353 24.5231C38.4355 25.9969 40.6057 26.8248 42.8686 26.8248M58.8241 24.124C60.0658 25.1065 61.0621 26.3249 61.7445 27.6954C62.4269 29.0659 62.7792 30.5562 62.7774 32.064C62.7774 33.9055 62.2626 35.6371 61.3554 37.1407M58.7388 23.9118C59.6715 22.6263 60.0803 21.0782 59.8929 19.5417C59.7054 18.0052 58.9337 16.5793 57.7144 15.5165C56.4951 14.4537 54.9069 13.8225 53.2308 13.7347C51.5548 13.6469 49.8991 14.1081 48.5568 15.0367M58.5113 54.3304L62.7774 58.2598M45.7127 49.0913C45.7127 50.8281 46.4618 52.4939 47.7953 53.7221C49.1287 54.9502 50.9373 55.6402 52.823 55.6402C54.7088 55.6402 56.5173 54.9502 57.8508 53.7221C59.1842 52.4939 59.9333 50.8281 59.9333 49.0913C59.9333 47.3544 59.1842 45.6886 57.8508 44.4604C56.5173 43.2323 54.7088 42.5423 52.823 42.5423C50.9373 42.5423 49.1287 43.2323 47.7953 44.4604C46.4618 45.6886 45.7127 47.3544 45.7127 49.0913Z" stroke="#F9DA55" stroke-width="1.79628" stroke-linecap="round" stroke-linejoin="round"/>
</g>
</g>
</svg>
