<svg width="72" height="71" viewBox="0 0 72 71" fill="none" xmlns="http://www.w3.org/2000/svg">
<g id="Group">
<path id="Vector" d="M17.38 40.3581C17.4619 40.6606 17.6012 40.9437 17.7901 41.1912C17.9789 41.4387 18.2136 41.6457 18.4808 41.8005C18.7479 41.9552 19.0422 42.0547 19.3469 42.0931C19.6516 42.1316 19.9608 42.1083 20.2567 42.0246C20.5526 41.9409 20.8295 41.7985 21.0716 41.6054C21.3136 41.4123 21.5161 41.1723 21.6675 40.8992C21.8188 40.6261 21.9161 40.3252 21.9537 40.0136C21.9913 39.7021 21.9686 39.386 21.8867 39.0835L17.38 40.3581ZM3.95966 6.77231C3.66258 6.6836 3.35123 6.65608 3.04367 6.69136C2.73611 6.72664 2.43846 6.82402 2.168 6.97784C1.89754 7.13166 1.65965 7.33886 1.46813 7.58742C1.27661 7.83598 1.13527 8.12095 1.05232 8.4258C0.969369 8.73065 0.946456 9.0493 0.98491 9.36328C1.02336 9.67725 1.12242 9.98029 1.27633 10.2548C1.43023 10.5293 1.63593 10.7699 1.88148 10.9625C2.12704 11.1551 2.40755 11.2959 2.70676 11.3768L3.95966 6.77231ZM56.9055 41.8239C57.2099 41.7519 57.497 41.6183 57.75 41.431C58.0031 41.2436 58.2168 41.0063 58.3785 40.7331C58.5403 40.4599 58.6469 40.1562 58.692 39.8402C58.737 39.5241 58.7197 39.202 58.6409 38.893C58.5621 38.5839 58.4236 38.2941 58.2334 38.0407C58.0433 37.7873 57.8054 37.5754 57.5338 37.4176C57.2621 37.2598 56.9624 37.1593 56.6521 37.1219C56.3418 37.0846 56.0274 37.1112 55.7274 37.2003L56.9055 41.8239ZM25.7669 47.6679C26.7331 51.2368 24.6138 55.0065 20.8613 56.0038L22.0363 60.6275C28.1979 58.9928 31.9629 52.6548 30.2736 46.3933L25.7669 47.6679ZM20.8613 56.0038C17.0839 57.0076 13.2941 54.7643 12.3217 51.1635L7.81497 52.4381C9.49797 58.6678 15.8996 62.2589 22.0363 60.6275L20.8613 56.0038ZM12.3217 51.1635C11.3555 47.5946 13.4748 43.825 17.2273 42.8276L16.0523 38.2072C9.89067 39.8419 6.12262 46.1766 7.81497 52.4381L12.3217 51.1635ZM17.2273 42.8276C21.0047 41.8239 24.7945 44.0672 25.7669 47.6679L30.2736 46.3933C28.5906 40.1637 22.189 36.5725 16.0523 38.204L17.2273 42.8276ZM21.8867 39.0835L15.1796 14.2606L10.6729 15.5352L17.38 40.3581L21.8867 39.0835ZM9.27045 8.27635L3.95966 6.77231L2.70676 11.3768L8.02067 12.884L9.27045 8.27635ZM15.1796 14.2606C14.7842 12.8262 14.032 11.521 12.9964 10.4722C11.9608 9.42349 10.6771 8.66694 9.27045 8.27635L8.0269 12.884C9.35148 13.26 10.3363 14.2893 10.6729 15.5352L15.1796 14.2606ZM28.6124 49.344L56.9055 41.8239L55.7305 37.2003L27.4344 44.7204L28.6124 49.344Z" fill="#F9DA55"/>
<path id="Vector_2" d="M53.717 11.5871C52.2055 5.99163 51.4481 3.19387 49.229 1.92246C47.0037 0.647856 44.1832 1.39987 38.542 2.90071L32.558 4.48759C26.9169 5.98525 24.0963 6.73727 22.8153 8.94233C21.5313 11.1442 22.2855 13.942 23.7971 19.5343L25.4022 25.4707C26.9138 31.0631 27.668 33.8608 29.8902 35.1322C32.1123 36.4068 34.9329 35.6548 40.5741 34.1571L46.5581 32.5639C52.1992 31.0662 55.0198 30.3174 56.3039 28.1155C57.0082 26.9047 57.0986 25.5153 56.7838 23.5811" stroke="#F9DA55" stroke-width="2.2" stroke-linecap="round"/>
</g>
</svg>
