<svg width="443" height="383" viewBox="0 0 443 383" fill="none" xmlns="http://www.w3.org/2000/svg">
<path d="M182.368 293.222C179.888 296.098 177.32 298.843 174.743 301.408C173.346 310.406 165.178 319.363 159.899 326.067C152.804 335.071 142.404 349.22 131.677 353.783C132.873 351.056 133.919 348.198 135.236 345.477C130.097 346.621 124.839 349.049 119.45 350.214C105.011 353.334 90.182 352.801 75.5207 354.216C58.6299 355.844 37.707 358.434 23.0152 367.895C24.6012 366.428 26.5898 365.129 30.8506 362.484C47.1284 351.373 68.1489 349.937 86.8697 345.679C107.07 341.082 122.225 333.171 138.442 320.766C134.788 326.912 131.726 332.369 127.489 338.154C146.463 333.384 164.205 320.94 173.517 302.61C172.556 303.546 171.598 304.464 170.647 305.346C167.45 308.31 157.126 320.187 152.13 318.83C149.471 318.107 150.194 314.392 147.577 313.09C143.706 315.212 139.479 317 135.047 318.421C133.666 319.449 132.421 320.355 131.448 320.855C121.386 326.016 110.446 329.493 99.7285 333.021C85.7901 337.609 70.9549 340.732 56.5315 342.678C56.1991 338.042 60.2312 332.921 62.2106 328.913C66.2518 320.73 69.2744 312.904 74.5844 305.413C83.9082 292.255 94.1989 279.518 107.527 270.295C105.88 269.914 104.566 268.779 103.334 268.051C108.674 263.265 116.354 259.443 123.168 257.247C128.911 255.396 134.321 254.344 140.379 254.063C143.819 253.905 148.742 255.015 151.883 253.533C149.279 254.881 147.464 257.293 144.978 258.812C148.086 257.089 151.514 256.256 155.006 255.524C150.221 247.137 147.43 240.512 145.86 235.364C142.721 235.724 139.311 236.221 135.422 236.581C117.76 238.216 100.482 243.904 86.9582 255.957C84.1278 258.48 81.2944 261.243 78.5067 264.162C69.4177 273.696 60.8564 284.993 54.7259 295.781C49.5775 304.839 41.6354 313.166 37.4264 322.557C39.7413 320.596 42.5321 318.635 45.2496 317.466C38.6433 329.197 29.3073 341.445 21.2371 352.352C16.4211 358.861 11.1904 365.104 6.58187 371.704C4.45298 374.754 0.704547 378.722 0 382.169C13.0417 375.367 30.5273 374.821 44.9599 373.028C56.0588 371.649 67.4139 370.451 78.3999 368.377C88.5808 366.458 98.9843 364.506 108.659 360.883C113.35 359.126 119.56 356.04 124.662 356.165C124.558 356.915 124.851 357.903 124.763 358.681C125.989 358.778 127.371 358.608 128.835 358.26C134.822 356.839 142.248 352.349 146.582 350.199C153.338 346.85 159.88 342.671 165.993 338.036C169.052 335.714 171.998 333.278 174.807 330.764C175.057 330.542 175.316 330.325 175.563 330.099C175.701 329.974 175.841 329.84 175.978 329.715C183.301 323.039 190.844 315.127 197.182 306.499C193.192 303.793 188.254 299.618 182.365 293.225L182.368 293.222Z" fill="#DF8531"/>
<path d="M149.739 311.861C149.034 312.285 148.305 312.687 147.573 313.087C150.187 314.389 149.467 318.107 152.127 318.827C157.123 320.184 167.447 308.308 170.643 305.343C171.595 304.459 172.556 303.54 173.513 302.607C164.202 320.938 146.46 333.382 127.486 338.152C131.722 332.366 134.785 326.913 138.438 320.764C122.225 333.168 107.066 341.08 86.8663 345.676C68.1454 349.937 47.1219 351.37 30.8471 362.481C26.5863 365.123 24.5947 366.422 23.0117 367.892C37.7066 358.431 58.6264 355.842 75.5173 354.213C90.1786 352.801 105.005 353.332 119.446 350.211C124.836 349.046 130.094 346.619 135.233 345.475C133.915 348.192 132.872 351.053 131.674 353.78C142.4 349.214 152.801 335.068 159.895 326.065C165.175 319.364 173.343 310.403 174.739 301.405C177.317 298.84 179.888 296.099 182.364 293.219C179.827 290.465 177.118 287.318 174.227 283.673C170.186 295.98 158.742 306.432 149.736 311.858L149.739 311.861Z" fill="#E2A231"/>
<path d="M151.887 253.527C148.742 255.009 143.823 253.899 140.382 254.057C134.322 254.338 128.914 255.39 123.171 257.242C116.357 259.438 108.678 263.259 103.337 268.045C104.572 268.774 105.884 269.908 107.531 270.289C94.2023 279.513 83.9117 292.249 74.5879 305.407C69.2778 312.901 66.2553 320.727 62.2141 328.907C60.2346 332.912 56.2025 338.033 56.535 342.672C70.9553 340.726 85.7905 337.603 99.732 333.016C110.45 329.487 121.39 326.01 131.452 320.849C132.425 320.349 133.669 319.443 135.051 318.415C122.47 322.453 108.281 323.542 96.1269 320.877C103.749 316.198 120.963 307.438 122.082 297.483C114.128 295.598 105.756 299.481 98.2192 301.11C105.493 292.03 111.657 285.1 122.226 279.366C133.999 272.98 147.476 268.545 160.692 264.803C158.545 261.493 156.657 258.398 155.01 255.515C151.515 256.247 148.09 257.083 144.982 258.803C147.467 257.284 149.282 254.872 151.887 253.524V253.527Z" fill="#E2A231"/>
<path d="M122.223 279.369C111.655 285.103 105.487 292.033 98.2163 301.113C105.753 299.484 114.125 295.601 122.079 297.486C120.96 307.441 103.743 316.201 96.124 320.88C108.278 323.545 122.467 322.456 135.048 318.418C139.48 316.997 143.704 315.21 147.577 313.087C148.309 312.687 149.038 312.285 149.743 311.861C158.749 306.435 170.19 295.979 174.234 283.676C171.803 280.614 169.247 277.219 166.563 273.446L166.493 273.346L166.42 273.245C164.319 270.28 162.431 267.48 160.695 264.809C147.48 268.551 133.999 272.986 122.229 279.372L122.223 279.369Z" fill="#E5B531"/>
<path d="M273.85 127.321C271.807 126.674 269.736 126.37 267.659 126.156C267.061 126.8 266.472 127.214 265.914 127.422C264.67 127.037 263.404 126.784 262.114 126.626C261.806 126.427 261.577 126.275 261.449 126.269C261.303 126.354 261.144 126.431 260.998 126.516C258.451 126.324 255.831 126.501 253.153 126.891C250.628 127.26 248.102 127.681 245.58 128.09C249.981 130.145 254.596 131.859 258.802 134.284C260.479 135.251 262.196 136.297 263.926 137.386C267.738 134.162 271.612 130.978 275.525 127.861C274.97 127.684 274.409 127.495 273.853 127.321H273.85Z" fill="#11373C"/>
<path d="M309.973 77.7495C309.241 77.6489 308.61 77.5116 308.037 77.3622C308.277 79.9791 307.893 82.7729 307.237 85.9083C306.588 89.0284 305.456 91.0871 303.95 92.6731C300.82 92.6731 296.992 90.6754 294.94 89.3944C292.091 87.6162 289.737 85.2098 287.056 83.1633C286.226 82.5319 285.229 81.8548 284.21 81.1716C286.656 83.5201 288.864 86.3566 290.938 88.5983C293.088 90.9224 296.23 93.1459 298.039 95.3449C297.349 95.5401 299.039 97.1536 300.71 97.5989C303.224 98.5383 305.914 98.1692 309.677 98.5139C311.94 98.7213 314.359 98.9988 316.83 99.374C323.716 95.4852 330.512 92.1607 337.106 89.5804C329.911 87.0977 325.44 82.3001 319.755 77.3866C319.108 76.8284 318.44 76.3404 317.754 75.9043C315.503 77.3744 312.92 78.1552 309.973 77.7556V77.7495Z" fill="#239D72"/>
<path d="M368.594 210.775C371.119 208.814 373.712 207.207 376.283 206.267C376.335 206.398 376.371 206.533 376.417 206.664C376.097 204.876 373.889 205.261 371.308 206.389C371.012 206.871 370.717 207.356 370.418 207.844C369.82 208.817 369.21 209.796 368.597 210.775H368.594Z" fill="#EE7171"/>
<path d="M351.304 228.654C351.288 228.63 351.27 228.617 351.258 228.593L349.071 224.594L346.158 219.272C344.685 220.221 343.206 221.163 341.721 222.1C342.376 223.039 342.849 224.289 343.801 224.96C344.469 225.43 345.42 225.628 346.015 225.034C346.686 224.369 347.747 225.22 347.299 226.025C346.698 227.108 345.377 227.355 344.258 227.105C343.047 226.836 342.169 226.028 341.473 225.04C341.037 224.424 340.677 223.676 340.22 223.033C337.774 224.558 335.313 226.061 332.842 227.541C333.687 229.801 334.785 232.341 336.115 234.608C332.214 236.108 327.218 239.469 325.44 240.631C324.448 241.278 323.387 242.053 322.298 242.846C321.463 243.453 320.612 244.066 319.751 244.654C318.669 245.395 317.577 246.088 316.5 246.637C316.046 246.869 315.591 247.076 315.143 247.253C310.507 249.055 310.44 246.53 308.43 242.876C308.189 242.431 307.963 242.08 307.741 241.766C307.335 241.192 306.96 240.82 306.603 240.607C304.746 239.491 303.471 242.635 301.842 243.382C299.914 244.267 297.118 243.764 294.973 244.749C292.119 246.057 289.947 247.558 288.886 249.54C288.501 250.254 288.27 251.035 288.193 251.889C288.111 252.816 288.212 253.829 288.544 254.957C289.3 257.531 290.706 261.67 292.646 265.553C294.888 270.042 297.84 274.181 301.323 275.194C302.12 275.426 302.943 275.502 303.791 275.371C302.168 271.287 311.187 261.783 313.853 258.681C320.596 250.84 330.948 238.527 341.004 234.855C341.69 236.566 341.687 238.38 341.205 240.226C342.239 240.787 343.334 241.055 344.49 240.878C343.368 238.051 348.208 232.189 351.301 228.654H351.304ZM299.222 258.919C298.112 257.525 297.691 255.707 296.715 254.231C295.544 252.456 293.744 251.105 291.756 250.376C291.542 250.3 291.625 249.973 291.85 250.031C293.488 250.477 294.955 251.312 296.157 252.517C297.331 253.697 297.996 255.116 298.734 256.58C299.426 257.949 300.491 259.123 302.156 258.834C302.769 258.727 303.355 258.519 303.846 258.129C304.099 257.925 304.282 257.699 304.462 257.434C304.651 257.147 304.898 256.976 305.051 256.668C305.353 256.067 306.298 256.366 306.292 257.004C306.289 257.406 306.329 257.87 306.158 258.239C305.993 258.593 305.709 258.925 305.438 259.2C304.868 259.773 304.129 260.188 303.349 260.398C301.741 260.837 300.232 260.188 299.219 258.919H299.222Z" fill="#BD1414"/>
<path d="M368.594 210.775C368.139 211.498 367.685 212.221 367.227 212.94C366.154 214.63 365.074 216.298 364.016 217.897C363.662 218.43 363.314 218.955 362.966 219.473C362.271 220.507 361.591 221.505 360.932 222.45C360.27 223.399 359.63 224.295 359.02 225.131C358.41 225.967 357.821 226.738 357.272 227.434C356.449 228.477 355.701 229.352 355.058 230.011C355.058 230.011 354.982 230.036 354.875 230.063C354.838 230.072 354.814 230.078 354.771 230.09C354.112 230.234 352.407 230.405 351.303 228.66C348.211 232.195 343.37 238.057 344.493 240.884C350.608 242.046 357.846 231.307 361.96 227.797C366.593 223.847 378.875 214.179 376.414 206.667C376.371 206.535 376.335 206.401 376.28 206.27C373.709 207.209 371.116 208.817 368.591 210.778L368.594 210.775Z" fill="#730508"/>
<path d="M344.262 227.108C345.381 227.358 346.702 227.108 347.302 226.028C347.751 225.223 346.686 224.372 346.018 225.037C345.421 225.629 344.469 225.433 343.804 224.964C342.849 224.293 342.377 223.042 341.724 222.103C341.227 222.417 340.727 222.728 340.229 223.039C340.687 223.686 341.05 224.43 341.483 225.046C342.178 226.031 343.054 226.839 344.268 227.111L344.262 227.108Z" fill="#F2A09A"/>
<path d="M303.604 283.575C302.232 285.396 300.81 287.263 299.355 289.157C300.81 287.263 302.232 285.393 303.604 283.575Z" fill="#404A65"/>
<path d="M319.758 244.66C320.118 242.519 320.426 240.491 320.734 238.679C321.128 236.355 321.521 234.888 321.887 233.949C320.728 234.611 319.569 235.266 318.41 235.916C317.831 239.704 317.187 243.449 316.507 246.643C317.583 246.094 318.675 245.401 319.758 244.66Z" fill="#404A65"/>
<path d="M273.05 321.206C271.772 322.603 270.558 323.893 269.424 325.049C270.558 323.89 271.775 322.603 273.05 321.206Z" fill="#404A65"/>
<path d="M306.261 275.31C305.429 275.477 304.605 275.523 303.797 275.371C302.946 275.502 302.126 275.423 301.33 275.194C289.325 292.856 272.346 315.304 262.924 322.673C262.924 322.673 259.252 328.376 255.067 318.29L258.261 325.985C259.899 329.484 263.095 329.52 264.358 329.383C264.403 327.541 265.745 324.591 270.445 319.931C279.059 311.391 296.556 288.358 306.261 275.31Z" fill="#404A65"/>
<path d="M322.305 242.852C322.509 241.192 322.72 239.472 322.93 237.755C322.723 239.475 322.509 241.196 322.305 242.852Z" fill="#404A65"/>
<path d="M299.357 289.16C297.902 291.054 296.414 292.975 294.91 294.897C296.414 292.972 297.902 291.054 299.357 289.16Z" fill="#404A65"/>
<path d="M315.153 247.256C315.602 247.082 316.053 246.875 316.511 246.64C317.191 243.447 317.834 239.701 318.414 235.913C314.839 237.917 311.28 239.869 307.751 241.766C307.974 242.08 308.199 242.434 308.44 242.876C310.453 246.533 310.52 249.055 315.153 247.253V247.256Z" fill="#3B455D"/>
<path d="M262.924 322.673C272.346 315.304 289.325 292.856 301.33 275.194C297.844 274.184 294.891 270.042 292.653 265.553C281.233 281.211 267.576 294.183 254.003 293.381C254.003 293.381 247.302 292.164 237.902 274.962C237.661 275.063 237.439 275.154 237.213 275.249L255.064 318.284C255.064 318.284 255.064 318.284 255.064 318.287C259.249 328.373 262.921 322.67 262.921 322.67L262.924 322.673Z" fill="#3B455D"/>
<path d="M266.485 329.853C266.818 329.817 267.022 329.771 267.022 329.771C268.319 328.701 269.847 327.258 271.548 325.522C272.683 324.363 273.9 323.076 275.175 321.679C280.284 316.089 286.393 308.76 292.487 301.129C294.009 299.219 295.531 297.295 297.034 295.37C298.538 293.446 300.026 291.527 301.481 289.633C302.936 287.739 304.357 285.87 305.73 284.052C308.771 280.017 311.558 276.238 313.943 272.922C312.095 274.353 310.219 275.414 308.386 275.786C298.681 288.834 281.183 311.865 272.57 320.408C267.87 325.068 266.528 328.017 266.482 329.86L266.485 329.853Z" fill="#4A5575"/>
<path d="M319.758 244.66C320.618 244.072 321.469 243.459 322.305 242.852C322.509 241.193 322.719 239.476 322.93 237.755C322.93 237.743 322.93 237.731 322.933 237.719C323.125 236.139 323.314 234.562 323.497 233.034C322.96 233.342 322.423 233.647 321.887 233.952C321.524 234.888 321.127 236.355 320.734 238.683C320.426 240.497 320.118 242.522 319.758 244.664V244.66Z" fill="#4A5575"/>
<path d="M288.2 251.892C265.798 263.085 246.808 271.256 237.902 274.965C247.302 292.167 254.003 293.384 254.003 293.384C267.576 294.186 281.234 281.211 292.653 265.556C290.713 261.67 289.307 257.534 288.55 254.96C288.221 253.835 288.12 252.822 288.2 251.892Z" fill="#2E384D"/>
<path d="M203.468 249.659C181.496 218.714 187.047 213.197 187.047 213.197L174.85 209.351C192.556 260.176 214.262 273.782 214.262 273.782C192.476 264.195 169.687 216.274 169.687 216.274C164.618 213.883 144.82 219.87 144.82 219.87C144.82 219.87 143.527 222.13 144.198 227.794C144.442 229.847 144.948 232.351 145.866 235.361C147.437 240.509 150.228 247.134 155.013 255.521C156.657 258.404 158.545 261.499 160.695 264.809C162.431 267.48 164.319 270.28 166.42 273.245L166.493 273.345L166.564 273.446C169.248 277.216 171.803 280.61 174.234 283.676C177.129 287.32 179.834 290.468 182.372 293.222C188.264 299.615 193.202 303.79 197.188 306.496C205.631 312.224 209.834 311.434 209.834 311.434L229.665 286.552L229.958 276.96C226.301 275.755 218.282 270.518 203.471 249.659H203.468Z" fill="#404A65"/>
<path d="M384.061 143.944C384.061 143.944 384.061 143.944 384.061 143.947C381.249 147.281 378.223 150.73 374.969 154.296C358.688 172.129 331.918 191.155 305.124 207.829C305.752 209.384 306.323 211.007 306.777 212.761C307.982 217.415 306.426 221.563 307.003 225.885C307.558 230.057 308.726 233.135 307.726 237.585C307.494 238.622 307.107 239.634 306.615 240.613C306.969 240.827 307.347 241.199 307.753 241.772C311.282 239.878 314.841 237.926 318.416 235.919C319.575 235.27 320.734 234.614 321.893 233.952C322.43 233.647 322.966 233.342 323.503 233.034C326.623 231.244 329.744 229.414 332.851 227.55C335.322 226.068 337.783 224.564 340.229 223.042C340.73 222.731 341.227 222.42 341.724 222.106C343.212 221.173 344.688 220.227 346.162 219.279L333.236 195.65L378.918 164.181L381.368 166.944C381.368 166.944 381.34 170.189 381.294 174.053C381.294 174.227 381.291 174.407 381.288 174.584C381.288 174.611 381.288 174.642 381.288 174.669C381.288 174.868 381.282 175.069 381.282 175.27C381.282 175.398 381.279 175.526 381.276 175.655C381.276 175.804 381.273 175.953 381.27 176.103C381.27 176.292 381.264 176.481 381.264 176.67C381.264 176.743 381.264 176.817 381.264 176.89C381.264 177.103 381.258 177.32 381.255 177.533C381.255 177.64 381.255 177.747 381.252 177.857C381.252 178.076 381.246 178.293 381.243 178.509C381.243 178.583 381.243 178.656 381.239 178.729C381.239 178.848 381.236 178.967 381.233 179.086C381.224 179.787 381.212 180.474 381.2 181.129C381.2 181.166 381.2 181.203 381.2 181.239C381.2 181.386 381.194 181.526 381.191 181.669C381.191 181.803 381.185 181.941 381.185 182.072C381.185 182.185 381.179 182.294 381.179 182.407C381.179 182.541 381.172 182.676 381.169 182.804C381.169 182.929 381.163 183.048 381.16 183.167C381.16 183.28 381.154 183.392 381.151 183.502C381.151 183.621 381.145 183.737 381.142 183.85C381.142 183.947 381.136 184.042 381.136 184.137C381.133 184.265 381.13 184.39 381.127 184.512C381.127 184.573 381.124 184.631 381.121 184.689C381.118 184.817 381.114 184.942 381.108 185.061C381.108 185.119 381.105 185.174 381.102 185.232C381.099 185.338 381.096 185.445 381.09 185.543C381.09 185.604 381.084 185.655 381.084 185.71C381.081 185.796 381.078 185.884 381.075 185.957C381.075 186 381.072 186.037 381.069 186.076C381.066 186.15 381.063 186.229 381.057 186.29C381.011 187.049 380.996 187.479 380.992 187.736C380.992 187.864 380.992 187.949 380.996 188.007C380.999 188.065 381.005 188.099 381.008 188.126C381.018 188.197 380.972 188.596 380.87 189.322C380.843 189.526 380.654 189.986 380.328 190.664C380.111 191.115 379.833 191.658 379.501 192.286C379.004 193.226 378.388 194.351 377.677 195.614C377.375 196.147 377.052 196.715 376.719 197.294C386.986 188.885 395.934 180.175 402.675 171.348C404.673 168.731 406.573 166.154 408.378 163.622C402.58 161.17 394.379 155.729 384.07 143.956L384.061 143.944Z" fill="#B5C3E3"/>
<path d="M293.806 124.906C291.103 123.32 288.843 121.386 286.455 119.431C282.786 122.164 279.138 124.982 275.521 127.861C271.608 130.978 267.734 134.162 263.922 137.386C266.219 138.832 268.524 140.369 270.8 141.992C278.394 136.053 286.126 130.277 293.803 124.903L293.806 124.906Z" fill="#B5C3E3"/>
<path d="M330.509 102.714C332.513 101.747 334.486 100.841 336.426 100.012C341.928 97.6601 347.15 95.58 352.091 93.747C352.091 93.747 352.094 93.747 352.097 93.747C350.813 90.5262 349.925 87.7659 349.343 85.4601C355.403 83.624 361.177 82.0899 366.664 80.815C367.012 82.9469 367.594 85.4113 368.488 88.2051C390.143 81.6354 404.813 80.3453 412.993 80.3453C414.055 80.3453 415.009 80.3667 415.854 80.4033C418.907 80.5283 420.557 82.8554 419.67 85.7773C417.422 93.1827 411.154 108.786 394.269 131.179C404.493 142.977 412.563 147.472 418.117 148.964C436.734 118.806 441.538 96.4432 442.758 86.0122C443.209 82.1479 440.657 78.5519 436.859 77.704C424.214 74.8797 392.625 71.2167 343.084 87.4243C341.114 88.0679 339.119 88.7938 337.106 89.5807C330.512 92.164 323.717 95.4885 316.83 99.3742C321.375 100.06 326.108 101.097 330.506 102.717L330.509 102.714Z" fill="#B5C3E3"/>
<path d="M237.902 274.962C246.808 271.253 265.797 263.082 288.199 251.889C288.276 251.035 288.507 250.254 288.892 249.54C286.571 248.714 285.994 246.795 284.335 244.398C280.739 239.204 274.676 236.12 270.65 231.073C270.119 230.408 269.64 229.7 269.174 228.98C241.031 244.715 219.139 255.238 219.139 255.238C219.139 255.238 218.721 255.467 217.858 255.467C215.366 255.467 209.165 253.554 198.609 238.685C187.056 222.414 188.431 216.183 189.352 214.42L187.455 212.727C187.196 213.023 187.05 213.194 187.05 213.194C187.05 213.194 181.502 218.711 203.471 249.656C218.278 270.512 226.297 275.752 229.957 276.957C231.726 277.539 232.482 277.182 232.482 277.182C232.482 277.182 234.178 276.508 237.219 275.249C237.445 275.154 237.667 275.063 237.908 274.962H237.902Z" fill="#B5C3E3"/>
<path d="M394.269 131.173C394.269 131.173 394.263 131.179 394.26 131.186C391.219 135.221 387.827 139.478 384.061 143.944C394.373 155.717 402.574 161.158 408.369 163.61C408.387 163.586 408.402 163.561 408.421 163.537C409.302 162.298 410.162 161.072 411.001 159.858C411.065 159.767 411.123 159.675 411.187 159.584C411.98 158.431 412.755 157.287 413.508 156.153C413.526 156.128 413.542 156.101 413.56 156.076C415.164 153.664 416.68 151.291 418.114 148.97C418.114 148.97 418.117 148.964 418.12 148.961C412.566 147.469 404.495 142.974 394.272 131.176L394.269 131.173Z" fill="#404A65"/>
<path d="M368.488 88.2021C367.594 85.4084 367.011 82.947 366.664 80.812C361.177 82.0839 355.403 83.618 349.343 85.4572C349.925 87.7629 350.813 90.5232 352.097 93.744C357.947 91.5724 363.406 89.7424 368.481 88.2021C368.481 88.2021 368.485 88.2021 368.488 88.2021Z" fill="#404A65"/>
<path d="M308.54 130.054C304.648 129.096 300.784 128.041 297.005 126.507C295.849 126.037 294.803 125.491 293.806 124.906C286.126 130.28 278.397 136.053 270.803 141.995C275.137 145.084 279.297 148.449 282.887 151.959C291.03 144.465 299.613 137.084 308.54 130.051V130.054Z" fill="#CAD3E9"/>
<path d="M261.773 198.044C258.925 199.164 256.1 199.969 253.764 199.969C250.958 199.969 248.86 198.816 248.271 195.678C247.987 194.165 248.201 192.484 248.771 190.709C248.692 190.746 248.619 190.795 248.53 190.822C248.189 190.959 247.841 191.005 247.484 190.962L247.13 190.947C246.771 190.898 246.444 190.77 246.157 190.557C245.828 190.389 245.56 190.148 245.355 189.834C245.191 189.648 245.075 189.428 245.008 189.178C244.956 188.946 244.904 188.714 244.852 188.483C244.819 188.239 244.828 188.001 244.883 187.769L244.901 187.696C244.965 187.418 245.047 187.144 245.148 186.878L245.264 186.573C245.477 186.107 245.791 185.725 246.209 185.427C246.52 185.189 246.865 185.042 247.243 184.993C247.597 184.884 247.96 184.865 248.329 184.942C248.704 184.99 249.04 185.128 249.339 185.347C249.68 185.521 249.958 185.771 250.171 186.098C250.318 186.305 250.434 186.525 250.519 186.756C251.098 185.698 251.766 184.624 252.498 183.548C252.05 183.331 251.608 183.121 251.181 182.907C246.337 180.498 242.76 177.945 238.514 174.514C238.334 174.367 238.142 174.245 237.962 174.105L191.551 216.393L189.342 214.42C188.421 216.183 187.046 222.414 198.599 238.685C209.155 253.554 215.356 255.466 217.847 255.466C218.711 255.466 219.128 255.238 219.128 255.238C219.128 255.238 241.021 244.715 269.164 228.98C265.195 222.88 263.42 215.033 262.508 208.042C262.152 205.297 262.103 201.631 261.767 198.041L261.773 198.044ZM208.149 227.568C208.1 227.943 207.962 228.282 207.743 228.578C207.569 228.919 207.319 229.197 206.99 229.413L206.742 229.575C206.325 229.871 205.861 230.042 205.352 230.087C205.111 230.078 204.87 230.069 204.629 230.057C204.138 229.972 203.699 229.773 203.311 229.459C203.137 229.273 202.967 229.087 202.793 228.904C202.555 228.593 202.412 228.251 202.36 227.873C202.25 227.519 202.232 227.16 202.311 226.79C202.36 226.415 202.494 226.08 202.717 225.784C202.89 225.442 203.137 225.168 203.467 224.951L203.699 224.771C204.119 224.476 204.583 224.305 205.095 224.256C205.336 224.265 205.58 224.274 205.821 224.286C206.315 224.372 206.755 224.573 207.145 224.887C207.319 225.073 207.493 225.259 207.667 225.445C207.905 225.757 208.051 226.101 208.103 226.482C208.213 226.836 208.231 227.199 208.155 227.571L208.149 227.568ZM228.419 209.933L228.208 210.619L228.202 210.632L228.19 210.656L227.995 210.973C227.894 211.193 227.748 211.373 227.549 211.513C227.394 211.702 227.202 211.839 226.97 211.925C226.772 212.065 226.555 212.144 226.314 212.166L225.976 212.242H225.964L225.909 212.251C225.543 212.297 225.189 212.251 224.853 212.117C224.612 212.074 224.396 211.977 224.204 211.821C223.975 211.717 223.786 211.562 223.639 211.358C223.441 211.193 223.298 210.992 223.209 210.751C223.063 210.543 222.981 210.317 222.956 210.064C222.874 209.833 222.853 209.595 222.892 209.354C222.871 209.11 222.91 208.878 223.011 208.655C223.054 208.414 223.151 208.198 223.307 208.006C223.411 207.777 223.566 207.588 223.771 207.441C223.935 207.243 224.137 207.1 224.378 207.011C224.692 206.81 225.036 206.7 225.418 206.679C225.655 206.688 225.893 206.697 226.131 206.706C226.36 206.776 226.586 206.847 226.814 206.914C227.019 207.042 227.226 207.167 227.431 207.295C227.601 207.478 227.772 207.661 227.943 207.844C228.059 208.067 228.175 208.286 228.291 208.509C228.342 208.744 228.394 208.982 228.446 209.216C228.437 209.454 228.428 209.692 228.419 209.93V209.933Z" fill="#CAD3E9"/>
<path d="M375.256 132.948C374.469 132.869 373.721 132.829 373.035 132.866C373.575 134.269 375.094 134.794 376.857 135.071C376.326 134.373 375.795 133.677 375.256 132.948Z" fill="#CAD3E9"/>
<path d="M374.966 154.295C378.223 150.73 381.246 147.28 384.058 143.947C382.881 142.602 381.661 141.138 380.428 139.622C380.212 139.909 380.044 140.256 379.974 140.732C373.273 144.319 363.059 140.61 356.876 137.746C356.071 137.374 355.156 137.039 354.192 136.721C336.499 152.401 316.946 167.892 296.206 180.278C296.252 181.148 296.282 182.029 296.282 182.926C296.282 193.152 301.678 199.31 305.118 207.832C331.912 191.158 358.682 172.132 374.963 154.299L374.966 154.295Z" fill="#CAD3E9"/>
<path d="M352.091 93.7471C347.15 95.5801 341.928 97.6602 336.426 100.012C334.489 100.841 332.513 101.747 330.509 102.714C334.022 104.007 337.304 105.679 340.095 107.844C344.874 104.889 349.702 102.067 354.582 99.4566C353.616 97.407 352.792 95.5069 352.091 93.7471Z" fill="#CAD3E9"/>
<path d="M369.819 91.9929C370.927 91.5018 372.034 91.023 373.144 90.5563C375.791 89.44 383.154 86.6432 388.867 86.6432C392.295 86.6432 395.128 87.6497 395.997 90.6265C395.723 94.1706 390.724 99.142 388.287 102.082C385.6 105.327 382.815 108.509 379.951 111.629C381.666 114.352 383.584 117.222 385.731 120.245C386.341 121.105 386.945 121.929 387.543 122.74C387.753 122.917 387.949 123.112 388.122 123.344C388.095 123.368 388.064 123.386 388.037 123.411C390.19 126.299 392.267 128.882 394.259 131.185C394.259 131.182 394.265 131.179 394.268 131.173C411.153 108.777 417.421 93.1732 419.668 85.7709C420.556 82.849 418.906 80.5219 415.853 80.3968C415.008 80.3633 414.053 80.3389 412.992 80.3389C404.812 80.3389 390.141 81.629 368.487 88.1987C368.487 88.1987 368.484 88.1987 368.48 88.1987C368.865 89.4004 369.307 90.6631 369.819 91.9898V91.9929Z" fill="#CAD3E9"/>
<path d="M379.958 111.632C376.515 115.39 372.949 119.05 369.313 122.633C371.592 122.938 373.959 123.082 376.152 122.899C379.238 122.639 384.829 120.453 387.549 122.743C386.949 121.932 386.348 121.108 385.738 120.248C383.59 117.226 381.672 114.356 379.958 111.632Z" fill="#6F7187"/>
<path d="M388.041 123.411C384.046 126.916 376.823 124.528 373.38 128.066C377.625 132.305 386.007 127.742 390.509 131.841C386.815 135.678 380.206 133.452 375.256 132.949C375.795 133.678 376.326 134.376 376.857 135.071C380.288 135.611 384.665 135.202 384.704 138.381C382.993 138.594 381.255 138.524 380.431 139.619C381.667 141.138 382.884 142.599 384.061 143.944C384.061 143.944 384.061 143.944 384.061 143.941C387.831 139.476 391.219 135.218 394.26 131.183C392.268 128.883 390.191 126.3 388.038 123.408L388.041 123.411Z" fill="#6F7187"/>
<path d="M354.583 99.4565C359.618 96.7603 364.703 94.2593 369.82 91.9962C369.311 90.6695 368.866 89.4068 368.481 88.2051C363.406 89.7453 357.947 91.5753 352.097 93.7469H352.091C352.792 95.5037 353.616 97.4038 354.583 99.4565Z" fill="#6F7187"/>
<path d="M362.876 114.606C359.347 108.841 356.636 103.803 354.586 99.4565C349.706 102.07 344.878 104.889 340.099 107.844C343.088 110.162 345.525 113.032 347.022 116.64C347.824 118.574 348.541 120.181 349.139 121.654C353.897 122.289 358.612 117.991 362.876 114.603V114.606ZM349.105 115.051C349.172 114.828 349.239 114.609 349.307 114.386C349.307 114.386 349.307 114.383 349.31 114.38C349.377 114.161 349.444 113.944 349.508 113.724C349.721 113.258 350.035 112.876 350.453 112.578C350.679 112.459 350.902 112.34 351.127 112.224C351.478 112.08 351.841 112.032 352.21 112.08C352.579 112.065 352.93 112.141 353.268 112.306C353.625 112.453 353.921 112.675 354.156 112.974C354.443 113.233 354.65 113.551 354.772 113.929L354.781 113.959C354.833 114.2 354.888 114.438 354.94 114.679V114.694L354.949 114.74C354.967 115.011 354.958 115.289 354.915 115.56L354.903 115.612C354.839 115.859 354.769 116.106 354.681 116.344L354.446 116.741C354.208 117.122 354.15 117.278 353.692 117.577L353.674 117.589L353.634 117.613L353.549 117.671C353.601 117.644 353.085 117.939 352.857 118.034L352.808 118.049C352.567 118.116 352.323 118.168 352.079 118.211L352.024 118.217C351.551 118.257 351.097 118.18 350.664 117.985C350.466 117.863 350.264 117.738 350.066 117.616C349.764 117.387 349.541 117.101 349.398 116.762C349.258 116.561 349.175 116.338 349.151 116.097C349.044 115.759 349.029 115.414 349.102 115.06L349.105 115.051Z" fill="#D8DEEE"/>
<path d="M250.691 187.494C250.682 187.735 250.673 187.979 250.66 188.22C250.575 188.711 250.377 189.154 250.059 189.544L249.873 189.806L249.776 189.925L249.456 190.233C249.263 190.444 249.032 190.596 248.775 190.715C248.205 192.49 247.992 194.171 248.275 195.684C248.864 198.822 250.962 199.975 253.768 199.975C256.105 199.975 258.929 199.167 261.778 198.05C261.436 194.39 260.792 190.804 259.203 188.351C257.742 186.094 255.019 184.765 252.506 183.557C251.774 184.634 251.106 185.707 250.526 186.765C250.612 187 250.669 187.244 250.694 187.501L250.691 187.494Z" fill="#D8DEEE"/>
<path d="M379.958 111.632C382.819 108.512 385.604 105.328 388.294 102.086C390.731 99.1453 395.727 94.1739 396.004 90.6298C395.135 87.6499 392.302 86.6465 388.873 86.6465C383.158 86.6465 375.795 89.4433 373.151 90.5596C372.04 91.0293 370.933 91.5082 369.826 91.9962C371.915 97.4282 375.121 103.94 379.964 111.632H379.958Z" fill="#D8DEEE"/>
<path d="M354.193 136.718C352.225 136.072 350.032 135.492 348.026 134.8C347.165 135.492 346.141 135.983 345.006 136.163C340.898 136.819 335.874 140.634 330.93 139.052C326.752 137.713 324.172 134.123 319.764 132.863C316.028 131.796 312.267 130.969 308.534 130.051C299.607 137.084 291.024 144.465 282.881 151.959C283.29 152.359 283.717 152.752 284.11 153.155C291.738 160.978 295.651 169.667 296.203 180.275C316.94 167.889 336.497 152.401 354.19 136.718H354.193ZM305.6 140.22C305.539 140.47 305.463 140.714 305.378 140.955L305.335 141.046C305.21 141.26 305.079 141.47 304.944 141.678C304.758 141.851 304.575 142.022 304.389 142.196L304.371 142.211L304.331 142.239L304.31 142.251L303.972 142.428L303.633 142.605C303.392 142.681 303.142 142.724 302.895 142.769L302.81 142.776C302.087 142.757 302.132 142.794 301.449 142.544L301.434 142.538L301.4 142.519C300.967 142.321 300.61 142.028 300.333 141.638C300.223 141.427 300.113 141.22 300.003 141.01C299.869 140.68 299.827 140.345 299.869 140C299.863 139.866 299.882 139.738 299.903 139.61C299.903 139.616 299.9 139.622 299.897 139.631C299.897 139.625 299.9 139.619 299.903 139.61C299.918 139.515 299.942 139.424 299.97 139.332C299.976 139.231 299.964 139.131 299.982 139.027C300.052 138.795 300.122 138.564 300.196 138.332C300.409 137.865 300.723 137.481 301.141 137.182C301.367 137.063 301.593 136.944 301.818 136.828C302.172 136.685 302.532 136.636 302.904 136.682C303.273 136.666 303.627 136.743 303.965 136.907C304.325 137.054 304.621 137.276 304.853 137.575C305.14 137.835 305.347 138.152 305.469 138.53C305.664 139.106 305.698 139.564 305.619 140.165L305.609 140.211L305.6 140.22Z" fill="#D8DEEE"/>
<path d="M365.718 119.129C365.258 119.94 364.98 120.834 365.023 121.859C365.926 122.075 366.893 122.267 367.887 122.435C367.137 121.31 366.414 120.209 365.718 119.132V119.129Z" fill="#D8DEEE"/>
<path d="M299.963 139.405C299.942 139.475 299.921 139.546 299.899 139.619C299.918 139.549 299.945 139.482 299.963 139.411C299.963 139.411 299.963 139.411 299.963 139.408V139.405Z" fill="#D8DEEE"/>
<path d="M369.82 91.9934C364.702 94.2595 359.621 96.7575 354.582 99.4537C356.632 103.8 359.346 108.838 362.872 114.603C366.724 111.541 370.21 109.232 373.016 112.014C371.14 114.557 367.285 116.36 365.714 119.129C366.41 120.206 367.133 121.31 367.883 122.432C368.35 122.512 368.832 122.566 369.31 122.631C372.946 119.047 376.511 115.387 379.955 111.629C375.111 103.934 371.906 97.4254 369.817 91.9934H369.82Z" fill="#9292A4"/>
<path d="M169.687 216.271C169.687 216.271 192.476 264.193 214.262 273.779C214.262 273.779 192.556 260.176 174.851 209.348L153.583 216.796L144.82 219.864C144.82 219.864 164.618 213.877 169.687 216.268V216.271Z" fill="#45506E"/>
<path d="M145.016 167.334C155.196 160.792 182.497 152.038 203.225 146.539C202.697 145.283 202.261 143.999 201.947 142.687C186.16 147.658 160.516 156.052 150.082 161.139C144.134 164.04 140.907 164.336 139.153 163.772C139.297 163.47 139.41 163.293 139.41 163.293C139.41 163.293 136.863 167.242 140.352 170.649L142.182 172.284L143.274 173.26L146.565 176.2C138.421 168.923 145.016 167.337 145.016 167.337V167.334Z" fill="#404A65"/>
<path d="M191.554 216.396C168.176 195.101 169.726 185.411 169.726 185.411C173.611 171.747 191.725 162.954 211.248 157.361C207.664 154.25 204.91 150.556 203.224 146.536C182.499 152.035 155.195 160.792 145.015 167.331C145.015 167.331 138.42 168.917 146.564 176.194L187.449 212.724L189.346 214.417L191.554 216.39V216.396Z" fill="#3B455D"/>
<path d="M150.084 161.136C160.518 156.049 186.162 147.659 201.949 142.684C201.73 141.76 201.586 140.824 201.479 139.881C200.012 140.336 198.503 140.811 196.956 141.302C195.889 141.641 194.8 141.992 193.702 142.345C192.781 142.641 191.851 142.946 190.911 143.251C189.981 143.556 189.048 143.864 188.105 144.175C187.346 144.426 186.583 144.679 185.821 144.935C185.437 145.063 185.052 145.191 184.668 145.322C182.759 145.963 180.837 146.615 178.916 147.277C175.243 148.543 171.577 149.836 168.021 151.129C167.106 151.462 166.203 151.794 165.307 152.127C164.401 152.462 163.507 152.795 162.623 153.127C161.842 153.42 161.07 153.713 160.311 154.006C155.964 155.671 151.935 157.293 148.465 158.809C148.047 158.992 147.635 159.175 147.232 159.355C146.025 159.895 144.893 160.42 143.85 160.926C143.502 161.094 143.164 161.262 142.837 161.426C142.182 161.756 141.566 162.076 140.995 162.387C140.425 162.698 139.897 162.997 139.418 163.29C139.418 163.29 139.305 163.467 139.162 163.769C140.916 164.333 144.143 164.037 150.09 161.136H150.084Z" fill="#4A5575"/>
<path d="M211.964 157.992C211.717 157.788 211.492 157.571 211.251 157.361C191.725 162.954 173.614 171.747 169.728 185.411C169.728 185.411 168.179 195.101 191.557 216.396L237.969 174.108C229.761 167.688 219.904 164.504 211.964 157.992Z" fill="#2E384D"/>
<path d="M349.398 116.753C349.541 117.095 349.764 117.378 350.066 117.607C350.264 117.732 350.465 117.854 350.663 117.976C351.096 118.168 351.551 118.244 352.024 118.208L352.079 118.202C352.323 118.159 352.567 118.104 352.807 118.04L352.856 118.025C353.085 117.933 353.6 117.634 353.549 117.662L353.634 117.604L353.674 117.58L353.692 117.567C354.149 117.268 354.21 117.113 354.445 116.732L354.68 116.335C354.772 116.097 354.839 115.85 354.903 115.603L354.915 115.551C354.958 115.283 354.967 115.005 354.949 114.731L354.942 114.685V114.67C354.888 114.429 354.833 114.191 354.781 113.95L354.772 113.92C354.65 113.541 354.445 113.224 354.156 112.965C353.924 112.666 353.628 112.443 353.268 112.297C352.929 112.129 352.579 112.056 352.21 112.071C351.841 112.026 351.481 112.071 351.127 112.215C350.901 112.334 350.676 112.453 350.453 112.568C350.035 112.867 349.721 113.249 349.507 113.715C349.44 113.935 349.373 114.151 349.309 114.371C349.309 114.371 349.309 114.374 349.306 114.377C349.239 114.6 349.172 114.819 349.105 115.042C349.032 115.396 349.047 115.74 349.154 116.079C349.175 116.323 349.257 116.546 349.401 116.744L349.398 116.753ZM350.224 113.297C350.224 113.297 350.249 113.273 350.264 113.261C350.264 113.261 350.27 113.258 350.273 113.255C350.255 113.267 350.242 113.282 350.224 113.294V113.297Z" fill="#3655A5"/>
<path d="M305.458 138.539C305.336 138.161 305.132 137.844 304.842 137.584C304.608 137.286 304.312 137.063 303.955 136.917C303.616 136.749 303.262 136.673 302.893 136.691C302.524 136.645 302.161 136.691 301.808 136.837C301.582 136.956 301.356 137.075 301.131 137.191C300.713 137.49 300.399 137.874 300.185 138.341C300.115 138.573 300.045 138.804 299.972 139.036C299.953 139.14 299.965 139.241 299.959 139.341C299.932 139.433 299.907 139.524 299.892 139.619C299.914 139.549 299.935 139.479 299.956 139.405C299.956 139.405 299.956 139.405 299.956 139.408C299.938 139.479 299.911 139.546 299.892 139.619C299.874 139.747 299.856 139.875 299.859 140.009C299.816 140.354 299.859 140.689 299.993 141.019C300.103 141.229 300.212 141.437 300.322 141.647C300.6 142.034 300.957 142.33 301.39 142.529L301.423 142.547L301.439 142.553C302.125 142.803 302.076 142.766 302.799 142.785L302.884 142.779C303.131 142.733 303.384 142.69 303.622 142.614L303.961 142.437L304.299 142.26L304.321 142.248L304.36 142.22L304.379 142.205C304.565 142.031 304.748 141.861 304.934 141.687C305.068 141.479 305.199 141.269 305.324 141.055L305.367 140.964C305.452 140.723 305.532 140.476 305.59 140.229L305.599 140.183C305.678 139.582 305.648 139.125 305.449 138.548L305.458 138.539Z" fill="#3655A5"/>
<path d="M299.893 139.642C299.893 139.642 299.896 139.628 299.899 139.619C299.899 139.619 299.896 139.632 299.893 139.642Z" fill="#3655A5"/>
<path d="M249.778 189.922L249.876 189.803L250.062 189.541C250.376 189.15 250.578 188.711 250.663 188.217C250.672 187.976 250.681 187.732 250.693 187.491C250.669 187.235 250.614 186.988 250.526 186.756C250.44 186.524 250.324 186.305 250.178 186.097C249.964 185.771 249.687 185.518 249.345 185.347C249.046 185.128 248.711 184.99 248.336 184.942C247.967 184.865 247.604 184.881 247.25 184.993C246.872 185.045 246.527 185.189 246.216 185.426C245.798 185.725 245.484 186.107 245.271 186.573L245.155 186.878C245.054 187.144 244.972 187.418 244.908 187.696L244.889 187.769C244.834 188.001 244.822 188.239 244.859 188.483C244.911 188.714 244.963 188.946 245.014 189.178C245.081 189.431 245.197 189.651 245.362 189.834C245.569 190.148 245.835 190.392 246.164 190.557C246.451 190.77 246.774 190.898 247.137 190.947L247.491 190.962C247.848 191.008 248.199 190.962 248.537 190.822C248.626 190.794 248.699 190.746 248.778 190.709C249.034 190.59 249.269 190.441 249.458 190.227L249.778 189.919V189.922Z" fill="#3655A5"/>
<path d="M227.94 207.847C227.769 207.664 227.599 207.481 227.428 207.298C227.223 207.17 227.016 207.045 226.812 206.917C226.583 206.847 226.357 206.78 226.129 206.71C225.891 206.7 225.653 206.691 225.415 206.682C225.037 206.7 224.689 206.81 224.375 207.015C224.134 207.103 223.933 207.246 223.768 207.445C223.563 207.591 223.408 207.78 223.304 208.009C223.149 208.201 223.051 208.418 223.008 208.659C222.908 208.881 222.871 209.113 222.889 209.357C222.85 209.598 222.871 209.836 222.953 210.068C222.978 210.318 223.06 210.546 223.207 210.754C223.295 210.995 223.438 211.196 223.637 211.361C223.783 211.565 223.972 211.721 224.201 211.824C224.393 211.98 224.61 212.078 224.851 212.12C225.186 212.254 225.54 212.297 225.906 212.254L225.961 212.245H225.973L226.312 212.169C226.552 212.148 226.769 212.065 226.967 211.928C227.196 211.843 227.391 211.705 227.547 211.516C227.742 211.376 227.891 211.196 227.992 210.977L228.187 210.659L228.199 210.635L228.206 210.623L228.416 209.936C228.425 209.699 228.434 209.461 228.443 209.223C228.392 208.988 228.34 208.75 228.288 208.515C228.172 208.296 228.056 208.073 227.94 207.85V207.847Z" fill="#3655A5"/>
<path d="M207.665 225.445C207.491 225.259 207.317 225.073 207.143 224.887C206.753 224.573 206.314 224.372 205.82 224.286C205.576 224.277 205.335 224.268 205.094 224.256C204.581 224.302 204.118 224.475 203.697 224.771L203.465 224.951C203.139 225.165 202.889 225.442 202.715 225.784C202.495 226.08 202.361 226.415 202.309 226.79C202.233 227.159 202.248 227.519 202.358 227.873C202.41 228.251 202.553 228.596 202.791 228.904C202.965 229.09 203.136 229.273 203.31 229.459C203.697 229.773 204.136 229.972 204.627 230.057C204.868 230.066 205.109 230.075 205.35 230.087C205.859 230.042 206.323 229.871 206.741 229.575L206.988 229.413C207.317 229.2 207.567 228.919 207.741 228.578C207.961 228.279 208.098 227.943 208.147 227.568C208.223 227.196 208.208 226.836 208.095 226.479C208.043 226.098 207.9 225.753 207.659 225.442L207.665 225.445Z" fill="#3655A5"/>
<path d="M377.698 185.735C376.381 190.727 360.988 219.339 353.601 226.519C353.601 226.519 351.938 229.834 349.071 224.594L351.258 228.593C351.273 228.617 351.292 228.63 351.304 228.654C352.411 230.399 354.113 230.231 354.772 230.081C354.689 229.078 355.248 227.394 357.529 224.588C362.668 218.263 373.816 199.261 376.82 194.064C379.824 188.867 379.84 182.007 380.114 177.451C380.392 172.897 381.288 174.044 381.288 174.044C381.334 170.18 381.362 166.934 381.362 166.934L378.912 164.171C378.912 164.171 379.013 180.742 377.695 185.735H377.698Z" fill="#404A65"/>
<path d="M349.071 224.597C351.938 229.837 353.6 226.522 353.6 226.522C360.987 219.342 376.381 190.73 377.698 185.737C379.016 180.745 378.915 164.174 378.915 164.174C378.915 164.174 365.27 210.232 347.031 211.116C347.031 211.116 341.678 210.741 333.229 195.647L346.155 219.275L349.068 224.597H349.071Z" fill="#3B455D"/>
<path d="M377.669 195.601C378.379 194.338 378.995 193.213 379.493 192.274C379.825 191.648 380.103 191.102 380.319 190.651C380.645 189.977 380.835 189.513 380.862 189.309C380.962 188.583 381.007 188.185 380.999 188.113C380.996 188.086 380.99 188.052 380.987 187.994C380.984 187.937 380.981 187.851 380.984 187.723C380.984 187.467 381.002 187.034 381.048 186.277C381.051 186.216 381.054 186.137 381.06 186.064C381.06 186.024 381.063 185.991 381.066 185.945C381.069 185.869 381.072 185.783 381.076 185.698C381.076 185.643 381.082 185.591 381.082 185.53C381.085 185.432 381.088 185.326 381.094 185.219C381.094 185.161 381.097 185.109 381.1 185.048C381.103 184.929 381.109 184.804 381.112 184.676C381.112 184.618 381.115 184.56 381.118 184.499C381.121 184.377 381.124 184.255 381.127 184.124C381.127 184.029 381.133 183.935 381.133 183.837C381.133 183.724 381.14 183.609 381.143 183.49C381.143 183.38 381.149 183.27 381.152 183.154C381.152 183.035 381.158 182.916 381.161 182.791C381.161 182.663 381.167 182.529 381.17 182.395C381.17 182.285 381.173 182.175 381.176 182.059C381.176 181.928 381.182 181.791 381.182 181.657C381.182 181.513 381.188 181.373 381.191 181.227C381.191 181.19 381.191 181.153 381.191 181.117C381.204 180.461 381.216 179.775 381.225 179.073C381.225 178.954 381.228 178.835 381.231 178.716C381.231 178.643 381.231 178.57 381.234 178.497C381.237 178.28 381.24 178.061 381.243 177.844C381.243 177.737 381.243 177.631 381.246 177.521C381.249 177.307 381.252 177.091 381.255 176.877C381.255 176.804 381.255 176.731 381.255 176.658C381.255 176.469 381.262 176.279 381.262 176.09C381.262 175.941 381.265 175.791 381.268 175.642C381.268 175.514 381.271 175.386 381.274 175.258C381.274 175.056 381.28 174.855 381.28 174.657C381.28 174.629 381.28 174.599 381.28 174.571C381.28 174.395 381.283 174.215 381.286 174.041C381.286 174.041 380.389 172.894 380.112 177.448C379.834 182.004 379.822 188.864 376.818 194.061C373.813 199.258 362.666 218.259 357.527 224.585C355.245 227.391 354.687 229.075 354.769 230.078C354.812 230.072 354.84 230.063 354.873 230.054C354.98 230.026 355.056 230.002 355.056 230.002C355.7 229.343 356.444 228.471 357.27 227.425C357.819 226.729 358.405 225.958 359.018 225.122C359.631 224.286 360.272 223.39 360.93 222.441C361.592 221.492 362.272 220.498 362.965 219.464C363.312 218.949 363.663 218.421 364.014 217.887C365.072 216.286 366.149 214.621 367.226 212.931C368.299 211.241 369.37 209.527 370.413 207.835C371.108 206.706 371.788 205.587 372.45 204.492C373.774 202.299 375.015 200.197 376.119 198.291C376.671 197.337 377.187 196.434 377.663 195.592L377.669 195.601Z" fill="#4A5575"/>
<path d="M347.032 211.113C365.267 210.229 378.916 164.171 378.916 164.171L333.233 195.641C341.679 210.735 347.035 211.11 347.035 211.11L347.032 211.113Z" fill="#2E384D"/>
<path d="M201.946 142.684C202.257 143.996 202.696 145.28 203.224 146.536C204.911 150.556 207.668 154.253 211.249 157.361C211.489 157.568 211.715 157.788 211.962 157.992C219.901 164.504 229.759 167.688 237.966 174.108C238.149 174.251 238.339 174.373 238.518 174.517C242.764 177.948 246.342 180.501 251.185 182.91C251.612 183.121 252.054 183.334 252.503 183.551C255.019 184.759 257.739 186.088 259.2 188.345C260.786 190.798 261.433 194.384 261.775 198.044C262.11 201.634 262.156 205.3 262.516 208.045C263.428 215.036 265.203 222.88 269.171 228.983C269.637 229.7 270.116 230.411 270.647 231.076C274.673 236.127 280.736 239.207 284.332 244.401C285.992 246.798 286.568 248.717 288.889 249.543C289.953 247.561 292.122 246.06 294.977 244.752C297.121 243.77 299.918 244.27 301.845 243.385C303.474 242.638 304.749 239.494 306.606 240.61C307.097 239.631 307.485 238.618 307.717 237.581C308.714 233.134 307.549 230.054 306.994 225.882C306.42 221.563 307.973 217.412 306.768 212.758C306.314 211.007 305.743 209.381 305.115 207.826C301.671 199.304 296.279 193.146 296.279 182.919C296.279 182.023 296.249 181.144 296.203 180.272C295.651 169.667 291.738 160.978 284.11 153.152C283.716 152.749 283.289 152.356 282.881 151.956C279.288 148.445 275.127 145.078 270.796 141.992C268.521 140.369 266.212 138.829 263.919 137.386C262.189 136.297 260.472 135.251 258.795 134.284C254.589 131.863 249.974 130.146 245.573 128.09C240.73 128.877 235.889 129.691 231.049 130.478C221.887 131.972 210.282 132.839 201.333 137.371C201.333 138.213 201.379 139.048 201.473 139.878C201.58 140.821 201.723 141.757 201.943 142.681L201.946 142.684ZM275.768 227.071C277.848 230.676 280.441 233.711 283.542 236.474C284.226 237.084 283.134 238.161 282.545 237.472C280.233 234.757 278.226 231.771 276.36 228.736C273.023 223.32 270.861 217.165 269.717 210.918C269.159 207.868 268.912 204.806 268.872 201.71C268.851 200.137 268.796 198.642 268.994 197.071C269.189 195.531 269.351 193.97 269.488 192.42C266.95 191.389 267.777 187.897 268.579 185.722C264.233 183.786 260.07 181.413 255.958 179.025C240.916 170.289 226.858 160.096 214.045 148.327C213.896 148.189 214.112 147.985 214.265 148.107C218.178 151.273 222.128 154.445 226.196 157.403C233.123 162.439 240.184 167.322 247.409 171.924C254.656 176.542 262.25 180.513 269.619 184.911C269.9 185.079 269.985 185.436 269.83 185.716C268.878 187.446 268.006 190.551 270.156 191.774C270.312 191.862 270.409 192.079 270.351 192.252C269.653 194.32 269.4 196.464 269.247 198.63C269.11 200.579 268.921 202.449 269.009 204.41C269.183 208.396 269.845 212.346 270.973 216.173C272.099 219.992 273.785 223.628 275.774 227.074L275.768 227.071Z" fill="#262626"/>
<path d="M293.061 82.0413C293.128 82.6239 293.176 83.2064 293.189 83.7829C293.732 82.4805 294.268 81.5686 294.827 80.9189C294.384 81.3764 293.954 81.84 293.539 82.2945C293.399 82.2304 293.222 82.1298 293.061 82.0413Z" fill="#EE7171"/>
<path d="M245.576 128.093C248.099 127.684 250.624 127.263 253.149 126.894C255.827 126.501 258.447 126.327 260.994 126.519C261.144 126.434 261.299 126.358 261.445 126.272C261.574 126.278 261.802 126.431 262.11 126.629C263.397 126.785 264.666 127.038 265.911 127.425C266.472 127.218 267.061 126.803 267.655 126.159C268.027 125.76 268.402 125.29 268.781 124.665C269.909 122.804 269.116 119.751 269.909 118.696C271.059 117.168 274.652 117.022 276.372 115.902C277.156 115.393 277.809 114.813 278.4 114.191C280.27 115.094 282.097 116.073 283.781 117.327C284.711 118.019 285.589 118.726 286.452 119.434C288.84 121.389 291.101 123.323 293.803 124.909C294.8 125.494 295.846 126.04 297.002 126.51C300.784 128.044 304.645 129.099 308.537 130.057C312.27 130.975 316.028 131.802 319.767 132.869C324.175 134.129 326.755 137.719 330.933 139.058C335.877 140.641 340.901 136.825 345.009 136.169C346.144 135.989 347.168 135.498 348.029 134.806C349.163 133.894 350.002 132.619 350.343 131.143C351.17 127.581 350.496 125.009 349.139 121.658C348.541 120.184 347.824 118.577 347.022 116.643C345.521 113.035 343.088 110.165 340.099 107.847C337.308 105.682 334.026 104.01 330.512 102.717C326.114 101.098 321.381 100.061 316.836 99.3743C314.366 99.0022 311.947 98.7216 309.684 98.5142C305.92 98.1696 303.23 98.5386 300.717 97.5992C299.046 97.1539 297.353 95.5405 298.045 95.3453C296.237 93.1432 293.098 90.9228 290.945 88.5987C288.871 86.357 286.663 83.5205 284.217 81.172C282.42 79.9642 280.56 78.732 279.453 77.6706C281.148 78.491 282.728 79.7415 284.217 81.172C285.235 81.8552 286.233 82.5323 287.062 83.1636C289.743 85.2102 292.098 87.6196 294.947 89.3947C296.999 90.6757 300.827 92.6704 303.956 92.6735C305.466 91.0875 306.594 89.0287 307.244 85.9086C307.897 82.7763 308.281 79.9825 308.043 77.3625C304.932 76.5451 303.715 75.2855 300.064 76.902C298.308 77.6797 296.746 78.9973 295.331 80.4125C295.834 79.9794 296.359 79.7324 296.923 79.6195C296.038 81.9162 295.233 84.6093 293.181 86.2014C287.239 78.5154 277.674 73.1292 270.074 66.7852C262.586 60.5388 266.045 56.3603 272.932 55.6192C257.304 54.9329 240.285 59.1328 227.764 66.7852C216.04 73.9527 206.921 83.3344 198.463 94.1802C191.607 102.97 179.383 117.323 181.091 129.218C181.664 133.214 182.127 135.626 185.44 137.139C189.338 138.914 195.743 138.057 201.098 137.49C201.178 137.45 201.26 137.414 201.339 137.374C210.288 132.842 221.893 131.976 231.055 130.481C235.893 129.691 240.736 128.88 245.579 128.093H245.576ZM282.252 99.658C284.168 100.786 286.263 101.543 288.255 102.516C291.104 103.907 293.742 106.27 294.337 109.412C295.059 108.909 295.785 108.418 296.517 107.926C297.03 107.582 297.875 107.911 297.993 108.527C298.902 113.224 305.384 110.946 308.391 110.556C312.261 110.052 316.144 111.236 319.517 113.084C326.831 117.095 333.968 123.323 342.865 120.749C343.81 120.474 344.466 121.944 343.545 122.362C339.937 123.994 335.807 123.311 332.233 121.902C325.611 119.291 320.103 114.084 312.984 112.694C311.133 112.331 309.275 112.367 307.424 112.7C305.643 113.02 303.837 113.505 302.013 113.401C299.906 113.282 297.557 112.23 296.523 110.324C295.694 110.87 294.864 111.413 294.007 111.913C293.434 112.245 292.561 111.83 292.613 111.114C292.991 106.042 286.931 103.904 283.286 102.095C275.899 98.4319 271.675 91.0875 265.993 85.4572C264.486 83.9658 262.9 82.5506 261.278 81.1872C259.615 79.7903 258.054 78.2775 256.294 76.9935C252.915 74.5291 249.3 72.446 245.582 70.5397C245.369 70.4299 245.558 70.1066 245.772 70.2195C250.167 72.5222 254.247 75.3068 258.344 78.0884C261.921 80.5193 264.956 83.4046 268.177 86.2746C271.407 89.1507 274.036 92.582 277.122 95.6015C278.684 97.1326 280.368 98.5447 282.256 99.658H282.252ZM186.013 125.327C184.092 119.885 190.094 110.473 192.415 105.929C196.029 98.8589 201.105 92.7863 207.269 87.5586C211.346 84.1 226.215 70.2042 233.071 71.4242C233.27 77.5943 238.323 85.9056 240.904 88.8671C249.178 98.3617 260.192 104.739 271.077 110.675C261.485 110.946 252.414 104.767 243.136 103.595C235.572 102.641 227.402 103.053 220.014 105.084C217.584 105.752 213.866 106.56 211.962 108.305C209.416 110.641 210.227 112.477 208.138 115.518C205.619 119.19 188.502 132.381 186.01 125.327H186.013ZM210.706 124.369C222.985 122.255 232.681 114.045 244.585 111.394C248.431 110.537 266.216 107.85 265.807 116.829C257.017 111.663 245.061 116.183 236.225 118.97C229.039 121.237 218.306 127.428 210.706 124.369Z" fill="#2AB182"/>
<path d="M236.227 118.97C245.063 116.183 257.016 111.663 265.809 116.829C266.218 107.85 248.433 110.537 244.587 111.394C232.683 114.045 222.987 122.255 210.708 124.369C218.309 127.428 229.041 121.24 236.227 118.97Z" fill="#239D72"/>
<path d="M308.928 31.012C307.412 31.3079 305.079 32.0399 302.62 32.598C302.614 32.6682 302.632 32.7322 302.62 32.8054C302.324 34.2359 299.512 35.0655 298.744 36.1726C298.42 36.6392 298.189 37.176 298.012 37.7525C307.433 36.8283 317.495 38.3655 326.493 40.9763C328.182 41.4674 329.756 42.0072 331.138 42.727C331.125 41.1471 331.028 39.5764 330.839 38.03C328.878 35.2332 326.984 29.6853 324.226 25.6562C321.652 27.7607 315.354 29.7646 308.931 31.0151L308.928 31.012Z" fill="#F6C7AD"/>
<path d="M327.559 51.6539L327.422 51.4801L327.416 51.4618C325.351 48.8113 322.63 53.1179 319.94 54.4691C313.746 57.58 306.81 55.0303 302.061 50.5803C300.253 48.8845 298.584 46.8502 297.093 44.8555C297.069 44.825 297.05 44.7884 297.026 44.7549C296.788 45.7278 296.388 46.5055 295.632 46.8959C295.592 45.7918 295.437 44.2486 295.101 42.6778C295.068 42.6656 295.046 42.6412 295.013 42.6321C294.796 41.2382 294.241 39.6919 293.543 38.4231C292.304 36.4101 290.398 35.3548 287.488 37.014C284.948 38.4627 285.009 42.8364 285.497 45.1879C285.793 46.6092 286.491 48.732 287.571 49.8239C288.388 50.6505 291.313 50.9524 291.545 51.5075C293.723 56.7291 286.885 59.7181 281.343 61.8744C282.31 62.6217 283.286 63.3994 284.115 64.3205C288.315 68.987 292.326 75.6177 293.064 82.041C293.226 82.1294 293.399 82.2331 293.543 82.2941C293.958 81.8397 294.388 81.3761 294.83 80.9186C294.995 80.7295 295.159 80.5586 295.327 80.4123C296.742 78.9971 298.304 77.6795 300.061 76.9017C303.711 75.2852 304.928 76.5449 308.039 77.3623C308.613 77.5117 309.244 77.652 309.976 77.7496C312.925 78.1522 315.506 77.3714 317.757 75.8983C321.963 73.1502 325 67.9592 326.983 63.2744C327.01 63.2103 327.035 63.1432 327.062 63.0792C326.897 63.2622 326.72 63.433 326.504 63.5641C326.065 63.8325 325.488 63.9942 324.973 63.982C324.711 63.9759 324.448 63.8752 324.262 63.6861L324.104 63.4818L324.134 63.555C323.899 63.3903 323.814 63.2256 323.698 62.9755C323.585 62.7254 323.67 62.4478 323.948 62.3624C323.988 62.3502 323.988 62.3533 324.003 62.3502C324.006 62.3502 324.003 62.3502 324.009 62.3472C324.11 62.2892 324.207 62.2648 324.308 62.2374C324.271 62.2374 324.351 62.1733 324.467 62.1062C324.622 62.0147 324.799 61.9812 324.976 61.969C325.311 61.9415 325.61 61.8927 325.927 61.7677C326.266 61.6365 326.629 61.5115 326.745 61.1424C326.922 60.5873 326.842 59.9316 326.83 59.3551C326.806 58.1108 326.785 56.8725 326.699 55.6311C326.656 54.9937 326.583 54.3593 326.531 53.7249C326.486 53.124 326.583 52.5323 326.528 51.9315C326.51 51.7546 326.794 51.7241 326.833 51.8918C327.019 52.6574 327.327 53.3497 327.449 54.1366C327.556 54.8442 327.651 55.5549 327.733 56.2686C327.898 57.7204 328.093 59.2423 327.98 60.7032C327.98 60.7154 327.977 60.7246 327.974 60.7368C328.547 59.1447 329.057 57.4916 329.493 55.7928C328.782 54.8198 328.425 53.2552 327.916 52.2456C327.8 52.0199 327.684 51.8308 327.562 51.657L327.559 51.6539ZM291.392 45.8498C291.243 46.0633 290.914 45.987 290.901 45.7156C290.892 45.5387 290.865 45.3984 290.889 45.2154C290.908 45.0751 290.929 44.9348 290.941 44.7915C290.969 44.4773 290.965 44.1632 290.935 43.849C290.901 43.5074 290.819 43.1719 290.709 42.8425C289.788 43.0347 288.91 43.5044 288.498 44.3858C288.272 44.8677 288.208 45.4472 288.306 45.9687C288.355 46.2219 288.434 46.4659 288.553 46.6946L288.657 46.902L288.663 47.0362L288.8 47.4144L288.59 47.5761C288.437 47.509 288.342 47.3931 288.208 47.3046L288.153 47.2863L288.031 47.1643L287.931 46.9752C287.784 46.6702 287.678 46.3439 287.626 46.0114C287.519 45.3374 287.604 44.6573 287.909 44.0473C288.385 43.0957 289.437 42.3576 290.514 42.3576C290.487 42.2996 290.471 42.2356 290.444 42.1776C290.182 41.6561 289.825 41.1406 289.364 40.7746C288.989 40.4757 288.391 40.2012 287.919 40.43C287.58 40.5916 287.171 40.1555 287.492 39.8779C288.806 38.7311 290.429 40.3507 291.051 41.4761C291.429 42.1593 291.655 42.9066 291.737 43.6782C291.777 44.0473 291.78 44.4194 291.74 44.7884C291.722 44.9653 291.701 45.1452 291.661 45.3191C291.606 45.5509 291.518 45.6607 291.386 45.8467L291.392 45.8498ZM294.385 55.5244C293.137 64.1528 303.602 72.9245 303.602 72.9245C287.449 68.4655 294.385 55.5244 294.385 55.5244ZM320.505 68.3679C319.715 68.682 318.791 68.4106 318.007 68.1879C317.177 67.9531 316.375 67.6328 315.594 67.2668C315.185 67.0747 314.761 66.8856 314.377 66.6477C313.987 66.4067 313.636 66.1139 313.24 65.876C312.538 65.4551 311.669 65.0525 311.141 64.4181C311.013 64.2626 311.129 64.0125 311.346 64.0674C312.123 64.2717 312.822 64.8482 313.514 65.2508C314.252 65.6808 315.066 66.0041 315.841 66.3701C316.619 66.7392 317.424 67.0625 318.248 67.3156C319.007 67.5505 319.87 67.6237 320.544 68.0659L320.505 68.3709V68.3679Z" fill="#F6C7AD"/>
<path d="M281.34 61.8716C286.882 59.7153 293.72 56.7263 291.542 51.5047C291.311 50.9496 288.383 50.6476 287.568 49.8211C286.489 48.7292 285.79 46.6064 285.494 45.1851C285.006 42.8336 284.945 38.4568 287.486 37.0111C290.396 35.3519 292.302 36.4103 293.54 38.4202C293.485 38.3226 293.44 38.2159 293.385 38.1213C293.534 38.1122 293.674 38.161 294.138 38.2738C295.41 38.0481 296.703 37.8773 298.002 37.7492C298.179 37.1758 298.411 36.636 298.734 36.1693C299.506 35.0622 302.318 34.2357 302.611 32.8022C302.626 32.729 302.608 32.6649 302.611 32.5948C298.143 33.6043 293.257 34.0191 292.085 30.0785C293.992 28.0533 297.142 27.6965 300.229 26.998C300.229 26.9797 300.226 26.9645 300.229 26.9462C300.363 25.9976 300.821 25.1985 301.467 24.5062C299.683 24.7959 298.024 24.8752 297.176 23.8321C294.907 21.0353 299.695 19.1199 301.51 18.3361C309.251 14.9902 314.158 18.3818 324.116 21.9351C325.952 23.1215 325.733 24.4055 324.211 25.6499C326.968 29.679 328.865 35.2269 330.823 38.0237C330.924 38.1701 331.028 38.3287 331.128 38.4568C335.667 28.5413 332.428 13.0718 325.178 10.1469C323.021 9.27761 322.637 10.7873 321.515 10.5342C318.559 9.8693 317.888 8.23451 315.006 6.43501C309.614 3.07088 296.795 -2.535 290.454 1.28053C286.44 3.69613 289.194 7.24021 284.714 9.68325C282.71 10.7782 278.626 10.2719 277.095 12.3733C275.698 14.2887 277.452 16.2377 276.689 17.7047C274.27 22.3468 263.684 22.5816 263.037 29.8406C262.333 37.7279 272.669 32.3294 274.801 37.49C275.622 39.4816 273.331 42.1016 273.828 44.2457C274.344 46.4722 276.119 46.2679 276.68 47.7806C277.448 49.8485 276.576 52.685 275.737 55.5002C276.015 55.5063 276.293 55.5185 276.576 55.5337C276.826 58.5105 279.062 60.1117 281.334 61.8685L281.34 61.8716Z" fill="#3C3C3C"/>
<path d="M297.026 44.7549C296.456 43.9558 296.044 43.0073 295.102 42.6748C295.437 44.2455 295.593 45.7919 295.632 46.8929C296.392 46.5025 296.788 45.7278 297.026 44.7518V44.7549Z" fill="#1F4852"/>
<path d="M341.009 234.852C330.954 238.524 320.602 250.837 313.858 258.678C311.19 261.783 302.174 271.284 303.796 275.368C304.602 275.52 305.428 275.474 306.261 275.307C308.094 274.938 309.967 273.873 311.818 272.443C316.588 268.749 321.166 262.674 324.247 260.048C328.7 256.25 339.192 247.939 341.211 240.22C341.693 238.371 341.696 236.557 341.009 234.849V234.852Z" fill="#730508"/>
<path d="M324.222 25.6531C325.744 24.4056 325.964 23.1246 324.128 21.9382C314.169 18.3849 309.262 14.9934 301.521 18.3392C299.706 19.123 294.918 21.0384 297.187 23.8353C298.032 24.8784 299.691 24.7991 301.478 24.5093C303.302 24.2135 305.257 23.695 306.612 23.9207C304.907 25.7385 302.592 26.4674 300.24 27.0012C297.154 27.6996 294.003 28.0595 292.097 30.0816C293.268 34.0192 298.154 33.6074 302.622 32.5979C305.08 32.0428 307.414 31.3077 308.93 31.0119C315.356 29.7583 321.654 27.7576 324.225 25.6531H324.222Z" fill="#4B4B4B"/>
<path d="M270.068 66.785C277.672 73.1289 287.236 78.5152 293.175 86.2012C295.23 84.6091 296.032 81.9159 296.917 79.6193C296.35 79.7322 295.825 79.9823 295.325 80.4123C295.157 80.5556 294.989 80.7265 294.828 80.9186C294.27 81.5652 293.733 82.4802 293.19 83.7825C293.181 83.2061 293.129 82.6235 293.062 82.041C292.324 75.6177 288.316 68.9871 284.113 64.3206C283.28 63.3964 282.308 62.6217 281.341 61.8745C279.068 60.1177 276.833 58.5164 276.583 55.5397C276.299 55.5244 276.022 55.5122 275.744 55.5061C274.759 55.4848 273.816 55.5244 272.926 55.622C266.036 56.3601 262.58 60.5386 270.068 66.788V66.785Z" fill="#239D72"/>
<path d="M356.878 137.743C363.06 140.607 373.274 144.316 379.975 140.729C380.045 140.253 380.213 139.906 380.43 139.619C381.253 138.524 382.995 138.594 384.703 138.381C384.666 135.202 380.286 135.614 376.855 135.071C375.092 134.794 373.573 134.269 373.033 132.866C373.717 132.827 374.467 132.866 375.254 132.948C380.204 133.452 386.813 135.678 390.507 131.841C386.002 127.742 377.624 132.305 373.378 128.065C376.821 124.527 384.044 126.916 388.039 123.411C388.067 123.387 388.097 123.368 388.125 123.344C387.951 123.112 387.756 122.917 387.545 122.74C384.825 120.45 379.234 122.637 376.147 122.896C373.954 123.082 371.588 122.935 369.309 122.63C368.83 122.566 368.349 122.511 367.882 122.432C366.888 122.264 365.921 122.072 365.018 121.856C364.975 120.831 365.253 119.94 365.713 119.126C367.287 116.357 371.139 114.557 373.015 112.01C370.206 109.229 366.723 111.538 362.871 114.6C358.607 117.988 353.892 122.286 349.134 121.651C350.494 125 351.165 127.574 350.338 131.137C349.997 132.613 349.158 133.888 348.023 134.8C350.03 135.492 352.22 136.072 354.191 136.718C355.154 137.035 356.069 137.368 356.875 137.743H356.878Z" fill="#F6C7AD"/>
<path d="M208.141 115.518C210.227 112.477 209.416 110.641 211.965 108.305C213.866 106.56 217.587 105.752 220.017 105.084C227.404 103.053 235.578 102.641 243.139 103.596C252.417 104.764 261.485 110.943 271.08 110.675C260.195 104.739 249.181 98.3587 240.907 88.8671C238.326 85.9056 233.27 77.5944 233.074 71.4242C226.218 70.2042 211.349 84.103 207.271 87.5587C201.11 92.7833 196.032 98.8589 192.418 105.929C190.097 110.473 184.095 119.885 186.016 125.327C188.508 132.384 205.624 119.19 208.144 115.518H208.141Z" fill="#239D72"/>
<path d="M269 204.404C268.915 202.442 269.101 200.573 269.238 198.624C269.391 196.458 269.647 194.317 270.342 192.246C270.4 192.073 270.303 191.856 270.147 191.768C267.997 190.544 268.872 187.44 269.821 185.71C269.976 185.43 269.888 185.07 269.61 184.905C262.242 180.507 254.647 176.536 247.4 171.918C240.178 167.316 233.114 162.433 226.188 157.397C222.116 154.439 218.166 151.267 214.256 148.101C214.104 147.979 213.887 148.183 214.037 148.32C226.85 160.093 240.907 170.286 255.95 179.019C260.058 181.404 264.224 183.777 268.57 185.716C267.771 187.891 266.945 191.383 269.479 192.414C269.342 193.963 269.18 195.525 268.985 197.065C268.787 198.636 268.842 200.131 268.863 201.704C268.906 204.803 269.15 207.862 269.708 210.912C270.855 217.162 273.014 223.314 276.351 228.73C278.221 231.765 280.227 234.748 282.536 237.465C283.122 238.155 284.217 237.078 283.534 236.468C280.432 233.708 277.839 230.67 275.759 227.065C273.771 223.619 272.084 219.983 270.959 216.164C269.83 212.337 269.168 208.387 268.994 204.401L269 204.404Z" fill="#444D4E"/>
<path d="M303.351 260.398C304.128 260.185 304.87 259.773 305.44 259.2C305.715 258.925 305.998 258.593 306.16 258.239C306.331 257.87 306.291 257.409 306.294 257.004C306.3 256.366 305.355 256.067 305.053 256.668C304.897 256.973 304.653 257.147 304.464 257.434C304.287 257.702 304.104 257.928 303.848 258.129C303.357 258.52 302.771 258.727 302.158 258.834C300.493 259.12 299.428 257.949 298.736 256.58C297.995 255.119 297.333 253.698 296.159 252.517C294.96 251.312 293.49 250.477 291.852 250.031C291.627 249.97 291.544 250.297 291.758 250.376C293.746 251.105 295.546 252.459 296.717 254.231C297.693 255.707 298.114 257.525 299.224 258.919C300.234 260.188 301.746 260.838 303.354 260.398H303.351Z" fill="#F2A09A"/>
<path d="M268.173 86.2745C264.953 83.4045 261.918 80.5222 258.34 78.0883C254.244 75.3037 250.163 72.5191 245.768 70.2194C245.558 70.1096 245.369 70.4298 245.579 70.5396C249.294 72.4459 252.911 74.529 256.291 76.9934C258.051 78.2774 259.609 79.7902 261.274 81.1871C262.897 82.5505 264.483 83.9657 265.99 85.4571C271.672 91.0843 275.899 98.4287 283.283 102.095C286.928 103.903 292.988 106.041 292.61 111.114C292.558 111.83 293.43 112.248 294.004 111.913C294.861 111.413 295.693 110.87 296.52 110.324C297.551 112.233 299.899 113.282 302.01 113.401C303.834 113.505 305.639 113.02 307.421 112.7C309.272 112.367 311.129 112.334 312.981 112.694C320.099 114.084 325.608 119.291 332.229 121.901C335.801 123.311 339.934 123.991 343.542 122.362C344.463 121.947 343.807 120.477 342.861 120.749C333.965 123.32 326.828 117.092 319.514 113.084C316.141 111.233 312.258 110.052 308.387 110.555C305.377 110.946 298.899 113.224 297.99 108.527C297.871 107.911 297.026 107.582 296.514 107.926C295.782 108.417 295.056 108.908 294.333 109.412C293.741 106.27 291.103 103.906 288.251 102.516C286.26 101.543 284.164 100.789 282.249 99.6579C280.361 98.5446 278.681 97.1294 277.116 95.6014C274.032 92.5819 271.4 89.1507 268.17 86.2745H268.173Z" fill="#239D72"/>
<path d="M294.385 55.5244C294.385 55.5244 287.449 68.4655 303.602 72.9246C303.602 72.9246 293.137 64.1528 294.385 55.5244Z" fill="#D29E90"/>
<path d="M279.445 77.6646C280.556 78.7259 282.413 79.9582 284.209 81.1659C282.718 79.7355 281.138 78.485 279.445 77.6646Z" fill="#BD585B"/>
<path d="M298.007 37.7492C296.705 37.8773 295.415 38.0481 294.143 38.2738C293.676 38.161 293.539 38.1122 293.39 38.1213C293.445 38.2159 293.493 38.3226 293.545 38.4202C294.244 39.689 294.799 41.2353 295.015 42.6292C295.049 42.6383 295.07 42.6658 295.104 42.6749C296.046 43.0074 296.458 43.9559 297.028 44.755C297.053 44.7886 297.071 44.8221 297.095 44.8557C298.587 46.8504 300.252 48.8847 302.064 50.5805C306.813 55.0304 313.748 57.5802 319.943 54.4692C322.633 53.1181 325.354 48.8115 327.418 51.4619L327.278 51.1051L327.229 50.919C327.177 50.7513 327.171 50.5866 327.208 50.4188L327.29 50.12V50.1138V50.1047C327.299 50.0864 327.315 50.0772 327.321 50.062C327.379 49.8943 327.458 49.7387 327.583 49.6106C327.726 49.4672 327.894 49.3696 328.089 49.3147C328.294 49.2598 328.495 49.2598 328.699 49.3147C328.782 49.3361 328.84 49.4002 328.913 49.4398C328.916 49.4398 328.919 49.4398 328.922 49.4398L329.2 49.6014C329.337 49.6899 329.444 49.8058 329.523 49.9522L329.535 49.9766C330.401 48.4394 331.877 47.1493 332.771 45.6975C332.96 45.4138 333.11 45.2979 333.229 45.2979C333.601 45.2979 333.686 46.4112 333.753 47.0761C333.869 48.2381 333.476 48.6224 334.586 48.6224C334.772 48.6224 334.998 48.6133 335.275 48.5919C335.306 50.1809 332.173 53.9172 330.209 53.9172C329.989 53.9172 329.782 53.8684 329.596 53.7677C329.41 52.8588 330.865 50.7513 329.73 50.5591C329.727 50.5591 329.721 50.5591 329.718 50.5591C329.742 50.6598 329.77 50.7574 329.764 50.8611L329.718 51.1935V51.2179L329.706 51.2637C329.648 51.4711 329.544 51.648 329.392 51.8005C329.239 51.9499 329.062 52.0567 328.855 52.1116C328.638 52.1695 328.425 52.1695 328.208 52.1116C328.004 52.0536 327.824 51.9499 327.671 51.8005L327.565 51.6632C327.684 51.8371 327.803 52.0262 327.919 52.2519C328.428 53.2614 328.785 54.8261 329.495 55.799C329.63 55.9851 329.773 56.1559 329.938 56.2901C333.628 59.3004 336.803 53.0418 336.355 50.0437C335.781 46.2282 333.829 44.1328 331.139 42.7298C329.758 42.01 328.184 41.4702 326.494 40.9791C317.497 38.3714 307.435 36.8312 298.013 37.7553L298.007 37.7492ZM328.965 44.5446C329.105 44.5812 329.242 44.6269 329.376 44.6818C329.471 44.6818 329.569 44.7001 329.663 44.7245C329.806 44.7245 329.953 44.755 330.09 44.8038L330.389 44.9502L330.66 45.1576C330.804 45.2705 330.901 45.4291 330.987 45.5877L331.072 45.7524L331.161 45.9537C331.213 46.1397 331.167 46.2922 331.091 46.46C331.002 46.6613 330.755 46.7558 330.554 46.768C330.237 46.7863 330.029 46.5118 329.803 46.3349L329.947 46.4478L329.639 46.1794L329.477 45.9994L329.251 45.6822L329.187 45.5938L329.166 45.5236L329.099 45.4504C329.074 45.426 329.065 45.4016 329.047 45.3772L328.916 45.3071L328.809 45.2583L328.773 45.243C328.583 45.1668 328.471 45.0051 328.519 44.7947C328.562 44.5995 328.782 44.4927 328.968 44.5415L328.965 44.5446ZM312.739 53.4505C312.242 53.5756 311.15 53.9934 310.317 53.9934C309.939 53.9934 309.616 53.905 309.426 53.664C308.948 53.0479 310.07 51.5839 310.14 50.9434C310.04 50.9312 309.927 50.9251 309.805 50.9251C309.387 50.9251 308.844 50.9922 308.277 51.0563C307.706 51.1203 307.108 51.1874 306.572 51.1874C305.355 51.1874 304.455 50.8489 304.946 49.4093C305.394 48.0917 307.923 47.2621 309.021 46.704C311.049 45.6731 313.172 44.7886 315.06 43.5045C315.176 43.4252 315.316 43.3063 315.469 43.169C314.88 43.0165 314.303 42.9769 313.684 42.9982C312.98 43.0226 312.519 43.0775 311.815 43.3002C311.723 43.3276 311.647 43.3551 311.577 43.3764C308.713 45.3101 305.035 47.0608 302.503 47.0608C302.201 47.0608 301.917 47.0364 301.652 46.9846C302.671 45.5358 304.916 45.3986 306.453 44.6818C307.008 44.4226 307.554 44.1511 308.094 43.8614L308.142 43.6296C308.289 43.1782 308.554 42.8671 308.905 42.5621C309.582 41.9765 310.424 41.6074 311.281 41.3695C311.552 41.2933 311.836 41.2506 312.12 41.2048C312.132 41.1957 312.144 41.1865 312.156 41.1743C312.876 40.6253 313.715 40.0855 314.477 40.0855C314.737 40.0855 314.99 40.1495 315.221 40.2959C314.984 40.5796 314.694 40.8846 314.355 41.1987C314.346 41.2079 314.334 41.217 314.322 41.2262C314.99 41.3634 315.636 41.5769 316.249 41.8819C316.396 41.9551 316.478 42.0619 316.536 42.1808C316.539 42.1808 316.542 42.1747 316.545 42.1717C317.149 41.6379 317.793 41.1591 318.287 41.1591C318.305 41.1591 318.323 41.1591 318.339 41.1591C319.345 41.2323 319.119 42.254 319.641 42.6566C320.086 43.0013 320.531 43.1233 320.986 43.1233C321.578 43.1233 322.194 42.9128 322.859 42.7024C323.524 42.4919 324.243 42.2815 325.042 42.2815C325.698 42.2815 326.409 42.4218 327.193 42.8183C322.798 46.948 318.756 51.9438 312.736 53.4414L312.739 53.4505Z" fill="#DE953D"/>
<path d="M327.729 56.2684C327.65 55.5578 327.555 54.8441 327.445 54.1365C327.326 53.3496 327.018 52.6572 326.829 51.8917C326.79 51.727 326.509 51.7575 326.524 51.9313C326.582 52.5322 326.481 53.1239 326.527 53.7247C326.576 54.3622 326.649 54.9935 326.695 55.631C326.78 56.8723 326.799 58.1137 326.826 59.355C326.838 59.9315 326.918 60.5872 326.741 61.1423C326.625 61.5083 326.262 61.6334 325.923 61.7676C325.603 61.8926 325.307 61.9414 324.972 61.9689C324.795 61.9811 324.618 62.0146 324.462 62.1061C324.347 62.1732 324.267 62.2342 324.304 62.2372C324.206 62.2647 324.109 62.2891 324.005 62.347C324.002 62.347 324.005 62.347 323.999 62.3501C323.981 62.3531 323.984 62.3501 323.944 62.3623C323.666 62.4477 323.581 62.7283 323.694 62.9753C323.81 63.2254 323.895 63.3901 324.13 63.5548L324.099 63.4816L324.258 63.686C324.444 63.872 324.706 63.9727 324.969 63.9818C325.487 63.994 326.061 63.8324 326.5 63.564C326.713 63.4328 326.893 63.262 327.058 63.079C327.619 62.4477 327.897 61.5662 327.967 60.7336C327.967 60.7214 327.97 60.7123 327.973 60.7001C328.086 59.2391 327.891 57.7172 327.726 56.2654L327.729 56.2684Z" fill="#1F4852"/>
<path d="M327.56 51.654L327.667 51.7912C327.819 51.9407 327.996 52.0474 328.203 52.1023C328.42 52.1603 328.633 52.1603 328.85 52.1023C329.054 52.0444 329.234 51.9407 329.387 51.7912C329.536 51.6387 329.643 51.4618 329.701 51.2544L329.71 51.2087V51.1843L329.759 50.8518C329.765 50.7481 329.738 50.6475 329.713 50.5499C329.661 50.5407 329.606 50.5377 329.542 50.5377C329.454 50.5377 329.35 50.5468 329.237 50.5651C329.323 50.3638 329.423 50.1686 329.53 49.9765L329.518 49.9521C329.439 49.8057 329.332 49.6898 329.195 49.6013L328.917 49.4397C328.917 49.4397 328.911 49.4397 328.908 49.4397C328.835 49.4 328.777 49.339 328.694 49.3146C328.49 49.2597 328.289 49.2597 328.084 49.3146C327.889 49.3695 327.721 49.4671 327.578 49.6105C327.45 49.7386 327.371 49.8941 327.316 50.0619C327.31 50.0771 327.291 50.0893 327.288 50.1046V50.1137H327.285V50.1198L327.203 50.4187C327.166 50.5865 327.172 50.7512 327.224 50.9189L327.273 51.105L327.413 51.4618L327.42 51.4801L327.557 51.654H327.56Z" fill="#1F4852"/>
<path d="M312.122 41.2018C311.838 41.2506 311.554 41.2933 311.283 41.3665C310.426 41.6044 309.584 41.9765 308.907 42.559C308.553 42.864 308.291 43.1751 308.145 43.6265L308.096 43.8583C309.096 43.3246 310.069 42.7359 310.996 42.0771C311.295 41.8667 311.686 41.5312 312.122 41.1987V41.2018Z" fill="#1F4852"/>
<path d="M316.54 42.1871C316.486 42.0681 316.4 41.9583 316.254 41.8882C315.638 41.5832 314.991 41.3666 314.326 41.2324C313.588 41.9217 312.64 42.6659 311.578 43.3827C311.648 43.3583 311.724 43.3339 311.816 43.3064C312.517 43.0868 312.981 43.0289 313.686 43.0045C314.305 42.9831 314.881 43.0197 315.47 43.1753C315.476 43.1692 315.482 43.1661 315.488 43.16C315.793 42.8855 316.159 42.5287 316.54 42.1901V42.1871Z" fill="#1F4852"/>
<path d="M328.773 45.2461L328.81 45.2613L328.917 45.3101L329.048 45.3803C329.066 45.4047 329.078 45.4291 329.1 45.4535L329.167 45.5267L329.188 45.5968L329.252 45.6853L329.478 46.0025L329.64 46.1824L329.948 46.4508L329.804 46.338C330.03 46.5149 330.24 46.7894 330.555 46.7711C330.756 46.7589 331.003 46.6643 331.091 46.463C331.168 46.2922 331.213 46.1428 331.162 45.9567L331.073 45.7554L330.988 45.5907C330.902 45.4321 330.805 45.2735 330.661 45.1607L330.39 44.9533L330.091 44.8069C329.954 44.7581 329.81 44.7306 329.664 44.7276C329.569 44.7032 329.475 44.6849 329.377 44.6849C329.243 44.633 329.106 44.5842 328.966 44.5476C328.783 44.5019 328.563 44.6086 328.517 44.8008C328.468 45.0112 328.581 45.1729 328.77 45.2491L328.773 45.2461Z" fill="#1F4852"/>
<path d="M315.843 66.3671C315.068 65.9981 314.254 65.6748 313.516 65.2478C312.823 64.8482 312.128 64.2687 311.347 64.0644C311.134 64.0095 311.015 64.2596 311.143 64.4151C311.67 65.0526 312.543 65.4521 313.241 65.873C313.638 66.1109 313.988 66.4037 314.379 66.6447C314.763 66.8826 315.187 67.0747 315.596 67.2638C316.376 67.6298 317.176 67.9501 318.008 68.1849C318.792 68.4075 319.716 68.679 320.506 68.3649L320.546 68.0599C319.872 67.6207 319.009 67.5444 318.249 67.3096C317.426 67.0564 316.62 66.7331 315.843 66.3641V66.3671Z" fill="#1F4852"/>
<path d="M291.74 43.6812C291.655 42.9096 291.429 42.1593 291.054 41.4791C290.432 40.3507 288.809 38.7342 287.494 39.881C287.174 40.1585 287.58 40.5977 287.921 40.433C288.394 40.2073 288.992 40.4818 289.367 40.7777C289.828 41.1437 290.185 41.6591 290.447 42.1807C290.474 42.2386 290.493 42.3026 290.517 42.3606C289.44 42.3606 288.388 43.0987 287.912 44.0503C287.607 44.6633 287.522 45.3404 287.629 46.0145C287.68 46.35 287.787 46.6733 287.934 46.9783L288.034 47.1674L288.156 47.2894L288.211 47.3077C288.345 47.3961 288.44 47.509 288.592 47.5791L288.803 47.4175L288.666 47.0454L288.66 46.9051L288.556 46.6977C288.437 46.4689 288.358 46.2249 288.309 45.9718C288.211 45.4502 288.275 44.8707 288.501 44.3888C288.913 43.5074 289.794 43.0377 290.712 42.8455C290.819 43.1749 290.904 43.5135 290.938 43.852C290.968 44.1662 290.971 44.4803 290.944 44.7945C290.932 44.9378 290.91 45.0781 290.892 45.2184C290.871 45.4014 290.898 45.5417 290.904 45.7186C290.917 45.987 291.246 46.0663 291.395 45.8528C291.523 45.6668 291.612 45.5539 291.67 45.3252C291.713 45.1513 291.731 44.9714 291.749 44.7945C291.789 44.4254 291.786 44.0533 291.746 43.6843L291.74 43.6812Z" fill="#1F4852"/>
<path d="M322.862 42.7113C322.197 42.9217 321.584 43.1322 320.99 43.1322C320.532 43.1322 320.09 43.0071 319.644 42.6655C319.123 42.266 319.349 41.2442 318.342 41.168C318.324 41.168 318.309 41.168 318.29 41.168C317.796 41.168 317.156 41.6468 316.549 42.1806C316.756 42.6167 316.415 43.2542 315.899 43.2542C315.832 43.2542 315.762 43.245 315.692 43.2206C315.622 43.1993 315.554 43.1779 315.484 43.1596C315.478 43.1657 315.472 43.1688 315.466 43.1749C315.314 43.3121 315.173 43.4311 315.057 43.5104C313.169 44.7975 311.05 45.682 309.018 46.7098C307.92 47.2649 305.395 48.0975 304.944 49.4151C304.453 50.8547 305.349 51.1933 306.569 51.1933C307.106 51.1933 307.704 51.1292 308.274 51.0621C308.844 50.995 309.384 50.931 309.802 50.931C309.924 50.931 310.037 50.9371 310.138 50.9493C310.068 51.5898 308.945 53.0568 309.424 53.6699C309.613 53.9108 309.936 53.9993 310.315 53.9993C311.147 53.9993 312.239 53.5784 312.736 53.4564C318.757 51.9588 322.798 46.9629 327.193 42.8333C326.409 42.4368 325.699 42.2965 325.043 42.2965C324.244 42.2965 323.524 42.5069 322.859 42.7174L322.862 42.7113ZM315.088 48.6618L315.009 48.9576C315.005 48.9881 314.999 49.0186 314.996 49.0491C314.923 49.3145 314.789 49.5432 314.594 49.7384L314.277 49.9824C314.097 50.0953 313.904 50.1593 313.694 50.1685C313.609 50.1868 313.52 50.1959 313.435 50.1959C313.313 50.1959 313.191 50.1776 313.072 50.138C312.867 50.0892 312.69 49.9946 312.541 49.8574C312.37 49.7476 312.236 49.6012 312.138 49.4182L312.129 49.3999L311.968 49.0125V48.9942C311.937 48.8509 311.916 48.7075 311.907 48.5642V48.5489C311.913 48.4056 311.94 48.2622 311.965 48.1219V48.1067L311.971 48.1006L312.129 47.7224L312.135 47.7071L312.385 47.3808L312.553 47.2466L312.712 47.1246L313.084 46.966H313.093C313.304 46.9263 313.41 46.908 313.517 46.908C313.624 46.908 313.731 46.9263 313.938 46.9629H313.95L314.325 47.1246L314.337 47.1337H314.344V47.1398L314.652 47.3777L314.673 47.3991C314.819 47.5333 314.923 47.6949 314.981 47.881L315.085 48.2592V48.6557L315.088 48.6618Z" fill="#F9AE55"/>
<path d="M329.642 50.2482L329.691 50.4373C329.7 50.4739 329.712 50.5136 329.722 50.5532C330.856 50.7454 329.398 52.8529 329.587 53.7618C329.773 53.8655 329.981 53.9113 330.2 53.9113C332.165 53.9113 335.297 50.175 335.266 48.586C334.989 48.6043 334.76 48.6165 334.577 48.6165C333.467 48.6165 333.863 48.2352 333.744 47.0701C333.677 46.4052 333.592 45.292 333.22 45.292C333.101 45.292 332.948 45.4079 332.762 45.6915C331.869 47.1433 330.393 48.4335 329.526 49.9707L329.642 50.2452V50.2482Z" fill="#F9AE55"/>
<path d="M313.224 41.0832C313.413 41.0832 313.602 41.0923 313.788 41.1137C313.98 41.135 314.169 41.1655 314.355 41.2021C314.691 40.888 314.984 40.583 315.222 40.2993C314.987 40.1499 314.737 40.0889 314.477 40.0889C313.718 40.0889 312.876 40.6287 312.156 41.1777C312.51 41.1198 312.867 41.0862 313.224 41.0862V41.0832Z" fill="#EF8E8A"/>
<path d="M308.013 44.1113C307.922 44.3156 307.909 44.4651 307.903 44.6816C307.9 44.8097 308.016 44.9226 308.141 44.9226C308.163 44.9226 308.184 44.9195 308.205 44.9134C308.364 44.8616 308.492 44.825 308.641 44.7396C308.84 44.6206 308.794 44.6633 309.053 44.5993C309.425 44.5108 309.727 44.3248 310.057 44.1418C310.356 43.9771 310.651 43.8032 310.953 43.6477C311.21 43.5165 311.35 43.4525 311.573 43.3762C312.634 42.6595 313.582 41.9153 314.321 41.226C314.33 41.2168 314.342 41.2077 314.354 41.1985C314.168 41.1589 313.979 41.1284 313.787 41.1101C313.601 41.0918 313.412 41.0796 313.223 41.0796C312.866 41.0796 312.509 41.1131 312.155 41.1711C312.143 41.1802 312.131 41.1894 312.118 41.2016C311.682 41.534 311.292 41.8695 310.993 42.08C310.066 42.7357 309.093 43.3274 308.092 43.8612L308.074 43.9496L308.01 44.1113H308.013Z" fill="#53666E"/>
</svg>
