<svg width="645" height="588" viewBox="0 0 645 588" fill="none" xmlns="http://www.w3.org/2000/svg">
<path d="M154.417 314.74C154.503 314.329 154.238 313.923 153.826 313.838C153.408 313.743 153.005 314.015 152.92 314.429C152.539 316.256 152.283 318.111 152.127 319.965C152.661 319.684 153.194 319.401 153.728 319.132C153.884 317.659 154.112 316.192 154.417 314.74Z" fill="#F0C6AB"/>
<path d="M159.203 45.405C161.872 46.8781 164.556 48.4062 167.173 49.9434L167.56 50.0501C167.822 50.0501 168.076 49.9159 168.219 49.675C168.432 49.312 168.313 48.8454 167.947 48.6319C165.315 47.0886 162.622 45.5514 159.941 44.0721C159.572 43.8678 159.106 44.002 158.901 44.371C158.697 44.7401 158.831 45.2037 159.2 45.408L159.203 45.405Z" fill="#F0C6AB"/>
<path d="M186.004 271.294C183.442 273.179 180.99 275.082 178.721 276.954C178.395 277.223 178.352 277.705 178.62 278.028C178.773 278.211 178.989 278.306 179.209 278.306C179.383 278.306 179.554 278.248 179.697 278.132C181.945 276.274 184.373 274.389 186.913 272.523C187.252 272.273 187.325 271.797 187.075 271.455C186.825 271.117 186.346 271.044 186.004 271.294Z" fill="#F0C6AB"/>
<path d="M190.493 64.5897C193.049 66.2703 195.602 67.963 198.151 69.6649C198.283 69.7534 198.429 69.793 198.575 69.793C198.822 69.793 199.063 69.6741 199.213 69.4545C199.448 69.1037 199.353 68.631 199.002 68.3961C196.45 66.6942 193.894 64.9954 191.335 63.3148C190.981 63.083 190.508 63.1806 190.273 63.5314C190.042 63.8821 190.139 64.3549 190.49 64.5867L190.493 64.5897Z" fill="#F0C6AB"/>
<path d="M142.907 36.981C145.64 38.2986 148.4 39.6803 151.112 41.0802L151.463 41.1656C151.74 41.1656 152.005 41.0162 152.143 40.7539C152.338 40.3787 152.191 39.9212 151.816 39.726C149.093 38.3169 146.32 36.9322 143.575 35.6055C143.197 35.4255 142.737 35.5811 142.554 35.9593C142.371 36.3375 142.529 36.795 142.91 36.978L142.907 36.981Z" fill="#F0C6AB"/>
<path d="M252.356 104.392C255.101 105.947 257.815 107.439 260.429 108.827L260.789 108.915C261.064 108.915 261.329 108.769 261.466 108.509C261.664 108.137 261.524 107.677 261.149 107.478C258.547 106.1 255.845 104.615 253.115 103.065C252.746 102.855 252.28 102.983 252.072 103.352C251.862 103.718 251.993 104.181 252.359 104.392H252.356Z" fill="#F0C6AB"/>
<path d="M175.023 54.6897C177.619 56.297 180.208 57.9318 182.792 59.5849C182.92 59.6673 183.063 59.7069 183.203 59.7069C183.456 59.7069 183.7 59.5819 183.847 59.3562C184.076 59.0024 183.972 58.5296 183.618 58.3039C181.029 56.6447 178.433 55.0069 175.831 53.3935C175.472 53.1708 175.002 53.2806 174.779 53.6405C174.557 53.9974 174.666 54.4671 175.026 54.6897H175.023Z" fill="#F0C6AB"/>
<path d="M171.807 283.085C169.513 285.293 167.384 287.568 165.481 289.847C165.21 290.17 165.255 290.652 165.579 290.92C165.722 291.039 165.896 291.097 166.067 291.097C166.286 291.097 166.503 291.003 166.655 290.823C168.522 288.587 170.611 286.354 172.868 284.183C173.17 283.89 173.179 283.408 172.887 283.106C172.594 282.804 172.109 282.795 171.804 283.088L171.807 283.085Z" fill="#F0C6AB"/>
<path d="M213.427 79.8947C213.558 79.9831 213.707 80.0228 213.854 80.0228C214.101 80.0228 214.342 79.9038 214.491 79.6842C214.726 79.3335 214.631 78.8607 214.281 78.6259L206.647 73.508C206.296 73.2731 205.82 73.3646 205.585 73.7154C205.35 74.0661 205.442 74.5389 205.793 74.7737L213.43 79.8916L213.427 79.8947Z" fill="#F0C6AB"/>
<path d="M221.085 84.9822C223.644 86.6719 226.212 88.3493 228.786 90.0116C228.914 90.0939 229.058 90.1336 229.201 90.1336C229.451 90.1336 229.698 90.0116 229.845 89.7859C230.073 89.4321 229.973 88.9593 229.619 88.7306C227.048 87.0714 224.486 85.397 221.93 83.7103C221.576 83.4785 221.103 83.5731 220.868 83.9238C220.634 84.2746 220.731 84.7473 221.082 84.9822H221.085Z" fill="#F0C6AB"/>
<path d="M126.169 29.4782C128.966 30.6372 131.803 31.8602 134.593 33.1107L134.908 33.1778C135.2 33.1778 135.478 33.0101 135.606 32.7295C135.78 32.3452 135.606 31.8938 135.222 31.7199C132.419 30.4633 129.57 29.2342 126.758 28.0691C126.371 27.9074 125.919 28.0935 125.758 28.4808C125.596 28.8682 125.782 29.3165 126.169 29.4782Z" fill="#F0C6AB"/>
<path d="M254.34 225.717C254.535 225.717 254.727 225.644 254.876 225.498C257.115 223.296 259.235 221.02 261.178 218.736C261.452 218.416 261.409 217.934 261.089 217.662C260.766 217.391 260.284 217.431 260.009 217.751C258.097 220.002 256.008 222.244 253.8 224.412C253.498 224.708 253.495 225.19 253.794 225.489C253.943 225.641 254.141 225.714 254.34 225.714V225.717Z" fill="#F0C6AB"/>
<path d="M249.554 409.839C249.648 409.976 249.776 410.092 249.947 410.147C252.805 411.05 255.776 411.941 258.777 412.801L258.987 412.831C259.32 412.831 259.628 412.615 259.722 412.279C259.838 411.873 259.606 411.453 259.198 411.337C256.319 410.51 253.473 409.656 250.725 408.793C250.588 408.918 250.447 409.052 250.31 409.177C250.063 409.4 249.804 409.619 249.554 409.842V409.839Z" fill="#F0C6AB"/>
<path d="M236.552 94.9462C239.156 96.5749 241.77 98.1792 244.402 99.753L244.796 99.8628C245.055 99.8628 245.308 99.7316 245.452 99.4937C245.668 99.1338 245.552 98.6641 245.189 98.4476C242.569 96.8799 239.962 95.2786 237.366 93.6591C237.009 93.4365 236.537 93.5432 236.311 93.9001C236.085 94.2569 236.195 94.7266 236.552 94.9493V94.9462Z" fill="#F0C6AB"/>
<path d="M0.7659 15.0548L0.967199 15.0273C3.87689 14.2404 6.87198 13.542 9.87011 12.9472C10.2849 12.8649 10.5533 12.4653 10.471 12.0505C10.3886 11.6388 9.98601 11.3643 9.57121 11.4497C6.53648 12.0505 3.50784 12.7581 0.564601 13.5542C0.155902 13.664 -0.0850466 14.0849 0.0278029 14.4905C0.119303 14.8291 0.430401 15.0548 0.7659 15.0548Z" fill="#F0C6AB"/>
<path d="M276.606 417.473L276.786 417.495C277.131 417.495 277.445 417.26 277.53 416.912C277.631 416.503 277.378 416.092 276.966 415.994C273.995 415.28 271.022 414.536 268.054 413.761C267.645 413.655 267.228 413.899 267.121 414.304C267.014 414.71 267.258 415.128 267.667 415.235C270.644 416.015 273.626 416.76 276.606 417.476V417.473Z" fill="#F0C6AB"/>
<path d="M18.7963 11.4771L18.8969 11.471C21.8737 11.0836 24.939 10.7817 28.0042 10.5743C28.4251 10.5438 28.7453 10.1808 28.7148 9.75994C28.6874 9.34209 28.3366 9.04624 27.8974 9.05234C24.8017 9.26279 21.706 9.56779 18.6956 9.96123C18.2778 10.0161 17.9819 10.3974 18.0368 10.8152C18.0856 11.1995 18.415 11.4771 18.7932 11.4771H18.7963Z" fill="#F0C6AB"/>
<path d="M37.1427 10.2206H37.1488C40.1652 10.1932 43.2335 10.245 46.3049 10.3762H46.3384C46.7471 10.3762 47.0857 10.0559 47.1009 9.64721C47.1192 9.22632 46.7929 8.86947 46.3689 8.85117C43.2701 8.71697 40.1805 8.66817 37.1305 8.69257C36.7096 8.69562 36.368 9.04027 36.3741 9.46117C36.3772 9.87901 36.7188 10.2145 37.1396 10.2145L37.1427 10.2206Z" fill="#F0C6AB"/>
<path d="M594.851 6.81062C595.074 6.81062 595.299 6.71302 595.449 6.52697C597.19 4.36148 598.871 2.17159 600.475 0H598.566C597.175 1.85744 595.742 3.72404 594.253 5.57233C593.988 5.90173 594.043 6.38057 594.372 6.64592C594.513 6.75877 594.683 6.81367 594.851 6.81367V6.81062Z" fill="#F0C6AB"/>
<path d="M91.4765 17.6201C94.3801 18.3948 97.3447 19.2457 100.291 20.1485L100.517 20.1821C100.843 20.1821 101.148 19.9716 101.249 19.6453C101.374 19.2427 101.145 18.8157 100.742 18.6937C97.7778 17.7848 94.7949 16.9308 91.873 16.15C91.4674 16.0432 91.0465 16.2811 90.9367 16.6898C90.8269 17.0955 91.0678 17.5133 91.4765 17.6231V17.6201Z" fill="#F0C6AB"/>
<path d="M109.016 22.9817C111.88 23.9638 114.78 25.0129 117.644 26.0957L117.916 26.1445C118.224 26.1445 118.513 25.9584 118.629 25.6534C118.779 25.26 118.581 24.8208 118.187 24.6713C115.311 23.5825 112.392 22.5272 109.513 21.539C109.116 21.4018 108.677 21.6122 108.54 22.0118C108.403 22.4083 108.613 22.8444 109.016 22.9817Z" fill="#F0C6AB"/>
<path d="M556.127 45.896C556.304 45.896 556.484 45.835 556.627 45.71C558.948 43.7092 561.254 41.684 563.539 39.6344C563.853 39.3508 563.877 38.8719 563.597 38.5578C563.313 38.2436 562.828 38.2192 562.517 38.4998C560.239 40.5464 557.939 42.5624 555.627 44.554C555.307 44.8285 555.273 45.3104 555.548 45.6307C555.7 45.8045 555.914 45.893 556.127 45.893V45.896Z" fill="#F0C6AB"/>
<path d="M542.005 57.6572C542.172 57.6572 542.343 57.6023 542.487 57.4864C544.863 55.5649 547.238 53.6221 549.602 51.6548C549.926 51.3864 549.971 50.9045 549.7 50.5812C549.428 50.2579 548.946 50.2122 548.623 50.4836C546.263 52.4478 543.893 54.3876 541.523 56.303C541.193 56.5683 541.145 57.0472 541.41 57.3735C541.559 57.5596 541.782 57.6572 542.005 57.6572Z" fill="#F0C6AB"/>
<path d="M497.761 340.125C496.306 342.84 494.805 345.521 493.299 348.092C493.085 348.455 493.21 348.922 493.573 349.135L493.957 349.239C494.22 349.239 494.476 349.105 494.619 348.861C496.132 346.274 497.642 343.575 499.109 340.845C499.307 340.473 499.167 340.013 498.795 339.814C498.423 339.616 497.959 339.756 497.758 340.128L497.761 340.125Z" fill="#F0C6AB"/>
<path d="M509.593 315.406C509.425 315.793 509.605 316.241 509.996 316.406L510.295 316.467C510.59 316.467 510.874 316.293 510.999 316.003C511.167 315.61 511.325 315.21 511.493 314.817C511.106 314.448 510.706 314.076 510.301 313.701C510.06 314.265 509.834 314.838 509.59 315.403L509.593 315.406Z" fill="#F0C6AB"/>
<path d="M496.797 89.142L497.185 89.0383C499.817 87.498 502.47 85.8968 505.075 84.2803C505.435 84.0576 505.545 83.5879 505.319 83.2311C505.096 82.8712 504.623 82.7644 504.267 82.9871C501.674 84.5944 499.03 86.1896 496.41 87.7237C496.047 87.9372 495.925 88.4039 496.138 88.7668C496.282 89.0078 496.538 89.142 496.8 89.142H496.797Z" fill="#F0C6AB"/>
<path d="M569.786 33.6139C569.975 33.6139 570.164 33.5437 570.311 33.4065C572.574 31.2715 574.8 29.1151 576.92 27.0015C577.219 26.7026 577.219 26.2207 576.92 25.9249C576.621 25.626 576.136 25.626 575.837 25.9249C573.724 28.0324 571.512 30.1765 569.255 32.2993C568.947 32.5891 568.935 33.071 569.225 33.376C569.374 33.5346 569.579 33.6139 569.78 33.6139H569.786Z" fill="#F0C6AB"/>
<path d="M527.504 68.9451C527.663 68.9451 527.822 68.8963 527.959 68.7956C530.441 66.9656 532.909 65.0929 535.294 63.2263C535.626 62.9671 535.684 62.4882 535.425 62.1558C535.166 61.8233 534.684 61.7654 534.352 62.0277C531.976 63.8851 529.52 65.7487 527.05 67.5726C526.711 67.8227 526.638 68.3015 526.891 68.6401C527.041 68.8414 527.273 68.9481 527.507 68.9481L527.504 68.9451Z" fill="#F0C6AB"/>
<path d="M512.417 79.4461C512.56 79.4461 512.707 79.4064 512.838 79.321C515.406 77.6313 517.974 75.8959 520.469 74.1604C520.816 73.9195 520.899 73.4437 520.658 73.0991C520.417 72.7544 519.938 72.669 519.593 72.91C517.111 74.6362 514.555 76.3656 511.996 78.0461C511.642 78.2779 511.545 78.7507 511.779 79.1014C511.926 79.3241 512.17 79.443 512.42 79.443L512.417 79.4461Z" fill="#F0C6AB"/>
<path d="M575.057 175.06C572.849 177.095 570.665 179.309 568.564 181.648C568.283 181.962 568.311 182.444 568.625 182.725C568.771 182.856 568.954 182.92 569.134 182.92C569.345 182.92 569.552 182.835 569.705 182.667C571.772 180.364 573.926 178.183 576.097 176.183C576.408 175.896 576.427 175.414 576.14 175.106C575.853 174.795 575.368 174.777 575.057 175.063V175.06Z" fill="#F0C6AB"/>
<path d="M634.611 157.419C637.539 157.831 640.55 158.423 643.557 159.17L643.743 159.194C644.084 159.194 644.399 158.962 644.484 158.618C644.588 158.209 644.338 157.797 643.926 157.694C640.87 156.934 637.808 156.333 634.825 155.912C634.404 155.858 634.02 156.144 633.959 156.559C633.901 156.977 634.19 157.361 634.608 157.422L634.611 157.419Z" fill="#F0C6AB"/>
<path d="M582.652 170.522C582.811 170.522 582.969 170.473 583.106 170.372C585.58 168.545 588.142 166.874 590.722 165.413C591.091 165.206 591.219 164.739 591.009 164.373C590.798 164.004 590.329 163.879 589.966 164.086C587.331 165.581 584.717 167.283 582.194 169.149C581.856 169.399 581.783 169.878 582.036 170.217C582.185 170.418 582.417 170.525 582.652 170.525V170.522Z" fill="#F0C6AB"/>
<path d="M582.783 20.6392C582.987 20.6392 583.192 20.5568 583.341 20.3982C585.476 18.129 587.556 15.8354 589.53 13.5785C589.807 13.2613 589.774 12.7794 589.456 12.5049C589.139 12.2304 588.654 12.2609 588.377 12.5781C586.419 14.8198 584.348 17.1012 582.228 19.3551C581.938 19.6632 581.953 20.1451 582.265 20.4318C582.411 20.569 582.6 20.6392 582.786 20.6392H582.783Z" fill="#F0C6AB"/>
<path d="M429.951 119.486L430.192 119.45C433.083 118.501 436.017 117.489 438.912 116.446C439.308 116.302 439.512 115.866 439.369 115.47C439.226 115.076 438.787 114.872 438.39 115.012C435.508 116.052 432.589 117.059 429.713 118.001C429.31 118.132 429.094 118.565 429.225 118.965C429.332 119.285 429.63 119.489 429.951 119.489V119.486Z" fill="#F0C6AB"/>
<path d="M320.979 130.546L322.256 130.759C324.831 131.177 327.478 131.54 330.129 131.842L330.217 131.848C330.601 131.848 330.931 131.561 330.976 131.174C331.025 130.756 330.723 130.378 330.305 130.329C327.679 130.03 325.053 129.667 322.504 129.255L321.241 129.045C320.823 128.975 320.43 129.252 320.356 129.667C320.283 130.082 320.564 130.475 320.982 130.549L320.979 130.546Z" fill="#F0C6AB"/>
<path d="M330.951 427.572H331.037C331.421 427.575 331.753 427.288 331.796 426.898C331.842 426.48 331.54 426.102 331.122 426.056C328.17 425.727 325.107 425.333 322.021 424.888C321.603 424.836 321.216 425.117 321.155 425.534C321.094 425.949 321.383 426.337 321.801 426.398C324.903 426.843 327.98 427.239 330.951 427.572Z" fill="#F0C6AB"/>
<path d="M348.557 133.007H348.569C348.987 133.007 349.328 132.672 349.335 132.257C349.341 131.836 349.002 131.488 348.581 131.482C345.504 131.439 342.423 131.321 339.428 131.131C339.01 131.116 338.641 131.424 338.617 131.845C338.589 132.266 338.91 132.629 339.331 132.653C342.353 132.845 345.458 132.961 348.56 133.007H348.557Z" fill="#F0C6AB"/>
<path d="M55.4485 11.0073C58.4344 11.2879 61.4966 11.6478 64.5496 12.0779L64.6594 12.084C65.0346 12.084 65.3609 11.8095 65.4158 11.4282C65.4738 11.0104 65.184 10.6261 64.7662 10.5651C61.6887 10.132 58.6052 9.76902 55.5949 9.48537C55.1679 9.44572 54.8019 9.75377 54.7622 10.1747C54.7226 10.5925 55.0306 10.9646 55.4515 11.0043L55.4485 11.0073Z" fill="#F0C6AB"/>
<path d="M349.378 428.971C349.787 428.971 350.125 428.648 350.141 428.236C350.156 427.816 349.827 427.462 349.406 427.446C346.42 427.334 343.339 427.157 340.253 426.919C339.826 426.879 339.463 427.199 339.429 427.62C339.396 428.041 339.713 428.407 340.134 428.441C343.242 428.679 346.34 428.859 349.348 428.971H349.378Z" fill="#F0C6AB"/>
<path d="M302.971 126.434C305.945 127.285 308.955 128.06 311.92 128.74L312.091 128.758C312.438 128.758 312.755 128.52 312.835 128.167C312.929 127.755 312.673 127.346 312.261 127.255C309.324 126.584 306.341 125.815 303.395 124.97C302.986 124.857 302.565 125.086 302.45 125.492C302.334 125.897 302.568 126.318 302.974 126.434H302.971Z" fill="#F0C6AB"/>
<path d="M285.5 120.481C288.394 121.621 291.307 122.695 294.162 123.668L294.409 123.708C294.726 123.708 295.025 123.509 295.132 123.192C295.269 122.793 295.055 122.359 294.656 122.222C291.822 121.255 288.931 120.191 286.061 119.059C285.668 118.904 285.222 119.096 285.067 119.486C284.911 119.877 285.103 120.322 285.497 120.475L285.5 120.481Z" fill="#F0C6AB"/>
<path d="M304.846 423.521C307.457 424.028 310.074 424.506 312.694 424.958L312.825 424.97C313.191 424.97 313.514 424.708 313.578 424.339C313.648 423.924 313.371 423.53 312.953 423.457C310.342 423.009 307.738 422.53 305.136 422.027L303.925 421.792C303.501 421.707 303.108 421.981 303.028 422.393C302.946 422.805 303.217 423.207 303.632 423.286L304.846 423.521Z" fill="#F0C6AB"/>
<path d="M294.602 421.475L294.757 421.49C295.111 421.49 295.432 421.243 295.505 420.883C295.59 420.471 295.325 420.066 294.91 419.98C291.924 419.361 288.923 418.721 285.919 418.056C285.507 417.964 285.098 418.223 285.007 418.632C284.915 419.044 285.174 419.453 285.586 419.544C288.6 420.212 291.604 420.856 294.599 421.475H294.602Z" fill="#F0C6AB"/>
<path d="M480.709 98.0208L481.063 97.9354C483.783 96.5233 486.51 95.0593 489.176 93.5892C489.545 93.3848 489.679 92.9212 489.475 92.5522C489.27 92.1831 488.804 92.0489 488.435 92.2533C485.781 93.7173 483.064 95.1721 480.355 96.5812C479.98 96.7764 479.834 97.237 480.029 97.6091C480.166 97.8683 480.431 98.0178 480.709 98.0178V98.0208Z" fill="#F0C6AB"/>
<path d="M452.298 396.636C449.916 398.509 447.439 400.326 444.941 402.04C444.593 402.278 444.505 402.754 444.743 403.102C444.892 403.318 445.13 403.431 445.374 403.431C445.524 403.431 445.676 403.389 445.807 403.297C448.333 401.565 450.834 399.729 453.243 397.834C453.576 397.575 453.631 397.093 453.371 396.764C453.109 396.435 452.63 396.377 452.298 396.636Z" fill="#F0C6AB"/>
<path d="M437.249 406.951C434.654 408.491 431.961 409.97 429.249 411.349C428.874 411.541 428.725 411.998 428.917 412.374C429.051 412.639 429.319 412.788 429.6 412.788L429.948 412.706C432.69 411.312 435.41 409.818 438.036 408.262C438.399 408.046 438.518 407.579 438.302 407.216C438.085 406.856 437.618 406.734 437.252 406.951H437.249Z" fill="#F0C6AB"/>
<path d="M447.259 113.246L447.54 113.194C450.37 112.084 453.243 110.91 456.073 109.711C456.461 109.546 456.644 109.098 456.479 108.711C456.314 108.323 455.866 108.143 455.476 108.308C452.658 109.504 449.8 110.669 446.981 111.776C446.588 111.932 446.396 112.374 446.548 112.764C446.667 113.063 446.957 113.246 447.259 113.246Z" fill="#F0C6AB"/>
<path d="M268.637 113.014C271.44 114.387 274.249 115.698 276.991 116.912L277.302 116.979C277.595 116.979 277.876 116.812 278.001 116.528C278.172 116.144 278.001 115.692 277.613 115.522C274.89 114.314 272.096 113.008 269.311 111.645C268.93 111.459 268.473 111.614 268.287 111.993C268.1 112.371 268.256 112.828 268.637 113.011V113.014Z" fill="#F0C6AB"/>
<path d="M464.19 106.069L464.507 105.999C467.292 104.73 470.095 103.41 472.84 102.074C473.218 101.888 473.376 101.433 473.19 101.055C473.004 100.677 472.547 100.518 472.166 100.704C469.433 102.034 466.642 103.352 463.87 104.615C463.485 104.788 463.318 105.243 463.491 105.624C463.62 105.905 463.897 106.069 464.187 106.069H464.19Z" fill="#F0C6AB"/>
<path d="M477.969 370.763C476.069 373.178 474.105 375.539 472.135 377.784C471.857 378.101 471.888 378.583 472.205 378.86C472.351 378.989 472.531 379.05 472.708 379.05C472.922 379.05 473.132 378.961 473.285 378.79C475.276 376.527 477.256 374.142 479.174 371.705C479.437 371.373 479.376 370.894 479.043 370.635C478.711 370.375 478.229 370.433 477.969 370.763Z" fill="#F0C6AB"/>
<path d="M376.86 426.608C376.44 426.651 376.135 427.026 376.18 427.447C376.22 427.837 376.552 428.13 376.94 428.13H377.022C380.103 427.8 383.183 427.389 386.181 426.904C386.599 426.837 386.883 426.443 386.813 426.028C386.745 425.614 386.352 425.324 385.934 425.397C382.963 425.879 379.91 426.285 376.86 426.608Z" fill="#F0C6AB"/>
<path d="M403.781 421.402C400.878 422.24 397.895 423.003 394.918 423.668C394.506 423.759 394.247 424.168 394.339 424.577C394.418 424.93 394.735 425.171 395.086 425.171L395.254 425.153C398.261 424.482 401.274 423.71 404.208 422.862C404.614 422.747 404.849 422.323 404.73 421.917C404.614 421.511 404.19 421.276 403.781 421.398V421.402Z" fill="#F0C6AB"/>
<path d="M412.297 124.699L412.493 124.674C415.433 123.903 418.425 123.07 421.383 122.195C421.789 122.076 422.021 121.652 421.899 121.246C421.78 120.843 421.353 120.609 420.947 120.731C418.004 121.6 415.03 122.429 412.102 123.198C411.694 123.305 411.45 123.723 411.556 124.128C411.648 124.47 411.956 124.696 412.294 124.696L412.297 124.699Z" fill="#F0C6AB"/>
<path d="M368.536 428.051C368.512 427.633 368.189 427.328 367.731 427.331C364.733 427.489 361.652 427.581 358.572 427.599C358.148 427.599 357.809 427.944 357.813 428.365C357.813 428.783 358.157 429.121 358.578 429.121H358.581C361.686 429.103 364.791 429.011 367.813 428.853C368.234 428.828 368.561 428.472 368.536 428.051Z" fill="#F0C6AB"/>
<path d="M201.277 260.988C198.44 262.778 195.912 264.419 193.551 266.005C193.201 266.24 193.109 266.712 193.344 267.063C193.493 267.283 193.734 267.399 193.978 267.399C194.125 267.399 194.274 267.356 194.405 267.268C196.754 265.691 199.27 264.056 202.094 262.275C202.451 262.049 202.558 261.579 202.332 261.222C202.107 260.869 201.634 260.762 201.277 260.988Z" fill="#F0C6AB"/>
<path d="M505.881 323.759C504.585 326.578 503.264 329.353 501.95 332.007C501.764 332.385 501.919 332.842 502.297 333.028L502.636 333.108C502.92 333.108 503.191 332.952 503.322 332.684C504.643 330.015 505.973 327.227 507.275 324.397C507.452 324.013 507.281 323.561 506.897 323.387C506.509 323.21 506.058 323.381 505.884 323.762L505.881 323.759Z" fill="#F0C6AB"/>
<path d="M488.531 355.879C486.866 358.474 485.149 361.021 483.428 363.446C483.184 363.79 483.267 364.266 483.611 364.51C483.746 364.605 483.898 364.65 484.054 364.65C484.295 364.65 484.529 364.537 484.679 364.327C486.411 361.881 488.144 359.313 489.821 356.699C490.047 356.345 489.943 355.872 489.589 355.647C489.233 355.421 488.76 355.525 488.531 355.879Z" fill="#F0C6AB"/>
<path d="M420.978 415.225C418.663 416.226 416.269 417.184 413.865 418.077C413.405 418.248 412.941 418.419 412.481 418.584C412.084 418.727 411.877 419.163 412.02 419.559C412.133 419.871 412.426 420.063 412.74 420.063L412.999 420.017C413.466 419.849 413.932 419.678 414.399 419.505C416.827 418.602 419.245 417.632 421.585 416.625C421.972 416.458 422.149 416.009 421.984 415.622C421.817 415.238 421.371 415.058 420.978 415.225Z" fill="#F0C6AB"/>
<path d="M465.91 384.469C463.757 386.647 461.53 388.77 459.291 390.771C458.977 391.051 458.95 391.533 459.233 391.847C459.383 392.015 459.593 392.1 459.804 392.1C459.987 392.1 460.17 392.036 460.316 391.905C462.579 389.883 464.827 387.739 467.005 385.537C467.301 385.238 467.298 384.753 466.996 384.46C466.694 384.164 466.212 384.167 465.913 384.469H465.91Z" fill="#F0C6AB"/>
<path d="M597.899 161.036C598.018 161.332 598.305 161.512 598.606 161.512L598.893 161.457C601.702 160.323 604.603 159.377 607.522 158.648C607.93 158.545 608.18 158.133 608.077 157.724C607.973 157.315 607.561 157.068 607.15 157.172C604.164 157.919 601.193 158.889 598.32 160.048C597.929 160.207 597.74 160.649 597.899 161.043V161.036Z" fill="#F0C6AB"/>
<path d="M626.321 155.928C626.33 155.507 625.995 155.159 625.574 155.147C622.42 155.077 619.325 155.211 616.296 155.537C615.875 155.583 615.573 155.958 615.619 156.379C615.662 156.77 615.994 157.059 616.378 157.059H616.461C619.422 156.733 622.46 156.605 625.537 156.672C626.019 156.706 626.309 156.346 626.318 155.928H626.321Z" fill="#F0C6AB"/>
<path d="M638.799 423.308C638.503 423.006 638.021 423 637.716 423.293C635.547 425.388 633.303 427.499 631.043 429.563C630.732 429.847 630.71 430.329 630.997 430.64C631.146 430.802 631.354 430.887 631.561 430.887C631.747 430.887 631.933 430.82 632.08 430.686C634.349 428.609 636.603 426.492 638.784 424.385C639.085 424.092 639.095 423.61 638.799 423.308Z" fill="#F0C6AB"/>
<path d="M160.008 297.331C158.312 300.024 156.864 302.791 155.702 305.557C155.537 305.944 155.723 306.393 156.11 306.554L156.406 306.615C156.705 306.615 156.989 306.439 157.111 306.149C158.242 303.459 159.651 300.766 161.305 298.143C161.53 297.786 161.42 297.316 161.064 297.093C160.707 296.871 160.234 296.978 160.008 297.334V297.331Z" fill="#F0C6AB"/>
<path d="M73.5956 13.5574C76.548 14.1033 79.5675 14.7286 82.5717 15.4118L82.7425 15.4301C83.0902 15.4301 83.4074 15.1922 83.4867 14.8384C83.5813 14.4266 83.322 14.021 82.9103 13.9264C79.8847 13.2371 76.8438 12.6088 73.8732 12.0568C73.4584 11.9805 73.0588 12.252 72.9795 12.6668C72.9033 13.0816 73.1778 13.4781 73.5926 13.5574H73.5956Z" fill="#F0C6AB"/>
<path d="M209.102 256.138C208.742 256.358 208.629 256.827 208.848 257.187C208.992 257.422 209.245 257.55 209.501 257.55L209.901 257.437L217.745 252.649C217.87 252.573 217.956 252.46 218.017 252.338L216.925 251.362L209.099 256.138H209.102Z" fill="#F0C6AB"/>
<path d="M485.745 238.936C484.907 240.153 484.046 241.379 483.165 242.614C484.046 241.376 484.907 240.15 485.745 238.936Z" fill="#B5C3E3"/>
<path d="M492.857 228.045C491.424 230.369 489.905 232.739 488.304 235.151C489.908 232.736 491.424 230.366 492.857 228.045Z" fill="#B5C3E3"/>
<path d="M424.968 192.375C424.983 192.363 424.998 192.348 425.017 192.335C425.014 192.335 425.01 192.339 425.007 192.342C424.995 192.354 424.983 192.366 424.968 192.378V192.375Z" fill="#D8DEEE"/>
<path d="M262.842 223.253C263.784 222.942 264.721 222.634 265.648 222.329C264.718 222.634 263.784 222.942 262.842 223.253Z" fill="#404A65"/>
<path d="M268.441 221.423C269.542 221.069 270.628 220.721 271.696 220.38C270.628 220.718 269.539 221.069 268.441 221.423Z" fill="#404A65"/>
<path d="M259.405 224.4C259.79 224.272 260.174 224.141 260.558 224.013C260.174 224.141 259.79 224.269 259.405 224.4Z" fill="#404A65"/>
<path d="M237.359 232.208C238.244 231.875 239.138 231.54 240.043 231.208C239.138 231.543 238.244 231.875 237.359 232.208Z" fill="#404A65"/>
<path d="M223.197 237.89C226.668 236.374 230.697 234.748 235.043 233.086C230.694 234.751 226.668 236.374 223.197 237.89Z" fill="#404A65"/>
<path d="M445.161 286.921C444.118 288.614 443.047 290.328 441.974 292.018C442.431 291.298 442.886 290.575 443.34 289.852C443.953 288.873 444.563 287.894 445.161 286.921Z" fill="#404A65"/>
<path d="M445.161 286.922C445.46 286.434 445.759 285.949 446.052 285.467C446.439 284.832 446.823 284.201 447.199 283.579C446.537 284.674 445.857 285.793 445.161 286.922Z" fill="#404A65"/>
<path d="M435.68 301.528C436.342 300.58 437.022 299.585 437.714 298.551C437.019 299.585 436.338 300.583 435.68 301.528Z" fill="#404A65"/>
<path d="M438.764 296.974C439.822 295.373 440.899 293.708 441.975 292.018C440.902 293.708 439.822 295.376 438.764 296.974Z" fill="#404A65"/>
<path d="M455.91 261.476C455.91 261.61 455.903 261.744 455.9 261.872C455.9 261.744 455.906 261.61 455.91 261.476Z" fill="#404A65"/>
<path d="M455.891 262.235C455.891 262.348 455.885 262.461 455.882 262.57C455.882 262.461 455.888 262.348 455.891 262.235Z" fill="#404A65"/>
<path d="M455.809 265.022C455.809 265.065 455.806 265.099 455.803 265.141C455.803 265.102 455.806 265.068 455.809 265.022Z" fill="#404A65"/>
<path d="M455.061 269.729C454.844 270.18 454.567 270.723 454.234 271.351C454.567 270.726 454.844 270.18 455.061 269.729Z" fill="#404A65"/>
<path d="M455.843 264.126C455.843 264.184 455.84 264.239 455.837 264.297C455.837 264.239 455.84 264.187 455.843 264.126Z" fill="#404A65"/>
<path d="M455.857 263.577C455.857 263.638 455.854 263.696 455.851 263.754C455.851 263.696 455.854 263.638 455.857 263.577Z" fill="#404A65"/>
<path d="M455.974 257.8C455.974 257.919 455.971 258.038 455.968 258.157C455.968 258.038 455.971 257.919 455.974 257.8Z" fill="#404A65"/>
<path d="M455.998 255.961C455.998 256.175 455.992 256.391 455.989 256.605C455.992 256.391 455.995 256.175 455.998 255.961Z" fill="#404A65"/>
<path d="M456.02 254.342C456.02 254.47 456.017 254.598 456.014 254.726C456.014 254.598 456.017 254.47 456.02 254.342Z" fill="#404A65"/>
<path d="M455.985 256.925C455.985 257.144 455.979 257.361 455.976 257.578C455.979 257.361 455.982 257.141 455.985 256.925Z" fill="#404A65"/>
<path d="M450.867 277.378C451.068 277.03 451.261 276.695 451.453 276.359C451.785 275.78 452.109 275.213 452.41 274.679C451.935 275.521 451.419 276.427 450.867 277.378Z" fill="#404A65"/>
<path d="M376.22 103.584C375.57 104.276 375.116 105.075 374.981 106.024C374.981 106.042 374.984 106.057 374.981 106.076C377.333 105.542 379.648 104.813 381.353 102.995C379.996 102.77 378.044 103.288 376.22 103.584Z" fill="#F6C7AD"/>
<path d="M389.42 126.486L389.398 126.465L389.09 126.227L389.084 126.221L389.072 126.212L388.697 126.053H388.685C388.477 126.013 388.37 125.995 388.264 125.995C388.157 125.995 388.05 126.013 387.84 126.05H387.831L387.459 126.209L387.3 126.331L387.132 126.465L386.882 126.791L386.876 126.806L386.717 127.185V127.191L386.711 127.206C386.687 127.349 386.662 127.49 386.653 127.633V127.648C386.662 127.792 386.687 127.935 386.711 128.078V128.097L386.879 128.484L386.888 128.502C386.986 128.685 387.12 128.832 387.291 128.941C387.443 129.079 387.62 129.173 387.821 129.222C387.943 129.259 388.065 129.28 388.184 129.28C388.27 129.28 388.358 129.271 388.444 129.253C388.651 129.243 388.846 129.182 389.026 129.066L389.343 128.822C389.536 128.627 389.67 128.399 389.746 128.133C389.749 128.103 389.755 128.072 389.758 128.042L389.837 127.746V127.349L389.734 126.971C389.673 126.785 389.572 126.626 389.426 126.489L389.42 126.486Z" fill="#53666E"/>
<path d="M390.437 122.292C390.507 122.317 390.577 122.326 390.644 122.326C391.16 122.326 391.501 121.689 391.294 121.252C391.291 121.255 391.288 121.259 391.285 121.262C390.903 121.597 390.537 121.957 390.232 122.231C390.3 122.25 390.37 122.271 390.44 122.292H390.437Z" fill="#53666E"/>
<path d="M404.386 129.326L404.27 129.051C404.164 129.243 404.063 129.439 403.978 129.64C404.09 129.622 404.194 129.612 404.283 129.612C404.347 129.612 404.401 129.619 404.453 129.625C404.456 129.625 404.462 129.625 404.466 129.625C404.456 129.585 404.447 129.548 404.435 129.509L404.386 129.32V129.326Z" fill="#53666E"/>
<path d="M385.702 122.728C385.4 122.884 385.101 123.055 384.805 123.223C384.476 123.406 384.174 123.592 383.802 123.68C383.542 123.741 383.588 123.701 383.39 123.82C383.243 123.909 383.112 123.942 382.954 123.994C382.932 124 382.911 124.003 382.89 124.003C382.765 124.003 382.646 123.891 382.652 123.762C382.658 123.543 382.67 123.396 382.762 123.192L382.826 123.03L382.844 122.942C382.304 123.232 381.755 123.503 381.203 123.762C379.666 124.479 377.421 124.619 376.402 126.065C376.668 126.117 376.951 126.141 377.253 126.141C379.785 126.141 383.463 124.394 386.327 122.457C386.101 122.533 385.961 122.597 385.708 122.728H385.702Z" fill="#F9AE55"/>
<path d="M485.812 297.173C480.709 309.623 481.707 314.905 493.083 311.968C504.319 309.068 501.202 305.371 509.626 313.075C509.855 313.286 510.078 313.493 510.303 313.701C510.709 314.076 511.106 314.448 511.496 314.817C521.543 324.321 526.514 330.845 542.209 317.065C554.428 306.335 563.172 287.806 568.482 272.691C571.23 264.867 577.187 252.686 576.012 244.115C574.795 235.24 573.395 239.86 569.165 234.456C562.754 226.267 560.936 220.395 562.345 207.796C563.715 195.535 579.09 146.064 559.686 141.578C558.713 142.493 558.356 143.636 555.114 146.174C554.104 174.597 545.113 205.063 530.052 229.067C516.327 250.944 495.584 273.334 485.815 297.17L485.812 297.173ZM557.441 246.409C556.459 261.808 550.246 284.503 539.876 295.651C533.685 278.214 509.852 313.191 512.167 286.351C513.259 273.688 545.326 216.183 557.441 246.409Z" fill="#F1DCCF"/>
<path d="M38.9893 247.278C39.52 263.708 65.7103 246.119 75.5922 242.889C85.343 239.702 96.2102 235.468 106.483 239.567C115.861 243.31 114.339 248.223 126.271 246.543C140.99 244.469 153.986 235.322 167.046 229.13C180.924 222.552 194.432 219.316 208.95 214.939C223.907 208.461 242.735 207.811 241.896 197.456C240.124 175.551 173.271 203.541 155.484 189.584C151.369 186.357 153.431 182.292 147.285 180.117C142.155 178.302 128.818 182.069 123.928 183.353C105.336 188.242 82.3785 200.631 67.6165 212.575C59.9732 218.76 38.6111 235.557 38.9893 247.275V247.278ZM103.088 199.701C120.11 190.164 132.09 193.327 149.783 199.042C164.929 203.938 173.793 202.666 188.585 199.472C194.505 198.194 201.718 195.285 207.785 205.615C184.715 213.386 152.135 230.555 128.003 223.622C120.122 221.359 118.496 218.123 107.584 219.096C98.641 219.892 89.8265 222.689 80.8108 221.756C82.2473 212.743 95.5483 203.922 103.088 199.701Z" fill="#F1DCCF"/>
<path d="M198.408 134.468C190.048 141.428 190.024 146.265 197.368 151.938C211.978 163.226 248.477 151.444 262.565 142.679C254.802 112.264 211.578 123.503 198.408 134.468Z" fill="#F1DCCF"/>
<path d="M310.352 451.542C294.541 456.705 275.006 470.586 276.793 488.834C277.772 498.841 281.771 500.192 276.311 510.522C270.025 522.414 257.371 527.16 247.412 535.12C236.426 543.904 215.409 557.269 220.502 573.916C227.63 597.212 266.795 585.503 283.015 578.439C296.346 572.635 320.999 556.937 324.507 541.525C327.533 528.231 314.036 526.715 314.009 514.097C313.972 498.353 352.603 455.488 310.355 451.539L310.352 451.542ZM304.557 532.171C303.883 545.789 291.262 561.061 280.621 567.972C270.565 574.505 237.537 587.092 241.401 564.986C245.738 540.18 284.827 531.07 288.304 505.475C289.411 497.325 282.984 492.637 284.76 485.375C284.979 484.482 285.345 483.609 285.836 482.755C292.592 471.043 310.66 479.757 306.241 492.537C304.502 497.563 302.535 501.342 301.806 505.252C299.811 515.948 305.097 521.228 304.554 532.168L304.557 532.171Z" fill="#F1DCCF"/>
<path d="M512.166 286.354C509.851 313.194 533.683 278.217 539.875 295.654C550.245 284.506 556.461 261.811 557.44 246.412C545.322 216.186 513.257 273.691 512.166 286.354Z" fill="#F0C6AB"/>
<path d="M107.581 219.096C118.494 218.126 120.123 221.359 128.001 223.622C152.133 230.555 184.713 213.386 207.783 205.615C201.716 195.282 194.503 198.194 188.583 199.472C173.794 202.666 164.927 203.938 149.781 199.042C132.088 193.327 120.108 190.164 103.086 199.701C95.5461 203.925 82.2451 212.746 80.8086 221.756C89.8244 222.689 98.6419 219.889 107.581 219.096Z" fill="#F0C6AB"/>
<path d="M306.241 492.54C310.664 479.76 292.596 471.046 285.837 482.758C285.346 483.612 284.977 484.485 284.76 485.378C282.982 492.64 289.412 497.331 288.304 505.478C284.827 531.07 245.739 540.18 241.402 564.989C237.537 587.092 270.563 574.505 280.621 567.975C291.266 561.064 303.887 545.792 304.558 532.174C305.098 521.237 299.812 515.954 301.81 505.258C302.539 501.348 304.506 497.569 306.244 492.543L306.241 492.54Z" fill="#F0C6AB"/>
</svg>
