<svg width="43" height="41" viewBox="0 0 43 41" fill="none" xmlns="http://www.w3.org/2000/svg">
<g id="Group">
<path id="Vector" d="M26.6133 26.4579C26.5603 24.0719 24.7733 23.8669 23.1343 23.7749C22.9893 23.7659 22.8423 23.7669 22.6963 23.7649C23.6153 25.4819 24.5323 27.2099 25.3993 28.9639C26.1003 28.2949 26.6333 27.4259 26.6133 26.4579Z" fill="#F9DA55"/>
<path id="Vector_2" d="M19.6252 21.7879C18.8682 20.4399 18.0622 19.0889 17.2892 17.7229C17.2402 17.8749 17.1822 18.0219 17.1512 18.1799C16.6742 20.5629 17.9622 21.4649 19.6252 21.7879Z" fill="#F9DA55"/>
<path id="Vector_3" d="M22.4709 37.7C33.1669 37.233 42.5799 28.605 39.0069 16.257C36.1849 6.50698 27.6549 2.75299 19.0499 1.85999C9.92789 3.58299 2.0349 10.219 2.2109 21.285C2.4049 33.516 12.4979 38.135 22.4709 37.7ZM15.0459 11.385C15.9599 12.349 16.7829 13.443 17.5559 14.594C18.5399 13.535 19.6829 12.648 20.6889 12.085C21.2339 11.78 21.8439 12.527 21.3669 12.964C20.3939 13.852 19.2229 14.747 18.3469 15.819C19.5809 17.823 20.6759 19.949 21.7329 21.952C21.9569 21.951 22.1789 21.948 22.3949 21.942C25.0359 21.867 27.7669 22.48 28.3939 25.445C28.8389 27.559 27.7939 29.442 26.2209 30.714C26.9139 32.194 27.5749 33.689 28.1489 35.213C28.4659 36.055 27.1319 36.578 26.7209 35.815C25.9929 34.463 25.3049 33.09 24.6249 31.712C24.5679 31.739 24.5109 31.768 24.4539 31.795C22.2389 32.774 18.1119 33.787 16.3079 31.681C15.8139 31.103 16.4299 30.286 17.1159 30.635C18.8639 31.518 21.9609 30.899 23.8009 30.034C22.7819 27.943 21.7689 25.848 20.6989 23.785C19.3569 23.792 18.0489 23.666 16.9159 22.741C14.4979 20.768 14.9449 18.238 16.3819 16.07C15.6299 14.654 14.9469 13.216 14.4269 11.745C14.3019 11.393 14.8009 11.125 15.0459 11.385Z" fill="#F9DA55"/>
<g id="Group_2">
<path id="Vector_4" d="M41.9511 18.4429C40.2891 6.41793 29.0631 -1.41207 18.3061 0.212926C8.31708 0.503926 -0.109916 10.3639 0.00108423 21.2839C0.141084 34.9509 11.1321 40.6919 22.4711 40.2589C33.7261 39.8289 43.7741 31.6189 41.9511 18.4429ZM22.4711 37.6999C12.4981 38.1349 2.40508 33.5149 2.21108 21.2849C2.03508 10.2189 9.92808 3.58293 19.0501 1.85993C27.6551 2.75293 36.1861 6.50693 39.0071 16.2569C42.5801 28.6059 33.1671 37.2329 22.4711 37.6999Z" fill="black"/>
<path id="Vector_5" d="M26.2208 30.715C27.7938 29.443 28.8388 27.56 28.3938 25.446C27.7668 22.481 25.0358 21.868 22.3948 21.943C22.1798 21.949 21.9568 21.952 21.7328 21.953C20.6748 19.95 19.5808 17.824 18.3468 15.82C19.2228 14.748 20.3938 13.853 21.3668 12.965C21.8438 12.528 21.2338 11.78 20.6888 12.086C19.6838 12.649 18.5398 13.536 17.5558 14.595C16.7828 13.443 15.9598 12.35 15.0458 11.386C14.7998 11.126 14.3018 11.393 14.4258 11.747C14.9468 13.218 15.6288 14.656 16.3808 16.072C14.9438 18.24 14.4968 20.77 16.9148 22.743C18.0468 23.668 19.3548 23.794 20.6978 23.787C21.7678 25.85 22.7808 27.944 23.7998 30.036C21.9598 30.9 18.8618 31.52 17.1148 30.637C16.4278 30.288 15.8128 31.105 16.3068 31.683C18.1098 33.789 22.2368 32.775 24.4528 31.797C24.5108 31.77 24.5668 31.741 24.6238 31.714C25.3038 33.092 25.9918 34.465 26.7198 35.817C27.1318 36.581 28.4658 36.058 28.1478 35.215C27.5758 33.69 26.9138 32.196 26.2208 30.715ZM26.6128 26.458C26.6328 27.426 26.0998 28.295 25.3998 28.964C24.5328 27.21 23.6158 25.482 22.6968 23.765C22.8428 23.767 22.9898 23.766 23.1348 23.775C24.7728 23.867 26.5588 24.072 26.6128 26.458ZM17.1508 18.18C17.1818 18.021 17.2398 17.874 17.2888 17.723C18.0618 19.09 18.8678 20.441 19.6248 21.788C17.9618 21.465 16.6738 20.563 17.1508 18.18Z" fill="black"/>
</g>
</g>
</svg>
