<svg width="131" height="131" viewBox="0 0 131 131" fill="none" xmlns="http://www.w3.org/2000/svg">
<path d="M65.2913 130.609H65.0046C29.1614 130.609 0 101.439 0 65.5853V65.2986C0 29.4449 29.1614 0.27478 65.0046 0.27478H65.2913C101.134 0.27478 130.296 29.4449 130.296 65.2986V65.5853C130.296 101.439 101.134 130.609 65.2913 130.609ZM65.0046 4.68646C31.5916 4.68646 4.41038 31.8757 4.41038 65.2986V65.5853C4.41038 99.0082 31.5916 126.197 65.0046 126.197H65.2913C98.7043 126.197 125.885 99.0082 125.885 65.5853V65.2986C125.885 31.8757 98.7043 4.68646 65.2913 4.68646H65.0046Z" fill="#383D38"/>
<path d="M73.913 50.8281V64.5439H90.8753L88.1894 83.0201H73.913V125.588C71.0507 125.985 68.1222 126.193 65.1496 126.193C61.7183 126.193 58.3488 125.919 55.0674 125.39V83.0201H39.4238V64.5439H55.0674V47.762C55.0674 37.3504 63.5045 28.9065 73.9174 28.9065V28.9153C73.9483 28.9153 73.9748 28.9065 74.0056 28.9065H90.8797V44.8856H79.8538C76.5769 44.8856 73.9174 47.5458 73.9174 50.8237L73.913 50.8281Z" fill="#383D38"/>
</svg>
