<svg width="46" height="44" viewBox="0 0 46 44" fill="none" xmlns="http://www.w3.org/2000/svg">
<g id="Group">
<path id="Vector" d="M23.2033 20.2836C23.1403 20.4576 22.9813 20.5216 22.8343 20.5006C22.6873 20.5206 22.5403 20.4616 22.4513 20.2756C21.6343 18.5496 20.5683 16.2136 18.3153 16.2046C15.1423 16.1916 14.0993 19.8446 14.6633 22.3506C15.5863 26.4486 19.0733 28.8246 21.3253 32.0696C24.5363 30.0686 27.2983 28.1016 29.1953 24.6796C30.2253 22.8226 31.7853 19.3056 30.6383 17.3066C28.2903 13.2136 24.0823 17.7846 23.2033 20.2836Z" fill="#EA4256"/>
<path id="Vector_2" d="M20.5151 2.00146C10.6911 3.85646 2.19009 11.0055 2.38109 22.9225C2.59009 36.0945 13.4601 41.0685 24.2001 40.6005C35.7201 40.0985 45.8571 30.8065 42.0081 17.5075C38.9691 7.00648 29.7801 2.96346 20.5151 2.00146ZM21.6491 33.4675C21.2461 33.5955 20.9471 33.3545 20.8401 33.0375C20.7761 33.0295 20.7131 33.0105 20.6521 32.9785C17.7531 31.4105 15.0731 27.7065 13.7431 24.7325C12.6771 22.3515 12.4161 19.4775 13.8341 17.1785C14.9221 15.4165 17.1111 14.2225 19.2051 14.6815C20.9271 15.0595 22.0151 16.3335 22.6531 17.8435C24.1301 14.0675 31.4921 12.0295 32.4991 17.8745C33.5721 24.0945 27.3101 31.6795 21.6491 33.4675Z" fill="#FF99CC"/>
<g id="Group_2">
<path id="Vector_3" d="M45.1792 19.8615C43.3872 6.91253 31.3002 -1.52149 19.7152 0.22951C8.95418 0.54251 -0.118823 11.1595 0.0011769 22.9215C0.151177 37.6415 11.9882 43.8225 24.2002 43.3575C36.3212 42.8915 47.1412 34.0515 45.1792 19.8615ZM24.1992 40.5995C13.4592 41.0675 2.59017 36.0935 2.38017 22.9215C2.18917 11.0045 10.6912 3.85654 20.5142 2.00054C29.7802 2.96254 38.9682 7.00552 42.0062 17.5065C45.8562 30.8055 35.7192 40.0975 24.1992 40.5995Z" fill="black"/>
<path id="Vector_4" d="M32.4991 17.8756C31.4921 12.0296 24.1301 14.0675 22.6531 17.8445C22.0151 16.3345 20.9271 15.0605 19.2051 14.6825C17.1111 14.2235 14.9221 15.4175 13.8341 17.1795C12.4171 19.4785 12.6771 22.3526 13.7431 24.7336C15.0731 27.7086 17.7531 31.4115 20.6521 32.9795C20.7131 33.0105 20.7761 33.0305 20.8401 33.0385C20.9471 33.3545 21.2461 33.5965 21.6491 33.4685C27.3101 31.6795 33.5721 24.0946 32.4991 17.8756ZM29.1951 24.6795C27.2981 28.1015 24.5361 30.0686 21.3251 32.0696C19.0731 28.8246 15.5861 26.4485 14.6631 22.3505C14.0991 19.8435 15.1421 16.1915 18.3151 16.2045C20.5671 16.2145 21.6331 18.5505 22.4511 20.2755C22.5401 20.4605 22.6881 20.5196 22.8341 20.5006C22.9811 20.5216 23.1411 20.4575 23.2031 20.2835C24.0821 17.7845 28.2891 13.2136 30.6381 17.3066C31.7851 19.3056 30.2251 22.8225 29.1951 24.6795Z" fill="black"/>
</g>
</g>
</svg>
