<svg width="72" height="71" viewBox="0 0 72 71" fill="none" xmlns="http://www.w3.org/2000/svg">
<g id="icon-park-outline:concept-sharing">
<g id="Group">
<path id="Vector" d="M42.443 52.9921H36.047L22.8653 45.784L6.76758 51.658L11.1644 60.2961L21.5223 56.0047C31.2137 61.7464 37.1118 64.6181 39.2179 64.6181C41.3241 64.6181 50.0313 60.7422 65.3396 52.9921" stroke="#F9DA55" stroke-width="2.02" stroke-linecap="round" stroke-linejoin="round"/>
<path id="Vector_2" d="M43.3578 39.8954V33.1087C44.9689 32.4446 47.0823 31.4738 48.2965 30.2691C50.14 28.4399 51.3954 26.1094 51.904 23.5723C52.4126 21.0352 52.1516 18.4054 51.1539 16.0155C50.1562 13.6256 48.4667 11.5829 46.2989 10.1457C44.1312 8.70859 41.5827 7.94151 38.9756 7.94151C36.3685 7.94151 33.82 8.70859 31.6523 10.1457C29.4846 11.5829 27.7951 13.6256 26.7974 16.0155C25.7997 18.4054 25.5386 21.0352 26.0472 23.5723C26.5558 26.1094 27.8112 28.4399 29.6547 30.2691C30.8689 31.4738 32.9706 32.4446 34.5817 33.1073C34.5905 33.5941 34.5905 35.8568 34.5817 39.894H43.3578V39.8954Z" stroke="#F9DA55" stroke-width="2.02" stroke-linejoin="round"/>
<path id="Vector_3" d="M18.4715 31.1934L19.9361 29.7401M59.4811 31.1934L58.0165 29.7401M22.8654 7.94139L21.4007 6.48814M55.0872 7.94139L56.5518 6.48814M60.9457 18.1141H59.4811M18.4715 18.1141H17.0068" stroke="#F9DA55" stroke-width="2.02" stroke-linecap="round"/>
</g>
</g>
</svg>
