<svg width="131" height="131" viewBox="0 0 131 131" fill="none" xmlns="http://www.w3.org/2000/svg">
<path d="M65.5862 130.334H65.2995C29.4564 130.334 0.294922 101.164 0.294922 65.3105V65.0237C0.294922 29.17 29.4564 0 65.2995 0H65.5862C101.429 0 130.591 29.17 130.591 65.0237V65.3105C130.591 101.164 101.429 130.334 65.5862 130.334ZM65.2995 4.41168C31.8865 4.41168 4.7053 31.6008 4.7053 65.0237V65.3105C4.7053 98.7334 31.8865 125.923 65.2995 125.923H65.5862C98.9992 125.923 126.18 98.7334 126.18 65.3105V65.0237C126.18 31.6008 98.9992 4.41168 65.5862 4.41168H65.2995Z" fill="#383D38"/>
<path d="M84.9215 27.8246H45.9691C35.2077 27.8246 26.4531 36.5818 26.4531 47.3463V82.9925C26.4531 93.757 35.2077 102.514 45.9691 102.514H84.9215C95.6829 102.514 104.437 93.757 104.437 82.9925V47.3463C104.437 36.5818 95.6829 27.8246 84.9215 27.8246ZM33.3377 47.3463C33.3377 40.3802 39.0051 34.7112 45.9691 34.7112H84.9215C91.8855 34.7112 97.5529 40.3802 97.5529 47.3463V82.9925C97.5529 89.9586 91.8855 95.6277 84.9215 95.6277H45.9691C39.0051 95.6277 33.3377 89.9586 33.3377 82.9925V47.3463Z" fill="#383D38"/>
<path d="M65.4442 83.3235C75.4513 83.3235 83.5973 75.1795 83.5973 65.165C83.5973 55.1505 75.4557 47.0066 65.4442 47.0066C55.4326 47.0066 47.291 55.1505 47.291 65.165C47.291 75.1795 55.4326 83.3235 65.4442 83.3235ZM65.4442 53.8976C71.6584 53.8976 76.7127 58.9534 76.7127 65.1694C76.7127 71.3855 71.6584 76.4413 65.4442 76.4413C59.2299 76.4413 54.1756 71.3855 54.1756 65.1694C54.1756 58.9534 59.2299 53.8976 65.4442 53.8976Z" fill="#383D38"/>
<path d="M85.2778 49.9403C87.9726 49.9403 90.1689 47.7478 90.1689 45.0479C90.1689 42.3479 87.977 40.1553 85.2778 40.1553C82.5787 40.1553 80.3867 42.3479 80.3867 45.0479C80.3867 47.7478 82.5787 49.9403 85.2778 49.9403Z" fill="#383D38"/>
</svg>
