<svg width="51" height="48" viewBox="0 0 51 48" fill="none" xmlns="http://www.w3.org/2000/svg">
<path d="M16.6571 14.4131C15.9821 13.8851 15.2581 13.4271 14.5701 12.9191C13.8051 15.3171 12.1501 17.4331 10.8261 19.5551C9.37013 21.8911 7.99313 24.3231 6.32613 26.5151C6.31513 26.5321 6.29913 26.5361 6.28613 26.5501C6.82413 26.8921 7.41612 27.1561 8.02812 27.2851C8.73712 27.4361 9.47513 27.3231 10.1841 27.4031C11.0201 25.0791 12.7901 23.0531 14.1491 20.9981C15.3881 19.1271 16.5061 17.1481 18.0761 15.5471C17.5631 15.2471 17.1391 14.7901 16.6571 14.4131Z" fill="white"/>
<path d="M22.6325 2.20911C11.7965 4.25511 2.41747 12.1411 2.62647 25.2881C2.85847 39.8201 14.8495 45.3081 26.6975 44.7911C39.4065 44.2371 50.5895 33.9851 46.3445 19.3141C42.9925 7.7301 32.8575 3.26811 22.6325 2.20911ZM11.1435 28.2001C11.0525 28.2761 10.9615 28.3101 10.8715 28.3271C9.16647 30.2291 5.77548 28.2861 4.78448 26.5601C4.61348 26.2591 4.81248 25.8931 5.08848 25.8251C5.09848 25.8001 5.09648 25.7751 5.10948 25.7501C6.35848 23.2941 7.94447 20.9941 9.41247 18.6651C10.8375 16.4061 12.0785 13.7951 14.1295 12.0481C14.2335 11.9601 14.3675 11.9711 14.4865 12.0221C14.5475 12.0011 14.6065 11.9731 14.6805 11.9891C15.6705 12.1871 16.5805 12.6431 17.4335 13.1761C18.1675 13.6351 19.0845 14.1661 19.3405 15.0331C19.4185 15.2971 19.2965 15.6051 19.0675 15.7411C18.4065 17.9221 17.1075 19.7991 15.8885 21.7171C14.4825 23.9311 13.1535 26.4951 11.1435 28.2001ZM36.1095 29.3501C33.7765 32.9351 31.3235 38.3091 26.2435 37.4571C23.5045 36.9981 20.6805 35.5391 18.2405 34.2691C16.3665 33.2931 14.4545 32.2361 13.3255 30.4401C12.8905 30.5721 12.4405 30.1201 12.6005 29.6141C13.4435 26.9581 15.2125 24.5051 16.6125 22.0901C17.8715 19.9251 19.1235 17.7691 20.6565 15.7871C20.8175 15.5811 21.0475 15.5861 21.2145 15.7001C23.5795 13.8661 27.0635 12.9731 29.7635 11.8871C31.2995 11.2691 34.3015 9.3891 35.4445 11.6201C36.4815 13.6441 34.2615 16.4911 32.9205 17.8241C32.1935 18.5481 31.2875 19.2561 30.2995 19.7871C33.3615 20.0941 36.6475 21.3961 38.4825 23.5281C40.5515 25.9341 38.8515 28.7901 36.1095 29.3501Z" fill="#5199CE"/>
<path d="M33.7887 22.4731C31.6737 21.5391 29.4357 21.2141 27.1917 20.7641C27.0857 20.7431 27.0077 20.6931 26.9477 20.6311C26.8817 20.6271 26.8147 20.6341 26.7497 20.6281C26.3137 20.5791 26.1277 19.9051 26.5297 19.6771C28.1327 18.7681 29.8617 18.3321 31.2897 17.0741C31.9237 16.5161 32.5047 15.8721 32.9737 15.1671C33.3157 14.6481 33.6037 14.1031 33.8337 13.5281C33.6497 12.3391 33.1597 12.0691 32.3707 12.7161C31.4167 12.8011 30.0947 13.6721 29.1937 14.0371C28.3987 14.3591 27.6017 14.6831 26.8047 15.0051C25.0087 15.7281 23.1067 16.7321 21.1487 16.8321C20.1297 19.2601 18.8307 21.5491 17.5427 23.8451C16.4227 25.8431 15.4217 28.0451 13.9717 29.8291C18.0667 31.4951 21.6237 34.7181 26.1017 35.6061C31.1677 36.6121 31.8567 30.8801 35.1587 28.6591C35.1757 28.6381 35.1777 28.6131 35.1987 28.5941C36.5277 27.4731 38.2807 25.6721 36.4877 23.9821C35.8347 23.3671 34.6237 22.8411 33.7887 22.4731Z" fill="white"/>
<path d="M49.8433 21.9121C47.8663 7.62507 34.5303 -1.67795 21.7493 0.253055C9.87933 0.598055 -0.13267 12.3131 0.00132972 25.2881C0.16733 41.5261 13.2273 48.3481 26.6973 47.8321C40.0713 47.3211 52.0073 37.5651 49.8433 21.9121ZM26.6973 44.7911C14.8493 45.3071 2.85833 39.8201 2.62633 25.2881C2.41733 12.1411 11.7953 4.25506 22.6323 2.20906C32.8563 3.26906 42.9913 7.73006 46.3443 19.3141C50.5903 33.9851 39.4063 44.2381 26.6973 44.7911Z" fill="black"/>
<path d="M19.0667 15.7421C19.2957 15.6061 19.4177 15.298 19.3397 15.034C19.0837 14.167 18.1677 13.636 17.4327 13.177C16.5807 12.644 15.6706 12.1881 14.6796 11.9901C14.6056 11.9741 14.5466 12.002 14.4856 12.023C14.3656 11.972 14.2317 11.961 14.1287 12.049C12.0777 13.796 10.8367 16.406 9.41166 18.666C7.94466 20.995 6.35765 23.295 5.10865 25.751C5.09565 25.776 5.09765 25.8001 5.08765 25.8261C4.81165 25.8941 4.61165 26.2611 4.78365 26.5611C5.77465 28.2871 9.16566 30.2301 10.8707 28.3281C10.9617 28.3111 11.0527 28.2771 11.1427 28.2011C13.1527 26.4961 14.4806 23.931 15.8866 21.719C17.1066 19.8 18.4057 17.9231 19.0667 15.7421ZM14.1516 20.998C12.7926 23.053 11.0227 25.079 10.1867 27.403C9.47765 27.323 8.73965 27.4361 8.03065 27.2851C7.41865 27.1561 6.82666 26.891 6.28866 26.55C6.30166 26.5371 6.31765 26.532 6.32865 26.515C7.99565 24.323 9.37265 21.891 10.8287 19.555C12.1527 17.432 13.8077 15.317 14.5727 12.919C15.2607 13.427 15.9837 13.885 16.6597 14.413C17.1417 14.79 17.5657 15.247 18.0797 15.547C16.5077 17.149 15.3906 19.127 14.1516 20.998Z" fill="black"/>
<path d="M38.4834 23.529C36.6484 21.397 33.3624 20.094 30.3004 19.788C31.2874 19.256 32.1944 18.548 32.9214 17.825C34.2624 16.492 36.4824 13.646 35.4454 11.621C34.3014 9.39001 31.2994 11.27 29.7644 11.888C27.0644 12.974 23.5804 13.867 21.2154 15.701C21.0484 15.588 20.8184 15.582 20.6574 15.788C19.1244 17.77 17.8724 19.926 16.6134 22.091C15.2134 24.506 13.4444 26.959 12.6014 29.615C12.4414 30.12 12.8914 30.573 13.3264 30.441C14.4554 32.237 16.3684 33.294 18.2414 34.27C20.6814 35.54 23.5054 36.999 26.2444 37.458C31.3244 38.31 33.7774 32.936 36.1104 29.351C38.8514 28.79 40.5514 25.934 38.4834 23.529ZM26.1004 35.608C21.6234 34.72 18.0654 31.497 13.9704 29.831C15.4204 28.047 16.4224 25.844 17.5414 23.847C18.8294 21.551 20.1284 19.262 21.1474 16.834C23.1054 16.734 25.0074 15.729 26.8034 15.007C27.6004 14.685 28.3974 14.362 29.1924 14.039C30.0924 13.674 31.4154 12.803 32.3694 12.718C33.1584 12.071 33.6484 12.341 33.8324 13.53C33.6024 14.105 33.3144 14.65 32.9724 15.169C32.5034 15.874 31.9224 16.519 31.2884 17.076C29.8604 18.333 28.1314 18.769 26.5284 19.679C26.1264 19.907 26.3124 20.581 26.7484 20.63C26.8134 20.636 26.8794 20.629 26.9464 20.633C27.0064 20.695 27.0844 20.746 27.1904 20.766C29.4354 21.216 31.6724 21.541 33.7874 22.475C34.6224 22.843 35.8324 23.368 36.4854 23.985C38.2774 25.675 36.5254 27.476 35.1964 28.597C35.1754 28.616 35.1734 28.641 35.1564 28.662C31.8554 30.882 31.1664 36.614 26.1004 35.608Z" fill="black"/>
</svg>
