<svg width="215" height="207" viewBox="0 0 215 207" fill="none" xmlns="http://www.w3.org/2000/svg">
<path d="M130.799 128.16C111.352 132.807 99.3533 152.34 104 171.787C108.647 191.235 128.18 203.233 147.627 198.586C167.075 193.939 179.073 174.407 174.426 154.959C169.779 135.512 150.247 123.513 130.799 128.16Z" fill="#B0B0B0"/>
<path d="M25.9155 50.0368C11.7768 64.1755 11.7768 87.0989 25.9155 101.238C40.0542 115.376 62.9776 115.376 77.1164 101.238C91.2551 87.0989 91.2551 64.1755 77.1164 50.0368C62.9776 35.898 40.0542 35.8981 25.9155 50.0368Z" fill="#B0B0B0"/>
<path d="M214.854 151.272L214.854 109.775C211.079 111.108 207.023 111.84 202.792 111.84C182.798 111.84 166.589 95.6313 166.589 75.6368C166.589 55.6423 182.798 39.432 202.792 39.432C207.023 39.432 211.08 40.1642 214.854 41.4975L214.854 -0.000244141L63.5822 -0.000230916L63.5822 151.271L214.854 151.271L214.854 151.272Z" fill="#B0B0B0"/>
</svg>
