<svg width="208" height="278" viewBox="0 0 208 278" fill="none" xmlns="http://www.w3.org/2000/svg">
<path d="M157.33 201.265C143.204 187.139 120.3 187.139 106.174 201.265C92.0472 215.392 92.0472 238.295 106.174 252.422C120.3 266.548 143.204 266.548 157.33 252.422C171.457 238.295 171.457 215.392 157.33 201.265Z" fill="#BFBCB5"/>
<path d="M79.2763 130.804C74.6334 111.374 55.1179 99.3857 35.6873 104.029C16.2566 108.672 4.26873 128.187 8.91164 147.618C13.5545 167.048 33.07 179.036 52.5007 174.393C71.9314 169.75 83.9192 150.235 79.2763 130.804Z" fill="#BFBCB5"/>
<path d="M157.338 25.9964C143.212 11.8699 120.308 11.8699 106.181 25.9964C92.055 40.1229 92.055 63.0264 106.181 77.1529C120.308 91.2794 143.212 91.2794 157.338 77.1529C171.465 63.0264 171.465 40.1228 157.338 25.9964Z" fill="#BFBCB5"/>
<path d="M56.1738 214.776L207.314 214.776L207.314 173.31C203.54 174.645 199.482 175.379 195.25 175.379C175.272 175.379 159.076 159.184 159.076 139.206C159.076 119.228 175.271 103.033 195.25 103.033C199.48 103.033 203.54 103.766 207.314 105.103L207.314 63.6367L56.1738 63.6367L56.1738 214.776Z" fill="#BFBCB5"/>
</svg>
