<svg width="606" height="618" viewBox="0 0 606 618" fill="none" xmlns="http://www.w3.org/2000/svg">
<path d="M387.794 583.034C289.408 613.47 178.92 602.505 88.438 553.322C65.3163 540.754 41.3729 522.574 38.1919 496.451C31.7639 443.672 110.821 415.176 114.937 362.167C116.957 336.14 99.5929 312.501 79.9554 295.302C60.3179 278.103 37.314 264.292 21.3733 243.62C-5.87325 208.288 -6.7784 155.734 16.9926 117.975C40.7637 80.2159 86.6937 58.4808 131.227 61.2293C175.761 63.9778 217.61 89.9657 242.314 127.122C257.075 149.322 268.387 177.227 293.3 186.717C321.638 197.511 352.685 178.233 372.782 155.526C392.881 132.82 408.901 105.039 435.477 90.4341C471.707 70.5236 520.851 82.7992 547.355 114.527C573.859 146.255 578.271 193.226 562.923 231.612C547.575 269.998 514.564 299.769 476.736 316.445C445.956 330.014 405.795 342.414 401.267 375.746C396.995 407.206 428.89 430.194 444.59 457.79C461.283 487.133 458.59 526.363 438.041 553.148C417.493 579.934 380.3 592.698 347.634 584.175" fill="#F2F2F2"/>
<path d="M34.6003 397.541C34.5859 397.547 34.5112 397.373 34.379 397.03C34.2511 396.685 34.06 396.172 33.81 395.501C33.3201 394.155 32.5945 392.172 31.7828 389.59C30.1133 384.442 27.9265 376.938 25.9467 367.589C23.9482 358.248 22.1939 347.051 21.2729 334.675C20.8103 328.488 20.5258 322.01 20.5416 315.335C20.5661 308.644 20.7845 301.841 21.1077 294.887C21.4181 288.699 21.852 282.505 22.4798 276.32C23.089 270.117 24.0286 263.977 24.9309 257.87C27.0142 244.197 29.5989 231.056 34.8589 220.068C35.527 218.728 36.1577 217.341 37.0097 216.018C37.8301 214.713 38.7338 213.516 39.6749 212.399C41.5613 210.166 43.5828 208.235 45.6086 206.488C59.1083 194.932 83.8075 184.014 82.8205 186.947C82.8665 187.139 82.6007 187.467 82.5418 187.464C82.184 187.602 81.1768 187.886 81.0662 187.595C80.8952 187.267 81.8119 186.738 81.9024 186.554C81.9125 186.554 81.9053 186.529 81.9283 186.547C82.082 186.715 81.9599 186.78 82.0518 186.879C82.0949 186.965 82.2156 187 82.2716 186.988C82.0274 187.039 82.3981 187.314 82.3564 187.583L82.3464 187.597C76.2603 191.202 59.5968 199.166 48.0784 209.315C44.2911 212.713 40.5886 216.538 38.4076 221.739C33.5083 232.134 30.9897 244.895 28.994 258.485C28.0918 264.587 27.1636 270.655 26.5688 276.739C25.951 282.834 25.52 288.957 25.2125 295.097C24.8605 301.98 24.5617 308.806 24.4223 315.369C24.2916 321.949 24.4223 328.346 24.7025 334.465C25.2614 346.706 26.5458 357.837 28.0745 367.183C29.5846 376.536 31.3 384.112 32.5888 389.35C33.2109 391.977 33.7669 394.008 34.1204 395.398C34.2899 396.094 34.4207 396.628 34.5083 396.987C34.5902 397.347 34.6218 397.537 34.6031 397.544L34.6003 397.541Z" fill="black"/>
<path d="M229.524 273.479C229.53 273.494 229.378 273.565 229.078 273.693C228.776 273.817 228.328 273.999 227.74 274.238C226.558 274.696 224.818 275.37 222.588 276.234C218.105 277.906 211.65 280.315 203.758 283.261C187.943 289.068 166.312 296.815 143.081 304.69C130.916 308.776 111.276 317.681 102.715 301.956C100.052 297.206 99.1264 294.091 91.5289 249.901C88.8881 234.538 87.6022 225.154 88.5476 225.026C89.5777 224.781 91.8061 233.986 94.9311 249.259C103.284 290.092 102.899 301.109 111.735 305.391C120.932 310.185 125.333 305.003 203.058 281.213C211.111 278.748 217.713 276.777 222.309 275.44C224.612 274.787 226.408 274.277 227.629 273.93C228.855 273.597 229.51 273.44 229.524 273.478V273.479Z" fill="black"/>
<path d="M186.386 322.803C186.607 322.738 189.309 326.04 190.608 330.354C191.21 333.014 193.941 341.141 191.131 341.506C189.088 341.794 188.693 338.604 187.406 334.297L186.644 331.422C185.611 327.086 186.074 322.893 186.386 322.803Z" fill="black"/>
<path d="M177.071 291.112C177.044 291.121 176.914 290.865 176.697 290.372C176.49 289.874 176.189 289.143 175.799 288.206C175.045 286.322 173.998 283.594 172.771 280.241C171.544 276.886 170.134 272.904 168.66 268.515C167.198 264.122 165.897 259.362 164.236 254.504C162.837 250.161 161.242 245.885 159.494 241.68C150.623 219.914 141.34 210.653 143.059 209.307C143.829 208.641 146.846 211.42 150.742 216.865C154.645 222.296 159.213 230.463 163.284 240.101C165.078 244.415 166.71 248.794 168.141 253.234C169.772 258.204 170.868 263.193 171.982 267.649C173.108 272.103 174.075 276.186 174.854 279.653C175.633 283.12 176.226 285.973 176.605 287.964C176.985 289.957 177.148 291.088 177.072 291.112H177.071Z" fill="black"/>
<path d="M135.722 187.205C135.607 187.498 134.852 189.827 133.255 192.258C127.696 201.793 113.695 209.452 100.707 206.705C92.9064 205.169 80.9656 198.933 79.0547 191.398C78.457 189.247 78.924 186.679 80.355 185.128C83.9871 181.132 91.0387 183.128 90.7671 184.353C90.543 185.592 84.9095 184.74 83.0158 187.342C78.3105 193.979 106.05 214.416 128.999 194.411C134.496 189.586 136.674 184.521 135.723 187.204L135.722 187.205Z" fill="black"/>
<path d="M300.865 165.015C300.865 165.015 300.164 165.365 298.697 165.518C297.257 165.677 294.944 165.487 292.496 164.048C290.057 162.622 287.549 160.322 284.951 157.394C283.668 155.914 282.394 154.243 281.194 152.373C279.963 150.515 279.035 148.311 277.381 147.245C276.523 146.735 275.73 146.573 274.963 146.946C274.17 147.315 273.398 148.203 272.756 149.203C271.423 151.256 270.549 153.69 269.312 156.391C259.982 173.868 254.317 185.346 239.554 206.259C229.304 220.473 218.786 235.706 200.669 233.029C178.364 229.729 163.448 198.422 142.439 191.13C137.341 189.345 132.294 189.381 128.327 188.25C120.906 186.168 137.839 186.685 143.335 188.273C165.468 194.617 180.678 226.067 201.269 229.012C217.181 231.296 226.796 216.946 236.204 203.883C250.708 183.418 255.419 174.773 266.786 155.094C267.978 152.756 269.058 150.077 270.683 147.792C271.509 146.659 272.476 145.495 274.005 144.815C274.782 144.511 275.673 144.373 276.489 144.541C277.329 144.685 277.972 145.075 278.598 145.456C279.783 146.31 280.542 147.436 281.141 148.47C281.688 149.481 282.223 150.465 282.743 151.423C283.795 153.275 284.93 154.95 286.083 156.45C288.418 159.421 290.741 161.835 292.925 163.328C295.123 164.844 297.256 165.201 298.672 165.193C300.102 165.189 300.85 164.957 300.865 165.015Z" fill="black"/>
<path d="M204.847 450.32C214.035 446.395 224.37 446.357 233.668 448.107C245.592 450.419 253.442 454.859 261.852 462.621C276.692 476.284 288.199 497.447 304.318 522C318.307 544.216 330.044 564.385 337.851 579.21C345.674 594.03 349.512 603.489 348.661 603.827C346.916 604.759 333.511 575.496 300.842 524.185C281.788 494.835 272.063 477.403 259.487 465.109C252.455 458.297 245.704 453.313 233.216 450.224C221.666 447.428 211.354 448.303 206.389 450.015C205.736 450.204 205.238 450.347 204.902 450.445C204.19 450.636 204.229 450.597 204.847 450.321V450.32Z" fill="black"/>
<path d="M381.827 593.29L381.751 593.409C373.259 539.892 356.204 490.167 352.797 477.774C344.198 445.049 344.484 412.947 318.355 388.822C305.6 377.037 289.122 371.296 274.659 365.664C269.359 363.648 266.502 362.388 266.68 361.94C266.808 361.433 269.881 361.982 275.378 363.479C348.869 384.174 343.971 428.11 356.768 476.725C360.069 488.944 377.46 541.134 382.002 593.495C381.683 593.503 378.4 594.741 381.828 593.291L381.827 593.29Z" fill="black"/>
<path d="M295.678 224.322C303.503 225.75 314.135 227.875 325.386 230.553L340.4 234.216C362.779 239.81 380.151 244.067 379.655 245.907C379.2 247.973 361.868 243.546 339.427 238.206L324.413 234.543C313.192 231.739 302.774 228.75 295.171 226.426C278.081 221.2 279.406 221.354 295.678 224.322Z" fill="black"/>
<path d="M378.876 245.963C378.89 245.965 378.857 246.172 378.78 246.575C378.696 246.974 378.574 247.569 378.413 248.348C378.067 249.899 377.559 252.185 376.905 255.115C372.777 273.19 366.406 297.196 361.612 315.181C359.855 321.796 358.02 328.701 356.132 335.811C350.76 356.334 351.105 355.288 350.877 355.837C349.039 360.653 343.505 358.873 342.46 359.097C314.642 357.805 291.052 353.663 264.018 348.903C262.39 348.611 260.782 348.324 259.199 348.041C256.721 347.581 254.856 345.221 254.936 342.764C254.943 342.153 255.104 341.514 255.172 341.226L255.43 340.11C255.601 339.369 255.772 338.633 255.94 337.905C256.279 336.446 256.611 335.012 256.939 333.604C258.604 326.536 267.542 287.281 269.16 287.768C271.003 288.081 261.999 327.961 260.595 334.445C260.285 335.857 259.969 337.295 259.647 338.757C259.486 339.488 259.323 340.225 259.159 340.968C259.018 341.637 258.759 342.685 258.784 342.817C258.772 343.465 259.281 344.117 259.966 344.232C261.518 344.498 263.093 344.768 264.687 345.042C277.594 347.231 291.848 349.739 307.005 351.719C321.59 353.644 332.238 354.462 345.224 355.125C345.799 355.144 346.447 355.269 346.941 354.562C347.165 354.179 346.868 355.101 349.411 345.593C350.415 341.949 351.41 338.346 352.388 334.794C354.382 327.702 356.369 320.829 358.303 314.259C370.537 273.396 367.375 283.945 376.086 254.915C376.954 252.041 377.632 249.8 378.092 248.276C378.334 247.517 378.52 246.937 378.645 246.546C378.775 246.157 378.853 245.958 378.873 245.963H378.876Z" fill="black"/>
<path d="M283.899 223.944C284.129 223.993 283.187 235.674 280.351 248.651L278.371 257.3C275.288 270.182 272.979 280.187 271.13 279.738C269.062 279.292 271.542 269.324 274.368 256.385L276.348 247.735C279.438 234.819 283.585 223.878 283.899 223.946V223.944Z" fill="black"/>
<path d="M256.801 346.695C256.801 346.709 256.593 346.722 256.185 346.731C255.777 346.735 255.17 346.742 254.377 346.751C252.79 346.756 250.453 346.731 247.458 346.637C237.675 346.35 176.842 341.532 175.255 341.277C172.975 340.913 171.057 340.613 170.169 342.501C169.395 344.166 170.674 346.347 172.077 347.478C175.293 350.274 186.343 349.539 192.699 350.442C328.514 367.802 312.661 366.675 317.751 366.65C324.282 366.701 328.31 363.417 329.653 359.802C330.104 358.582 330.186 357.839 330.452 357.841C331.976 357.571 331.312 368.986 317.839 369.644C313.705 369.849 309.343 369.099 304.511 368.598C264.95 364.012 192.808 354.345 187.231 354.082C181.675 353.781 173.564 353.838 169.559 350.529C164.827 346.465 165.082 340.403 169.355 338.04C172.099 336.545 174.984 337.672 178.288 337.963C222.073 342.231 227.224 343.871 247.497 345.798C250.476 346.07 252.801 346.281 254.382 346.424C255.172 346.499 255.777 346.557 256.185 346.594C256.591 346.64 256.801 346.673 256.802 346.693L256.801 346.695Z" fill="black"/>
<path d="M91.2266 366.352C63.5892 380.994 46.2936 401.008 44.775 399.475C42.3756 397.35 91.8343 343.037 167.564 340.946C175.427 340.863 132.273 343.242 91.2266 366.352Z" fill="black"/>
<path d="M171.508 270.127C171.513 270.113 171.659 270.14 171.938 270.208C172.215 270.28 172.628 270.386 173.168 270.524C173.704 270.67 174.366 270.85 175.146 271.063C175.935 271.241 176.845 271.448 177.865 271.679C179.908 272.123 182.418 272.577 185.333 272.933C188.249 273.269 191.573 273.535 195.225 273.486C202.516 273.498 211.156 272.35 220.042 269.349C224.49 267.862 228.951 265.837 233.273 263.277C235.529 262.166 237.537 260.566 239.679 259.138C241.869 257.773 243.755 255.934 245.813 254.3C252.922 248.171 259.058 240.912 264.486 233.16C266.005 230.986 267.514 228.849 268.841 226.637C270.206 224.45 271.588 222.325 272.791 220.141C285.278 198.936 298.435 165.346 300.52 166.414C301.49 166.809 298.593 174.583 293.289 187.238C286.364 203.301 280.894 214.831 272.276 228.803C270.932 231.069 269.399 233.272 267.851 235.513C262.277 243.474 255.931 250.998 248.488 257.416C246.32 259.122 244.326 261.01 241.998 262.426C239.723 263.9 237.582 265.528 235.174 266.658C230.557 269.252 225.795 271.235 221.086 272.62C211.671 275.417 202.657 276.13 195.176 275.652C187.668 275.264 181.688 273.744 177.659 272.495C176.656 272.162 175.764 271.863 174.99 271.606C174.233 271.301 173.589 271.044 173.069 270.836C172.033 270.41 171.496 270.168 171.507 270.129L171.508 270.127Z" fill="black"/>
<path d="M239.855 278.312C243.244 279.042 248.346 278.956 251.186 279.85C255.807 281.307 270.89 288.959 273.179 285.999C273.736 285.272 273.269 284.217 272.725 283.479C271.673 282.012 269.91 280.643 268.105 279.456C266.065 278.104 263.912 276.95 261.8 275.937C252.678 271.627 247.05 271.373 237.291 272.301C235.523 272.492 234.485 272.509 234.332 272.044C234.149 271.564 234.964 270.833 236.717 270.074C238.468 269.34 241.174 268.601 244.626 268.374C251.946 267.874 260.568 269.715 270.358 276.022C272.38 277.384 274.4 278.825 276.079 281.108C278.917 285.064 277.081 288.983 274.477 290.089C268.048 292.96 255.446 284.505 250.324 282.202C247.402 280.814 241.567 280.643 237.495 277.988C235.916 276.838 237.405 277.795 239.857 278.312H239.855Z" fill="black"/>
<path d="M242.051 287.087C242.094 287.046 242.606 287.384 243.467 288.036C254.63 296.5 258.522 303.877 259.879 299.941C260.473 298.128 259.65 295.736 258.91 293.98C256.547 288.325 252.499 285.48 253.395 284.233C255.168 281.501 266.103 292.759 263.811 301.124C263.164 303.273 261.663 304.596 259.811 304.981C255.42 305.931 252.178 301.063 249.316 297.556C247.806 295.653 246.475 293.872 245.379 292.339C243.188 289.273 241.935 287.196 242.051 287.085V287.087Z" fill="black"/>
<path d="M244.087 308.085C244.127 308.029 244.449 308.132 244.938 308.138C245.913 308.151 246.913 307.618 247.54 306.888C248.354 305.943 248.543 304.428 248.573 303.178C248.929 297.313 244.522 292.895 246.145 291.39C248.997 288.656 255.936 302.16 250.928 307.886C249.045 310.088 245.975 310.162 244.607 308.911C244.136 308.48 244.046 308.136 244.087 308.088V308.085Z" fill="black"/>
<path d="M48.0255 261.356C48.0399 261.352 48.1046 261.573 48.2195 262.005C48.3287 262.439 48.491 263.086 48.7037 263.931C49.1074 265.626 49.7022 268.122 50.4637 271.321C51.9967 277.715 54.0513 286.975 57.3745 298.017C59.0526 303.53 61.087 309.478 63.7307 315.61C64.3786 317.149 65.0755 318.694 65.8326 320.235C66.5453 321.8 67.37 323.334 68.1889 324.896C68.9805 326.472 69.9389 327.981 70.8196 329.557C71.7549 331.136 72.7017 332.737 73.66 334.353C75.5637 337.548 77.545 340.734 80.0579 343.383C82.5363 346.037 85.69 348.052 89.2244 348.983C99.2112 351.567 113.658 347.929 123.425 344.654C159.289 332.59 228.798 302.97 228.981 302.895L229.77 303.729C230.533 304.535 230.914 305.105 231.408 305.752C238.277 315.085 237.323 312.994 237.941 313.701C237.953 313.704 237.932 313.682 237.922 313.687C237.922 313.687 237.873 313.697 237.904 313.71C238.884 313.81 239.32 313.872 240.191 313.599C241.684 313.126 242.227 311.144 242.06 309.274C241.928 307.41 241.276 305.611 240.625 304.102C238.036 298.351 234.142 296.066 234.566 295.51C234.695 295.272 235.682 295.546 237.27 296.641C246.044 302.809 248.777 317.768 237.721 316.957C237.542 317.02 236.315 316.641 236.111 316.411C233.205 314.595 228.647 307.691 227.285 306.319L229.293 306.671C193.205 323.073 135.807 344.817 124.728 348.547C113.974 352.151 99.1724 355.723 88.1813 352.717C83.907 351.529 80.1585 348.996 77.3697 345.893C74.5551 342.801 72.548 339.356 70.6888 336.073C69.7736 334.436 68.8685 332.818 67.9748 331.219C67.107 329.571 66.1631 327.99 65.393 326.347C64.5956 324.718 63.7968 323.119 63.1129 321.495C62.3844 319.892 61.7192 318.291 61.1086 316.698C58.6086 310.351 56.7667 304.247 55.2941 298.617C52.3861 287.341 50.7956 277.983 49.6419 271.504C49.0974 268.258 48.6735 265.725 48.3847 264.004C48.254 263.14 48.1548 262.481 48.0873 262.035C48.027 261.59 48.0054 261.357 48.0241 261.353L48.0255 261.356Z" fill="black"/>
<path d="M347.642 607.019C347.687 606.834 346.263 605.666 349.662 602.583C357.155 595.579 372.423 593.175 381.561 592.149C389.065 591.421 397.473 591.935 405.726 594.142C409.285 595.183 412.808 596.61 413.658 600.235C414.479 603.66 412.221 607.017 409.638 609.386C404.951 613.766 399.105 615.993 392.811 617.094C382.272 618.857 372.974 617.105 362.592 614.445C359.253 613.539 349.915 612.666 347.74 608.406C347.313 607.6 347.423 607.07 347.641 607.021C348.148 606.896 348.832 607.95 351.466 608.867C355.259 610.324 359.043 610.126 363.392 611.077C373.36 613.156 382.063 614.893 392.118 613.136C404.403 610.904 412.252 603.051 408.858 599.948C407.956 599.145 406.312 598.554 404.666 598.11C396.868 595.964 389.012 595.225 381.781 595.576C372.692 596.162 358.122 597.458 350.197 603.231C348.9 604.153 347.98 604.988 347.746 605.77C347.494 606.54 347.703 607.015 347.641 607.021L347.642 607.019Z" fill="black"/>
<path d="M228.836 539.099C228.836 539.099 229.119 538.646 229.968 538.117C236.258 534.742 241.574 542.936 246.693 546.427C260.029 556.258 271.081 569.772 276.02 586.1C276.303 587.098 276.592 588.281 276.694 589.52C276.793 590.758 276.726 592.205 276.059 593.62C275.375 594.878 274.647 595.906 273.49 596.771C272.384 597.617 271.052 598.156 269.749 598.386C267.126 598.784 264.755 598.257 262.611 597.551C260.45 596.837 258.482 595.853 256.583 594.797C241.208 586.023 230.957 572.513 226.94 557.865C226.122 554.914 225.648 552.186 225.415 549.784C225.007 546.59 225.234 541.972 227.488 539.736C228.178 539.055 228.698 538.926 228.836 539.096C229.655 539.956 225.425 541.889 230.258 556.878C234.763 570.976 244.416 583.271 258.594 591.215C260.33 592.182 262.113 593.063 263.913 593.653C265.702 594.261 267.535 594.579 269.059 594.336C270.533 594.086 271.667 593.178 272.35 591.86C272.847 590.885 272.621 589.057 272.054 587.151C267.48 571.706 257.541 558.546 245.352 548.12C240.014 543.863 236.388 536.202 230.123 538.4C229.259 538.771 228.872 539.134 228.838 539.094L228.836 539.099Z" fill="black"/>
<path d="M132.776 191.777C129.163 192.386 126.09 190.495 124.412 188.056C121.963 184.494 119.771 176.076 122.558 175.764C125.193 175.441 124.729 181.297 127.812 185.754C128.886 187.501 130.085 188.901 131.317 189.862C133.518 191.531 134.304 191.439 132.778 191.778L132.776 191.777Z" fill="black"/>
<path d="M65.6277 133.511C65.6421 133.508 65.7053 133.695 65.8145 134.061C65.9194 134.426 66.0731 134.969 66.2771 135.68C66.5372 136.37 66.859 137.223 67.2383 138.229C67.7067 139.199 68.1665 140.347 68.8619 141.555C71.4523 146.468 76.2209 153.009 83.1001 159.96C106.723 183.493 131.02 176.131 140.027 151.176C143.365 142.1 145.898 126.603 145.411 114.138C143.955 72.4289 109.735 54.9637 86.4563 70.1674C82.442 72.9087 80.738 75.1185 80.3056 74.7507C79.1648 74.1472 87.5382 61.2294 106.068 61.3774C126.338 61.0254 148.183 80.4373 149.514 113.981C150.017 126.898 147.441 142.893 143.879 152.598C133.827 180.1 105.64 187.842 81.5398 161.46C74.8603 154.051 70.4064 147.124 68.1147 141.94C67.4969 140.667 67.109 139.459 66.7168 138.443C66.3978 137.396 66.1507 136.502 65.9654 135.778C65.8418 135.04 65.747 134.475 65.6838 134.094C65.6277 133.713 65.6076 133.518 65.6277 133.514V133.511Z" fill="black"/>
<path d="M121.226 138.323C121.333 138.139 124.425 138.913 127.586 138.511C128.277 138.416 128.869 138.269 129.067 137.985C130.07 137.185 130.55 136.153 130.5 134.876C130.504 132.676 127.131 124.031 126.454 121.119C125.865 118.646 125.911 117.051 126.815 116.784C127.832 116.465 128.701 117.763 129.721 119.974C131.234 123.327 134.481 131.17 134.606 134.823C134.653 137.416 133.187 139.794 130.81 140.943C129.116 141.83 126.983 141.383 125.177 140.739C122.484 139.759 121.132 138.459 121.228 138.324L121.226 138.323Z" fill="black"/>
<path d="M112.094 101.359C111.364 103.523 110.387 103.161 107.357 103.417C101.597 103.907 100.29 105.086 99.5312 104.401C98.9982 103.937 99.5686 102.26 101.16 100.793C104.531 97.536 110.193 97.5288 111.95 99.3707C112.542 100.046 112.325 100.67 112.094 101.358V101.359Z" fill="black"/>
<path d="M139.975 100.201C138.76 102.221 137.851 101.504 134.8 101.339C129.15 101.036 127.556 102.628 126.698 101.845C126.167 101.386 126.828 99.6092 128.661 98.181C132.481 95.0388 138.593 95.8003 140.208 98.2055C140.7 99.0187 140.349 99.579 139.975 100.201Z" fill="black"/>
<path d="M107.115 113.777L108.86 114.56C110.269 115.194 110.318 117.237 108.903 117.857C107.995 118.255 106.936 118.359 105.858 118.06C101.552 116.87 101.59 110.325 106.255 109.406C108.143 109.034 109.138 110.955 108.225 112.23L107.115 113.779V113.777Z" fill="black"/>
<path d="M134.952 111.596L136.786 112.419C138.267 113.085 138.319 115.232 136.832 115.885C135.878 116.303 134.764 116.411 133.631 116.097C129.103 114.846 129.142 107.965 134.047 107C136.031 106.609 137.079 108.628 136.118 109.967L134.951 111.595L134.952 111.596Z" fill="black"/>
<path d="M110.338 149.666C110.444 149.601 111.278 150.167 112.378 151.031C113.485 151.877 114.865 153.002 116.114 153.646C116.658 153.967 117.204 154.187 117.805 154.232C118.127 154.319 118.48 154.275 118.811 154.292C119.153 154.261 119.495 154.206 119.824 154.163C120.158 154.072 120.48 153.998 120.792 153.942C121.101 153.841 121.397 153.756 121.68 153.697C122.247 153.597 122.733 153.459 123.163 153.541C123.588 153.604 123.947 153.808 124.206 154.207C124.497 154.648 124.538 155.071 124.361 155.503C124.171 155.921 123.823 156.404 123.21 156.802C122.91 157.008 122.566 157.216 122.187 157.423C121.778 157.598 121.329 157.772 120.851 157.944C120.348 158.078 119.802 158.206 119.219 158.291C118.615 158.328 117.993 158.404 117.324 158.309C116.138 158.202 114.975 157.755 113.993 157.163C111.772 155.71 110.966 153.613 110.555 152.199C110.173 150.738 110.205 149.743 110.335 149.664L110.338 149.666Z" fill="black"/>
<path d="M159.577 67.1875C153.833 56.9492 144.175 48.856 132.905 45.4768C124.146 42.8504 114.459 43.076 105.8 45.9911C102.086 47.2411 98.4579 48.8316 95.1822 51.0111C94.2123 51.6562 86.941 58.7049 86.7743 58.6546C77.6351 55.9047 67.5649 60.5727 61.2246 67.7076C55.4675 74.1859 51.1601 83.1556 48.8053 91.4743C45.1258 104.473 49.9949 142.242 75.5173 152.434C72.5289 149.239 70.618 142.331 69.8551 138.083C69.3479 135.256 68.7977 131.813 66.1196 130.777C64.8797 130.298 63.4903 130.508 62.1757 130.32C59.716 129.968 57.6341 128.214 56.2951 126.12C53.8598 122.314 52.6414 117.297 54.7922 113.089C59.6154 103.649 68.848 110.448 71.9039 117.06C74.8766 123.464 75.4383 130.596 77.8923 137.166C78.3291 138.351 79.5144 139.785 80.5948 139.098C81.3434 138.662 81.3017 137.601 81.1983 136.771C79.7989 126.277 78.5661 118.038 80.5963 107.621C81.4138 103.425 81.5115 99.0906 80.8836 94.8622C88.0372 91.0864 95.9034 87.1914 103.853 88.6885C106.872 89.2574 109.731 90.5922 112.787 90.8882C116.537 91.2517 120.232 90.0304 123.873 89.0635C138.766 85.1067 139.062 93.0677 141.542 98.3075C143.848 103.181 146.318 106.519 146.454 112.254C146.489 113.685 147.306 125.16 147.543 124.978C163.794 112.483 171.127 87.769 159.579 67.1861L159.577 67.1875Z" fill="black"/>
<path d="M87.7407 196.132C87.6301 196.023 88.3528 194.813 89.2708 192.985C93.5509 184.565 92.7837 179.057 93.288 175.194C93.515 173.279 93.9633 172.088 94.9173 172.079C97.5135 172.02 97.0063 180.524 96.7477 183.043C96.2463 187.623 94.6055 191.503 90.9317 194.375C89.1789 195.751 87.8255 196.219 87.7421 196.133L87.7407 196.132Z" fill="black"/>
<path d="M270.6 476.819C270.895 477.031 259.065 496.912 255.195 503.328C246.63 517.125 236.323 536.96 236.072 535.606C235.97 535.643 235.819 536.002 235.701 536.225C235.574 536.468 235.455 536.686 235.334 536.853C234.342 538.259 233.539 536.159 233.981 534.646C242.82 514.179 254.926 495.083 264.342 483.67C266.934 480.545 270.414 476.687 270.6 476.819Z" fill="black"/>
<path d="M303.196 527.88C291.453 537.882 279.065 543.245 266.744 548.531C265.129 549.254 253.432 554.921 252.721 552.752C251.866 550.393 270.984 542.636 281.778 537.176C308.681 523.928 305.507 525.903 303.197 527.88H303.196Z" fill="black"/>
<path d="M105.019 452.228C117.741 454.783 130.942 455.436 143.953 455.288C179.572 454.882 219.193 448.352 253.792 463.642C270.08 470.84 278.775 484.432 288.225 498.976C309.951 532.413 329.563 568.721 348.703 603.705C355.808 597.826 371.901 593.553 383.714 593.222C373.095 549.651 362.475 506.08 351.856 462.51C347.297 443.802 343.754 418.164 333.434 401.91C319.175 379.455 294.084 370.978 268.781 362.776C243.479 354.574 216.626 352.569 190.052 351.407C185.103 351.19 179.987 350.96 175.543 348.774C174.154 348.09 168.747 345.065 168.361 343.36C167.723 340.55 170.354 337.642 173.263 339.212C167.878 335.869 160.87 336.904 154.897 339.027C140.701 344.072 119.614 347.137 87.5495 367.131C79.7293 372.007 71.7266 374.874 64.3187 380.694C58.8059 385.027 54.3434 391.053 49.3449 395.962C43.2531 401.946 42.335 404.959 46.503 412.94C55.7701 430.684 74.9449 446.19 105.02 452.228H105.019Z" fill="black"/>
<path d="M304.523 404.647C305.791 394.127 301.984 382.255 292.71 377.131C289.483 375.348 285.819 374.478 282.571 372.734C279.255 370.954 275.417 367.157 275.112 363.237C275.197 364.326 306.119 368.145 309.004 368.22C335.473 368.898 324.861 351.383 338.523 356.095C341.146 356.999 343.907 357.973 346.63 357.443C349.352 356.913 351.861 354.217 351.096 351.551C372.398 359.684 391.616 369.723 397.932 391.908C403.002 409.719 397.943 429.173 388.537 445.126C379.132 461.08 365.713 474.208 352.631 487.316C326.091 513.915 314.093 525.564 274.874 542.992C269.455 545.4 258.554 553.967 253.238 552.663C246.775 551.077 242.202 540.318 233.842 538.294C237.041 531.94 239.809 525.196 243.445 519.135C247.264 512.768 251.504 506.662 255.163 500.2C299.102 422.621 302.906 418.033 304.521 404.646L304.523 404.647Z" fill="black"/>
<path d="M290.957 138.041C290.899 138.041 290.911 137.155 290.601 135.653C290.286 134.169 289.58 132.03 287.956 129.991C287.781 129.771 287.759 129.478 287.877 129.242L287.922 129.152C289.167 126.648 290.384 123.541 291.159 120.005C291.351 119.122 291.519 118.214 291.659 117.286C291.784 116.355 291.926 115.386 291.929 114.526C291.942 113.644 291.832 112.763 291.569 112.069C291.304 111.355 290.909 110.986 290.409 110.799C289.99 110.652 289.393 110.684 288.811 110.935C288.238 111.171 287.71 111.603 287.202 112.191C286.219 113.362 285.272 115.059 284.384 116.587C280.343 123.6 278.169 130.521 276.912 135.519C275.659 140.534 275.16 143.674 274.418 143.597C273.66 143.561 273.441 140.275 274.373 134.976C275.313 129.699 277.565 122.451 281.705 115.07C282.677 113.422 283.499 111.849 284.874 110.175C286.209 108.562 288.68 107.007 291.423 107.891C292.942 108.405 294.028 109.797 294.407 111.043C294.834 112.306 294.891 113.503 294.832 114.631C294.647 116.896 294.176 118.758 293.637 120.655C292.532 124.375 290.906 127.518 289.292 129.949L289.256 129.084C290.789 131.601 291.167 133.994 291.212 135.578C291.233 136.38 291.173 136.998 291.113 137.413C291.045 137.828 290.986 138.042 290.959 138.041H290.957Z" fill="black"/>
<path d="M296.103 361.035C337.828 417.038 365.84 482.777 376.955 551.742C377.115 552.729 378.616 552.31 378.458 551.328C367.325 482.244 339.243 416.347 297.448 360.249C296.856 359.454 295.503 360.23 296.103 361.035Z" fill="white"/>
<mask id="path-38-inside-1_142_656" fill="white">
<path d="M314.892 277.603C308.332 276.323 301.359 281.968 301.134 288.647C300.908 295.326 307.358 301.398 314.021 300.882C320.685 300.367 326.103 293.503 325.171 286.886C324.238 280.268 317.257 275.186 310.654 276.218"/>
</mask>
<path d="M314.892 277.603C308.332 276.323 301.359 281.968 301.134 288.647C300.908 295.326 307.358 301.398 314.021 300.882C320.685 300.367 326.103 293.503 325.171 286.886C324.238 280.268 317.257 275.186 310.654 276.218" fill="#F9DA55"/>
<path d="M315.085 276.615C311.462 275.908 307.785 277.12 305.006 279.356C302.229 281.593 300.253 284.931 300.128 288.613L302.139 288.681C302.24 285.683 303.863 282.86 306.268 280.924C308.673 278.988 311.762 278.017 314.699 278.59L315.085 276.615ZM300.128 288.613C300.004 292.289 301.714 295.743 304.302 298.193C306.89 300.644 310.438 302.169 314.099 301.885L313.944 299.879C310.941 300.112 307.932 298.859 305.686 296.732C303.44 294.606 302.038 291.684 302.139 288.681L300.128 288.613ZM314.099 301.885C317.754 301.602 321.017 299.587 323.232 296.798C325.447 294.009 326.677 290.368 326.167 286.745L324.174 287.026C324.596 290.02 323.584 293.12 321.657 295.546C319.73 297.973 316.952 299.646 313.944 299.879L314.099 301.885ZM326.167 286.745C325.154 279.561 317.646 274.107 310.498 275.224L310.809 277.212C316.868 276.265 323.322 280.975 324.174 287.026L326.167 286.745Z" fill="black" mask="url(#path-38-inside-1_142_656)"/>
<path d="M309.191 277.127C309.936 276.924 310.671 276.832 311.348 276.82C311.842 276.859 312.527 276.923 313.308 277.076C313.472 277.109 313.643 277.148 313.82 277.192C313.987 277.258 314.123 277.328 314.226 277.396C314.313 277.454 314.359 277.496 314.382 277.523C314.368 277.537 314.344 277.558 314.305 277.585C314.198 277.658 314.032 277.733 313.81 277.806C313.435 277.928 312.997 278.015 312.598 278.094C312.523 278.109 312.449 278.124 312.377 278.138L312.354 278.143L312.332 278.15C306.369 279.944 303.28 283.69 302.727 287.645C302.176 291.581 304.161 295.592 308.068 297.853C313.232 301.053 318.864 298.743 321.847 294.557C324.847 290.347 325.264 284.134 320.008 279.426C318.009 277.6 315.825 276.667 314.127 276.232C314.054 276.204 313.978 276.178 313.901 276.153C317.357 276.146 320.985 278.012 323.472 280.986C326.525 284.635 327.785 289.872 324.845 295.152L324.845 295.152L324.841 295.16C319.691 304.797 306.894 304.866 301.335 295.217C299.069 291.104 299.366 286.99 301.056 283.698C302.755 280.388 305.856 277.92 309.175 277.131L309.183 277.129L309.191 277.127ZM314.404 277.556C314.403 277.556 314.401 277.553 314.4 277.547C314.403 277.553 314.404 277.556 314.404 277.556Z" fill="#F9DA55" stroke="black" stroke-width="1.00606"/>
<path d="M301.087 129.722C301.05 129.698 301.373 129.008 301.992 127.807C302.613 126.606 303.531 124.893 304.688 122.824C305.844 120.755 307.239 118.332 308.813 115.707C309.209 115.052 309.613 114.382 310.025 113.701C310.465 112.965 310.952 112.27 311.425 111.596C312.367 110.254 313.334 108.915 313.892 107.599C314.14 107.016 314.268 106.491 314.249 106.016C314.245 105.787 314.195 105.583 314.16 105.519C314.106 105.441 314.208 105.591 314.334 105.612C314.446 105.628 314.338 105.609 314.159 105.681C314.009 105.734 313.626 105.961 313.328 106.128C312.692 106.464 312.091 106.869 311.487 107.266C308.795 109.089 306.547 111.293 304.659 113.427C302.765 115.56 301.196 117.61 299.873 119.327C297.244 122.78 295.51 124.839 294.914 124.423C294.257 124.003 295.37 121.573 297.748 117.837C298.948 115.977 300.488 113.797 302.439 111.503C304.383 109.21 306.777 106.803 309.751 104.724C310.428 104.277 311.101 103.828 311.823 103.444C312.198 103.243 312.463 103.053 313.027 102.819C313.557 102.625 314.234 102.424 315.097 102.629C315.978 102.831 316.673 103.573 316.938 104.188C317.232 104.819 317.307 105.388 317.328 105.924C317.366 106.988 317.078 107.983 316.728 108.805C315.896 110.655 314.767 112.027 313.761 113.332C313.252 113.981 312.768 114.59 312.346 115.197C311.879 115.846 311.422 116.485 310.974 117.11C309.17 119.602 307.488 121.846 306.04 123.725C304.592 125.606 303.379 127.122 302.515 128.16C301.652 129.199 301.138 129.758 301.087 129.725V129.722Z" fill="black"/>
<path d="M308.856 133.344C308.82 133.318 309.057 132.815 309.526 131.951C309.994 131.086 310.695 129.86 311.563 128.38C313.284 125.409 315.717 121.469 317.742 117.093C318.741 115.013 319.867 113.105 320.683 111.185C321.643 109.053 322.057 107.011 321.92 105.135C321.91 104.636 321.84 104.261 321.787 104.144C321.688 104.057 322.018 104.244 321.918 104.171C321.817 104.142 321.439 104.236 321.063 104.358C320.698 104.477 320.352 104.606 320.024 104.743C317.408 105.874 316.125 107.273 315.537 106.794C315.227 106.56 315.286 105.976 315.804 105.154C316.32 104.339 317.317 103.303 318.856 102.424C319.241 102.207 319.659 102.001 320.107 101.813C320.547 101.651 321.031 101.399 321.889 101.358C322.306 101.342 322.863 101.431 323.346 101.731C323.836 102.022 324.176 102.47 324.374 102.865C324.761 103.667 324.804 104.345 324.851 104.902C325.107 107.273 324.564 109.974 323.518 112.392C322.587 114.566 321.441 116.495 320.52 118.426C318.244 123.081 315.161 126.764 312.875 129.337C310.557 131.903 308.952 133.41 308.858 133.344H308.856Z" fill="black"/>
<path d="M310.121 140.594C310.088 140.562 310.378 140.103 310.921 139.31C311.467 138.521 312.249 137.392 313.203 136.014C315.111 133.258 317.612 129.51 320.2 125.435C321.4 123.619 322.573 121.832 323.608 119.995C324.786 117.957 325.707 115.967 326.256 114.125C326.552 113.211 326.705 112.314 326.839 111.51C326.894 111.135 326.855 110.991 326.882 111.033C326.922 111.05 326.955 111.019 326.807 110.955C326.668 110.908 326.441 110.886 326.226 110.915C325.964 110.958 325.905 110.95 325.514 111.112C324.868 111.348 324.381 111.45 323.996 111.542C323.229 111.715 322.726 111.809 322.502 111.52C322.254 111.224 322.441 110.655 323.197 110.013C323.569 109.694 324.063 109.402 324.513 109.1C324.657 108.981 325.204 108.665 325.629 108.549C326.096 108.404 326.628 108.317 327.266 108.401C327.879 108.478 328.738 108.845 329.211 109.635C329.704 110.427 329.669 111.234 329.639 111.764C329.542 112.783 329.392 113.84 329.085 114.919C328.509 117.086 327.501 119.306 326.289 121.508C325.184 123.465 323.967 125.317 322.767 127.132C320.03 131.254 316.892 134.736 314.433 137.07C313.2 138.241 312.143 139.143 311.38 139.739C310.62 140.337 310.161 140.636 310.118 140.595L310.121 140.594Z" fill="black"/>
<path d="M308.192 159.457C308.156 159.433 308.44 158.819 308.995 157.755C309.549 156.69 310.374 155.174 311.417 153.345C313.503 149.686 316.461 144.772 319.881 139.703C321.398 137.435 323.102 135.195 324.672 133.04C326.468 130.623 327.993 128.292 329.065 126.084C329.589 124.979 329.99 123.909 330.297 122.897C330.361 122.643 330.422 122.393 330.483 122.148L330.569 121.807L330.583 121.798C330.606 121.794 330.606 121.754 330.606 121.732C330.74 121.682 330.263 121.716 329.896 121.785C329.527 121.85 329.168 121.933 328.842 122.03C328.181 122.214 327.644 122.435 327.234 122.622C326.408 122.988 326.181 123.291 325.795 123.29C325.611 123.28 325.428 123.073 325.454 122.67C325.473 122.267 325.727 121.737 326.17 121.265C326.614 120.79 327.227 120.331 327.999 119.949C328.384 119.752 328.81 119.577 329.289 119.423C329.529 119.346 329.78 119.277 330.062 119.222L330.274 119.181L330.619 119.153C330.855 119.153 331.098 119.178 331.335 119.244C332.292 119.49 333.11 120.339 333.274 121.418C333.32 121.685 333.316 121.958 333.281 122.227L333.198 122.692C333.141 122.988 333.082 123.29 333.023 123.597C332.723 124.805 332.294 126.061 331.733 127.321C330.59 129.83 328.964 132.344 327.168 134.848C325.532 137.095 323.934 139.189 322.421 141.449C318.921 146.462 315.414 150.997 312.758 154.263C311.429 155.897 310.314 157.211 309.516 158.111C308.72 159.01 308.243 159.493 308.193 159.458L308.192 159.457Z" fill="black"/>
<path d="M148.315 450.666C111.07 456.524 71.4046 452.306 31.1627 446.865C21.3382 445.524 15.4101 444.428 15.5351 443.596C15.607 442.664 21.6342 442.915 31.5061 443.825C51.7887 445.666 103.118 452.321 144.764 450.477C146.285 450.435 147.472 450.403 148.281 450.382C150.018 450.362 149.85 450.405 148.315 450.668V450.666Z" fill="black"/>
<path d="M95.7446 417.446C95.7561 417.469 95.5248 417.62 95.0765 417.884C94.6225 418.14 93.9573 418.513 93.1024 418.993C85.7966 423.056 73.6862 428.559 61.3977 432.73C57.142 434.122 52.8749 435.48 48.5732 436.724C29.2992 442.289 13.9317 444.906 13.6875 443.307C13.2852 441.414 28.5248 438.974 47.5546 433.241C51.8145 432.01 56.0415 430.665 60.2554 429.286C74.6072 424.601 81.8283 422.088 92.8022 418.317C94.6556 417.693 95.7145 417.384 95.7461 417.449L95.7446 417.446Z" fill="black"/>
<path d="M26.0506 592.841C26.0377 592.843 26.0089 592.728 25.9658 592.502C25.927 592.275 25.8681 591.938 25.792 591.497C25.6584 590.612 25.4615 589.307 25.2101 587.636C20.1499 553.959 19.3381 515.003 16.7534 461.583C16.2361 450.605 16.0393 443.928 16.9057 443.888C17.8094 443.773 18.8539 450.395 19.8065 461.376C22.0018 486.311 24.2705 549.99 25.9486 587.558C26.0046 589.248 26.0492 590.566 26.0793 591.462C26.0966 592.36 26.088 592.836 26.052 592.841H26.0506Z" fill="black"/>
<path d="M205.712 571.935C205.528 571.945 194.458 447.254 198.264 447.209C199.968 447.074 201.011 465.848 203.377 498.254C204.266 514.178 207.019 543.305 205.835 570.784C205.791 571.536 205.748 571.932 205.713 571.935H205.712Z" fill="black"/>
<path d="M113.711 463.383C114.386 457.024 115.396 457.84 115.744 463.429C115.897 466.328 116.048 470.541 116.149 475.779C117.794 533.557 121.154 566.242 120.869 600.021C120.561 613.182 110.234 493.543 113.712 463.385L113.711 463.383Z" fill="black"/>
<path d="M116.181 611.223C116.174 611.248 115.878 611.206 115.323 611.101C114.77 610.988 113.958 610.819 112.918 610.605C110.848 610.136 107.866 609.459 104.226 608.631C96.9542 606.933 87.0636 604.581 76.5509 601.909C71.8714 600.705 67.189 599.517 62.4923 598.383C41.4971 593.145 25.0147 589.984 25.3911 588.311C25.7014 586.498 42.2212 589.823 63.3486 594.856C68.064 595.994 72.7651 597.186 77.4618 598.396C87.9875 601.19 97.7042 604.31 104.757 606.795C108.283 608.044 111.151 609.107 113.128 609.894C115.106 610.676 116.201 611.156 116.181 611.223Z" fill="black"/>
<path d="M208.421 568.213C208.803 568.96 126.865 613.389 125.588 610.909C124.187 608.492 163.811 588.638 171.343 584.664C191.697 574.397 208.31 567.999 208.421 568.214V568.213Z" fill="black"/>
<path d="M477.317 235.905C442.668 234.111 429.376 233.349 380.775 230.549C376.505 230.301 372.115 230.046 367.615 229.785C365.361 229.671 363.078 229.466 360.838 229.483C358.557 229.492 356.202 229.572 353.8 229.512C351.399 229.446 348.933 229.278 346.448 228.658C344.021 228.051 341.304 226.888 339.724 224.39L339.166 223.464C339.023 223.138 338.922 222.796 338.801 222.46C338.534 221.771 338.413 221.127 338.294 220.483C338.077 219.189 337.958 217.89 337.895 216.592C337.791 213.999 337.906 211.416 338.054 208.841C338.199 206.268 338.385 203.693 338.38 201.149C338.366 198.531 338.352 195.89 338.337 193.225C338.31 187.896 338.283 182.474 338.254 176.965C338.159 154.929 338.057 131.492 337.952 106.976C337.912 94.7172 337.87 82.1887 337.827 69.4304C337.81 63.0512 337.791 56.6146 337.773 50.1262C337.764 46.882 337.757 43.6249 337.748 40.3548C337.744 38.7198 337.741 37.0819 337.737 35.4412C337.747 33.8636 337.629 32.3234 337.487 30.6755C337.349 29.0419 337.192 27.3465 337.181 25.585C337.194 23.7704 337.26 22.1555 337.659 20.19C337.882 19.2332 338.296 18.0062 339.344 17.012C340.41 16.0235 341.682 15.7246 342.675 15.5781C344.781 15.3324 346.268 15.5335 347.93 15.466C354.498 15.41 361.146 14.7907 367.873 14.1715C374.607 13.5005 381.463 13.0824 388.249 12.6457C395.062 12.2031 401.908 11.7592 408.781 11.3138L555.731 1.89733C587.974 -0.148599 590.529 -1.27645 593.823 2.42606C596.31 6.49637 595.458 11.5078 595.01 17.2576C594.488 23.3193 594.542 123.133 594.326 216.483C594.086 237.322 596.243 243.055 589.645 243.922C582.654 244.856 476.919 237.216 477.318 235.904C477.025 233.881 589.178 242.536 590.523 239.833C591.378 237.739 590.659 222.86 590.701 216.483C590.684 207.66 590.26 25.0003 590.973 16.9286C591.247 13.6054 591.645 10.3411 591.322 7.41158C591.181 6.01075 590.658 4.64727 590.234 4.57831C590.194 4.40015 588.787 4.14441 588.585 4.1128C586.924 3.86425 409.232 15.3942 409.047 15.4057C402.174 15.841 395.327 16.2735 388.514 16.7045C381.674 17.1312 374.96 17.522 368.242 18.1714C361.513 18.7691 354.759 19.3826 347.965 19.4171C346.293 19.4616 344.432 19.3064 343.229 19.4717C342.596 19.5564 342.176 19.7231 342.018 19.8883C341.847 20.0435 341.626 20.4314 341.479 21.0765C341.204 22.3567 341.086 24.0707 341.084 25.5563C341.086 27.1008 341.222 28.697 341.354 30.345C341.489 31.98 341.616 33.7214 341.596 35.4297C341.591 37.0704 341.589 38.7083 341.584 40.3434C341.577 43.6134 341.569 46.8705 341.561 50.1147C341.544 56.6031 341.527 63.0383 341.51 69.416C341.469 82.1715 341.429 94.6971 341.389 106.954C341.287 131.466 341.189 154.897 341.097 176.928C341.07 182.437 341.043 187.856 341.017 193.185C341.002 195.849 340.989 198.489 340.975 201.107C340.952 203.798 340.734 206.402 340.561 208.955C340.385 211.506 340.248 214.013 340.316 216.457C340.421 218.861 340.614 221.41 341.668 223.088C342.714 224.868 344.793 225.903 346.974 226.47C349.17 227.052 351.504 227.256 353.82 227.347C356.143 227.437 358.462 227.385 360.798 227.405C363.18 227.417 365.45 227.654 367.694 227.795C372.19 228.115 376.573 228.428 380.841 228.732C389.373 229.344 397.437 229.923 404.99 230.464C450.612 233.792 446.471 233.454 477.318 235.904L477.317 235.905Z" fill="black"/>
<path d="M375.531 126.083C375.351 126.271 359.367 127.363 358.012 127.429L359.412 126.037C359.617 130.571 359.768 135.689 359.788 141.015L359.774 145.904L357.965 144.085C367.914 144.153 354.805 144.001 375.479 144.216L373.74 145.945C374.049 121.287 377.169 117.546 377.229 145.955C377.23 146.919 376.45 147.703 375.486 147.705H375.469C356.291 147.756 364.866 147.715 357.955 147.715C356.952 147.712 356.142 146.897 356.145 145.894L356.159 141.005C356.209 135.679 356.382 130.561 356.606 126.03L356.611 125.903C356.647 125.159 357.277 124.586 358.021 124.623C362.627 124.837 375.706 125.895 375.532 126.084L375.531 126.083Z" fill="black"/>
<path d="M403.087 107.567C403.069 107.587 402.596 107.623 401.737 107.677C400.892 107.727 399.652 107.802 398.072 107.896C394.942 108.079 390.609 108.376 385.549 108.589L386.624 107.52C386.963 116.08 387.259 127.04 387.277 138.657L387.256 145.98L385.447 144.16C396.786 144.209 388.448 144.136 402.982 144.243L401.197 146.019C401.268 135.289 401.52 126.034 401.859 119.219C402.202 112.418 402.561 108.082 403.089 107.566C403.674 106.941 404.023 110.74 404.32 117.65C404.613 124.55 404.771 134.568 404.765 146.029C404.765 147.013 403.967 147.811 402.982 147.811H402.974C387.603 147.825 400.385 147.812 385.438 147.789C384.435 147.786 383.625 146.972 383.628 145.969C383.651 144.416 383.504 129.019 384.454 107.513L384.458 107.424C384.484 106.843 384.974 106.392 385.556 106.418C391.101 106.654 395.546 106.977 398.537 107.181C400.011 107.289 401.168 107.373 401.957 107.431C402.727 107.494 403.116 107.537 403.09 107.564L403.087 107.567Z" fill="black"/>
<path d="M431.179 88.4931C431.17 88.5017 431.054 88.5132 430.834 88.5276C430.617 88.5391 430.297 88.5563 429.876 88.5808C429.053 88.6196 427.839 88.677 426.28 88.7517C423.284 88.8853 418.959 89.0779 413.641 89.3135L414.513 88.4471C414.916 100.565 415.313 117.781 415.322 136.235L415.294 146.062L413.485 144.243C423.373 144.276 423.663 144.259 431.021 144.307L429.215 146.103C429.614 73.9158 432.877 64.6344 432.818 146.113C432.818 147.105 432.012 147.91 431.018 147.91H431.011C423.959 147.913 423.863 147.897 413.475 147.873C412.472 147.87 411.662 147.055 411.665 146.052L411.692 136.225C411.826 114.477 412.352 100.703 412.745 88.3796C412.764 87.8997 413.166 87.5262 413.645 87.5449C419.241 87.7532 423.668 88.0176 426.649 88.1828C428.123 88.2704 429.27 88.3379 430.05 88.3839C430.814 88.4342 431.202 88.4701 431.179 88.4931Z" fill="black"/>
<path d="M458.198 68.8987C449.104 69.2608 469.888 68.5008 440.66 69.5812L441.394 68.8513C441.827 84.1843 442.298 108.009 442.292 133.738L442.256 146.138L440.447 144.318C440.638 144.318 459.142 144.373 457.983 144.37L456.164 146.177C456.655 48.5256 459.876 37.7586 459.79 146.187C459.79 147.187 458.971 147.996 457.971 147.996H457.434L440.434 147.947C439.431 147.944 438.621 147.13 438.624 146.127L438.66 133.726C438.822 104.039 439.414 86.0464 439.897 68.7996C439.911 68.3901 440.253 68.0697 440.663 68.0827C440.847 68.0884 458.366 68.712 458.197 68.8973L458.198 68.8987Z" fill="black"/>
<path d="M379.859 81.7088C380.777 84.7145 384.379 86.5621 387.38 85.6297C390.382 84.6987 392.301 81.2174 391.567 78.1615C389.475 69.4662 377.549 74.1486 379.859 81.7088Z" fill="black"/>
<path d="M379.243 80.4099C379.068 79.5364 378.785 78.0407 379.549 76.387C380.805 73.4029 384.25 71.3325 387.997 71.9891C394.813 73.479 395.749 84.6641 388.167 87.1727C384.306 88.4672 380.286 86.0837 379.502 83.3035C379.256 82.3668 379.473 81.8122 379.861 81.7088C380.799 81.4444 381.452 82.8323 383.486 83.7116C387.656 85.473 390.594 81.5378 389.783 78.5292L389.413 77.433C389.141 77.0479 388.667 75.8468 387.15 75.3095C384.723 74.7089 382.447 75.7606 381.209 77.3396C380.33 78.3525 380.157 79.5191 379.983 80.3381C379.957 82.1829 379.903 82.0952 379.245 80.4099H379.243Z" fill="black"/>
<path d="M416.017 72.9145C416.935 75.9202 421.77 77.7247 424.771 76.7923C427.773 75.8613 428.461 72.4231 427.725 69.3671C425.633 60.6719 413.707 65.3543 416.017 72.9145Z" fill="black"/>
<path d="M415.397 71.5969C415.225 70.709 414.958 69.1975 415.739 67.5251C416.455 65.8686 418.074 64.1933 420.432 63.4318C421.59 63.0195 422.982 62.9318 424.377 63.2695C431.054 64.5942 432.141 77.6011 424.387 78.6427C420.14 79.17 416.541 76.729 415.749 74.5623C415.412 73.604 415.634 73.0092 416.018 72.9144C416.965 72.696 417.568 73.8526 419.844 74.7118C420.924 75.137 422.45 75.4661 423.807 75.2276C427.733 74.502 426.821 65.3729 421.173 66.3743C419.613 66.6013 418.205 67.4633 417.389 68.4964C416.502 69.5222 416.312 70.6975 416.137 71.5279C416.117 73.3799 416.065 73.3195 415.399 71.5983L415.397 71.5969Z" fill="black"/>
<path d="M440.614 50.336C441.533 53.3417 445.134 55.1894 448.136 54.2569C451.137 53.3259 453.057 49.8447 452.323 46.7887C450.269 38.2515 438.37 42.9913 440.614 50.336Z" fill="black"/>
<path d="M440.616 50.336C440.567 50.3489 440.346 49.9237 440.006 49.0415C439.839 48.1665 439.602 46.6752 440.383 45.0401C441.108 43.4238 442.687 41.7945 444.975 41.0158C446.099 40.5833 447.452 40.4928 448.83 40.7457C450.232 41.023 451.556 41.8893 452.525 43.0258C452.887 43.556 453.229 44.1163 453.513 44.6781C453.718 45.2528 453.921 45.8246 454.099 46.4122C454.386 47.6938 454.343 49.0156 454.015 50.2297C452.612 55.2799 447.188 57.8129 442.757 55.0141C441.281 54.0859 440.507 52.8259 440.254 51.9236C440.013 50.9912 440.23 50.4394 440.618 50.336C441.556 50.0716 442.205 51.448 444.224 52.3288C447.25 53.6262 449.855 51.9954 450.508 49.2944C450.696 48.599 450.704 47.8863 450.564 47.2384L450.201 46.1622C450.03 45.8519 449.847 45.5617 449.674 45.27C449.194 44.7312 448.675 44.2815 447.987 44.066C447.304 43.8836 446.524 43.7715 445.761 43.9453C444.221 44.1867 442.839 45.033 442.018 46.0301C441.139 47.0257 440.927 48.1622 440.746 48.9754C440.731 49.7886 440.684 50.3159 440.618 50.3346L440.616 50.336Z" fill="black"/>
<path d="M381.213 84.2547C381.386 84.3682 380.252 88.9443 377.61 93.3594C376.223 95.3852 371.134 104.198 369.129 102.799C367.573 101.739 370.018 98.5878 372.705 94.2876L374.544 91.4198C377.374 87.1412 380.975 84.101 381.215 84.2562L381.213 84.2547Z" fill="black"/>
<path d="M415.411 72.9132C415.431 73.0166 414.312 73.6488 412.524 74.4174C410.736 75.1861 408.286 76.1027 405.607 76.7651C393.979 79.6027 392.414 79.5394 392.077 78.3283C391.378 75.9375 400.351 74.3398 404.808 73.2235C410.308 72.0956 415.366 72.6344 415.411 72.9117V72.9132Z" fill="black"/>
<path d="M441.891 52.675C442.047 52.8143 440.093 56.7697 436.616 59.9765L434.264 62.0555C430.671 65.044 428.102 67.4994 426.934 66.2939C425.319 64.6604 430.16 60.8903 434.21 57.2611C437.79 54.2741 441.684 52.4825 441.892 52.6764L441.891 52.675Z" fill="black"/>
<path d="M359.323 110.523C360.241 113.529 363.843 115.376 366.844 114.444C369.846 113.513 371.765 110.032 371.031 106.976C368.939 98.2806 357.013 102.963 359.323 110.523Z" fill="black"/>
<path d="M358.707 109.224C358.532 108.351 358.249 106.855 359.013 105.201C359.703 103.563 361.26 101.862 363.578 101.081C364.71 100.631 366.076 100.561 367.461 100.803C374.333 102.305 375.182 113.49 367.631 115.987C365.188 116.806 362.938 116.121 361.493 115.218C358.657 113.447 358.449 110.759 359.324 110.524C360.262 110.259 360.914 111.647 362.948 112.527C367.118 114.289 370.056 110.354 369.246 107.345L368.875 106.249C368.639 105.915 368.167 104.677 366.612 104.125C364.197 103.528 361.917 104.566 360.671 106.155C359.792 107.168 359.62 108.335 359.446 109.154C359.42 110.999 359.365 110.911 358.707 109.226V109.224Z" fill="black"/>
<path d="M592.39 2.0857C591.296 -0.412814 597.667 5.225 602.375 10.972C602.795 11.4835 603.017 12.1243 603.023 12.7866C605.206 249.007 607.148 237.63 604.002 238.986C599.621 240.874 595.016 242.451 591.246 243.32C592.315 164.104 593.022 81.3067 592.39 2.0857Z" fill="black"/>
<path d="M467.794 361.374C474.633 364.096 478.895 365.673 488.263 365.726C524.269 366.167 550.107 330.535 538.875 296.921C527.577 261.85 480.122 249.159 452.413 278.641C448.274 283.008 445.188 287.737 443.003 292.326C442.508 293.497 442.026 294.641 441.554 295.753C441.105 296.874 440.803 298.015 440.431 299.096C439.686 301.262 439.26 303.389 438.891 305.372C438.189 309.352 438.018 312.843 438.017 315.685C438.053 321.376 438.665 324.491 438.201 324.557C437.806 324.698 436.526 321.675 435.985 315.771C435.738 312.83 435.707 309.175 436.273 304.966C436.574 302.868 436.949 300.614 437.666 298.299C438.024 297.142 438.317 295.925 438.764 294.724C439.237 293.532 439.721 292.308 440.218 291.053C445.205 279.989 454.262 270.139 466.331 264.232C506.128 244.807 550.839 277.832 544.301 320.806C543.677 324.872 542.566 328.777 541.194 332.498C534.774 349.15 520.561 361.345 503.375 365.586L503.541 365.526C502.156 366.032 495.086 367.394 488.231 367.009C483.756 366.787 479.898 366.135 476.848 365.247C471.295 363.651 467.976 361.466 467.792 361.375L467.794 361.374Z" fill="black"/>
<path d="M507.603 321.196C509.848 309.991 509.498 298.019 506.261 286.189C501.915 270.479 493.481 261.794 494.604 260.872C496.391 259.038 518.688 284.319 511.166 321.888C507.988 337.906 499.513 354.253 489.584 365.545C485.12 370.512 502.257 349.521 507.603 321.196Z" fill="black"/>
<path d="M484.543 365.22C473.339 345.206 466.499 326.928 469.878 302.457C472.931 280.193 488.103 259.898 489.491 260.935C491.395 262.163 476.321 280.659 473.474 302.956C469.832 329.313 479.176 349.923 484.803 365.095C485.026 365.73 485.198 366.345 484.545 365.22H484.543Z" fill="black"/>
<path d="M486.192 288.381C490.38 288.749 494.594 288.768 498.788 288.472C518.82 287.154 530.447 278.923 531.393 280.641C532.549 282.48 512.846 294.362 485.873 291.996C474.247 290.927 462.71 286.71 454.299 280.893C445.394 274.606 461.431 286.401 486.192 288.38V288.381Z" fill="black"/>
<path d="M467.753 342.863C467.702 342.675 473.696 340.815 475.361 340.366C480.115 339.203 486.881 338.334 494.07 338.925C497.264 339.2 500.452 339.677 503.584 340.347C510.602 341.87 516.598 344.19 520.626 346.335C524.667 348.478 526.782 350.325 526.347 351.018C525.409 352.723 516.406 346.588 502.834 343.9C499.833 343.259 496.809 342.808 493.754 342.542C480.946 341.278 472.694 342.624 469.939 342.81C468.562 342.914 467.772 342.932 467.753 342.864V342.863Z" fill="black"/>
<path d="M438.234 309.098C438.242 309.073 438.575 309.118 439.2 309.23C439.822 309.352 440.737 309.53 441.91 309.758C444.237 310.273 447.621 310.879 451.734 311.639C465.827 314.126 485.151 315.952 499.581 315.577C523.853 315.357 542.113 310.154 542.468 311.977C543.304 314.544 496.154 326.007 451.322 313.506C447.26 312.339 443.963 311.325 441.718 310.475C440.596 310.057 439.721 309.73 439.125 309.507C438.535 309.273 438.227 309.132 438.237 309.098H438.234Z" fill="black"/>
<path d="M467.124 360.97C466.441 362.845 464.622 364.423 463.521 366.051C489.46 373.813 512.632 368.832 527.755 356.765C543.874 343.907 551.499 321.3 546.463 301.324C541.515 281.633 524.544 265.56 504.663 261.544C536.407 269.597 552.56 303.533 540.95 332.563C535.194 347.035 522.722 358.656 507.883 363.387C502.202 365.217 495.557 366.381 484.832 365.538C478.971 364.962 472.663 363.056 467.124 360.97Z" fill="black"/>
<path d="M419.353 350.064C419.34 350.064 419.331 349.92 419.33 349.636C419.331 349.353 419.334 348.93 419.338 348.378C419.338 347.824 419.35 347.139 419.469 346.338C419.572 345.537 419.636 344.6 419.897 343.58C420.259 341.504 421.117 339.05 422.455 336.373C423.824 333.715 425.848 330.879 428.733 328.408C431.605 325.955 435.349 323.827 439.763 322.915C459.692 319.013 475.037 339.718 469.416 357.463C464.923 371.431 452.003 386.909 446.208 394.449C446 394.679 445.911 394.869 445.404 395.334C444.066 396.498 442.019 396.491 440.677 395.278C440.479 395.11 440.253 394.831 440.155 394.701L439.894 394.347C439.204 393.4 438.525 392.465 437.852 391.541C432.551 384.115 428.223 377.178 425.048 371.106C421.887 365.032 419.904 359.799 419.197 355.995C418.483 352.171 419.005 349.996 419.353 350.062C419.89 350.067 420.044 352.051 421.167 355.49C422.288 358.937 424.466 363.821 427.737 369.645C431.022 375.463 435.375 382.233 440.661 389.513C440.716 389.587 442.447 391.898 443.042 392.692C443.226 392.724 467.596 363.474 466.915 349.967C466.886 335.913 455.393 323.145 440.226 325.382C436.243 326.017 432.736 327.765 429.947 329.885C424.311 334.221 421.758 339.887 420.618 343.749C419.493 347.699 419.498 350.074 419.353 350.062V350.064Z" fill="black"/>
<path d="M435.534 348.253C435.508 348.253 435.475 348.077 435.439 347.735C435.391 347.391 435.393 346.884 435.456 346.226C436.011 341.381 440.677 337.685 445.861 338.193C453.558 338.8 457.688 347.89 453.285 354.374C451.112 357.635 447.315 359.239 444.052 359.039C440.742 358.888 438.065 357.158 436.611 355.282C435.108 353.39 434.679 351.424 434.703 350.161C434.74 348.87 435.143 348.23 435.535 348.253C436.555 348.238 436.516 350.771 438.913 353.266C440.087 354.472 441.933 355.528 444.166 355.577C446.367 355.65 448.859 354.549 450.265 352.363C451.559 350.47 451.79 347.916 450.927 345.802C448.467 339.416 439.065 339.301 436.179 346.404C435.732 347.538 435.63 348.261 435.535 348.255L435.534 348.253Z" fill="black"/>
<path d="M472.311 356.209C470.56 368.341 456.894 386.332 448.297 395C446.303 395.984 444.851 396.284 443.033 396.071C449.533 389.093 454.932 381.159 459.902 373.022C465.125 364.469 469.557 354.67 468.159 344.746C466.406 332.31 455.898 322.905 443.344 322.54C450.7 322.747 458.02 324.125 463.663 329.155C471.106 335.788 473.748 346.264 472.311 356.209Z" fill="black"/>
<path d="M395.379 181.083C397.301 176.909 400.512 172.843 405.33 171.716C412.021 170.15 418.702 175.027 421.742 180.641C424.782 186.254 425.466 192.662 427.962 198.488C430.459 204.314 435.822 209.988 442.739 210.009C447.362 210.024 451.628 207.409 454.267 203.992C456.908 200.576 458.149 196.441 458.984 192.34C460.745 183.688 460.972 174.589 465.165 166.652C469.357 158.717 479.348 152.242 488.587 155.089C494.888 157.032 498.951 162.729 500.68 168.53C502.408 174.332 502.286 180.428 503.038 186.395C503.885 193.129 510.385 211.922 521.368 202.994C524.297 200.612 525.583 197.025 526.54 193.571C533.478 168.514 529.413 141.422 538.985 117.087C540.894 112.231 543.797 107.129 549.095 105.21C555.868 102.756 563.828 106.842 567.46 112.572C571.092 118.301 571.487 125.176 571.793 131.764C572.946 156.523 574.096 181.283 575.249 206.041C575.476 210.932 575.514 216.341 571.976 220.042C567.285 224.946 559.921 224.023 553.565 223.554C546.824 223.055 554.821 223.631 470.77 218.906C457.115 218.138 443.458 217.37 429.803 216.603C422.791 216.209 415.779 215.814 408.767 215.42C403.576 215.128 396.671 215.654 391.978 213.38C391.362 202.66 390.809 191.559 395.159 181.58C395.231 181.415 395.306 181.248 395.382 181.083H395.379Z" fill="#0C7D55"/>
<path d="M572.784 45.8978C572.784 45.9495 571.955 46.0817 570.471 46.2527C568.987 46.4236 566.85 46.6334 564.237 46.8403C559.01 47.2541 551.879 47.6549 544.267 47.7138H534.095C518.912 47.5975 507.137 47.5816 507.169 45.8992C507.137 44.03 518.912 44.201 534.095 44.0846H544.267C551.881 44.1421 559.008 44.5257 564.234 44.928C566.847 45.1306 568.984 45.3374 570.468 45.5113C571.952 45.6851 572.784 45.8274 572.785 45.8992L572.784 45.8978Z" fill="black"/>
<path d="M560.908 66.1963C559.588 66.3673 557.685 66.5771 555.361 66.7825C550.71 67.1963 544.365 67.5986 537.592 67.6561H528.541C515.031 67.5411 504.554 67.5239 504.583 65.8415C504.556 63.9723 515.031 64.1432 528.541 64.0269H537.592C544.367 64.0843 550.708 64.4665 555.358 64.8702C557.682 65.0714 559.583 65.2797 560.905 65.4535C563.672 65.8199 563.621 65.8443 560.908 66.1963Z" fill="black"/>
<path d="M535.585 86.959C535.585 87.0624 534.226 87.4877 532.085 87.9015C529.944 88.3152 527.025 88.7175 523.909 88.775H519.743C513.527 88.6586 508.706 88.6428 508.718 86.9604C508.709 85.6041 510.247 85.0969 523.909 85.1458C530.143 85.2621 535.584 86.6759 535.585 86.9604V86.959Z" fill="black"/>
<path d="M491.368 90.315C490.364 90.7661 488.371 90.4745 486.874 88.8682C486.293 88.2446 485.765 87.4056 485.532 86.3251C485.299 85.2619 485.426 83.8999 486.19 82.7663C486.946 81.6399 488.184 80.8281 489.496 80.5393C490.81 80.2261 492.249 80.298 493.618 80.9344C494.833 81.4775 495.92 82.6284 496.371 84.0091C496.858 85.4085 496.614 86.8812 496.083 88.0464C494.829 90.7331 491.823 92.3264 489.221 91.4701C487.897 91.0449 486.931 90.0722 486.411 89.1239C485.877 88.1627 485.688 87.1944 485.68 86.328C485.671 85.4602 485.855 84.6786 486.168 84.0522C486.456 83.4172 486.892 82.9588 487.273 82.6629C488.109 82.0968 488.714 82.2275 488.887 82.5738C489.122 82.9991 488.959 83.4488 488.829 83.9717C488.72 84.5062 488.558 85.1973 488.733 86.1082C488.976 87.624 490.053 88.7188 491.562 87.9228C492.045 87.6268 492.549 87.1211 492.785 86.5335C493.244 85.4703 492.96 84.6729 492.042 84.2031C490.97 83.6125 489.288 83.864 488.625 84.5795C487.865 85.2734 487.867 86.6872 488.421 87.7403C488.944 88.8121 489.806 89.4788 490.489 89.7647C491.433 90.1613 492.106 90.0276 491.369 90.3136L491.368 90.315Z" fill="black"/>
<path d="M486.524 68.5568C486.496 68.5726 486.165 68.2996 485.879 67.5783C485.605 66.8671 485.445 65.6545 485.989 64.281C487.823 59.6604 493.908 60.3256 495.796 64.6818C496.243 65.7134 496.359 66.9749 496.054 68.143C495.76 69.324 495.044 70.2938 494.214 71.0122C493.263 71.8067 492.144 72.2693 490.991 72.4345C489.838 72.5811 488.612 72.3828 487.621 71.811C486.625 71.2363 485.943 70.3843 485.547 69.5539C485.148 68.7177 485 67.8872 485 67.143C484.987 64.3068 487.079 63.0051 487.704 63.7781C488.293 64.5425 487.727 65.416 488.052 66.9145C488.194 67.6459 488.641 68.4605 489.277 68.7665C489.598 68.9246 490.007 68.9835 490.483 68.9159C490.951 68.8312 491.475 68.6042 491.859 68.2479C492.585 67.6027 492.767 66.8887 492.44 66.0625C492.098 65.0985 491.08 64.2738 490.207 64.1387C489.332 63.9534 488.292 64.4735 487.648 65.2264C486.253 66.7752 486.668 68.5381 486.523 68.5553L486.524 68.5568Z" fill="black"/>
<path d="M486.228 48.5889C486.199 48.6018 485.854 48.2096 485.565 47.313C484.577 44.1278 486.43 39.9914 490.265 39.0043C496.245 37.6308 501.413 44.4022 497.423 49.5084C493.661 54.3402 486.4 52.4696 486.37 46.3691C486.322 42.9554 489.163 41.3692 489.684 42.3563C490.087 43.0402 489.101 44.3275 489.423 46.1766C490.216 51.471 497.164 47.4926 494.627 43.9252C492.998 41.477 489.393 41.1451 487.41 44.1407C485.86 46.4151 486.401 48.5889 486.225 48.5903L486.228 48.5889Z" fill="black"/>
<path d="M30.1163 320.826C30.7298 319.182 32.1551 317.554 34.0315 317.422C35.928 317.288 37.1004 319.34 37.9308 320.784C38.3719 321.553 39.563 320.859 39.1204 320.089C38.0228 318.181 36.3949 315.724 33.8849 316.044C31.4022 316.362 29.6307 318.204 28.7888 320.459C28.4784 321.291 29.8089 321.649 30.1163 320.826Z" fill="black"/>
<path d="M29.7062 312.585C30.2364 314.773 31.9016 316.849 34.2909 317.03C36.6831 317.211 38.535 315.427 39.3612 313.345C39.6888 312.521 38.3569 312.164 38.0336 312.978C36.4819 316.886 31.9562 316.021 31.0352 312.218C30.8269 311.358 29.4993 311.723 29.7077 312.585H29.7062Z" fill="black"/>
<path d="M36.8468 263.295C37.4603 261.652 38.8855 260.024 40.7619 259.892C42.6585 259.758 43.8308 261.81 44.6613 263.254C45.1024 264.022 46.2934 263.328 45.8509 262.558C44.7532 260.65 43.1254 258.193 40.6154 258.514C38.1327 258.831 36.3612 260.673 35.5192 262.929C35.2089 263.761 36.5393 264.118 36.8468 263.295Z" fill="black"/>
<path d="M36.4367 255.054C36.9668 257.242 38.632 259.318 41.0214 259.499C43.4135 259.68 45.2655 257.896 46.0916 255.814C46.4192 254.991 45.0874 254.633 44.7641 255.448C43.2124 259.356 38.6866 258.491 37.7657 254.688C37.5573 253.827 36.2298 254.192 36.4381 255.054H36.4367Z" fill="black"/>
<path d="M113.656 301.546C114.27 299.902 115.695 298.275 117.572 298.142C119.468 298.009 120.64 300.06 121.471 301.504C121.912 302.273 123.103 301.579 122.66 300.809C121.563 298.901 119.935 296.444 117.425 296.764C114.942 297.082 113.171 298.924 112.329 301.18C112.018 302.011 113.349 302.369 113.656 301.546Z" fill="black"/>
<path d="M113.248 293.305C114.564 298.744 120.769 299.44 122.901 294.065C123.229 293.242 121.897 292.884 121.574 293.699C120.022 297.607 115.496 296.742 114.575 292.938C114.367 292.078 113.039 292.443 113.248 293.305Z" fill="black"/>
<path d="M123.954 262.629C124.568 260.985 125.993 259.357 127.869 259.225C129.766 259.091 130.938 261.143 131.769 262.587C132.21 263.356 133.401 262.662 132.958 261.892C131.861 259.984 130.233 257.527 127.723 257.847C125.24 258.165 123.469 260.007 122.627 262.262C122.316 263.094 123.647 263.452 123.954 262.629Z" fill="black"/>
<path d="M123.546 254.388C124.076 256.576 125.741 258.652 128.131 258.833C130.523 259.014 132.375 257.23 133.201 255.148C133.529 254.324 132.197 253.967 131.873 254.781C130.322 258.689 125.796 257.824 124.875 254.021C124.667 253.161 123.339 253.526 123.547 254.388H123.546Z" fill="black"/>
<path d="M139.972 206.071C140.585 204.428 142.011 202.8 143.887 202.668C145.783 202.534 146.956 204.586 147.786 206.03C148.227 206.798 149.418 206.104 148.976 205.334C147.878 203.426 146.25 200.969 143.74 201.29C141.258 201.607 139.486 203.449 138.644 205.705C138.334 206.537 139.664 206.895 139.972 206.071Z" fill="black"/>
<path d="M139.563 197.83C140.879 203.27 147.085 203.965 149.217 198.59C149.544 197.767 148.212 197.409 147.889 198.224C146.337 202.132 141.812 201.267 140.891 197.464C140.682 196.603 139.355 196.968 139.563 197.83Z" fill="black"/>
<path d="M180.675 248.912C181.288 247.269 182.714 245.641 184.59 245.509C186.487 245.375 187.659 247.427 188.489 248.871C188.93 249.639 190.122 248.945 189.679 248.175C188.581 246.267 186.954 243.81 184.444 244.131C181.961 244.448 180.189 246.29 179.347 248.546C179.037 249.378 180.367 249.735 180.675 248.912Z" fill="black"/>
<path d="M180.266 240.671C181.582 246.111 187.788 246.806 189.92 241.431C190.247 240.608 188.915 240.25 188.592 241.065C187.041 244.973 182.515 244.108 181.594 240.305C181.385 239.444 180.058 239.809 180.266 240.671Z" fill="black"/>
<path d="M234.836 250.136C235.45 248.493 236.875 246.865 238.751 246.733C240.648 246.599 241.82 248.651 242.651 250.095C243.092 250.863 244.283 250.169 243.84 249.399C242.743 247.491 241.115 245.034 238.605 245.355C236.122 245.672 234.35 247.514 233.508 249.77C233.198 250.602 234.529 250.959 234.836 250.136Z" fill="black"/>
<path d="M234.428 241.895C234.958 244.083 236.623 246.159 239.013 246.34C241.405 246.521 243.257 244.737 244.083 242.655C244.41 241.832 243.079 241.474 242.755 242.289C241.204 246.197 236.678 245.332 235.757 241.529C235.549 240.668 234.221 241.033 234.429 241.895H234.428Z" fill="black"/>
<path d="M260.543 192.3C261.157 190.656 262.582 189.028 264.458 188.896C266.355 188.762 267.527 190.814 268.358 192.258C268.799 193.027 269.99 192.333 269.547 191.563C268.45 189.655 266.822 187.198 264.312 187.518C261.829 187.836 260.057 189.678 259.216 191.933C258.905 192.765 260.236 193.123 260.543 192.3Z" fill="black"/>
<path d="M260.134 184.059C261.45 189.498 267.656 190.194 269.788 184.819C270.116 183.995 268.784 183.638 268.46 184.452C266.909 188.36 262.383 187.495 261.462 183.692C261.254 182.832 259.926 183.197 260.134 184.059Z" fill="black"/>
<path d="M156.494 282.879C157.108 281.236 158.533 279.608 160.409 279.476C162.306 279.342 163.478 281.394 164.309 282.838C164.75 283.606 165.941 282.913 165.498 282.142C164.401 280.234 162.773 277.778 160.263 278.098C157.78 278.415 156.009 280.257 155.167 282.513C154.856 283.345 156.187 283.703 156.494 282.879Z" fill="black"/>
<path d="M156.084 274.638C156.614 276.827 158.28 278.903 160.669 279.084C163.061 279.265 164.913 277.48 165.739 275.399C166.067 274.575 164.735 274.218 164.412 275.032C162.86 278.94 158.334 278.075 157.413 274.272C157.205 273.411 155.877 273.776 156.086 274.638H156.084Z" fill="black"/>
<path d="M100.803 232.694C101.416 231.05 102.842 229.423 104.718 229.29C106.615 229.157 107.787 231.208 108.617 232.652C109.058 233.421 110.249 232.727 109.807 231.957C108.709 230.049 107.081 227.592 104.571 227.913C102.089 228.23 100.317 230.072 99.4753 232.328C99.165 233.16 100.495 233.517 100.803 232.694Z" fill="black"/>
<path d="M100.393 224.453C100.923 226.641 102.588 228.717 104.977 228.898C107.37 229.079 109.222 227.295 110.048 225.213C110.375 224.39 109.043 224.032 108.72 224.847C107.168 228.755 102.643 227.89 101.722 224.087C101.513 223.226 100.186 223.591 100.394 224.453H100.393Z" fill="black"/>
<path d="M73.5665 295.733C74.18 294.089 75.6053 292.461 77.4817 292.329C79.3782 292.195 80.5506 294.247 81.381 295.691C81.8221 296.46 83.0132 295.766 82.5706 294.996C81.473 293.088 79.8451 290.631 77.3351 290.951C74.8524 291.269 73.0809 293.111 72.239 295.366C71.9286 296.198 73.2591 296.556 73.5665 295.733Z" fill="black"/>
<path d="M73.1564 287.492C73.6866 289.68 75.3518 291.756 77.7411 291.937C80.1333 292.118 81.9852 290.334 82.8114 288.252C83.139 287.429 81.8071 287.071 81.4838 287.885C79.9321 291.793 75.4064 290.928 74.4854 287.125C74.2771 286.265 72.9495 286.63 73.1578 287.492H73.1564Z" fill="black"/>
<path d="M131.404 335.207C132.018 333.564 133.443 331.936 135.32 331.804C137.216 331.67 138.388 333.722 139.219 335.166C139.66 335.934 140.851 335.241 140.409 334.47C139.311 332.562 137.683 330.106 135.173 330.426C132.69 330.744 130.919 332.585 130.077 334.841C129.767 335.673 131.097 336.031 131.404 335.207Z" fill="black"/>
<path d="M130.996 326.966C132.312 332.406 138.517 333.101 140.649 327.726C140.977 326.903 139.645 326.545 139.322 327.36C137.77 331.268 133.244 330.403 132.323 326.6C132.115 325.739 130.787 326.104 130.996 326.966Z" fill="black"/>
<path d="M203.934 298.487C204.547 296.843 205.972 295.215 207.849 295.083C209.745 294.95 210.918 297.001 211.748 298.445C212.189 299.214 213.38 298.52 212.938 297.75C211.84 295.842 210.212 293.385 207.702 293.705C205.22 294.023 203.448 295.865 202.606 298.121C202.296 298.952 203.626 299.31 203.934 298.487Z" fill="black"/>
<path d="M203.524 290.246C204.054 292.434 205.719 294.51 208.108 294.691C210.5 294.872 212.352 293.088 213.179 291.006C213.506 290.183 212.174 289.825 211.851 290.64C210.299 294.548 205.774 293.683 204.853 289.88C204.644 289.019 203.317 289.384 203.525 290.246H203.524Z" fill="black"/>
<path d="M55.5157 224.431C56.1292 222.788 57.5545 221.16 59.4309 221.028C61.3274 220.894 62.4998 222.946 63.3302 224.39C63.7713 225.158 64.9624 224.464 64.5199 223.694C63.4222 221.786 61.7943 219.329 59.2843 219.65C56.8016 219.967 55.0301 221.809 54.1882 224.065C53.8778 224.897 55.2083 225.254 55.5157 224.431Z" fill="black"/>
<path d="M55.1056 216.19C55.6358 218.378 57.301 220.454 59.6903 220.635C62.0825 220.816 63.9345 219.032 64.7606 216.95C65.0882 216.127 63.7563 215.769 63.433 216.584C61.8813 220.492 57.3556 219.627 56.4346 215.824C56.2263 214.963 54.8987 215.328 55.1071 216.19H55.1056Z" fill="black"/>
<path d="M40.7198 381.972C41.3333 380.329 42.7586 378.701 44.635 378.569C46.5315 378.435 47.7039 380.487 48.5343 381.931C48.9754 382.699 50.1665 382.005 49.724 381.235C48.6263 379.327 46.9984 376.87 44.4884 377.191C42.0057 377.508 40.2342 379.35 39.3923 381.606C39.0819 382.438 40.4124 382.796 40.7198 381.972Z" fill="black"/>
<path d="M40.3112 373.731C41.6272 379.171 47.8326 379.866 49.9647 374.491C50.2923 373.668 48.9604 373.31 48.6371 374.125C47.0854 378.033 42.5597 377.168 41.6387 373.365C41.4304 372.504 40.1028 372.869 40.3112 373.731Z" fill="black"/>
<path d="M62.754 352.595C63.3675 350.951 64.7928 349.324 66.6692 349.191C68.5657 349.058 69.7381 351.109 70.5685 352.553C71.0096 353.322 72.2007 352.628 71.7581 351.858C70.6605 349.95 69.0326 347.493 66.5226 347.814C64.0399 348.131 62.2684 349.973 61.4265 352.229C61.1161 353.061 62.4466 353.418 62.754 352.595Z" fill="black"/>
<path d="M62.3439 344.354C62.8741 346.542 64.5393 348.618 66.9286 348.799C69.3208 348.98 71.1727 347.196 71.9989 345.114C72.3265 344.291 70.9946 343.933 70.6713 344.748C69.1196 348.656 64.5939 347.791 63.6729 343.988C63.4646 343.127 62.137 343.492 62.3453 344.354H62.3439Z" fill="black"/>
</svg>
