<svg width="132" height="131" viewBox="0 0 132 131" fill="none" xmlns="http://www.w3.org/2000/svg">
<path d="M66.1761 130.334H65.8894C30.0462 130.334 0.884766 101.164 0.884766 65.3105V65.0237C0.884766 29.17 30.0462 0 65.8894 0H66.1761C102.019 0 131.181 29.17 131.181 65.0237V65.3105C131.181 101.164 102.019 130.334 66.1761 130.334ZM65.8894 4.41168C32.4763 4.41168 5.29515 31.6008 5.29515 65.0237V65.3105C5.29515 98.7334 32.4763 125.923 65.8894 125.923H66.1761C99.5891 125.923 126.77 98.7334 126.77 65.3105V65.0237C126.77 31.6008 99.5891 4.41168 66.1761 4.41168H65.8894Z" fill="#383D38"/>
<path d="M78.3052 83.5836C62.1941 83.5836 49.0864 70.4677 49.082 54.3518C49.0864 50.2666 52.4119 46.9446 56.4871 46.9446C56.9061 46.9446 57.3206 46.9799 57.7175 47.0505C58.5908 47.196 59.42 47.4916 60.183 47.9372C60.2932 48.0034 60.3682 48.1093 60.3858 48.2329L62.0882 58.9664C62.1103 59.0943 62.0706 59.2179 61.9868 59.3105C61.0474 60.3517 59.8478 61.1017 58.5114 61.4767L57.8675 61.6576L58.1101 62.2796C60.3064 67.8736 64.7786 72.3426 70.3754 74.5485L70.9972 74.7956L71.178 74.1515C71.5529 72.8147 72.3027 71.6147 73.3435 70.675C73.4185 70.6044 73.52 70.5691 73.6214 70.5691C73.6434 70.5691 73.6655 70.5691 73.692 70.5736L84.4224 72.2765C84.5503 72.2986 84.6562 72.3691 84.7223 72.4794C85.1634 73.2427 85.4589 74.0764 85.6088 74.9499C85.6794 75.3381 85.7103 75.7484 85.7103 76.1764C85.7103 80.2572 82.3892 83.5792 78.3052 83.5836Z" fill="#383D38"/>
<path d="M106.875 61.6311C106.006 51.8107 101.508 42.7007 94.2086 35.9817C86.8653 29.223 77.3389 25.4995 67.3758 25.4995C45.5092 25.4995 27.7177 43.2962 27.7177 65.1693C27.7177 72.5103 29.742 79.6617 33.5747 85.8909L25.0273 104.817L52.3938 101.901C57.1526 103.851 62.1892 104.839 67.3714 104.839C68.7342 104.839 70.1323 104.769 71.5348 104.623C72.7697 104.491 74.0179 104.297 75.244 104.049C93.5559 100.348 106.924 84.091 107.03 65.3811V65.1693C107.03 63.9781 106.977 62.787 106.871 61.6355L106.875 61.6311ZM53.4479 93.5937L38.307 95.2085L42.8277 85.1896L41.9235 83.9763C41.8574 83.8881 41.7912 83.7998 41.7163 83.6984C37.791 78.2764 35.7181 71.8706 35.7181 65.1737C35.7181 47.7123 49.9195 33.5067 67.3758 33.5067C83.7295 33.5067 97.5914 46.2697 98.9277 62.562C98.9983 63.4355 99.038 64.3134 99.038 65.1781C99.038 65.4252 99.0335 65.6678 99.0291 65.9281C98.6939 80.5352 88.4927 92.9409 74.2207 96.0996C73.1314 96.3423 72.0155 96.5276 70.9041 96.6467C69.7486 96.779 68.5622 96.8452 67.3847 96.8452C63.1904 96.8452 59.1152 96.0334 55.2649 94.4276C54.8371 94.2555 54.4181 94.0702 54.0256 93.8805L53.4523 93.6026L53.4479 93.5937Z" fill="#383D38"/>
</svg>
