<svg width="131" height="131" viewBox="0 0 131 131" fill="none" xmlns="http://www.w3.org/2000/svg">
<path d="M65.8811 130.334H65.5945C29.7513 130.334 0.589844 101.164 0.589844 65.3105V65.0237C0.589844 29.17 29.7513 0 65.5945 0H65.8811C101.724 0 130.886 29.17 130.886 65.0237V65.3105C130.886 101.164 101.724 130.334 65.8811 130.334ZM65.5945 4.41168C32.1814 4.41168 5.00022 31.6008 5.00022 65.0237V65.3105C5.00022 98.7334 32.1814 125.923 65.5945 125.923H65.8811C99.2941 125.923 126.475 98.7334 126.475 65.3105V65.0237C126.475 31.6008 99.2941 4.41168 65.8811 4.41168H65.5945Z" fill="#383D38"/>
<path d="M28.3254 30.7141L57.3545 69.5369L28.1445 101.102H34.7204L60.2962 73.4678L80.9588 101.102H103.333L72.6717 60.0959L99.8617 30.7141H93.2858L69.7344 56.1652L50.7036 30.7141H28.3297H28.3254ZM37.9929 35.5582H48.2691L93.6563 96.2585H83.3801L37.9929 35.5582Z" fill="#383D38"/>
</svg>
