<svg width="362" height="362" viewBox="0 0 362 362" fill="none" xmlns="http://www.w3.org/2000/svg">
<path d="M183 362C277.441 362 354 285.441 354 191C354 96.5593 277.441 20 183 20C88.5593 20 12 96.5593 12 191C12 285.441 88.5593 362 183 362Z" fill="#DFDFDF"/>
<mask id="mask0_1_119" style="mask-type:alpha" maskUnits="userSpaceOnUse" x="0" y="0" width="362" height="362">
<path d="M180.661 362C280.437 362 361.322 281.115 361.322 181.339C361.322 81.5627 280.437 0.677979 180.661 0.677979C80.8847 0.677979 0 81.5627 0 181.339C0 281.115 80.8847 362 180.661 362Z" fill="#017CF5"/>
</mask>
<g mask="url(#mask0_1_119)">
<line opacity="0.4" x1="-7.39537" y1="41.3531" x2="363.435" y2="41.3531" stroke="white" stroke-width="1.0565"/>
<line opacity="0.4" x1="-7.39537" y1="76.2175" x2="363.435" y2="76.2175" stroke="white" stroke-width="1.0565"/>
<line opacity="0.4" x1="-7.39537" y1="112.138" x2="363.435" y2="112.138" stroke="white" stroke-width="1.0565"/>
<line opacity="0.4" x1="-7.39537" y1="149.116" x2="363.435" y2="149.116" stroke="white" stroke-width="1.0565"/>
<line opacity="0.4" x1="-7.39537" y1="195.602" x2="363.435" y2="195.602" stroke="white" stroke-width="1.0565"/>
<line opacity="0.4" x1="-7.39537" y1="247.37" x2="363.435" y2="247.37" stroke="white" stroke-width="1.0565"/>
<line opacity="0.4" x1="-7.39537" y1="292.799" x2="363.435" y2="292.799" stroke="white" stroke-width="1.0565"/>
<line opacity="0.4" x1="-7.39537" y1="334.003" x2="363.435" y2="334.003" stroke="white" stroke-width="1.0565"/>
</g>
<path d="M139.454 289.432L108.67 227.864L173.658 97.8864V208.743C170.057 210.315 167.107 213.079 165.304 216.569C163.501 220.06 162.955 224.066 163.758 227.912C164.561 231.758 166.663 235.211 169.712 237.689C172.761 240.167 176.57 241.52 180.499 241.52C184.428 241.52 188.238 240.167 191.287 237.689C194.335 235.211 196.438 231.758 197.241 227.912C198.044 224.066 197.497 220.06 195.694 216.569C193.891 213.079 190.941 210.315 187.34 208.743V97.8864L252.329 227.864L221.545 289.432H139.454Z" fill="#FFBA00"/>
<path d="M132.613 309.955H228.386V344.159H132.613V309.955Z" fill="#FFBA00"/>
<path d="M122.352 289.432H238.647V309.954H122.352V289.432Z" fill="#FF8E00"/>
<path d="M170.238 56.8409H190.761V77.3636H170.238V56.8409Z" fill="#6499F3"/>
<path d="M60.7843 176.557H81.307V197.079H60.7843V176.557Z" fill="#6499F3"/>
<path d="M279.693 176.557H300.216V197.079H279.693V176.557Z" fill="#6499F3"/>
<path d="M289.955 77.3636C295.622 77.3636 300.216 72.7694 300.216 67.1022C300.216 61.4351 295.622 56.8409 289.955 56.8409C284.288 56.8409 279.693 61.4351 279.693 67.1022C279.693 72.7694 284.288 77.3636 289.955 77.3636Z" fill="#6499F3"/>
<path d="M71.0456 77.3636C76.7128 77.3636 81.307 72.7694 81.307 67.1022C81.307 61.4351 76.7128 56.8409 71.0456 56.8409C65.3784 56.8409 60.7843 61.4351 60.7843 67.1022C60.7843 72.7694 65.3784 77.3636 71.0456 77.3636Z" fill="#6499F3"/>
<path d="M190.4 96.3564C190.055 95.667 189.488 95.1142 188.79 94.7876C188.092 94.4609 187.304 94.3795 186.554 94.5566C185.804 94.7337 185.136 95.1589 184.658 95.7632C184.179 96.3676 183.919 97.1157 183.92 97.8863V208.743C183.92 209.405 184.112 210.053 184.473 210.608C184.834 211.163 185.348 211.601 185.954 211.87C188.838 213.123 191.202 215.333 192.648 218.125C194.095 220.918 194.535 224.124 193.894 227.203C193.254 230.282 191.572 233.046 189.133 235.031C186.693 237.015 183.644 238.099 180.499 238.099C177.354 238.099 174.305 237.015 171.865 235.031C169.426 233.046 167.744 230.282 167.104 227.203C166.464 224.124 166.904 220.918 168.35 218.125C169.796 215.333 172.16 213.123 175.045 211.87C175.65 211.601 176.164 211.163 176.525 210.608C176.886 210.053 177.079 209.405 177.079 208.743V97.8863C177.079 97.1157 176.819 96.3676 176.341 95.7632C175.862 95.1589 175.194 94.7337 174.444 94.5566C173.694 94.3795 172.906 94.4609 172.208 94.7876C171.51 95.1142 170.943 95.667 170.599 96.3564L105.61 226.334C105.373 226.809 105.249 227.333 105.249 227.864C105.249 228.395 105.373 228.919 105.61 229.394L133.919 286.011H122.351C121.444 286.011 120.574 286.372 119.933 287.013C119.291 287.655 118.931 288.525 118.931 289.432V309.955C118.931 310.862 119.291 311.732 119.933 312.373C120.574 313.015 121.444 313.375 122.351 313.375H129.192V344.159C129.192 345.066 129.553 345.936 130.194 346.578C130.836 347.219 131.706 347.58 132.613 347.58C133.52 347.58 134.39 347.219 135.031 346.578C135.673 345.936 136.033 345.066 136.033 344.159V313.375H224.965V344.159C224.965 345.066 225.325 345.936 225.967 346.578C226.608 347.219 227.478 347.58 228.385 347.58C229.293 347.58 230.163 347.219 230.804 346.578C231.446 345.936 231.806 345.066 231.806 344.159V313.375H238.647C239.554 313.375 240.424 313.015 241.065 312.373C241.707 311.732 242.067 310.862 242.067 309.955V289.432C242.067 288.525 241.707 287.655 241.065 287.013C240.424 286.372 239.554 286.011 238.647 286.011H227.08L255.388 229.394C255.626 228.919 255.749 228.395 255.749 227.864C255.749 227.333 255.626 226.809 255.388 226.334L190.4 96.3564ZM235.226 306.534H125.772V292.852H235.226V306.534ZM219.43 286.011H141.568L112.494 227.864L170.238 112.375V206.657C166.325 208.916 163.267 212.402 161.539 216.576C159.81 220.75 159.506 225.378 160.676 229.742C161.845 234.105 164.421 237.962 168.006 240.712C171.59 243.462 175.981 244.953 180.499 244.953C185.017 244.953 189.408 243.462 192.993 240.712C196.577 237.962 199.153 234.105 200.323 229.742C201.492 225.378 201.189 220.75 199.46 216.576C197.731 212.402 194.673 208.916 190.76 206.657V112.375L248.504 227.864L219.43 286.011Z" fill="#32233F"/>
<path d="M300.215 173.136H293.294C292.721 150.588 285.365 128.735 272.185 110.43C259.006 92.1256 240.615 78.2181 219.412 70.5227H276.758C277.59 73.747 279.57 76.557 282.326 78.426C285.082 80.295 288.425 81.0946 291.729 80.675C295.032 80.2554 298.07 78.6454 300.271 76.1467C302.472 73.6481 303.687 70.4323 303.687 67.1023C303.687 63.7722 302.472 60.5564 300.271 58.0578C298.07 55.5591 295.032 53.9491 291.729 53.5295C288.425 53.1099 285.082 53.9095 282.326 55.7785C279.57 57.6475 277.59 60.4575 276.758 63.6818H194.181V56.8409C194.181 55.9337 193.821 55.0637 193.179 54.4223C192.538 53.7808 191.668 53.4204 190.761 53.4204H170.238C169.331 53.4204 168.461 53.7808 167.819 54.4223C167.178 55.0637 166.817 55.9337 166.817 56.8409V63.6818H84.2407C83.4082 60.4575 81.4283 57.6475 78.6722 55.7785C75.916 53.9095 72.5729 53.1099 69.2694 53.5295C65.9659 53.9491 62.9288 55.5591 60.7274 58.0578C58.526 60.5564 57.3115 63.7722 57.3115 67.1023C57.3115 70.4323 58.526 73.6481 60.7274 76.1467C62.9288 78.6454 65.9659 80.2554 69.2694 80.675C72.5729 81.0946 75.916 80.295 78.6722 78.426C81.4283 76.557 83.4082 73.747 84.2407 70.5227H141.585C120.383 78.2181 101.992 92.1256 88.8124 110.43C75.6328 128.735 68.2766 150.588 67.7035 173.136H60.7832C59.8761 173.136 59.0061 173.497 58.3646 174.138C57.7231 174.78 57.3628 175.65 57.3628 176.557V197.08C57.3628 197.987 57.7231 198.857 58.3646 199.498C59.0061 200.14 59.8761 200.5 60.7832 200.5H81.306C82.2131 200.5 83.0831 200.14 83.7246 199.498C84.366 198.857 84.7264 197.987 84.7264 197.08V176.557C84.7264 175.65 84.366 174.78 83.7246 174.138C83.0831 173.497 82.2131 173.136 81.306 173.136H74.5451C75.2315 147.953 84.9153 123.848 101.842 105.189C118.769 86.5303 141.82 74.5514 166.817 71.4226V77.3636C166.817 78.2708 167.178 79.1408 167.819 79.7822C168.461 80.4237 169.331 80.7841 170.238 80.7841H190.761C191.668 80.7841 192.538 80.4237 193.179 79.7822C193.821 79.1408 194.181 78.2708 194.181 77.3636V71.4226C219.179 74.5514 242.229 86.5303 259.156 105.189C276.083 123.848 285.767 147.953 286.453 173.136H279.692C278.785 173.136 277.915 173.497 277.274 174.138C276.632 174.78 276.272 175.65 276.272 176.557V197.08C276.272 197.987 276.632 198.857 277.274 199.498C277.915 200.14 278.785 200.5 279.692 200.5H300.215C301.122 200.5 301.992 200.14 302.634 199.498C303.275 198.857 303.636 197.987 303.636 197.08V176.557C303.636 175.65 303.275 174.78 302.634 174.138C301.992 173.497 301.122 173.136 300.215 173.136ZM77.8855 193.659H64.2037V179.977H77.8855V193.659ZM289.954 60.2614C291.307 60.2614 292.629 60.6626 293.754 61.4143C294.879 62.1659 295.756 63.2343 296.274 64.4844C296.792 65.7344 296.927 67.1098 296.663 68.4369C296.399 69.7639 295.748 70.9828 294.791 71.9395C293.834 72.8962 292.615 73.5478 291.288 73.8117C289.961 74.0757 288.586 73.9402 287.336 73.4224C286.086 72.9047 285.017 72.0278 284.266 70.9029C283.514 69.7779 283.113 68.4553 283.113 67.1023C283.115 65.2885 283.836 63.5495 285.118 62.267C286.401 60.9845 288.14 60.2632 289.954 60.2614ZM71.0446 73.9432C69.6916 73.9432 68.369 73.542 67.244 72.7903C66.119 72.0386 65.2422 70.9702 64.7244 69.7202C64.2066 68.4702 64.0712 67.0947 64.3351 65.7677C64.5991 64.4407 65.2506 63.2217 66.2073 62.265C67.1641 61.3083 68.383 60.6568 69.71 60.3928C71.037 60.1288 72.4125 60.2643 73.6625 60.7821C74.9125 61.2999 75.9809 62.1767 76.7326 63.3017C77.4843 64.4266 77.8855 65.7493 77.8855 67.1023C77.8837 68.916 77.1624 70.655 75.8798 71.9375C74.5973 73.22 72.8584 73.9414 71.0446 73.9432ZM187.34 73.9432H173.658V60.2614H187.34V73.9432ZM296.795 193.659H283.113V179.977H296.795V193.659Z" fill="#32233F"/>
</svg>
