<svg width="301" height="301" viewBox="0 0 301 301" fill="none" xmlns="http://www.w3.org/2000/svg">
<path d="M109.454 239.432L78.6699 177.864L143.659 47.8864V158.743C140.057 160.315 137.107 163.079 135.304 166.569C133.501 170.06 132.955 174.066 133.758 177.912C134.561 181.758 136.663 185.211 139.712 187.689C142.761 190.167 146.57 191.52 150.499 191.52C154.429 191.52 158.238 190.167 161.287 187.689C164.336 185.211 166.438 181.758 167.241 177.912C168.044 174.066 167.498 170.06 165.695 166.569C163.892 163.079 160.941 160.315 157.34 158.743V47.8864L222.329 177.864L191.545 239.432H109.454Z" fill="#FFBA00"/>
<path d="M102.613 259.955H198.386V294.159H102.613V259.955Z" fill="#FFBA00"/>
<path d="M92.3516 239.432H208.647V259.955H92.3516V239.432Z" fill="#FF8E00"/>
<path d="M140.238 6.84089H160.761V27.3636H140.238V6.84089Z" fill="#6499F3"/>
<path d="M30.7842 126.557H51.3069V147.08H30.7842V126.557Z" fill="#6499F3"/>
<path d="M249.693 126.557H270.216V147.08H249.693V126.557Z" fill="#6499F3"/>
<path d="M259.955 27.3636C265.622 27.3636 270.216 22.7694 270.216 17.1022C270.216 11.4351 265.622 6.84089 259.955 6.84089C254.288 6.84089 249.693 11.4351 249.693 17.1022C249.693 22.7694 254.288 27.3636 259.955 27.3636Z" fill="#6499F3"/>
<path d="M41.0455 27.3636C46.7127 27.3636 51.3069 22.7695 51.3069 17.1023C51.3069 11.4351 46.7127 6.84089 41.0455 6.84089C35.3783 6.84089 30.7842 11.4351 30.7842 17.1023C30.7842 22.7695 35.3783 27.3636 41.0455 27.3636Z" fill="#6499F3"/>
<path d="M160.4 46.3564C160.055 45.667 159.488 45.1143 158.79 44.7876C158.092 44.4609 157.304 44.3796 156.554 44.5566C155.804 44.7337 155.136 45.1589 154.658 45.7632C154.179 46.3676 153.919 47.1157 153.92 47.8864V158.743C153.92 159.405 154.112 160.053 154.473 160.608C154.834 161.163 155.348 161.601 155.954 161.87C158.838 163.123 161.202 165.333 162.648 168.125C164.095 170.918 164.535 174.124 163.894 177.203C163.254 180.282 161.572 183.046 159.133 185.031C156.693 187.015 153.644 188.099 150.499 188.099C147.354 188.099 144.305 187.015 141.865 185.031C139.426 183.046 137.744 180.282 137.104 177.203C136.464 174.124 136.904 170.918 138.35 168.125C139.796 165.333 142.16 163.123 145.045 161.87C145.65 161.601 146.164 161.163 146.525 160.608C146.886 160.053 147.079 159.405 147.079 158.743V47.8864C147.079 47.1157 146.819 46.3676 146.341 45.7632C145.862 45.1589 145.194 44.7337 144.444 44.5566C143.694 44.3796 142.906 44.4609 142.208 44.7876C141.51 45.1143 140.943 45.667 140.599 46.3564L75.61 176.334C75.3726 176.809 75.249 177.333 75.249 177.864C75.249 178.395 75.3726 178.919 75.61 179.394L103.919 236.011H92.3514C91.4442 236.011 90.5742 236.372 89.9327 237.013C89.2913 237.655 88.9309 238.525 88.9309 239.432V259.955C88.9309 260.862 89.2913 261.732 89.9327 262.373C90.5742 263.015 91.4442 263.375 92.3514 263.375H99.1923V294.159C99.1923 295.066 99.5526 295.936 100.194 296.578C100.836 297.219 101.706 297.58 102.613 297.58C103.52 297.58 104.39 297.219 105.031 296.578C105.673 295.936 106.033 295.066 106.033 294.159V263.375H194.965V294.159C194.965 295.066 195.325 295.936 195.967 296.578C196.608 297.219 197.478 297.58 198.385 297.58C199.293 297.58 200.163 297.219 200.804 296.578C201.446 295.936 201.806 295.066 201.806 294.159V263.375H208.647C209.554 263.375 210.424 263.015 211.065 262.373C211.707 261.732 212.067 260.862 212.067 259.955V239.432C212.067 238.525 211.707 237.655 211.065 237.013C210.424 236.372 209.554 236.011 208.647 236.011H197.08L225.388 179.394C225.626 178.919 225.749 178.395 225.749 177.864C225.749 177.333 225.626 176.809 225.388 176.334L160.4 46.3564ZM205.226 256.534H95.7718V242.852H205.226V256.534ZM189.43 236.011H111.568L82.4943 177.864L140.238 62.3747V156.657C136.325 158.916 133.267 162.402 131.539 166.576C129.81 170.75 129.506 175.378 130.676 179.742C131.845 184.106 134.421 187.962 138.006 190.712C141.59 193.462 145.981 194.953 150.499 194.953C155.017 194.953 159.408 193.462 162.993 190.712C166.577 187.962 169.153 184.106 170.323 179.742C171.492 175.378 171.188 170.75 169.46 166.576C167.731 162.402 164.673 158.916 160.76 156.657V62.3747L218.504 177.864L189.43 236.011Z" fill="#32233F"/>
<path d="M270.215 123.136H263.294C262.721 100.588 255.365 78.7354 242.185 60.4305C229.006 42.1256 210.615 28.2181 189.412 20.5227H246.758C247.59 23.747 249.57 26.557 252.326 28.426C255.082 30.295 258.425 31.0946 261.729 30.675C265.032 30.2554 268.07 28.6454 270.271 26.1467C272.472 23.6481 273.687 20.4323 273.687 17.1023C273.687 13.7722 272.472 10.5565 270.271 8.05779C268.07 5.55913 265.032 3.9491 261.729 3.5295C258.425 3.10989 255.082 3.90952 252.326 5.7785C249.57 7.64748 247.59 10.4575 246.758 13.6818H164.181V6.8409C164.181 5.93374 163.821 5.06373 163.179 4.42227C162.538 3.78082 161.668 3.42045 160.761 3.42045H140.238C139.331 3.42045 138.461 3.78082 137.819 4.42227C137.178 5.06373 136.817 5.93374 136.817 6.8409V13.6818H54.2407C53.4082 10.4575 51.4283 7.64748 48.6722 5.7785C45.916 3.90952 42.5729 3.10989 39.2694 3.5295C35.9659 3.9491 32.9288 5.55913 30.7274 8.05779C28.526 10.5565 27.3115 13.7722 27.3115 17.1023C27.3115 20.4323 28.526 23.6481 30.7274 26.1467C32.9288 28.6454 35.9659 30.2554 39.2694 30.675C42.5729 31.0946 45.916 30.295 48.6722 28.426C51.4283 26.557 53.4082 23.747 54.2407 20.5227H111.585C90.3827 28.2181 71.9919 42.1256 58.8124 60.4305C45.6328 78.7354 38.2766 100.588 37.7035 123.136H30.7832C29.8761 123.136 29.0061 123.497 28.3646 124.138C27.7231 124.78 27.3628 125.65 27.3628 126.557V147.08C27.3628 147.987 27.7231 148.857 28.3646 149.498C29.0061 150.14 29.8761 150.5 30.7832 150.5H51.306C52.2131 150.5 53.0831 150.14 53.7246 149.498C54.366 148.857 54.7264 147.987 54.7264 147.08V126.557C54.7264 125.65 54.366 124.78 53.7246 124.138C53.0831 123.497 52.2131 123.136 51.306 123.136H44.5451C45.2315 97.9529 54.9153 73.8482 71.8423 55.1893C88.7692 36.5303 111.82 24.5514 136.817 21.4226V27.3636C136.817 28.2708 137.178 29.1408 137.819 29.7823C138.461 30.4237 139.331 30.7841 140.238 30.7841H160.761C161.668 30.7841 162.538 30.4237 163.179 29.7823C163.821 29.1408 164.181 28.2708 164.181 27.3636V21.4226C189.179 24.5514 212.229 36.5303 229.156 55.1893C246.083 73.8482 255.767 97.9529 256.453 123.136H249.692C248.785 123.136 247.915 123.497 247.274 124.138C246.632 124.78 246.272 125.65 246.272 126.557V147.08C246.272 147.987 246.632 148.857 247.274 149.498C247.915 150.14 248.785 150.5 249.692 150.5H270.215C271.122 150.5 271.992 150.14 272.634 149.498C273.275 148.857 273.636 147.987 273.636 147.08V126.557C273.636 125.65 273.275 124.78 272.634 124.138C271.992 123.497 271.122 123.136 270.215 123.136ZM47.8855 143.659H34.2037V129.977H47.8855V143.659ZM259.954 10.2614C261.307 10.2614 262.629 10.6626 263.754 11.4143C264.879 12.1659 265.756 13.2343 266.274 14.4844C266.792 15.7344 266.927 17.1099 266.663 18.4369C266.399 19.7639 265.748 20.9828 264.791 21.9395C263.834 22.8962 262.615 23.5478 261.288 23.8117C259.961 24.0757 258.586 23.9402 257.336 23.4224C256.086 22.9047 255.017 22.0278 254.266 20.9029C253.514 19.7779 253.113 18.4553 253.113 17.1023C253.115 15.2885 253.836 13.5495 255.118 12.267C256.401 10.9845 258.14 10.2632 259.954 10.2614ZM41.0446 23.9432C39.6916 23.9432 38.369 23.542 37.244 22.7903C36.119 22.0386 35.2422 20.9702 34.7244 19.7202C34.2066 18.4702 34.0712 17.0947 34.3351 15.7677C34.5991 14.4407 35.2506 13.2217 36.2073 12.265C37.1641 11.3083 38.383 10.6568 39.71 10.3928C41.037 10.1288 42.4125 10.2643 43.6625 10.7821C44.9125 11.2999 45.9809 12.1767 46.7326 13.3017C47.4843 14.4266 47.8855 15.7493 47.8855 17.1023C47.8837 18.916 47.1624 20.655 45.8798 21.9375C44.5973 23.22 42.8584 23.9414 41.0446 23.9432ZM157.34 23.9432H143.658V10.2614H157.34V23.9432ZM266.795 143.659H253.113V129.977H266.795V143.659Z" fill="#32233F"/>
</svg>
