<svg width="318" height="318" viewBox="0 0 318 318" fill="none" xmlns="http://www.w3.org/2000/svg">
<path fill-rule="evenodd" clip-rule="evenodd" d="M114.981 126.038C176.001 126.038 225.467 159.164 225.467 200.026C225.467 240.889 176.001 274.015 114.981 274.015C109.176 274.015 103.474 273.713 97.9106 273.135L43.7361 310.933C43.2914 311.243 42.7298 311.247 42.2807 310.943C41.8315 310.639 41.6265 310.117 41.7493 309.588L52.9667 261.266C23.7147 247.956 4.49707 225.494 4.49707 200.026C4.49579 159.164 53.9621 126.038 114.981 126.038Z" fill="#F4F6F8"/>
<path fill-rule="evenodd" clip-rule="evenodd" d="M162.608 247.63H234.299C237.556 247.63 240.221 250.296 240.221 253.552V306.925C240.221 310.182 237.555 312.847 234.299 312.847H162.608C159.351 312.847 156.686 310.182 156.686 306.925V253.552C156.685 250.295 159.35 247.63 162.608 247.63Z" fill="#EA4256"/>
<path fill-rule="evenodd" clip-rule="evenodd" d="M209.359 281.352L187.547 293.944C187.138 294.18 186.67 294.18 186.262 293.944C185.853 293.709 185.619 293.303 185.619 292.831V267.646C185.619 267.174 185.853 266.768 186.262 266.533C186.67 266.297 187.138 266.297 187.547 266.533L209.359 279.125C209.767 279.361 210.001 279.766 210.001 280.238C210.001 280.711 209.767 281.116 209.359 281.352Z" fill="#F4F6F8"/>
<path d="M256.207 77.8405C265.102 76.8919 271.544 68.9124 270.595 60.0176C269.647 51.1228 261.667 44.6812 252.772 45.6297C243.878 46.5782 237.436 54.5578 238.384 63.4526C239.333 72.3473 247.313 78.789 256.207 77.8405Z" fill="#E4E8EB"/>
<path fill-rule="evenodd" clip-rule="evenodd" d="M167.084 143.566L132.545 131.436L139.986 96.6317C170.423 74.6684 192.654 48.795 203.043 24.722L260.887 124.912C234.845 121.873 201.323 128.187 167.084 143.566Z" fill="#E4E8EB"/>
<path fill-rule="evenodd" clip-rule="evenodd" d="M203.731 8.70266C210.395 4.85555 218.994 7.15983 222.841 13.8234L280.226 113.217C284.073 119.88 281.769 128.48 275.105 132.326C268.442 136.173 259.843 133.869 255.996 127.206L198.611 27.8123C194.763 21.1488 197.067 12.5498 203.731 8.70266Z" fill="#EA4256"/>
<path fill-rule="evenodd" clip-rule="evenodd" d="M147.176 153.669L166.067 142.762L202.619 191.963C204.464 194.445 204.174 197.884 201.884 199.962L194.739 206.446C193.463 207.603 191.927 208.119 190.211 207.964C188.495 207.809 187.06 207.039 186.029 205.659L147.176 153.669Z" fill="#CAD0D7"/>
<path fill-rule="evenodd" clip-rule="evenodd" d="M135.745 95.713L115 107.69C100.705 115.944 95.7606 134.393 104.015 148.689C112.268 162.985 130.718 167.928 145.014 159.675L165.759 147.698C167.291 146.813 167.819 144.841 166.935 143.309L140.134 96.8889C139.249 95.3563 137.277 94.8281 135.745 95.713Z" fill="#EA4256"/>
<path fill-rule="evenodd" clip-rule="evenodd" d="M96.3745 59.78C87.0204 59.78 82.327 71.1125 88.9411 77.7265C90.1594 78.9449 90.1594 80.9208 88.9411 82.1391L82.2236 88.8566C81.0053 90.075 79.0293 90.075 77.811 88.8566C71.197 82.2426 59.8645 86.936 59.8645 96.29C59.8645 98.014 58.4675 99.4097 56.7447 99.4097H47.2449C45.5221 99.4097 44.1251 98.0134 44.1251 96.29C44.1251 86.9244 32.801 82.2342 26.1786 88.8566C24.9603 90.075 22.9843 90.075 21.7654 88.8566L15.0478 82.1391C13.8295 80.9208 13.8295 78.9449 15.0478 77.7265C21.6619 71.1125 16.9685 59.78 7.6145 59.78C5.89046 59.78 4.49414 58.383 4.49414 56.6603V47.1604C4.49414 45.4376 5.89046 44.04 7.6145 44.04C16.9685 44.04 21.6619 32.7075 15.0478 26.0935C13.8295 24.8751 13.8295 22.8992 15.0478 21.6809L21.7654 14.9634C22.9837 13.745 24.9596 13.745 26.1786 14.9634C32.792 21.5774 44.1245 16.884 44.1245 7.53003C44.1245 5.80599 45.5215 4.40967 47.2442 4.40967H56.7441C58.4668 4.40967 59.8638 5.80599 59.8638 7.53003C59.8638 16.884 71.1963 21.5774 77.8104 14.9634C79.0287 13.745 81.0046 13.745 82.223 14.9634L88.9405 21.6809C90.1588 22.8992 90.1588 24.8751 88.9405 26.0935C82.3264 32.7075 87.0198 44.04 96.3738 44.04C98.0978 44.04 99.4942 45.437 99.4942 47.1604V56.6603C99.4948 58.383 98.0985 59.78 96.3745 59.78ZM51.9942 29.0872C39.3893 29.0872 29.1711 39.3055 29.1711 51.9097C29.1711 64.5145 39.3893 74.7321 51.9942 74.7321C64.599 74.7321 74.8172 64.5145 74.8172 51.9097C74.8172 39.3055 64.599 29.0872 51.9942 29.0872Z" fill="#FDCD56"/>
<path fill-rule="evenodd" clip-rule="evenodd" d="M249.254 232.732L250.869 233.665C271.799 245.748 292.138 221.274 301.511 205.04C310.883 188.806 321.909 158.955 300.979 146.871L299.364 145.938C296.013 144.004 291.702 145.159 289.767 148.51L283.309 159.696C281.375 163.047 282.529 167.358 285.88 169.292L289.669 171.479C292.601 173.172 293.896 176.615 292.808 179.821C291.046 185.014 288.603 190.428 285.502 195.798C282.402 201.169 278.934 205.99 275.318 210.114C273.086 212.659 269.456 213.258 266.524 211.566L262.736 209.378C259.385 207.444 255.074 208.599 253.14 211.949L246.681 223.136C244.748 226.486 245.903 230.798 249.254 232.732Z" fill="#42C642"/>
<path fill-rule="evenodd" clip-rule="evenodd" d="M298.735 150.766L297.12 149.835C295.914 149.137 294.366 149.551 293.67 150.757L287.212 161.944C286.873 162.525 286.788 163.205 286.961 163.861C287.136 164.515 287.553 165.062 288.131 165.398L291.923 167.584C296.743 170.369 298.862 175.993 297.069 181.266C295.161 186.896 292.585 192.541 289.404 198.048C286.224 203.554 282.625 208.612 278.703 213.081C275.036 217.266 269.107 218.246 264.281 215.461L260.495 213.275C260.096 213.045 259.661 212.936 259.235 212.936C258.361 212.936 257.508 213.39 257.045 214.2L250.581 225.385C250.246 225.965 250.164 226.646 250.336 227.302C250.508 227.958 250.929 228.502 251.506 228.837L253.124 229.769C260.783 234.192 268.868 233.079 277.84 226.37C287.646 219.034 294.939 207.436 297.624 202.791C300.302 198.147 306.697 186.028 308.149 173.867C309.472 162.743 306.394 155.19 298.735 150.766ZM272.846 0H271.061C269.84 0.24675 268.727 0.995997 268.057 2.15906L257.474 20.4854C256.234 22.638 256.972 25.387 259.119 26.6297C259.832 27.041 260.603 27.2344 261.369 27.2344C262.923 27.2344 264.432 26.4273 265.269 24.9847L275.846 6.65839C277.092 4.50833 276.354 1.75681 274.201 0.514063C273.768 0.2641 273.311 0.094459 272.846 0ZM317.08 174.932C315.492 188.251 309.085 200.923 305.411 207.288C301.734 213.656 293.967 225.539 283.223 233.573C276.257 238.783 269.245 241.404 262.454 241.404C257.703 241.404 253.065 240.128 248.627 237.561L247.006 236.626C244.345 235.09 242.443 232.608 241.649 229.629C240.85 226.654 241.255 223.548 242.792 220.888L249.25 209.7C252.425 204.197 259.485 202.304 264.995 205.482L268.778 207.672C269.851 208.292 271.124 208.08 271.946 207.149C275.475 203.121 278.731 198.546 281.616 193.548C284.494 188.554 286.835 183.446 288.558 178.376C288.954 177.2 288.498 175.996 287.424 175.374L283.632 173.188C280.974 171.652 279.072 169.166 278.274 166.191C277.479 163.215 277.884 160.11 279.417 157.446L285.876 146.262C289.051 140.759 296.114 138.869 301.62 142.044L303.232 142.975C314.041 149.215 318.827 160.267 317.08 174.932ZM107.915 146.44C111.307 152.315 116.813 156.524 123.42 158.293C130.027 160.065 136.894 159.17 142.769 155.78L162.398 144.444L136.888 100.251L117.252 111.586C111.377 114.979 107.171 120.482 105.402 127.088C103.627 133.695 104.522 140.568 107.915 146.44ZM145.898 97.873C169.452 80.3178 188.462 60.038 200.363 39.8308L246.459 119.683C223.013 119.886 195.946 126.205 168.965 137.828L145.898 97.873ZM202.507 25.5624C201.25 23.3789 200.92 20.824 201.576 18.3662C202.238 15.9077 203.798 13.8578 205.984 12.5971C207.475 11.738 209.108 11.3274 210.714 11.3274C213.997 11.3274 217.19 13.0296 218.953 16.0715L276.334 115.466C277.594 117.649 277.927 120.204 277.268 122.665C276.603 125.123 275.043 127.173 272.859 128.431C270.68 129.692 268.121 130.021 265.66 129.365C263.208 128.706 261.157 127.14 259.897 124.96L202.507 25.5624ZM249.604 51.1756L261.26 71.3647C266.207 67.9359 267.794 61.2081 264.731 55.9049C261.662 50.5985 255.046 48.6059 249.604 51.1756ZM199.012 194.646C199.49 195.287 199.429 196.121 198.863 196.63L191.718 203.115C191.295 203.499 190.826 203.517 190.582 203.493C190.312 203.469 189.926 203.353 189.638 202.967L156.299 158.356L167.327 151.991L199.012 194.646ZM96.7151 124.76C99.1035 115.834 104.803 108.387 112.753 103.794L136.282 90.2115C137.32 89.6127 138.544 89.4527 139.696 89.7611C140.153 89.8851 140.576 90.0785 140.969 90.3266C165.143 72.2328 184.213 51.2816 195.132 30.7782L194.72 30.0617C189.623 21.2327 192.658 9.90598 201.484 4.80841C210.313 -0.289802 221.643 2.74638 226.738 11.5754L245.091 43.3663C254.845 38.3227 266.97 41.8029 272.515 51.4062C278.061 61.0096 275.01 73.2552 265.77 79.1785L284.12 110.969C286.588 115.233 287.238 120.213 285.953 124.993C284.674 129.773 281.62 133.762 277.354 136.223C274.521 137.859 271.374 138.696 268.174 138.696C266.559 138.696 264.933 138.481 263.333 138.052C258.553 136.773 254.561 133.719 252.1 129.456L251.689 128.739C228.672 127.953 201.272 133.877 173.76 145.563L206.234 189.282C209.473 193.645 208.907 199.668 204.91 203.294L197.765 209.777C195.83 211.534 193.305 212.498 190.717 212.498C190.387 212.498 190.055 212.483 189.719 212.45C186.822 212.172 184.167 210.675 182.425 208.353L148.452 162.886L147.263 163.572C141.984 166.623 136.097 168.183 130.125 168.183C127.114 168.183 124.081 167.787 121.085 166.983C112.162 164.591 104.712 158.895 100.125 150.939C95.5327 142.983 94.3176 133.686 96.7151 124.76ZM287.279 75.3956C287.279 77.8811 289.289 79.895 291.775 79.895H312.934C315.423 79.895 317.434 77.8811 317.434 75.3956C317.434 72.9133 315.423 70.8995 312.934 70.8995H291.775C289.289 70.8989 287.279 72.9127 287.279 75.3956ZM288.08 46.9243C288.839 46.9243 289.616 46.7309 290.323 46.3222L307.691 36.2896C309.844 35.0501 310.582 32.2979 309.342 30.1453C308.096 27.9958 305.345 27.2575 303.195 28.5003L285.825 38.5296C283.672 39.7724 282.934 42.5207 284.18 44.674C285.011 46.1172 286.526 46.9243 288.08 46.9243ZM202.295 280.239L190.119 273.209V287.266L202.295 280.239ZM215.79 280.239C215.79 281.845 214.928 283.329 213.54 284.134L187.869 298.952C187.177 299.355 186.4 299.555 185.623 299.555C184.852 299.555 184.072 299.355 183.37 298.952C181.982 298.149 181.123 296.664 181.123 295.058V265.42C181.123 263.815 181.982 262.327 183.37 261.525C184.767 260.722 186.481 260.722 187.869 261.525L213.54 276.341C214.928 277.147 215.79 278.631 215.79 280.239ZM235.728 253.553V306.924C235.728 307.698 235.074 308.351 234.304 308.351H162.61C161.838 308.351 161.191 307.698 161.191 306.924V253.553C161.191 252.782 161.838 252.129 162.61 252.129H234.304C235.075 252.128 235.728 252.782 235.728 253.553ZM244.727 253.553C244.727 247.808 240.049 243.134 234.304 243.134H211.185C223.374 230.429 229.965 215.446 229.965 200.028C229.965 180.486 219.473 161.791 200.412 147.389C198.428 145.893 195.607 146.283 194.111 148.267C192.614 150.247 193.004 153.068 194.985 154.565C211.742 167.228 220.97 183.374 220.97 200.029C220.97 215.616 212.815 230.871 197.972 243.134H162.61C156.865 243.134 152.197 247.809 152.197 253.554V265.083C140.313 268.024 127.816 269.518 114.984 269.518C109.424 269.518 103.839 269.231 98.3781 268.663C97.3043 268.551 96.2248 268.829 95.3393 269.446L48.025 302.458L57.3501 262.286C57.8307 260.2 56.7788 258.059 54.8312 257.176C26.1337 244.114 8.99545 222.752 8.99545 200.029C8.99545 185.229 16.0831 171.069 29.4866 159.08C42.815 147.163 61.879 138.165 83.1689 133.751C85.5965 133.246 87.1664 130.863 86.6581 128.432C86.1562 125.998 83.7736 124.438 81.3363 124.94C58.1899 129.741 38.1884 139.229 23.4843 152.376C8.12154 166.117 0 182.594 0 200.027C0 225.447 17.7789 249.074 47.768 263.782L36.6135 311.83C36.19 313.644 36.9277 315.528 38.4699 316.571C39.2352 317.088 40.1149 317.345 40.9946 317.345C41.8955 317.345 42.7938 317.073 43.5649 316.535L99.1247 277.774C104.356 278.264 109.68 278.512 114.984 278.512C127.771 278.512 140.256 277.106 152.196 274.333V306.922C152.196 312.67 156.864 317.345 162.61 317.345H234.304C240.049 317.345 244.727 312.671 244.727 306.922V253.553ZM60.6067 187.851H140.05C142.535 187.851 144.546 185.837 144.546 183.352C144.546 180.87 142.535 178.856 140.05 178.856H60.6067C58.1276 178.856 56.1106 180.87 56.1106 183.352C56.1106 185.837 58.127 187.851 60.6067 187.851ZM56.1106 216.7C56.1106 219.186 58.1276 221.2 60.6067 221.2H169.359C171.838 221.2 173.855 219.186 173.855 216.7C173.855 214.215 171.838 212.201 169.359 212.201H60.6067C58.127 212.201 56.1106 214.215 56.1106 216.7Z" fill="black"/>
<path fill-rule="evenodd" clip-rule="evenodd" d="M94.3568 23.8872C94.3568 21.8522 93.5645 19.9411 92.1284 18.4992L85.4038 11.7836C82.4344 8.81103 77.6029 8.81103 74.6367 11.7836C72.0002 14.4143 68.9551 13.4408 68.0812 13.0778C67.2072 12.7179 64.3683 11.2515 64.3683 7.52909C64.3683 3.72246 61.5583 0.5584 57.9021 0H46.0915C42.4359 0.5584 39.6284 3.72181 39.6284 7.52909C39.6284 11.2515 36.7895 12.7179 35.9156 13.0778C35.0449 13.4408 31.994 14.4143 29.3665 11.7836C26.3913 8.81103 21.5591 8.81103 18.5898 11.7836L11.8742 18.4992C10.4348 19.9386 9.63996 21.8522 9.63996 23.8872C9.63996 25.9222 10.4355 27.8365 11.8684 29.2752C14.5023 31.9059 13.5256 34.9537 13.1658 35.8244C12.8059 36.6983 11.3428 39.5404 7.62033 39.5404C3.4198 39.541 0 42.9602 0 47.1607V56.6613C0 60.8611 3.4198 64.2777 7.61969 64.2777C11.3421 64.2777 12.8053 67.1231 13.1651 67.9938C13.525 68.8645 14.5017 71.9154 11.8736 74.5461C10.4342 75.9855 9.63931 77.8965 9.63931 79.9342C9.63931 81.9692 10.4348 83.8828 11.8678 85.3196L18.5898 92.0378C20.0292 93.4771 21.937 94.2694 23.9752 94.2694C26.0128 94.2694 27.9271 93.4771 29.3665 92.0378C31.9997 89.398 35.0449 90.3722 35.9188 90.7346C36.7895 91.0945 39.6291 92.5608 39.6291 96.2923C39.6291 100.492 43.0457 103.909 47.2488 103.909H56.7461C60.9492 103.909 64.369 100.492 64.369 96.2923C64.369 92.5698 67.2143 91.1034 68.0818 90.741C68.9557 90.3812 72.0002 89.4077 74.6374 92.0378C76.0768 93.4771 77.9846 94.2694 80.0228 94.2694C82.0579 94.2694 83.9747 93.4771 85.4051 92.0378L92.1296 85.319C95.0958 82.3496 95.0958 77.5148 92.1296 74.5455C89.4931 71.9148 90.4699 68.8638 90.8297 67.9931C91.1896 67.1224 92.6623 64.2771 96.3809 64.2771C100.578 64.2771 103.997 60.8605 103.997 56.6606V47.1607C103.997 42.9608 100.578 39.541 96.3809 39.541C92.6617 39.541 91.1896 36.6989 90.8297 35.825C90.4699 34.9543 89.4931 31.9059 92.1296 29.2759C93.5645 27.8365 94.3568 25.9222 94.3568 23.8872ZM79.9823 19.0769L84.8325 23.9296C81.2283 28.2233 80.33 33.9802 82.5192 39.2686C84.7111 44.557 89.416 47.9916 94.9981 48.4787V55.342C89.4167 55.8291 84.7117 59.2637 82.5192 64.5489C80.33 69.8405 81.2283 75.5974 84.8325 79.8911L79.9823 84.7439C75.6828 81.1364 69.9253 80.2387 64.6369 82.4274C59.3485 84.6192 55.9165 89.3274 55.4269 94.912H48.5661C48.0854 89.3209 44.6444 84.6102 39.3592 82.4209C34.0766 80.2317 28.3107 81.1332 24.0202 84.7432L19.161 79.8904C22.7717 75.5967 23.6662 69.8399 21.4801 64.5483C19.2883 59.2631 14.5801 55.8278 8.99545 55.3414V48.4787C14.5801 47.9922 19.2883 44.557 21.4801 39.2686C23.6662 33.9802 22.771 28.2233 19.161 23.9296L24.0202 19.0769C28.3107 22.6811 34.0676 23.582 39.3592 21.3901C44.6444 19.2009 48.0764 14.4933 48.5661 8.9087H55.4269C55.9165 14.4933 59.3485 19.2009 64.6369 21.3901C69.9253 23.5788 75.6822 22.6811 79.9823 19.0769Z" fill="black"/>
<path fill-rule="evenodd" clip-rule="evenodd" d="M79.3206 51.9108C79.3206 36.8468 67.066 24.589 51.9988 24.589C36.9349 24.589 24.6738 36.8468 24.6738 51.9108C24.6738 66.9747 36.9349 79.2325 51.9988 79.2325C67.066 79.2325 79.3206 66.9747 79.3206 51.9108ZM51.9988 33.5844C62.1072 33.5844 70.3252 41.8056 70.3252 51.9108C70.3252 62.0159 62.1066 70.2339 51.9988 70.2339C41.8968 70.2339 33.6725 62.0159 33.6725 51.9108C33.6725 41.8056 41.8968 33.5844 51.9988 33.5844Z" fill="black"/>
</svg>
