<svg width="342" height="365" viewBox="0 0 342 365" fill="none" xmlns="http://www.w3.org/2000/svg">
<path d="M171 365C265.441 365 342 288.441 342 194C342 99.5593 265.441 23 171 23C76.5593 23 0 99.5593 0 194C0 288.441 76.5593 365 171 365Z" fill="#DFDFDF"/>
<mask id="mask0_1_54" style="mask-type:alpha" maskUnits="userSpaceOnUse" x="0" y="23" width="342" height="342">
<path d="M171 365C265.441 365 342 288.441 342 194C342 99.5593 265.441 23 171 23C76.5593 23 0 99.5593 0 194C0 288.441 76.5593 365 171 365Z" fill="#017CF5"/>
</mask>
<g mask="url(#mask0_1_54)">
<line opacity="0.4" x1="-7" y1="61.5" x2="344" y2="61.5" stroke="white"/>
<line opacity="0.4" x1="-7" y1="94.5" x2="344" y2="94.5" stroke="white"/>
<line opacity="0.4" x1="-7" y1="128.5" x2="344" y2="128.5" stroke="white"/>
<line opacity="0.4" x1="-7" y1="163.5" x2="344" y2="163.5" stroke="white"/>
<line opacity="0.4" x1="-7" y1="207.5" x2="344" y2="207.5" stroke="white"/>
<line opacity="0.4" x1="-7" y1="256.5" x2="344" y2="256.5" stroke="white"/>
<line opacity="0.4" x1="-7" y1="299.5" x2="344" y2="299.5" stroke="white"/>
<line opacity="0.4" x1="-7" y1="338.5" x2="344" y2="338.5" stroke="white"/>
<path fill-rule="evenodd" clip-rule="evenodd" d="M136.981 126.038C198.001 126.038 247.468 159.163 247.468 200.026C247.468 240.889 198.001 274.015 136.981 274.015C131.176 274.015 125.474 273.713 119.911 273.135L65.7362 310.933C65.2916 311.243 64.73 311.247 64.2808 310.943C63.8316 310.639 63.6267 310.117 63.7494 309.588L74.9669 261.266C45.7148 247.956 26.4972 225.494 26.4972 200.026C26.4959 159.163 75.9622 126.038 136.981 126.038Z" fill="#F4F6F8"/>
<path fill-rule="evenodd" clip-rule="evenodd" d="M184.607 247.631H256.299C259.556 247.631 262.221 250.296 262.221 253.553V306.925C262.221 310.182 259.555 312.847 256.299 312.847H184.607C181.351 312.847 178.685 310.182 178.685 306.925V253.553C178.685 250.295 181.35 247.631 184.607 247.631Z" fill="#EA4256"/>
<path fill-rule="evenodd" clip-rule="evenodd" d="M231.358 281.352L209.547 293.944C209.138 294.18 208.67 294.18 208.262 293.944C207.853 293.709 207.619 293.303 207.619 292.831V267.646C207.619 267.174 207.853 266.769 208.262 266.533C208.67 266.297 209.138 266.297 209.547 266.533L231.358 279.125C231.767 279.361 232.001 279.766 232.001 280.238C232.001 280.711 231.767 281.116 231.358 281.352Z" fill="#F4F6F8"/>
<path d="M278.207 77.8405C287.102 76.8919 293.544 68.9124 292.595 60.0176C291.647 51.1228 283.667 44.6812 274.772 45.6297C265.878 46.5782 259.436 54.5578 260.385 63.4526C261.333 72.3473 269.313 78.789 278.207 77.8405Z" fill="#E4E8EB"/>
<path fill-rule="evenodd" clip-rule="evenodd" d="M189.084 143.566L154.545 131.436L161.986 96.6317C192.423 74.6684 214.654 48.795 225.043 24.722L282.887 124.912C256.845 121.873 223.323 128.187 189.084 143.566Z" fill="#E4E8EB"/>
<path fill-rule="evenodd" clip-rule="evenodd" d="M225.731 8.70266C232.395 4.85555 240.994 7.15983 244.841 13.8234L302.226 113.217C306.073 119.88 303.769 128.48 297.106 132.326C290.442 136.173 281.843 133.869 277.996 127.206L220.611 27.8123C216.763 21.1488 219.068 12.5498 225.731 8.70266Z" fill="#EA4256"/>
<path fill-rule="evenodd" clip-rule="evenodd" d="M169.176 153.669L188.067 142.762L224.619 191.963C226.464 194.445 226.174 197.884 223.884 199.962L216.739 206.446C215.463 207.603 213.928 208.119 212.211 207.964C210.495 207.809 209.06 207.039 208.029 205.659L169.176 153.669Z" fill="#CAD0D7"/>
<path fill-rule="evenodd" clip-rule="evenodd" d="M157.745 95.713L137 107.69C122.705 115.944 117.761 134.393 126.015 148.689C134.268 162.985 152.718 167.928 167.014 159.675L187.759 147.698C189.291 146.813 189.819 144.841 188.935 143.309L162.134 96.8889C161.249 95.3563 159.277 94.8281 157.745 95.713Z" fill="#EA4256"/>
<path fill-rule="evenodd" clip-rule="evenodd" d="M118.374 59.78C109.02 59.78 104.327 71.1125 110.941 77.7265C112.159 78.9449 112.159 80.9208 110.941 82.1391L104.224 88.8566C103.005 90.075 101.029 90.075 99.811 88.8566C93.197 82.2426 81.8645 86.936 81.8645 96.29C81.8645 98.014 80.4675 99.4097 78.7447 99.4097H69.2449C67.5221 99.4097 66.1251 98.0134 66.1251 96.29C66.1251 86.9244 54.801 82.2342 48.1786 88.8566C46.9603 90.075 44.9843 90.075 43.7654 88.8566L37.0478 82.1391C35.8295 80.9208 35.8295 78.9449 37.0478 77.7265C43.6619 71.1125 38.9685 59.78 29.6145 59.78C27.8905 59.78 26.4941 58.383 26.4941 56.6603V47.1604C26.4941 45.4376 27.8905 44.04 29.6145 44.04C38.9685 44.04 43.6619 32.7075 37.0478 26.0935C35.8295 24.8751 35.8295 22.8992 37.0478 21.6809L43.7654 14.9634C44.9837 13.745 46.9596 13.745 48.1786 14.9634C54.792 21.5774 66.1245 16.884 66.1245 7.53003C66.1245 5.80599 67.5215 4.40967 69.2442 4.40967H78.7441C80.4668 4.40967 81.8638 5.80599 81.8638 7.53003C81.8638 16.884 93.1963 21.5774 99.8104 14.9634C101.029 13.745 103.005 13.745 104.223 14.9634L110.94 21.6809C112.159 22.8992 112.159 24.8751 110.94 26.0935C104.326 32.7075 109.02 44.04 118.374 44.04C120.098 44.04 121.494 45.437 121.494 47.1604V56.6603C121.495 58.383 120.098 59.78 118.374 59.78ZM73.9942 29.0872C61.3893 29.0872 51.1711 39.3055 51.1711 51.9097C51.1711 64.5145 61.3893 74.7321 73.9942 74.7321C86.599 74.7321 96.8172 64.5145 96.8172 51.9097C96.8172 39.3055 86.599 29.0872 73.9942 29.0872Z" fill="#FDCD56"/>
<path fill-rule="evenodd" clip-rule="evenodd" d="M271.254 232.732L272.869 233.665C293.799 245.748 314.138 221.274 323.511 205.04C332.883 188.806 343.909 158.955 322.979 146.871L321.364 145.938C318.013 144.004 313.702 145.159 311.767 148.51L305.309 159.696C303.375 163.047 304.529 167.358 307.88 169.292L311.669 171.479C314.601 173.172 315.896 176.615 314.808 179.821C313.046 185.014 310.603 190.428 307.502 195.798C304.402 201.169 300.934 205.99 297.318 210.114C295.086 212.659 291.456 213.258 288.524 211.566L284.736 209.378C281.385 207.444 277.074 208.599 275.14 211.949L268.681 223.136C266.748 226.486 267.903 230.798 271.254 232.732Z" fill="#42C642"/>
<path fill-rule="evenodd" clip-rule="evenodd" d="M320.735 150.766L319.12 149.835C317.914 149.137 316.366 149.551 315.67 150.757L309.212 161.944C308.873 162.525 308.788 163.205 308.961 163.861C309.136 164.515 309.553 165.062 310.131 165.398L313.923 167.584C318.743 170.369 320.862 175.993 319.069 181.266C317.161 186.896 314.585 192.541 311.404 198.048C308.224 203.554 304.625 208.612 300.703 213.081C297.036 217.266 291.107 218.246 286.281 215.461L282.495 213.275C282.096 213.045 281.661 212.936 281.235 212.936C280.361 212.936 279.508 213.39 279.045 214.2L272.581 225.385C272.246 225.965 272.164 226.646 272.336 227.302C272.508 227.958 272.929 228.502 273.506 228.837L275.124 229.769C282.783 234.192 290.868 233.079 299.84 226.37C309.646 219.034 316.939 207.436 319.624 202.791C322.302 198.147 328.697 186.028 330.149 173.867C331.472 162.743 328.394 155.19 320.735 150.766ZM294.846 0H293.061C291.84 0.24675 290.727 0.995997 290.057 2.15906L279.474 20.4854C278.234 22.638 278.972 25.387 281.119 26.6297C281.832 27.041 282.603 27.2344 283.369 27.2344C284.923 27.2344 286.432 26.4273 287.269 24.9847L297.846 6.65839C299.092 4.50833 298.354 1.75681 296.201 0.514063C295.768 0.2641 295.311 0.094459 294.846 0ZM339.08 174.932C337.492 188.251 331.085 200.923 327.411 207.288C323.734 213.656 315.967 225.539 305.223 233.573C298.257 238.783 291.245 241.404 284.454 241.404C279.703 241.404 275.065 240.128 270.627 237.56L269.006 236.626C266.345 235.09 264.443 232.608 263.649 229.629C262.85 226.654 263.255 223.548 264.792 220.888L271.25 209.7C274.425 204.197 281.485 202.304 286.995 205.482L290.778 207.672C291.851 208.292 293.124 208.08 293.946 207.149C297.475 203.121 300.731 198.546 303.616 193.548C306.494 188.554 308.835 183.446 310.558 178.376C310.954 177.2 310.498 175.996 309.424 175.374L305.632 173.188C302.974 171.652 301.072 169.166 300.274 166.191C299.479 163.215 299.884 160.11 301.417 157.446L307.876 146.262C311.051 140.759 318.114 138.869 323.62 142.044L325.232 142.975C336.041 149.215 340.827 160.267 339.08 174.932ZM129.915 146.44C133.307 152.315 138.813 156.524 145.42 158.293C152.027 160.065 158.894 159.17 164.769 155.78L184.398 144.444L158.888 100.251L139.252 111.586C133.377 114.979 129.171 120.482 127.402 127.088C125.627 133.695 126.522 140.568 129.915 146.44ZM167.898 97.873C191.452 80.3178 210.462 60.038 222.363 39.8308L268.459 119.683C245.013 119.886 217.946 126.205 190.965 137.828L167.898 97.873ZM224.507 25.5624C223.25 23.3789 222.92 20.824 223.576 18.3662C224.238 15.9077 225.798 13.8578 227.984 12.5971C229.475 11.738 231.108 11.3274 232.714 11.3274C235.997 11.3274 239.19 13.0296 240.953 16.0715L298.334 115.466C299.594 117.649 299.927 120.204 299.268 122.665C298.603 125.123 297.043 127.173 294.859 128.431C292.68 129.692 290.121 130.021 287.66 129.365C285.208 128.706 283.157 127.14 281.897 124.96L224.507 25.5624ZM271.604 51.1756L283.26 71.3647C288.207 67.9359 289.794 61.2081 286.731 55.9049C283.662 50.5985 277.046 48.6059 271.604 51.1756ZM221.012 194.646C221.49 195.287 221.429 196.121 220.863 196.63L213.718 203.115C213.295 203.499 212.826 203.517 212.582 203.493C212.312 203.469 211.926 203.353 211.638 202.967L178.299 158.356L189.327 151.991L221.012 194.646ZM118.715 124.76C121.104 115.834 126.803 108.387 134.753 103.794L158.282 90.2115C159.32 89.6127 160.544 89.4527 161.696 89.7611C162.153 89.8851 162.576 90.0785 162.969 90.3266C187.143 72.2328 206.213 51.2816 217.132 30.7782L216.72 30.0617C211.623 21.2327 214.658 9.90598 223.484 4.80841C232.313 -0.289802 243.643 2.74638 248.738 11.5754L267.091 43.3663C276.845 38.3227 288.97 41.8029 294.515 51.4062C300.061 61.0096 297.01 73.2552 287.77 79.1785L306.12 110.969C308.588 115.233 309.238 120.213 307.953 124.993C306.674 129.773 303.62 133.762 299.354 136.223C296.521 137.859 293.374 138.696 290.174 138.696C288.559 138.696 286.933 138.481 285.333 138.052C280.553 136.773 276.561 133.719 274.1 129.456L273.689 128.739C250.672 127.953 223.272 133.877 195.76 145.563L228.234 189.282C231.473 193.645 230.907 199.668 226.91 203.294L219.765 209.777C217.83 211.534 215.305 212.498 212.717 212.498C212.387 212.498 212.055 212.483 211.719 212.45C208.822 212.172 206.167 210.675 204.425 208.353L170.452 162.886L169.263 163.572C163.984 166.623 158.097 168.183 152.125 168.183C149.114 168.183 146.081 167.787 143.085 166.983C134.162 164.591 126.712 158.895 122.125 150.939C117.533 142.983 116.318 133.686 118.715 124.76ZM309.279 75.3956C309.279 77.8811 311.289 79.895 313.775 79.895H334.934C337.423 79.895 339.434 77.8811 339.434 75.3956C339.434 72.9133 337.423 70.8995 334.934 70.8995H313.775C311.289 70.8989 309.279 72.9127 309.279 75.3956ZM310.08 46.9243C310.839 46.9243 311.616 46.7308 312.323 46.3222L329.691 36.2896C331.844 35.0501 332.582 32.2979 331.342 30.1453C330.096 27.9958 327.345 27.2575 325.195 28.5003L307.825 38.5296C305.672 39.7724 304.934 42.5207 306.18 44.674C307.011 46.1172 308.526 46.9243 310.08 46.9243ZM224.295 280.239L212.119 273.209V287.266L224.295 280.239ZM237.79 280.239C237.79 281.845 236.928 283.329 235.54 284.134L209.869 298.952C209.177 299.355 208.4 299.554 207.623 299.554C206.852 299.554 206.072 299.355 205.37 298.952C203.982 298.149 203.123 296.664 203.123 295.058V265.42C203.123 263.815 203.982 262.327 205.37 261.525C206.767 260.722 208.481 260.722 209.869 261.525L235.54 276.341C236.928 277.147 237.79 278.631 237.79 280.239ZM257.728 253.553V306.924C257.728 307.698 257.074 308.351 256.304 308.351H184.61C183.838 308.351 183.191 307.698 183.191 306.924V253.553C183.191 252.782 183.838 252.129 184.61 252.129H256.304C257.075 252.128 257.728 252.782 257.728 253.553ZM266.727 253.553C266.727 247.808 262.049 243.134 256.304 243.134H233.185C245.374 230.429 251.965 215.446 251.965 200.028C251.965 180.486 241.473 161.791 222.412 147.389C220.428 145.893 217.607 146.283 216.111 148.267C214.614 150.247 215.004 153.068 216.985 154.565C233.742 167.228 242.97 183.374 242.97 200.029C242.97 215.616 234.815 230.871 219.972 243.134H184.61C178.865 243.134 174.197 247.809 174.197 253.554V265.083C162.313 268.024 149.817 269.518 136.984 269.518C131.424 269.518 125.839 269.231 120.378 268.663C119.304 268.551 118.225 268.829 117.339 269.446L70.025 302.458L79.3501 262.286C79.8307 260.2 78.7788 258.059 76.8312 257.176C48.1337 244.114 30.9955 222.752 30.9955 200.029C30.9955 185.229 38.0831 171.069 51.4866 159.08C64.815 147.163 83.879 138.165 105.169 133.751C107.597 133.246 109.166 130.863 108.658 128.432C108.156 125.998 105.774 124.438 103.336 124.94C80.1899 129.741 60.1884 139.229 45.4843 152.376C30.1215 166.117 22 182.594 22 200.028C22 225.447 39.7789 249.074 69.768 263.782L58.6135 311.83C58.19 313.644 58.9277 315.528 60.4699 316.571C61.2352 317.088 62.1149 317.345 62.9946 317.345C63.8954 317.345 64.7938 317.073 65.5649 316.535L121.125 277.774C126.356 278.264 131.68 278.512 136.984 278.512C149.771 278.512 162.256 277.106 174.196 274.333V306.922C174.196 312.67 178.864 317.345 184.61 317.345H256.304C262.049 317.345 266.727 312.671 266.727 306.922V253.553ZM82.6067 187.851H162.05C164.535 187.851 166.546 185.837 166.546 183.352C166.546 180.87 164.535 178.856 162.05 178.856H82.6067C80.1276 178.856 78.1106 180.87 78.1106 183.352C78.1106 185.837 80.127 187.851 82.6067 187.851ZM78.1106 216.7C78.1106 219.186 80.1276 221.2 82.6067 221.2H191.359C193.838 221.2 195.855 219.186 195.855 216.7C195.855 214.215 193.838 212.201 191.359 212.201H82.6067C80.127 212.201 78.1106 214.215 78.1106 216.7Z" fill="black"/>
<path fill-rule="evenodd" clip-rule="evenodd" d="M116.357 23.8872C116.357 21.8522 115.565 19.9411 114.128 18.4992L107.404 11.7836C104.434 8.81103 99.6029 8.81103 96.6367 11.7836C94.0002 14.4143 90.9551 13.4408 90.0812 13.0778C89.2072 12.7179 86.3683 11.2515 86.3683 7.52909C86.3683 3.72246 83.5583 0.5584 79.9021 0H68.0915C64.4359 0.5584 61.6284 3.72181 61.6284 7.52909C61.6284 11.2515 58.7895 12.7179 57.9156 13.0778C57.0449 13.4408 53.994 14.4143 51.3665 11.7836C48.3913 8.81103 43.5591 8.81103 40.5898 11.7836L33.8742 18.4992C32.4348 19.9386 31.64 21.8522 31.64 23.8872C31.64 25.9222 32.4355 27.8365 33.8684 29.2752C36.5023 31.9059 35.5256 34.9537 35.1658 35.8244C34.8059 36.6983 33.3428 39.5404 29.6203 39.5404C25.4198 39.541 22 42.9602 22 47.1607V56.6613C22 60.8611 25.4198 64.2777 29.6197 64.2777C33.3421 64.2777 34.8053 67.1231 35.1651 67.9938C35.525 68.8645 36.5017 71.9154 33.8736 74.5461C32.4342 75.9855 31.6393 77.8965 31.6393 79.9342C31.6393 81.9692 32.4348 83.8828 33.8678 85.3196L40.5898 92.0378C42.0292 93.4771 43.937 94.2694 45.9752 94.2694C48.0128 94.2694 49.9271 93.4771 51.3665 92.0378C53.9997 89.398 57.0449 90.3722 57.9188 90.7346C58.7895 91.0945 61.6291 92.5608 61.6291 96.2923C61.6291 100.492 65.0457 103.909 69.2488 103.909H78.7461C82.9492 103.909 86.369 100.492 86.369 96.2923C86.369 92.5698 89.2143 91.1034 90.0818 90.741C90.9557 90.3812 94.0002 89.4077 96.6374 92.0378C98.0768 93.4771 99.9846 94.2694 102.023 94.2694C104.058 94.2694 105.975 93.4771 107.405 92.0378L114.13 85.319C117.096 82.3496 117.096 77.5148 114.13 74.5455C111.493 71.9148 112.47 68.8638 112.83 67.9931C113.19 67.1224 114.662 64.2771 118.381 64.2771C122.578 64.2771 125.997 60.8605 125.997 56.6606V47.1607C125.997 42.9608 122.578 39.541 118.381 39.541C114.662 39.541 113.19 36.6989 112.83 35.825C112.47 34.9543 111.493 31.9059 114.13 29.2759C115.565 27.8365 116.357 25.9222 116.357 23.8872ZM101.982 19.0769L106.833 23.9296C103.228 28.2233 102.33 33.9802 104.519 39.2686C106.711 44.557 111.416 47.9916 116.998 48.4787V55.342C111.417 55.8291 106.712 59.2637 104.519 64.5489C102.33 69.8405 103.228 75.5974 106.833 79.8911L101.982 84.7439C97.6828 81.1364 91.9253 80.2387 86.6369 82.4274C81.3485 84.6192 77.9165 89.3274 77.4269 94.912H70.5661C70.0854 89.3209 66.6444 84.6102 61.3592 82.4209C56.0766 80.2317 50.3107 81.1332 46.0202 84.7432L41.161 79.8905C44.7717 75.5967 45.6662 69.8399 43.4801 64.5483C41.2883 59.263 36.5801 55.8278 30.9955 55.3414V48.4787C36.5801 47.9922 41.2883 44.557 43.4801 39.2686C45.6662 33.9802 44.771 28.2233 41.161 23.9296L46.0202 19.0769C50.3107 22.6811 56.0676 23.582 61.3592 21.3901C66.6444 19.2009 70.0764 14.4933 70.5661 8.9087H77.4269C77.9165 14.4933 81.3485 19.2009 86.6369 21.3901C91.9253 23.5788 97.6822 22.6811 101.982 19.0769Z" fill="black"/>
<path fill-rule="evenodd" clip-rule="evenodd" d="M101.321 51.9108C101.321 36.8468 89.0662 24.589 73.999 24.589C58.935 24.589 46.674 36.8468 46.674 51.9108C46.674 66.9747 58.935 79.2325 73.999 79.2325C89.0662 79.2325 101.321 66.9747 101.321 51.9108ZM73.999 33.5844C84.1074 33.5844 92.3253 41.8056 92.3253 51.9108C92.3253 62.016 84.1067 70.2339 73.999 70.2339C63.897 70.2339 55.6727 62.016 55.6727 51.9108C55.6727 41.8056 63.897 33.5844 73.999 33.5844Z" fill="black"/>
</g>
<path fill-rule="evenodd" clip-rule="evenodd" d="M136.981 126.038C198.001 126.038 247.468 159.163 247.468 200.026C247.468 240.889 198.001 274.015 136.981 274.015C131.176 274.015 125.474 273.713 119.911 273.135L65.7362 310.933C65.2916 311.243 64.73 311.247 64.2808 310.943C63.8316 310.639 63.6267 310.117 63.7494 309.588L74.9669 261.266C45.7148 247.956 26.4972 225.494 26.4972 200.026C26.4959 159.163 75.9622 126.038 136.981 126.038Z" fill="#F4F6F8"/>
<path fill-rule="evenodd" clip-rule="evenodd" d="M184.607 247.631H256.299C259.556 247.631 262.221 250.296 262.221 253.553V306.925C262.221 310.182 259.555 312.847 256.299 312.847H184.607C181.351 312.847 178.685 310.182 178.685 306.925V253.553C178.685 250.295 181.35 247.631 184.607 247.631Z" fill="#EA4256"/>
<path fill-rule="evenodd" clip-rule="evenodd" d="M231.358 281.352L209.547 293.944C209.138 294.18 208.67 294.18 208.262 293.944C207.853 293.709 207.619 293.303 207.619 292.831V267.646C207.619 267.174 207.853 266.769 208.262 266.533C208.67 266.297 209.138 266.297 209.547 266.533L231.358 279.125C231.767 279.361 232.001 279.766 232.001 280.238C232.001 280.711 231.767 281.116 231.358 281.352Z" fill="#F4F6F8"/>
<path d="M278.207 77.8405C287.102 76.8919 293.544 68.9124 292.595 60.0176C291.647 51.1228 283.667 44.6812 274.772 45.6297C265.878 46.5782 259.436 54.5578 260.385 63.4526C261.333 72.3473 269.313 78.789 278.207 77.8405Z" fill="#E4E8EB"/>
<path fill-rule="evenodd" clip-rule="evenodd" d="M189.084 143.566L154.545 131.436L161.986 96.6317C192.423 74.6684 214.654 48.795 225.043 24.722L282.887 124.912C256.845 121.873 223.323 128.187 189.084 143.566Z" fill="#E4E8EB"/>
<path fill-rule="evenodd" clip-rule="evenodd" d="M225.731 8.70266C232.395 4.85555 240.994 7.15983 244.841 13.8234L302.226 113.217C306.073 119.88 303.769 128.48 297.106 132.326C290.442 136.173 281.843 133.869 277.996 127.206L220.611 27.8123C216.763 21.1488 219.068 12.5498 225.731 8.70266Z" fill="#EA4256"/>
<path fill-rule="evenodd" clip-rule="evenodd" d="M169.176 153.669L188.067 142.762L224.619 191.963C226.464 194.445 226.174 197.884 223.884 199.962L216.739 206.446C215.463 207.603 213.928 208.119 212.211 207.964C210.495 207.809 209.06 207.039 208.029 205.659L169.176 153.669Z" fill="#CAD0D7"/>
<path fill-rule="evenodd" clip-rule="evenodd" d="M157.745 95.713L137 107.69C122.705 115.944 117.761 134.393 126.015 148.689C134.268 162.985 152.718 167.928 167.014 159.675L187.759 147.698C189.291 146.813 189.819 144.841 188.935 143.309L162.134 96.8889C161.249 95.3563 159.277 94.8281 157.745 95.713Z" fill="#EA4256"/>
<path fill-rule="evenodd" clip-rule="evenodd" d="M118.374 59.78C109.02 59.78 104.327 71.1125 110.941 77.7265C112.159 78.9449 112.159 80.9208 110.941 82.1391L104.224 88.8566C103.005 90.075 101.029 90.075 99.811 88.8566C93.197 82.2426 81.8645 86.936 81.8645 96.29C81.8645 98.014 80.4675 99.4097 78.7447 99.4097H69.2449C67.5221 99.4097 66.1251 98.0134 66.1251 96.29C66.1251 86.9244 54.801 82.2342 48.1786 88.8566C46.9603 90.075 44.9843 90.075 43.7654 88.8566L37.0478 82.1391C35.8295 80.9208 35.8295 78.9449 37.0478 77.7265C43.6619 71.1125 38.9685 59.78 29.6145 59.78C27.8905 59.78 26.4941 58.383 26.4941 56.6603V47.1604C26.4941 45.4376 27.8905 44.04 29.6145 44.04C38.9685 44.04 43.6619 32.7075 37.0478 26.0935C35.8295 24.8751 35.8295 22.8992 37.0478 21.6809L43.7654 14.9634C44.9837 13.745 46.9596 13.745 48.1786 14.9634C54.792 21.5774 66.1245 16.884 66.1245 7.53003C66.1245 5.80599 67.5215 4.40967 69.2442 4.40967H78.7441C80.4668 4.40967 81.8638 5.80599 81.8638 7.53003C81.8638 16.884 93.1963 21.5774 99.8104 14.9634C101.029 13.745 103.005 13.745 104.223 14.9634L110.94 21.6809C112.159 22.8992 112.159 24.8751 110.94 26.0935C104.326 32.7075 109.02 44.04 118.374 44.04C120.098 44.04 121.494 45.437 121.494 47.1604V56.6603C121.495 58.383 120.098 59.78 118.374 59.78ZM73.9942 29.0872C61.3893 29.0872 51.1711 39.3055 51.1711 51.9097C51.1711 64.5145 61.3893 74.7321 73.9942 74.7321C86.599 74.7321 96.8172 64.5145 96.8172 51.9097C96.8172 39.3055 86.599 29.0872 73.9942 29.0872Z" fill="#FDCD56"/>
<path fill-rule="evenodd" clip-rule="evenodd" d="M271.254 232.732L272.869 233.665C293.799 245.748 314.138 221.274 323.511 205.04C332.883 188.806 343.909 158.955 322.979 146.871L321.364 145.938C318.013 144.004 313.702 145.159 311.767 148.51L305.309 159.696C303.375 163.047 304.529 167.358 307.88 169.292L311.669 171.479C314.601 173.172 315.896 176.615 314.808 179.821C313.046 185.014 310.603 190.428 307.502 195.798C304.402 201.169 300.934 205.99 297.318 210.114C295.086 212.659 291.456 213.258 288.524 211.566L284.736 209.378C281.385 207.444 277.074 208.599 275.14 211.949L268.681 223.136C266.748 226.486 267.903 230.798 271.254 232.732Z" fill="#42C642"/>
<path fill-rule="evenodd" clip-rule="evenodd" d="M320.735 150.766L319.12 149.835C317.914 149.137 316.366 149.551 315.67 150.757L309.212 161.944C308.873 162.525 308.788 163.205 308.961 163.861C309.136 164.515 309.553 165.062 310.131 165.398L313.923 167.584C318.743 170.369 320.862 175.993 319.069 181.266C317.161 186.896 314.585 192.541 311.404 198.048C308.224 203.554 304.625 208.612 300.703 213.081C297.036 217.266 291.107 218.246 286.281 215.461L282.495 213.275C282.096 213.045 281.661 212.936 281.235 212.936C280.361 212.936 279.508 213.39 279.045 214.2L272.581 225.385C272.246 225.965 272.164 226.646 272.336 227.302C272.508 227.958 272.929 228.502 273.506 228.837L275.124 229.769C282.783 234.192 290.868 233.079 299.84 226.37C309.646 219.034 316.939 207.436 319.624 202.791C322.302 198.147 328.697 186.028 330.149 173.867C331.472 162.743 328.394 155.19 320.735 150.766ZM294.846 0H293.061C291.84 0.24675 290.727 0.995997 290.057 2.15906L279.474 20.4854C278.234 22.638 278.972 25.387 281.119 26.6297C281.832 27.041 282.603 27.2344 283.369 27.2344C284.923 27.2344 286.432 26.4273 287.269 24.9847L297.846 6.65839C299.092 4.50833 298.354 1.75681 296.201 0.514063C295.768 0.2641 295.311 0.094459 294.846 0ZM339.08 174.932C337.492 188.251 331.085 200.923 327.411 207.288C323.734 213.656 315.967 225.539 305.223 233.573C298.257 238.783 291.245 241.404 284.454 241.404C279.703 241.404 275.065 240.128 270.627 237.56L269.006 236.626C266.345 235.09 264.443 232.608 263.649 229.629C262.85 226.654 263.255 223.548 264.792 220.888L271.25 209.7C274.425 204.197 281.485 202.304 286.995 205.482L290.778 207.672C291.851 208.292 293.124 208.08 293.946 207.149C297.475 203.121 300.731 198.546 303.616 193.548C306.494 188.554 308.835 183.446 310.558 178.376C310.954 177.2 310.498 175.996 309.424 175.374L305.632 173.188C302.974 171.652 301.072 169.166 300.274 166.191C299.479 163.215 299.884 160.11 301.417 157.446L307.876 146.262C311.051 140.759 318.114 138.869 323.62 142.044L325.232 142.975C336.041 149.215 340.827 160.267 339.08 174.932ZM129.915 146.44C133.307 152.315 138.813 156.524 145.42 158.293C152.027 160.065 158.894 159.17 164.769 155.78L184.398 144.444L158.888 100.251L139.252 111.586C133.377 114.979 129.171 120.482 127.402 127.088C125.627 133.695 126.522 140.568 129.915 146.44ZM167.898 97.873C191.452 80.3178 210.462 60.038 222.363 39.8308L268.459 119.683C245.013 119.886 217.946 126.205 190.965 137.828L167.898 97.873ZM224.507 25.5624C223.25 23.3789 222.92 20.824 223.576 18.3662C224.238 15.9077 225.798 13.8578 227.984 12.5971C229.475 11.738 231.108 11.3274 232.714 11.3274C235.997 11.3274 239.19 13.0296 240.953 16.0715L298.334 115.466C299.594 117.649 299.927 120.204 299.268 122.665C298.603 125.123 297.043 127.173 294.859 128.431C292.68 129.692 290.121 130.021 287.66 129.365C285.208 128.706 283.157 127.14 281.897 124.96L224.507 25.5624ZM271.604 51.1756L283.26 71.3647C288.207 67.9359 289.794 61.2081 286.731 55.9049C283.662 50.5985 277.046 48.6059 271.604 51.1756ZM221.012 194.646C221.49 195.287 221.429 196.121 220.863 196.63L213.718 203.115C213.295 203.499 212.826 203.517 212.582 203.493C212.312 203.469 211.926 203.353 211.638 202.967L178.299 158.356L189.327 151.991L221.012 194.646ZM118.715 124.76C121.104 115.834 126.803 108.387 134.753 103.794L158.282 90.2115C159.32 89.6127 160.544 89.4527 161.696 89.7611C162.153 89.8851 162.576 90.0785 162.969 90.3266C187.143 72.2328 206.213 51.2816 217.132 30.7782L216.72 30.0617C211.623 21.2327 214.658 9.90598 223.484 4.80841C232.313 -0.289802 243.643 2.74638 248.738 11.5754L267.091 43.3663C276.845 38.3227 288.97 41.8029 294.515 51.4062C300.061 61.0096 297.01 73.2552 287.77 79.1785L306.12 110.969C308.588 115.233 309.238 120.213 307.953 124.993C306.674 129.773 303.62 133.762 299.354 136.223C296.521 137.859 293.374 138.696 290.174 138.696C288.559 138.696 286.933 138.481 285.333 138.052C280.553 136.773 276.561 133.719 274.1 129.456L273.689 128.739C250.672 127.953 223.272 133.877 195.76 145.563L228.234 189.282C231.473 193.645 230.907 199.668 226.91 203.294L219.765 209.777C217.83 211.534 215.305 212.498 212.717 212.498C212.387 212.498 212.055 212.483 211.719 212.45C208.822 212.172 206.167 210.675 204.425 208.353L170.452 162.886L169.263 163.572C163.984 166.623 158.097 168.183 152.125 168.183C149.114 168.183 146.081 167.787 143.085 166.983C134.162 164.591 126.712 158.895 122.125 150.939C117.533 142.983 116.318 133.686 118.715 124.76ZM309.279 75.3956C309.279 77.8811 311.289 79.895 313.775 79.895H334.934C337.423 79.895 339.434 77.8811 339.434 75.3956C339.434 72.9133 337.423 70.8995 334.934 70.8995H313.775C311.289 70.8989 309.279 72.9127 309.279 75.3956ZM310.08 46.9243C310.839 46.9243 311.616 46.7308 312.323 46.3222L329.691 36.2896C331.844 35.0501 332.582 32.2979 331.342 30.1453C330.096 27.9958 327.345 27.2575 325.195 28.5003L307.825 38.5296C305.672 39.7724 304.934 42.5207 306.18 44.674C307.011 46.1172 308.526 46.9243 310.08 46.9243ZM224.295 280.239L212.119 273.209V287.266L224.295 280.239ZM237.79 280.239C237.79 281.845 236.928 283.329 235.54 284.134L209.869 298.952C209.177 299.355 208.4 299.554 207.623 299.554C206.852 299.554 206.072 299.355 205.37 298.952C203.982 298.149 203.123 296.664 203.123 295.058V265.42C203.123 263.815 203.982 262.327 205.37 261.525C206.767 260.722 208.481 260.722 209.869 261.525L235.54 276.341C236.928 277.147 237.79 278.631 237.79 280.239ZM257.728 253.553V306.924C257.728 307.698 257.074 308.351 256.304 308.351H184.61C183.838 308.351 183.191 307.698 183.191 306.924V253.553C183.191 252.782 183.838 252.129 184.61 252.129H256.304C257.075 252.128 257.728 252.782 257.728 253.553ZM266.727 253.553C266.727 247.808 262.049 243.134 256.304 243.134H233.185C245.374 230.429 251.965 215.446 251.965 200.028C251.965 180.486 241.473 161.791 222.412 147.389C220.428 145.893 217.607 146.283 216.111 148.267C214.614 150.247 215.004 153.068 216.985 154.565C233.742 167.228 242.97 183.374 242.97 200.029C242.97 215.616 234.815 230.871 219.972 243.134H184.61C178.865 243.134 174.197 247.809 174.197 253.554V265.083C162.313 268.024 149.817 269.518 136.984 269.518C131.424 269.518 125.839 269.231 120.378 268.663C119.304 268.551 118.225 268.829 117.339 269.446L70.025 302.458L79.3501 262.286C79.8307 260.2 78.7788 258.059 76.8312 257.176C48.1337 244.114 30.9955 222.752 30.9955 200.029C30.9955 185.229 38.0831 171.069 51.4866 159.08C64.815 147.163 83.879 138.165 105.169 133.751C107.597 133.246 109.166 130.863 108.658 128.432C108.156 125.998 105.774 124.438 103.336 124.94C80.1899 129.741 60.1884 139.229 45.4843 152.376C30.1215 166.117 22 182.594 22 200.028C22 225.447 39.7789 249.074 69.768 263.782L58.6135 311.83C58.19 313.644 58.9277 315.528 60.4699 316.571C61.2352 317.088 62.1149 317.345 62.9946 317.345C63.8954 317.345 64.7938 317.073 65.5649 316.535L121.125 277.774C126.356 278.264 131.68 278.512 136.984 278.512C149.771 278.512 162.256 277.106 174.196 274.333V306.922C174.196 312.67 178.864 317.345 184.61 317.345H256.304C262.049 317.345 266.727 312.671 266.727 306.922V253.553ZM82.6067 187.851H162.05C164.535 187.851 166.546 185.837 166.546 183.352C166.546 180.87 164.535 178.856 162.05 178.856H82.6067C80.1276 178.856 78.1106 180.87 78.1106 183.352C78.1106 185.837 80.127 187.851 82.6067 187.851ZM78.1106 216.7C78.1106 219.186 80.1276 221.2 82.6067 221.2H191.359C193.838 221.2 195.855 219.186 195.855 216.7C195.855 214.215 193.838 212.201 191.359 212.201H82.6067C80.127 212.201 78.1106 214.215 78.1106 216.7Z" fill="black"/>
<path fill-rule="evenodd" clip-rule="evenodd" d="M116.357 23.8872C116.357 21.8522 115.565 19.9411 114.128 18.4992L107.404 11.7836C104.434 8.81103 99.6029 8.81103 96.6367 11.7836C94.0002 14.4143 90.9551 13.4408 90.0812 13.0778C89.2072 12.7179 86.3683 11.2515 86.3683 7.52909C86.3683 3.72246 83.5583 0.5584 79.9021 0H68.0915C64.4359 0.5584 61.6284 3.72181 61.6284 7.52909C61.6284 11.2515 58.7895 12.7179 57.9156 13.0778C57.0449 13.4408 53.994 14.4143 51.3665 11.7836C48.3913 8.81103 43.5591 8.81103 40.5898 11.7836L33.8742 18.4992C32.4348 19.9386 31.64 21.8522 31.64 23.8872C31.64 25.9222 32.4355 27.8365 33.8684 29.2752C36.5023 31.9059 35.5256 34.9537 35.1658 35.8244C34.8059 36.6983 33.3428 39.5404 29.6203 39.5404C25.4198 39.541 22 42.9602 22 47.1607V56.6613C22 60.8611 25.4198 64.2777 29.6197 64.2777C33.3421 64.2777 34.8053 67.1231 35.1651 67.9938C35.525 68.8645 36.5017 71.9154 33.8736 74.5461C32.4342 75.9855 31.6393 77.8965 31.6393 79.9342C31.6393 81.9692 32.4348 83.8828 33.8678 85.3196L40.5898 92.0378C42.0292 93.4771 43.937 94.2694 45.9752 94.2694C48.0128 94.2694 49.9271 93.4771 51.3665 92.0378C53.9997 89.398 57.0449 90.3722 57.9188 90.7346C58.7895 91.0945 61.6291 92.5608 61.6291 96.2923C61.6291 100.492 65.0457 103.909 69.2488 103.909H78.7461C82.9492 103.909 86.369 100.492 86.369 96.2923C86.369 92.5698 89.2143 91.1034 90.0818 90.741C90.9557 90.3812 94.0002 89.4077 96.6374 92.0378C98.0768 93.4771 99.9846 94.2694 102.023 94.2694C104.058 94.2694 105.975 93.4771 107.405 92.0378L114.13 85.319C117.096 82.3496 117.096 77.5148 114.13 74.5455C111.493 71.9148 112.47 68.8638 112.83 67.9931C113.19 67.1224 114.662 64.2771 118.381 64.2771C122.578 64.2771 125.997 60.8605 125.997 56.6606V47.1607C125.997 42.9608 122.578 39.541 118.381 39.541C114.662 39.541 113.19 36.6989 112.83 35.825C112.47 34.9543 111.493 31.9059 114.13 29.2759C115.565 27.8365 116.357 25.9222 116.357 23.8872ZM101.982 19.0769L106.833 23.9296C103.228 28.2233 102.33 33.9802 104.519 39.2686C106.711 44.557 111.416 47.9916 116.998 48.4787V55.342C111.417 55.8291 106.712 59.2637 104.519 64.5489C102.33 69.8405 103.228 75.5974 106.833 79.8911L101.982 84.7439C97.6828 81.1364 91.9253 80.2387 86.6369 82.4274C81.3485 84.6192 77.9165 89.3274 77.4269 94.912H70.5661C70.0854 89.3209 66.6444 84.6102 61.3592 82.4209C56.0766 80.2317 50.3107 81.1332 46.0202 84.7432L41.161 79.8905C44.7717 75.5967 45.6662 69.8399 43.4801 64.5483C41.2883 59.263 36.5801 55.8278 30.9955 55.3414V48.4787C36.5801 47.9922 41.2883 44.557 43.4801 39.2686C45.6662 33.9802 44.771 28.2233 41.161 23.9296L46.0202 19.0769C50.3107 22.6811 56.0676 23.582 61.3592 21.3901C66.6444 19.2009 70.0764 14.4933 70.5661 8.9087H77.4269C77.9165 14.4933 81.3485 19.2009 86.6369 21.3901C91.9253 23.5788 97.6822 22.6811 101.982 19.0769Z" fill="black"/>
<path fill-rule="evenodd" clip-rule="evenodd" d="M101.321 51.9108C101.321 36.8468 89.0662 24.589 73.999 24.589C58.935 24.589 46.674 36.8468 46.674 51.9108C46.674 66.9747 58.935 79.2325 73.999 79.2325C89.0662 79.2325 101.321 66.9747 101.321 51.9108ZM73.999 33.5844C84.1074 33.5844 92.3253 41.8056 92.3253 51.9108C92.3253 62.016 84.1067 70.2339 73.999 70.2339C63.897 70.2339 55.6727 62.016 55.6727 51.9108C55.6727 41.8056 63.897 33.5844 73.999 33.5844Z" fill="black"/>
</svg>
