<svg width="387" height="115" viewBox="0 0 387 115" fill="none" xmlns="http://www.w3.org/2000/svg">
<path d="M111.144 98.5123C112.92 99.1594 113.106 100.571 111.55 101.652L95.0888 113.046C93.5329 114.126 90.7998 114.477 89.0236 113.83C89.0236 113.83 74.752 108.639 71.5645 107.476C75.764 104.571 89.7327 94.891 93.6844 92.1648L111.144 98.5192V98.5123Z" fill="#F15A29"/>
<path d="M65.9008 82.042V105.339L65.8389 105.381C54.087 101.105 16.6008 87.4601 5.49609 83.4189C9.57173 80.5962 23.802 70.7445 27.6092 68.1077L65.894 82.042H65.9008Z" fill="url(#paint0_linear_457_1301)"/>
<path d="M21.9899 19.9175V65.9336C21.9899 65.9336 0.138424 81.0657 0.0351562 81.1346V36.399C0.124655 35.2011 0.338075 34.0445 0.647878 32.9223C2.98861 23.9656 12.6269 17.8521 21.9899 19.9175Z" fill="url(#paint1_linear_457_1301)"/>
<path d="M25.1447 20.8745L55.65 31.9792C61.7222 34.9533 65.9011 41.1975 65.9011 48.4125V105.341L87.8558 90.1465V32.5644C87.6148 24.9914 82.775 18.5819 76.0351 16.0346L75.6495 15.8969L65.9011 12.3445C65.9011 12.3445 36.4009 1.61157 36.3665 1.59781C24.4425 -2.84271 10.2879 2.27937 3.93353 13.1569C-0.761707 20.6955 0.0713195 27.8485 0.0368969 36.399C0.126396 35.2011 0.339816 34.0445 0.649619 32.9224C2.99035 23.9656 12.6287 17.8521 21.9916 19.9175C22.6388 20.0483 25.1447 20.8745 25.1447 20.8745Z" fill="#26CFD3"/>
<path d="M172.338 76.1793L166.913 82.2239L161.143 77.0743C159.085 78.4925 156.84 79.6009 154.417 80.4064C151.994 81.205 149.357 81.6112 146.521 81.6112C142.81 81.6112 139.423 80.9572 136.359 79.656C133.289 78.348 130.659 76.5786 128.462 74.3343C126.266 72.0899 124.552 69.46 123.313 66.4377C122.074 63.4154 121.461 60.2141 121.461 56.827C121.461 53.4398 122.081 50.2385 123.313 47.2162C124.545 44.1939 126.287 41.5502 128.531 39.2852C130.776 37.0202 133.426 35.2233 136.497 33.8946C139.56 32.5659 142.948 31.905 146.658 31.905C150.369 31.905 153.749 32.559 156.82 33.8602C159.883 35.1683 162.52 36.9376 164.716 39.1819C166.913 41.4263 168.627 44.0562 169.866 47.0785C171.105 50.1008 171.718 53.3021 171.718 56.6893C171.718 59.4362 171.291 62.0661 170.444 64.5858C169.597 67.1055 168.393 69.4187 166.837 71.5185L172.331 76.1862L172.338 76.1793ZM146.658 64.5101L152.083 58.3278L160.393 65.8801C161.219 64.5996 161.832 63.1882 162.245 61.6599C162.658 60.1246 162.864 58.5137 162.864 56.8201C162.864 54.4862 162.465 52.2763 161.66 50.1972C160.861 48.118 159.739 46.2936 158.293 44.7377C156.854 43.1818 155.126 41.9495 153.109 41.027C151.092 40.1113 148.896 39.657 146.521 39.657C144.139 39.657 141.956 40.1045 139.967 40.9926C137.977 41.8807 136.27 43.0992 134.851 44.6345C133.433 46.1697 132.325 47.9735 131.519 50.0595C130.721 52.1455 130.314 54.3485 130.314 56.6824C130.314 59.0162 130.714 61.2262 131.519 63.3053C132.318 65.3913 133.44 67.2088 134.886 68.7647C136.325 70.3206 138.053 71.5598 140.07 72.4755C142.08 73.3911 144.283 73.8455 146.658 73.8455C148.262 73.8455 149.749 73.6389 151.119 73.2259C152.489 72.8128 153.749 72.2414 154.899 71.5116L146.658 64.5101Z" fill="black"/>
<path d="M188.412 80.7852H180.033V44.5314H188.412V52.7033C189.554 49.9564 191.179 47.7602 193.286 46.1148C195.393 44.4694 198.043 43.7121 201.251 43.8498V52.6413H200.769C198.938 52.6413 197.265 52.9374 195.757 53.5363C194.25 54.1284 192.942 55.0234 191.847 56.2144C190.746 57.4054 189.899 58.9063 189.307 60.71C188.715 62.5206 188.412 64.6135 188.412 66.9956V80.799V80.7852Z" fill="black"/>
<path d="M208.309 44.5311V80.785H216.687V44.5311H208.309Z" fill="black"/>
<path d="M216.964 31.0716H207.973V38.9681H216.964V31.0716Z" fill="#F15A29"/>
<path d="M260.837 70.0043C259.852 72.2969 258.503 74.2934 256.788 76.0145C255.074 77.7287 253.023 79.0919 250.641 80.097C248.259 81.1022 245.677 81.6047 242.882 81.6047C240.135 81.6047 237.581 81.109 235.226 80.1314C232.872 79.147 230.834 77.7976 229.113 76.0833C227.398 74.3691 226.056 72.3726 225.099 70.1076C224.135 67.8426 223.66 65.4055 223.66 62.7962C223.66 60.187 224.149 57.7292 225.133 55.416C226.118 53.1028 227.467 51.0925 229.182 49.3714C230.896 47.6572 232.934 46.294 235.295 45.2889C237.649 44.2838 240.224 43.7812 243.019 43.7812C245.808 43.7812 248.382 44.2769 250.744 45.2545C253.098 46.239 255.136 47.5883 256.857 49.3026C258.572 51.0168 259.914 53.0202 260.871 55.3128C261.835 57.6053 262.31 60.0493 262.31 62.6585C262.31 65.2678 261.814 67.7187 260.837 70.0043ZM253.119 58.2662C252.575 56.848 251.811 55.6019 250.833 54.521C249.856 53.4471 248.692 52.6003 247.35 51.9806C246.007 51.361 244.52 51.0512 242.882 51.0512C241.243 51.0512 239.756 51.361 238.414 51.9806C237.071 52.6003 235.921 53.4333 234.971 54.4866C234.014 55.5399 233.285 56.7654 232.789 58.1629C232.286 59.5605 232.039 61.0613 232.039 62.6585C232.039 64.2626 232.314 65.7841 232.858 67.223C233.402 68.6618 234.166 69.9148 235.144 70.9681C236.121 72.0215 237.285 72.8545 238.627 73.4741C239.97 74.0937 241.436 74.4035 243.026 74.4035C244.706 74.4035 246.221 74.0937 247.563 73.4741C248.906 72.8545 250.055 72.0215 251.005 70.9681C251.962 69.9148 252.692 68.6894 253.188 67.2918C253.69 65.8943 253.938 64.4003 253.938 62.7962C253.938 61.1921 253.663 59.6844 253.119 58.2662Z" fill="black"/>
<path d="M294.799 79.7184C292.513 80.9782 289.601 81.6047 286.076 81.6047C283.377 81.6047 280.878 81.109 278.593 80.1314C276.3 79.147 274.317 77.7976 272.631 76.0833C270.944 74.3691 269.629 72.3726 268.686 70.1076C267.743 67.8426 267.268 65.4055 267.268 62.7962C267.268 60.187 267.743 57.7361 268.686 55.4504C269.629 53.1648 270.951 51.1476 272.631 49.4058C274.317 47.6641 276.314 46.294 278.627 45.2889C280.94 44.2838 283.446 43.7812 286.145 43.7812C289.58 43.7812 292.43 44.3526 294.695 45.4954C296.96 46.6383 298.943 48.1529 300.637 50.0254L295.487 55.5881C294.207 54.2594 292.844 53.1717 291.405 52.3249C289.966 51.4781 288.19 51.0512 286.083 51.0512C284.575 51.0512 283.178 51.361 281.897 51.9806C280.617 52.6003 279.515 53.4333 278.6 54.4866C277.684 55.5399 276.961 56.7654 276.438 58.1629C275.908 59.5605 275.646 61.0613 275.646 62.6585C275.646 64.2557 275.908 65.8392 276.438 67.2574C276.961 68.6756 277.711 69.9148 278.668 70.9681C279.632 72.0215 280.775 72.8545 282.104 73.4741C283.432 74.0937 284.892 74.4035 286.496 74.4035C288.465 74.4035 290.193 73.9836 291.68 73.1368C293.167 72.29 294.572 71.2022 295.9 69.8735L300.912 74.8166C299.129 76.8338 297.091 78.4654 294.799 79.7253V79.7184Z" fill="black"/>
<path d="M306.93 80.785V44.5311H315.308V80.785H306.93Z" fill="black"/>
<path d="M315.575 31.0716H306.584V38.9681H315.575V31.0716Z" fill="#F15A29"/>
<path d="M336.278 69.439C336.278 71.0431 336.664 72.2066 337.448 72.9157C338.226 73.6248 339.328 73.9828 340.746 73.9828C342.529 73.9828 344.25 73.5698 345.896 72.7436V79.5386C344.842 80.1307 343.72 80.592 342.529 80.9086C341.338 81.2253 339.968 81.3906 338.412 81.3906C336.856 81.3906 335.5 81.2047 334.206 80.8398C332.912 80.4749 331.796 79.876 330.846 79.0498C329.903 78.2237 329.173 77.1359 328.664 75.7797C328.154 74.4303 327.9 72.7436 327.9 70.7196V51.5875H323.301V44.5171H327.9V34.5621H336.278V44.5171H346.027V51.5875H336.278V69.4253V69.439Z" fill="black"/>
<path d="M372.548 81.8108C371.818 83.6903 371.06 85.2668 370.283 86.5473C369.505 87.8279 368.637 88.8674 367.673 89.6729C366.709 90.4715 365.656 91.0567 364.513 91.4216C363.37 91.7864 362.062 91.9723 360.603 91.9723C358.861 91.9723 357.319 91.7727 355.97 91.3803C354.62 90.9878 353.305 90.444 352.025 89.7486L354.841 83.525C355.618 83.9381 356.41 84.2686 357.209 84.5233C358.007 84.7711 358.847 84.9019 359.715 84.9019C360.906 84.9019 361.89 84.6059 362.668 84.0138C363.446 83.4218 364.176 82.3202 364.864 80.723L349.76 44.5311H358.62L368.919 71.4427L378.324 44.5311H386.977L372.561 81.8108H372.548Z" fill="black"/>
<defs>
<linearGradient id="paint0_linear_457_1301" x1="80.021" y1="99.4116" x2="25.172" y2="78.7719" gradientUnits="userSpaceOnUse">
<stop stop-color="#0B5B6D"/>
<stop offset="0.31" stop-color="#178F9A"/>
<stop offset="0.66" stop-color="#26CFD3"/>
</linearGradient>
<linearGradient id="paint1_linear_457_1301" x1="11.016" y1="29.6384" x2="11.016" y2="96.7762" gradientUnits="userSpaceOnUse">
<stop stop-color="#0B5B6D"/>
<stop offset="0.5" stop-color="#26CFD3"/>
</linearGradient>
</defs>
</svg>
