<svg width="387" height="115" viewBox="0 0 387 115" fill="none" xmlns="http://www.w3.org/2000/svg">
<path d="M111.169 98.6641C112.945 99.3113 113.131 100.723 111.575 101.803L95.1142 113.197C93.5583 114.278 90.8252 114.629 89.049 113.982C89.049 113.982 74.7774 108.791 71.5898 107.628C75.7894 104.723 89.7581 95.0429 93.7098 92.3166L111.169 98.671V98.6641Z" fill="#F15A29"/>
<path d="M65.9262 82.1938V105.491L65.8643 105.532C54.1124 101.257 16.6262 87.612 5.52148 83.5707C9.59712 80.7481 23.8274 70.8964 27.6346 68.2596L65.9193 82.1938H65.9262Z" fill="url(#paint0_linear_457_1279)"/>
<path d="M22.0153 20.0693V66.0854C22.0153 66.0854 0.163815 81.2176 0.0605469 81.2864V36.5508C0.150046 35.3529 0.363466 34.1963 0.673269 33.0742C3.014 24.1174 12.6523 18.004 22.0153 20.0693Z" fill="url(#paint1_linear_457_1279)"/>
<path d="M25.1701 21.0263L55.6754 32.131C61.7476 35.1051 65.9265 41.3494 65.9265 48.5644V105.492L87.8812 90.2983V32.7162C87.6402 25.1432 82.8004 18.7338 76.0605 16.1865L75.6749 16.0488L65.9265 12.4964C65.9265 12.4964 36.4263 1.76343 36.3919 1.74966C24.4679 -2.69085 10.3133 2.43123 3.95892 13.3088C-0.736317 20.8473 0.0967101 28.0003 0.0622875 36.5509C0.151786 35.353 0.365206 34.1964 0.67501 33.0742C3.01575 24.1175 12.6541 18.004 22.017 20.0694C22.6642 20.2002 25.1701 21.0263 25.1701 21.0263Z" fill="#26CFD3"/>
<path d="M172.363 76.3312L166.938 82.3758L161.169 77.2262C159.11 78.6444 156.866 79.7528 154.443 80.5583C152.019 81.3569 149.382 81.7631 146.546 81.7631C142.835 81.7631 139.448 81.109 136.384 79.8079C133.314 78.4998 130.684 76.7305 128.488 74.4861C126.292 72.2418 124.577 69.6119 123.338 66.5896C122.099 63.5673 121.486 60.366 121.486 56.9788C121.486 53.5916 122.106 50.3903 123.338 47.368C124.571 44.3457 126.312 41.7021 128.557 39.4371C130.801 37.1721 133.452 35.3752 136.522 34.0465C139.586 32.7178 142.973 32.0569 146.684 32.0569C150.394 32.0569 153.775 32.7109 156.845 34.0121C159.909 35.3201 162.546 37.0894 164.742 39.3338C166.938 41.5781 168.652 44.208 169.891 47.2303C171.131 50.2526 171.743 53.4539 171.743 56.8411C171.743 59.588 171.316 62.2179 170.47 64.7377C169.623 67.2574 168.418 69.5706 166.862 71.6704L172.356 76.3381L172.363 76.3312ZM146.684 64.6619L152.109 58.4796L160.418 66.032C161.244 64.7514 161.857 63.3401 162.27 61.8117C162.683 60.2765 162.89 58.6655 162.89 56.9719C162.89 54.6381 162.491 52.4281 161.685 50.349C160.886 48.2699 159.764 46.4455 158.318 44.8896C156.88 43.3337 155.152 42.1014 153.134 41.1788C151.117 40.2632 148.921 39.8088 146.546 39.8088C144.164 39.8088 141.982 40.2563 139.992 41.1444C138.002 42.0325 136.295 43.2511 134.877 44.7863C133.459 46.3216 132.35 48.1253 131.545 50.2113C130.746 52.2973 130.34 54.5004 130.34 56.8342C130.34 59.1681 130.739 61.378 131.545 63.4571C132.343 65.5431 133.465 67.3607 134.911 68.9166C136.35 70.4725 138.078 71.7117 140.095 72.6273C142.105 73.543 144.309 73.9973 146.684 73.9973C148.288 73.9973 149.775 73.7908 151.145 73.3777C152.515 72.9647 153.775 72.3932 154.924 71.6635L146.684 64.6619Z" fill="white"/>
<path d="M188.437 80.9371H180.059V44.6832H188.437V52.8552C189.58 50.1082 191.205 47.9121 193.311 46.2667C195.418 44.6213 198.068 43.864 201.277 44.0017V52.7932H200.795C198.963 52.7932 197.291 53.0892 195.783 53.6882C194.275 54.2803 192.967 55.1752 191.872 56.3663C190.771 57.5573 189.924 59.0581 189.332 60.8619C188.74 62.6725 188.437 64.7654 188.437 67.1474V80.9509V80.9371Z" fill="white"/>
<path d="M208.334 44.683V80.9368H216.712V44.683H208.334Z" fill="white"/>
<path d="M216.989 31.2234H207.998V39.12H216.989V31.2234Z" fill="#F15A29"/>
<path d="M260.862 70.1562C259.877 72.4487 258.528 74.4452 256.814 76.1664C255.1 77.8806 253.048 79.2437 250.666 80.2489C248.284 81.254 245.702 81.7566 242.907 81.7566C240.16 81.7566 237.606 81.2609 235.252 80.2833C232.897 79.2988 230.859 77.9494 229.138 76.2352C227.424 74.521 226.081 72.5244 225.124 70.2594C224.161 67.9944 223.686 65.5573 223.686 62.9481C223.686 60.3388 224.174 57.8811 225.159 55.5679C226.143 53.2547 227.493 51.2444 229.207 49.5233C230.921 47.809 232.959 46.4459 235.32 45.4408C237.675 44.4356 240.25 43.933 243.045 43.933C245.833 43.933 248.408 44.4287 250.769 45.4063C253.124 46.3908 255.162 47.7402 256.883 49.4544C258.597 51.1687 259.939 53.1721 260.896 55.4646C261.86 57.7572 262.335 60.2012 262.335 62.8104C262.335 65.4196 261.84 67.8705 260.862 70.1562ZM253.144 58.4181C252.601 56.9999 251.836 55.7538 250.859 54.6729C249.881 53.5989 248.718 52.7521 247.375 52.1325C246.033 51.5129 244.546 51.2031 242.907 51.2031C241.269 51.2031 239.782 51.5129 238.439 52.1325C237.097 52.7521 235.947 53.5851 234.997 54.6385C234.04 55.6918 233.31 56.9172 232.814 58.3148C232.312 59.7124 232.064 61.2132 232.064 62.8104C232.064 64.4145 232.339 65.936 232.883 67.3748C233.427 68.8137 234.191 70.0667 235.169 71.12C236.147 72.1733 237.31 73.0064 238.652 73.626C239.995 74.2456 241.461 74.5554 243.052 74.5554C244.732 74.5554 246.246 74.2456 247.589 73.626C248.931 73.0064 250.081 72.1733 251.031 71.12C251.988 70.0667 252.718 68.8412 253.213 67.4437C253.716 66.0461 253.964 64.5522 253.964 62.9481C253.964 61.344 253.688 59.8363 253.144 58.4181Z" fill="white"/>
<path d="M294.824 79.8702C292.539 81.1301 289.626 81.7566 286.101 81.7566C283.403 81.7566 280.904 81.2609 278.618 80.2833C276.325 79.2988 274.343 77.9494 272.656 76.2352C270.969 74.521 269.654 72.5244 268.711 70.2594C267.768 67.9944 267.293 65.5573 267.293 62.9481C267.293 60.3388 267.768 57.888 268.711 55.6023C269.654 53.3166 270.976 51.2995 272.656 49.5577C274.343 47.8159 276.339 46.4459 278.652 45.4408C280.966 44.4356 283.472 43.933 286.17 43.933C289.606 43.933 292.456 44.5045 294.721 45.6473C296.986 46.7901 298.969 48.3047 300.662 50.1773L295.513 55.74C294.232 54.4113 292.869 53.3235 291.43 52.4767C289.991 51.6299 288.215 51.2031 286.108 51.2031C284.601 51.2031 283.203 51.5129 281.923 52.1325C280.642 52.7521 279.541 53.5851 278.625 54.6385C277.709 55.6918 276.986 56.9172 276.463 58.3148C275.933 59.7124 275.671 61.2132 275.671 62.8104C275.671 64.4076 275.933 65.991 276.463 67.4092C276.986 68.8275 277.737 70.0667 278.694 71.12C279.658 72.1733 280.8 73.0064 282.129 73.626C283.458 74.2456 284.917 74.5554 286.521 74.5554C288.49 74.5554 290.218 74.1354 291.705 73.2886C293.193 72.4418 294.597 71.3541 295.926 70.0254L300.938 74.9684C299.155 76.9856 297.117 78.6172 294.824 79.8771V79.8702Z" fill="white"/>
<path d="M306.955 80.9368V44.683H315.334V80.9368H306.955Z" fill="white"/>
<path d="M315.601 31.2234H306.609V39.12H315.601V31.2234Z" fill="#F15A29"/>
<path d="M336.303 69.5909C336.303 71.195 336.689 72.3585 337.474 73.0676C338.252 73.7767 339.353 74.1347 340.772 74.1347C342.555 74.1347 344.276 73.7216 345.921 72.8955V79.6905C344.868 80.2826 343.746 80.7438 342.555 81.0605C341.364 81.3772 339.994 81.5424 338.438 81.5424C336.882 81.5424 335.526 81.3565 334.231 80.9917C332.937 80.6268 331.822 80.0278 330.872 79.2017C329.928 78.3755 329.199 77.2878 328.689 75.9315C328.18 74.5822 327.925 72.8955 327.925 70.8714V51.7393H323.326V44.6689H327.925V34.7139H336.303V44.6689H346.052V51.7393H336.303V69.5771V69.5909Z" fill="white"/>
<path d="M372.573 81.9626C371.843 83.8421 371.086 85.4187 370.308 86.6992C369.53 87.9797 368.662 89.0193 367.699 89.8248C366.735 90.6234 365.682 91.2085 364.539 91.5734C363.396 91.9383 362.088 92.1242 360.628 92.1242C358.887 92.1242 357.344 91.9245 355.995 91.5321C354.646 91.1397 353.331 90.5958 352.05 89.9005L354.866 83.6769C355.644 84.09 356.436 84.4204 357.234 84.6751C358.033 84.923 358.873 85.0538 359.74 85.0538C360.931 85.0538 361.916 84.7578 362.694 84.1657C363.472 83.5736 364.201 82.4721 364.89 80.8749L349.785 44.683H358.646L368.945 71.5946L378.349 44.683H387.003L372.587 81.9626H372.573Z" fill="white"/>
<defs>
<linearGradient id="paint0_linear_457_1279" x1="80.0464" y1="99.5635" x2="25.1974" y2="78.9237" gradientUnits="userSpaceOnUse">
<stop stop-color="#0B5B6D"/>
<stop offset="0.31" stop-color="#178F9A"/>
<stop offset="0.66" stop-color="#26CFD3"/>
</linearGradient>
<linearGradient id="paint1_linear_457_1279" x1="11.0414" y1="29.7903" x2="11.0414" y2="96.9281" gradientUnits="userSpaceOnUse">
<stop stop-color="#0B5B6D"/>
<stop offset="0.5" stop-color="#26CFD3"/>
</linearGradient>
</defs>
</svg>
